%TF.GenerationSoftware,KiCad,Pcbnew,10.0.0*%
%TF.CreationDate,2026-04-16T11:27:20+08:00*%
%TF.ProjectId,minipower,6d696e69-706f-4776-9572-2e6b69636164,rev?*%
%TF.SameCoordinates,Original*%
%TF.FileFunction,Copper,L1,Top*%
%TF.FilePolarity,Positive*%
%FSLAX46Y46*%
G04 Gerber Fmt 4.6, Leading zero omitted, Abs format (unit mm)*
G04 Created by KiCad (PCBNEW 10.0.0) date 2026-04-16 11:27:20*
%MOMM*%
%LPD*%
G01*
G04 APERTURE LIST*
G04 Aperture macros list*
%AMRoundRect*
0 Rectangle with rounded corners*
0 $1 Rounding radius*
0 $2 $3 $4 $5 $6 $7 $8 $9 X,Y pos of 4 corners*
0 Add a 4 corners polygon primitive as box body*
4,1,4,$2,$3,$4,$5,$6,$7,$8,$9,$2,$3,0*
0 Add four circle primitives for the rounded corners*
1,1,$1+$1,$2,$3*
1,1,$1+$1,$4,$5*
1,1,$1+$1,$6,$7*
1,1,$1+$1,$8,$9*
0 Add four rect primitives between the rounded corners*
20,1,$1+$1,$2,$3,$4,$5,0*
20,1,$1+$1,$4,$5,$6,$7,0*
20,1,$1+$1,$6,$7,$8,$9,0*
20,1,$1+$1,$8,$9,$2,$3,0*%
G04 Aperture macros list end*
%TA.AperFunction,SMDPad,CuDef*%
%ADD10RoundRect,0.225000X-0.250000X0.225000X-0.250000X-0.225000X0.250000X-0.225000X0.250000X0.225000X0*%
%TD*%
%TA.AperFunction,SMDPad,CuDef*%
%ADD11RoundRect,0.250000X-0.650000X0.325000X-0.650000X-0.325000X0.650000X-0.325000X0.650000X0.325000X0*%
%TD*%
%TA.AperFunction,SMDPad,CuDef*%
%ADD12R,0.600000X1.200000*%
%TD*%
%TA.AperFunction,SMDPad,CuDef*%
%ADD13R,3.300000X2.400000*%
%TD*%
%TA.AperFunction,SMDPad,CuDef*%
%ADD14RoundRect,0.225000X0.250000X-0.225000X0.250000X0.225000X-0.250000X0.225000X-0.250000X-0.225000X0*%
%TD*%
%TA.AperFunction,SMDPad,CuDef*%
%ADD15RoundRect,0.250000X-0.425000X-0.650000X0.425000X-0.650000X0.425000X0.650000X-0.425000X0.650000X0*%
%TD*%
%TA.AperFunction,ComponentPad*%
%ADD16O,1.900000X1.100000*%
%TD*%
%TA.AperFunction,SMDPad,CuDef*%
%ADD17R,1.200000X0.700000*%
%TD*%
%TA.AperFunction,SMDPad,CuDef*%
%ADD18R,1.200000X0.800000*%
%TD*%
%TA.AperFunction,SMDPad,CuDef*%
%ADD19RoundRect,0.135000X-0.135000X-0.185000X0.135000X-0.185000X0.135000X0.185000X-0.135000X0.185000X0*%
%TD*%
%TA.AperFunction,SMDPad,CuDef*%
%ADD20RoundRect,0.225000X0.225000X0.250000X-0.225000X0.250000X-0.225000X-0.250000X0.225000X-0.250000X0*%
%TD*%
%TA.AperFunction,SMDPad,CuDef*%
%ADD21RoundRect,0.200000X-0.275000X0.200000X-0.275000X-0.200000X0.275000X-0.200000X0.275000X0.200000X0*%
%TD*%
%TA.AperFunction,SMDPad,CuDef*%
%ADD22RoundRect,0.135000X-0.185000X0.135000X-0.185000X-0.135000X0.185000X-0.135000X0.185000X0.135000X0*%
%TD*%
%TA.AperFunction,SMDPad,CuDef*%
%ADD23RoundRect,0.218750X-0.256250X0.218750X-0.256250X-0.218750X0.256250X-0.218750X0.256250X0.218750X0*%
%TD*%
%TA.AperFunction,SMDPad,CuDef*%
%ADD24RoundRect,0.218750X0.256250X-0.218750X0.256250X0.218750X-0.256250X0.218750X-0.256250X-0.218750X0*%
%TD*%
%TA.AperFunction,SMDPad,CuDef*%
%ADD25RoundRect,0.135000X0.135000X0.185000X-0.135000X0.185000X-0.135000X-0.185000X0.135000X-0.185000X0*%
%TD*%
%TA.AperFunction,ComponentPad*%
%ADD26O,1.500000X4.200000*%
%TD*%
%TA.AperFunction,SMDPad,CuDef*%
%ADD27R,2.000000X3.400000*%
%TD*%
%TA.AperFunction,SMDPad,CuDef*%
%ADD28RoundRect,0.135000X0.185000X-0.135000X0.185000X0.135000X-0.185000X0.135000X-0.185000X-0.135000X0*%
%TD*%
%TA.AperFunction,SMDPad,CuDef*%
%ADD29RoundRect,0.200000X0.200000X0.275000X-0.200000X0.275000X-0.200000X-0.275000X0.200000X-0.275000X0*%
%TD*%
%TA.AperFunction,ViaPad*%
%ADD30C,0.600000*%
%TD*%
%TA.AperFunction,Conductor*%
%ADD31C,0.500000*%
%TD*%
%TA.AperFunction,Conductor*%
%ADD32C,1.000000*%
%TD*%
%TA.AperFunction,Conductor*%
%ADD33C,0.200000*%
%TD*%
G04 APERTURE END LIST*
D10*
%TO.P,C6,1*%
%TO.N,Net-(C6-Pad1)*%
X105000000Y-72631000D03*
%TO.P,C6,2*%
%TO.N,GND*%
X105000000Y-74181000D03*
%TD*%
D11*
%TO.P,C5,1*%
%TO.N,/VOUT*%
X99500000Y-60025000D03*
%TO.P,C5,2*%
%TO.N,GND*%
X99500000Y-62975000D03*
%TD*%
D10*
%TO.P,C2,1*%
%TO.N,/BAT*%
X112056000Y-62225000D03*
%TO.P,C2,2*%
%TO.N,GND*%
X112056000Y-63775000D03*
%TD*%
D12*
%TO.P,U1,1,VIN*%
%TO.N,/VIN*%
X106595000Y-66908500D03*
%TO.P,U1,2,LED1*%
%TO.N,Net-(D1-A)*%
X107865000Y-66908500D03*
%TO.P,U1,3,LED2*%
%TO.N,Net-(D3-A)*%
X109135000Y-66908500D03*
%TO.P,U1,4,LED3*%
%TO.N,Net-(D1-K)*%
X110405000Y-66908500D03*
%TO.P,U1,5,KEY*%
%TO.N,Net-(U1-KEY)*%
X110405000Y-61091500D03*
%TO.P,U1,6,BAT*%
%TO.N,/BAT*%
X109135000Y-61091500D03*
%TO.P,U1,7,SW*%
%TO.N,/SW*%
X107865000Y-61091500D03*
%TO.P,U1,8,VOUT*%
%TO.N,/VOUT*%
X106595000Y-61091500D03*
D13*
%TO.P,U1,9,EP*%
%TO.N,GND*%
X108500000Y-64000000D03*
%TD*%
D14*
%TO.P,C1,1*%
%TO.N,/VIN*%
X104902000Y-68085000D03*
%TO.P,C1,2*%
%TO.N,GND*%
X104902000Y-66535000D03*
%TD*%
D15*
%TO.P,S1,1,A*%
%TO.N,GND*%
X106925000Y-73000000D03*
%TO.P,S1,2,B*%
%TO.N,Net-(S1-B)*%
X111075000Y-73000000D03*
%TD*%
D16*
%TO.P,U2,7,EH*%
%TO.N,GND*%
X102613000Y-65532000D03*
X98813000Y-65532000D03*
X102613000Y-74172000D03*
X98813000Y-74172000D03*
D17*
%TO.P,U2,A5,CC1*%
%TO.N,Net-(U2-CC1)*%
X102863000Y-69352000D03*
%TO.P,U2,A9,VBUS*%
%TO.N,/VIN*%
X102863000Y-71352000D03*
D18*
%TO.P,U2,A12,GND*%
%TO.N,GND*%
X102863000Y-72552000D03*
D17*
%TO.P,U2,B5,CC2*%
%TO.N,Net-(U2-CC2)*%
X102863000Y-70352000D03*
%TO.P,U2,B9,VBUS*%
%TO.N,/VIN*%
X102863000Y-68352000D03*
D18*
%TO.P,U2,B12,GND*%
%TO.N,GND*%
X102863000Y-67152000D03*
%TD*%
D19*
%TO.P,R6,1*%
%TO.N,Net-(U2-CC1)*%
X100990000Y-64262000D03*
%TO.P,R6,2*%
%TO.N,GND*%
X102010000Y-64262000D03*
%TD*%
D20*
%TO.P,C7,1*%
%TO.N,Net-(C7-Pad1)*%
X108775000Y-51750000D03*
%TO.P,C7,2*%
%TO.N,GND*%
X107225000Y-51750000D03*
%TD*%
D21*
%TO.P,R3,1*%
%TO.N,/VIN*%
X105000000Y-69533000D03*
%TO.P,R3,2*%
%TO.N,Net-(C6-Pad1)*%
X105000000Y-71183000D03*
%TD*%
D22*
%TO.P,R1,1*%
%TO.N,Net-(U1-KEY)*%
X112500000Y-72490000D03*
%TO.P,R1,2*%
%TO.N,Net-(S1-B)*%
X112500000Y-73510000D03*
%TD*%
D23*
%TO.P,D2,1,K*%
%TO.N,Net-(D1-A)*%
X108500000Y-68660500D03*
%TO.P,D2,2,A*%
%TO.N,Net-(D1-K)*%
X108500000Y-70235500D03*
%TD*%
D24*
%TO.P,D1,1,K*%
%TO.N,Net-(D1-K)*%
X106722000Y-70210000D03*
%TO.P,D1,2,A*%
%TO.N,Net-(D1-A)*%
X106722000Y-68635000D03*
%TD*%
D25*
%TO.P,R5,1*%
%TO.N,Net-(U2-CC2)*%
X100010000Y-64262000D03*
%TO.P,R5,2*%
%TO.N,GND*%
X98990000Y-64262000D03*
%TD*%
D22*
%TO.P,R7,1*%
%TO.N,Net-(U3-CC2)*%
X104500000Y-54490000D03*
%TO.P,R7,2*%
%TO.N,/VOUT*%
X104500000Y-55510000D03*
%TD*%
D26*
%TO.P,U6,1,1*%
%TO.N,/BAT*%
X115000000Y-62000000D03*
%TO.P,U6,2,2*%
%TO.N,GND*%
X195000000Y-62000000D03*
%TD*%
D23*
%TO.P,D4,1,K*%
%TO.N,Net-(D3-A)*%
X111548000Y-68660500D03*
%TO.P,D4,2,A*%
%TO.N,Net-(D1-K)*%
X111548000Y-70235500D03*
%TD*%
D27*
%TO.P,L2,1,1*%
%TO.N,/SW*%
X106199898Y-56250000D03*
%TO.P,L2,2,2*%
%TO.N,/BAT*%
X111800102Y-56250000D03*
%TD*%
D11*
%TO.P,C4,1*%
%TO.N,/VOUT*%
X102000000Y-60025000D03*
%TO.P,C4,2*%
%TO.N,GND*%
X102000000Y-62975000D03*
%TD*%
D24*
%TO.P,D3,1,K*%
%TO.N,Net-(D1-K)*%
X110024000Y-70235500D03*
%TO.P,D3,2,A*%
%TO.N,Net-(D3-A)*%
X110024000Y-68660500D03*
%TD*%
D28*
%TO.P,R8,1*%
%TO.N,Net-(U3-CC1)*%
X104500000Y-53510000D03*
%TO.P,R8,2*%
%TO.N,/VOUT*%
X104500000Y-52490000D03*
%TD*%
D29*
%TO.P,R4,1*%
%TO.N,/BAT*%
X112325000Y-51750000D03*
%TO.P,R4,2*%
%TO.N,Net-(C7-Pad1)*%
X110675000Y-51750000D03*
%TD*%
D16*
%TO.P,U3,7,EH*%
%TO.N,GND*%
X102606000Y-49680000D03*
X98806000Y-49680000D03*
X102606000Y-58320000D03*
X98806000Y-58320000D03*
D17*
%TO.P,U3,A5,CC1*%
%TO.N,Net-(U3-CC1)*%
X102856000Y-53500000D03*
%TO.P,U3,A9,VBUS*%
%TO.N,/VOUT*%
X102856000Y-55500000D03*
D18*
%TO.P,U3,A12,GND*%
%TO.N,GND*%
X102856000Y-56700000D03*
D17*
%TO.P,U3,B5,CC2*%
%TO.N,Net-(U3-CC2)*%
X102856000Y-54500000D03*
%TO.P,U3,B9,VBUS*%
%TO.N,/VOUT*%
X102856000Y-52500000D03*
D18*
%TO.P,U3,B12,GND*%
%TO.N,GND*%
X102856000Y-51300000D03*
%TD*%
D11*
%TO.P,C3,1*%
%TO.N,/VOUT*%
X104500000Y-60750000D03*
%TO.P,C3,2*%
%TO.N,GND*%
X104500000Y-63700000D03*
%TD*%
D30*
%TO.N,GND*%
X99000000Y-62500000D03*
X104000000Y-64000000D03*
X104000000Y-65000000D03*
X102856000Y-56546000D03*
X103000000Y-64000000D03*
X108000000Y-53000000D03*
X107500000Y-65000000D03*
X110000000Y-64500000D03*
X106000000Y-52000000D03*
X106000000Y-64000000D03*
X107000000Y-63500000D03*
X102863000Y-72552000D03*
X104500000Y-51000000D03*
X100000000Y-62500000D03*
X99500000Y-62975000D03*
X114000000Y-67000000D03*
X104000000Y-57500000D03*
X114000000Y-70000000D03*
X105000000Y-63000000D03*
X114000000Y-74000000D03*
X108000000Y-64500000D03*
X109500000Y-64000000D03*
X102000000Y-62975000D03*
X102500000Y-63500000D03*
X107500000Y-64000000D03*
X109500000Y-63000000D03*
X113000000Y-66500000D03*
X112000000Y-65000000D03*
X104000000Y-63000000D03*
X113000000Y-64500000D03*
X106000000Y-65000000D03*
X107500000Y-63000000D03*
X113000000Y-65500000D03*
X109000000Y-64500000D03*
X104500000Y-57000000D03*
X110000000Y-63500000D03*
X114000000Y-68000000D03*
X108000000Y-51000000D03*
X104000000Y-56500000D03*
X109500000Y-65000000D03*
X108500000Y-63000000D03*
X114000000Y-71000000D03*
X114000000Y-66000000D03*
X101500000Y-51000000D03*
X105000000Y-65000000D03*
X104000000Y-58500000D03*
X112000000Y-66000000D03*
X101500000Y-62500000D03*
X105500000Y-51000000D03*
X106500000Y-51000000D03*
X108500000Y-65000000D03*
X102500000Y-62500000D03*
X107225000Y-51750000D03*
X104500000Y-58000000D03*
X106500000Y-53000000D03*
X104902000Y-66535000D03*
X112056000Y-63775000D03*
X108500000Y-64000000D03*
X107000000Y-64500000D03*
X102863000Y-67152000D03*
X109000000Y-63500000D03*
X114000000Y-65000000D03*
X108000000Y-63500000D03*
X114000000Y-73000000D03*
X114000000Y-69000000D03*
X105000000Y-64000000D03*
X114000000Y-72000000D03*
X102856000Y-51146000D03*
X105500000Y-53000000D03*
X99000000Y-63500000D03*
X101500000Y-63500000D03*
X104500000Y-63500000D03*
%TD*%
%TO.N,/VIN*%
D31*
X103914000Y-70619000D02*
X103914000Y-71153000D01*
X105000000Y-69533000D02*
X105000000Y-68183000D01*
X103715000Y-71352000D02*
X102863000Y-71352000D01*
D32*
X106595000Y-66908500D02*
X105418500Y-68085000D01*
D31*
X104267000Y-68326000D02*
X102889000Y-68326000D01*
X105000000Y-68183000D02*
X104902000Y-68085000D01*
D32*
X105418500Y-68085000D02*
X104902000Y-68085000D01*
D31*
X105000000Y-69533000D02*
X103914000Y-70619000D01*
X102889000Y-68326000D02*
X102863000Y-68352000D01*
X104902000Y-69435000D02*
X105000000Y-69533000D01*
X104902000Y-68085000D02*
X104508000Y-68085000D01*
X104508000Y-68085000D02*
X104267000Y-68326000D01*
X103914000Y-71153000D02*
X103715000Y-71352000D01*
%TO.N,/BAT*%
D32*
X112325000Y-51750000D02*
X112325000Y-56042602D01*
X112325000Y-56042602D02*
X111800102Y-56567500D01*
%TO.N,/VOUT*%
D33*
X104500000Y-55510000D02*
X103020000Y-55510000D01*
X103020000Y-55510000D02*
X102856000Y-55346000D01*
X104500000Y-52490000D02*
X103000000Y-52490000D01*
X103000000Y-52490000D02*
X102856000Y-52346000D01*
%TO.N,Net-(C6-Pad1)*%
D31*
X105000000Y-71183000D02*
X105000000Y-72631000D01*
%TO.N,Net-(C7-Pad1)*%
D32*
X110675000Y-51750000D02*
X108775000Y-51750000D01*
%TO.N,Net-(D1-A)*%
D31*
X107865000Y-68025500D02*
X108500000Y-68660500D01*
X108474500Y-68635000D02*
X108500000Y-68660500D01*
X107865000Y-68025500D02*
X107865000Y-66908500D01*
X106722000Y-68635000D02*
X108474500Y-68635000D01*
%TO.N,Net-(D1-K)*%
X112474000Y-68158268D02*
X112474000Y-69309500D01*
X112474000Y-69309500D02*
X111548000Y-70235500D01*
X106722000Y-70210000D02*
X111522500Y-70210000D01*
X110405000Y-66908500D02*
X111224232Y-66908500D01*
X111224232Y-66908500D02*
X112474000Y-68158268D01*
%TO.N,Net-(D3-A)*%
X110587000Y-68660500D02*
X111548000Y-68660500D01*
X109135000Y-67208500D02*
X110587000Y-68660500D01*
%TO.N,Net-(S1-B)*%
D33*
X111075000Y-73000000D02*
X111990000Y-73000000D01*
X111990000Y-73000000D02*
X112500000Y-73510000D01*
%TO.N,Net-(U1-KEY)*%
X111000000Y-65905036D02*
X113025000Y-67930036D01*
X113025000Y-71965000D02*
X112500000Y-72490000D01*
X110405000Y-61091500D02*
X111000000Y-61686500D01*
X111000000Y-61686500D02*
X111000000Y-65905036D01*
X113025000Y-67930036D02*
X113025000Y-71965000D01*
%TO.N,Net-(U2-CC2)*%
X100589000Y-64841000D02*
X100010000Y-64262000D01*
X100589000Y-68589000D02*
X100589000Y-64841000D01*
X102352000Y-70352000D02*
X100589000Y-68589000D01*
X102863000Y-70352000D02*
X102352000Y-70352000D01*
%TO.N,Net-(U2-CC1)*%
X100990000Y-64262000D02*
X100990000Y-68279000D01*
X102063000Y-69352000D02*
X102863000Y-69352000D01*
X100990000Y-68279000D02*
X102063000Y-69352000D01*
%TO.N,Net-(U3-CC2)*%
X102856000Y-54346000D02*
X104356000Y-54346000D01*
X104356000Y-54346000D02*
X104500000Y-54490000D01*
X102862000Y-54352000D02*
X102856000Y-54346000D01*
%TO.N,Net-(U3-CC1)*%
X104500000Y-53510000D02*
X103020000Y-53510000D01*
X103020000Y-53510000D02*
X102856000Y-53346000D01*
%TD*%
%TA.AperFunction,Conductor*%
%TO.N,/VOUT*%
G36*
X102893106Y-52005023D02*
G01*
X102908104Y-52009427D01*
X102966855Y-52047172D01*
X102968042Y-52048541D01*
X102987907Y-52092004D01*
X102991363Y-52090908D01*
X102994195Y-52099835D01*
X102995582Y-52108794D01*
X102997087Y-52112087D01*
X102996608Y-52115423D01*
X103000000Y-52137331D01*
X103000000Y-52757670D01*
X102994975Y-52792614D01*
X102990570Y-52807612D01*
X102952827Y-52866355D01*
X102951458Y-52867542D01*
X102896597Y-52895018D01*
X102889039Y-52896663D01*
X102862668Y-52899500D01*
X102231323Y-52899500D01*
X102216792Y-52902390D01*
X102158265Y-52914031D01*
X102158259Y-52914034D01*
X102101269Y-52952113D01*
X102091808Y-52957841D01*
X102041441Y-52985344D01*
X102007640Y-52995928D01*
X102000791Y-52999208D01*
X102000000Y-53000000D01*
X102000000Y-55000000D01*
X102002729Y-55002729D01*
X102039764Y-55013604D01*
X102073693Y-55029461D01*
X102075379Y-55030587D01*
X102075393Y-55030604D01*
X102075397Y-55030600D01*
X102075403Y-55030604D01*
X102148117Y-55079188D01*
X102152851Y-55083074D01*
X102152884Y-55083092D01*
X102157392Y-55085793D01*
X102158259Y-55085965D01*
X102158260Y-55085966D01*
X102158262Y-55085966D01*
X102158263Y-55085966D01*
X102158264Y-55085967D01*
X102223696Y-55098982D01*
X102226420Y-55099704D01*
X102231323Y-55100500D01*
X102231324Y-55100500D01*
X102858170Y-55100500D01*
X102893106Y-55105523D01*
X102908104Y-55109927D01*
X102966855Y-55147672D01*
X102968042Y-55149041D01*
X102995518Y-55203902D01*
X102997163Y-55211460D01*
X103000000Y-55237831D01*
X103000000Y-55853670D01*
X102994975Y-55888614D01*
X102990570Y-55903612D01*
X102952794Y-55962384D01*
X102950533Y-55964343D01*
X102897897Y-55991292D01*
X102894209Y-55992165D01*
X102865646Y-55995500D01*
X102783525Y-55995500D01*
X102783523Y-55995500D01*
X102778762Y-55996127D01*
X102760705Y-55999085D01*
X102750073Y-55999755D01*
X102749160Y-55999548D01*
X102742274Y-56000000D01*
X102000000Y-56000000D01*
X102000000Y-57438189D01*
X101994975Y-57473133D01*
X101990570Y-57488131D01*
X101952802Y-57546896D01*
X101942511Y-57555814D01*
X101908756Y-57576666D01*
X101826840Y-57610596D01*
X101826822Y-57610604D01*
X101826807Y-57610613D01*
X101695708Y-57698211D01*
X101695707Y-57698212D01*
X101695701Y-57698217D01*
X101584217Y-57809701D01*
X101584212Y-57809707D01*
X101584211Y-57809708D01*
X101496613Y-57940807D01*
X101496603Y-57940824D01*
X101496598Y-57940833D01*
X101436264Y-58086496D01*
X101436257Y-58086527D01*
X101405500Y-58241150D01*
X101405500Y-58241153D01*
X101405500Y-58398846D01*
X101405500Y-58398848D01*
X101405499Y-58398848D01*
X101436257Y-58553471D01*
X101436264Y-58553502D01*
X101496598Y-58699165D01*
X101496603Y-58699174D01*
X101496613Y-58699191D01*
X101584211Y-58830290D01*
X101584212Y-58830291D01*
X101584217Y-58830297D01*
X101695701Y-58941781D01*
X101695707Y-58941786D01*
X101695711Y-58941789D01*
X101826814Y-59029390D01*
X101826827Y-59029397D01*
X101972498Y-59089735D01*
X101972503Y-59089737D01*
X102119513Y-59118979D01*
X102122247Y-59119703D01*
X102127155Y-59120500D01*
X102127156Y-59120500D01*
X102374420Y-59120500D01*
X102392419Y-59121813D01*
X102410153Y-59124416D01*
X102427760Y-59128328D01*
X106242893Y-60272867D01*
X106253291Y-60276497D01*
X106735438Y-60469357D01*
X106782010Y-60483021D01*
X106828062Y-60491890D01*
X106853988Y-60494363D01*
X106865215Y-60495435D01*
X106922324Y-60515769D01*
X106932028Y-60522253D01*
X106939737Y-60527845D01*
X106952623Y-60537972D01*
X106993168Y-60594873D01*
X107000000Y-60635465D01*
X107000000Y-61841705D01*
X106994975Y-61876648D01*
X106990956Y-61890332D01*
X106953177Y-61949107D01*
X106890757Y-61977959D01*
X106877662Y-61979965D01*
X106843506Y-61980437D01*
X103000008Y-61500000D01*
X103000002Y-61500000D01*
X103000000Y-61500000D01*
X102999996Y-61500000D01*
X96280330Y-61500000D01*
X96245389Y-61494975D01*
X96230390Y-61490570D01*
X96171644Y-61452827D01*
X96170457Y-61451458D01*
X96142977Y-61396583D01*
X96141332Y-61389021D01*
X96138500Y-61362668D01*
X96138500Y-59609980D01*
X96143523Y-59575044D01*
X96147927Y-59560046D01*
X96185699Y-59501271D01*
X96190150Y-59497414D01*
X96237441Y-59471853D01*
X96237967Y-59471704D01*
X96256478Y-59467939D01*
X99024532Y-59121933D01*
X99032156Y-59121219D01*
X99039882Y-59120738D01*
X99047572Y-59120500D01*
X99288964Y-59120500D01*
X99296814Y-59118118D01*
X99439497Y-59089737D01*
X99484378Y-59071145D01*
X99500106Y-59065834D01*
X99516076Y-59061611D01*
X99532362Y-59058454D01*
X100000000Y-59000000D01*
X100000000Y-58431519D01*
X100006500Y-58398842D01*
X100006500Y-58241158D01*
X100000000Y-58208480D01*
X100000000Y-52141829D01*
X100005023Y-52106893D01*
X100009427Y-52091895D01*
X100047172Y-52033144D01*
X100048541Y-52031957D01*
X100103420Y-52004477D01*
X100110979Y-52002833D01*
X100137332Y-52000000D01*
X102858170Y-52000000D01*
X102893106Y-52005023D01*
G37*
%TD.AperFunction*%
%TD*%
%TA.AperFunction,Conductor*%
%TO.N,/BAT*%
G36*
X112979560Y-54505023D02*
G01*
X113011424Y-54514379D01*
X113045273Y-54530182D01*
X115929949Y-56453299D01*
X115956229Y-56476855D01*
X115969678Y-56492913D01*
X115995997Y-56547186D01*
X115997382Y-56553819D01*
X116000000Y-56579164D01*
X116000000Y-63858170D01*
X115994975Y-63893114D01*
X115990570Y-63908112D01*
X115952827Y-63966855D01*
X115951458Y-63968042D01*
X115896597Y-63995518D01*
X115889039Y-63997163D01*
X115862668Y-64000000D01*
X114055374Y-64000000D01*
X114020438Y-63994977D01*
X113988572Y-63985620D01*
X113954726Y-63969817D01*
X111420551Y-62280366D01*
X111394271Y-62256810D01*
X111380821Y-62240751D01*
X111354500Y-62186465D01*
X111353113Y-62179822D01*
X111350500Y-62154500D01*
X111350500Y-61640358D01*
X111350500Y-61640356D01*
X111326614Y-61551212D01*
X111280470Y-61471288D01*
X111048926Y-61239744D01*
X111027774Y-61211488D01*
X111015167Y-61188399D01*
X111000000Y-61128974D01*
X111000000Y-60500000D01*
X110991893Y-60491893D01*
X110970743Y-60463640D01*
X110954856Y-60434546D01*
X110942068Y-60399300D01*
X110940970Y-60393779D01*
X110940967Y-60393766D01*
X110940967Y-60393764D01*
X110940966Y-60393760D01*
X110940964Y-60393758D01*
X110940964Y-60393756D01*
X110885601Y-60310899D01*
X110812891Y-60262316D01*
X110808826Y-60258980D01*
X110802739Y-60255533D01*
X110802735Y-60255532D01*
X110802709Y-60255526D01*
X110729680Y-60241000D01*
X110729677Y-60241000D01*
X110729674Y-60241000D01*
X110080326Y-60241000D01*
X110080323Y-60241000D01*
X110080319Y-60241000D01*
X110007285Y-60255527D01*
X110007262Y-60255532D01*
X110007258Y-60255533D01*
X109924399Y-60310899D01*
X109869033Y-60393758D01*
X109869032Y-60393766D01*
X109869028Y-60393781D01*
X109854500Y-60466818D01*
X109854500Y-61412876D01*
X109849476Y-61447814D01*
X109840119Y-61479678D01*
X109824317Y-61513523D01*
X109546700Y-61929948D01*
X109523144Y-61956228D01*
X109507085Y-61969678D01*
X109452812Y-61995997D01*
X109449507Y-61996686D01*
X109446177Y-61997382D01*
X109420834Y-62000000D01*
X108641830Y-62000000D01*
X108606889Y-61994975D01*
X108591890Y-61990570D01*
X108533144Y-61952827D01*
X108531957Y-61951458D01*
X108504477Y-61896583D01*
X108502832Y-61889021D01*
X108500000Y-61862668D01*
X108500000Y-61807971D01*
X108519685Y-61740932D01*
X108562642Y-61700216D01*
X108594821Y-61681892D01*
X108594821Y-61681891D01*
X108594828Y-61681888D01*
X108647632Y-61636133D01*
X108679257Y-61603359D01*
X108725465Y-61515024D01*
X108745150Y-61447985D01*
X108755500Y-61376000D01*
X108755500Y-54624000D01*
X108775185Y-54556961D01*
X108827989Y-54511206D01*
X108879500Y-54500000D01*
X112944626Y-54500000D01*
X112979560Y-54505023D01*
G37*
%TD.AperFunction*%
%TD*%
%TA.AperFunction,Conductor*%
%TO.N,/SW*%
G36*
X108443039Y-54519685D02*
G01*
X108488794Y-54572489D01*
X108500000Y-54624000D01*
X108500000Y-61376000D01*
X108480315Y-61443039D01*
X108427511Y-61488794D01*
X108376000Y-61500000D01*
X107624000Y-61500000D01*
X107556961Y-61480315D01*
X107511206Y-61427511D01*
X107500000Y-61376000D01*
X107500000Y-60499999D01*
X107128931Y-60351572D01*
X107085966Y-60317805D01*
X107084237Y-60319535D01*
X107075603Y-60310901D01*
X107075601Y-60310900D01*
X107075601Y-60310899D01*
X106992740Y-60255534D01*
X106992739Y-60255533D01*
X106992735Y-60255532D01*
X106919677Y-60241000D01*
X106919674Y-60241000D01*
X106876380Y-60241000D01*
X106830328Y-60232131D01*
X105077948Y-59531179D01*
X105023014Y-59488005D01*
X105000142Y-59421984D01*
X105000000Y-59416048D01*
X105000000Y-58268199D01*
X105012621Y-58221131D01*
X105009874Y-58219993D01*
X105012979Y-58212492D01*
X105012984Y-58212485D01*
X105050500Y-58072475D01*
X105050500Y-57927525D01*
X105012984Y-57787515D01*
X105012983Y-57787513D01*
X105009873Y-57780005D01*
X105012605Y-57778873D01*
X105000000Y-57731800D01*
X105000000Y-57268199D01*
X105012621Y-57221131D01*
X105009874Y-57219993D01*
X105012979Y-57212492D01*
X105012984Y-57212485D01*
X105050500Y-57072475D01*
X105050500Y-56927525D01*
X105012984Y-56787515D01*
X105012983Y-56787513D01*
X105009873Y-56780005D01*
X105012605Y-56778873D01*
X105000000Y-56731800D01*
X105000000Y-55907082D01*
X105012600Y-55852621D01*
X105059581Y-55756520D01*
X105059580Y-55756520D01*
X105059582Y-55756518D01*
X105070500Y-55681582D01*
X105070500Y-55338418D01*
X105059582Y-55263482D01*
X105012599Y-55167377D01*
X105000000Y-55112917D01*
X105000000Y-54887082D01*
X105012600Y-54832621D01*
X105059581Y-54736520D01*
X105059580Y-54736520D01*
X105059582Y-54736518D01*
X105070500Y-54661582D01*
X105070500Y-54624000D01*
X105090185Y-54556961D01*
X105142989Y-54511206D01*
X105194500Y-54500000D01*
X108376000Y-54500000D01*
X108443039Y-54519685D01*
G37*
%TD.AperFunction*%
%TD*%
%TA.AperFunction,Conductor*%
%TO.N,GND*%
G36*
X115271162Y-49093521D02*
G01*
X115282015Y-49096707D01*
X115340796Y-49134477D01*
X115369825Y-49198031D01*
X115359886Y-49267190D01*
X115359885Y-49267192D01*
X115358032Y-49271250D01*
X115326823Y-49307269D01*
X115328511Y-49309207D01*
X115314807Y-49321138D01*
X115312279Y-49324056D01*
X115311036Y-49324420D01*
X115277691Y-49353453D01*
X115274939Y-49355780D01*
X115258149Y-49369560D01*
X115119556Y-49508153D01*
X115056689Y-49584756D01*
X115056686Y-49584760D01*
X115056666Y-49584789D01*
X114947774Y-49747756D01*
X114947772Y-49747759D01*
X114947759Y-49747782D01*
X114901061Y-49835150D01*
X114901057Y-49835157D01*
X114826040Y-50016261D01*
X114797093Y-50111689D01*
X114796675Y-50114098D01*
X114759026Y-50303368D01*
X114759026Y-50303370D01*
X114749315Y-50401986D01*
X114749315Y-50598012D01*
X114759026Y-50696627D01*
X114796675Y-50885899D01*
X114797094Y-50888313D01*
X114826040Y-50983737D01*
X114901057Y-51164841D01*
X114901061Y-51164848D01*
X114940824Y-51239242D01*
X114947765Y-51252227D01*
X114947769Y-51252234D01*
X114947772Y-51252239D01*
X114947776Y-51252245D01*
X114947781Y-51252253D01*
X115056677Y-51415226D01*
X115056685Y-51415238D01*
X115089843Y-51455641D01*
X115089848Y-51455646D01*
X115119556Y-51491845D01*
X115258152Y-51630441D01*
X115258219Y-51630501D01*
X115258655Y-51630854D01*
X115334765Y-51693317D01*
X115497761Y-51802228D01*
X115497770Y-51802233D01*
X115497772Y-51802234D01*
X115510231Y-51808893D01*
X115585157Y-51848942D01*
X115675713Y-51886451D01*
X115707215Y-51899500D01*
X115721782Y-51905534D01*
X115762207Y-51922279D01*
X115763310Y-51922782D01*
X115765463Y-51923640D01*
X115766209Y-51923943D01*
X115769167Y-51924841D01*
X115769189Y-51924846D01*
X115861096Y-51952727D01*
X116053364Y-51990972D01*
X116151983Y-52000685D01*
X116151985Y-52000685D01*
X116348015Y-52000685D01*
X116348017Y-52000685D01*
X116446636Y-51990972D01*
X116638904Y-51952727D01*
X116733731Y-51923961D01*
X116733775Y-51923943D01*
X116746996Y-51918466D01*
X116914843Y-51848942D01*
X117002239Y-51802228D01*
X117165235Y-51693317D01*
X117241835Y-51630452D01*
X117380452Y-51491835D01*
X117443317Y-51415235D01*
X117552228Y-51252239D01*
X117598942Y-51164843D01*
X117673961Y-50983731D01*
X117702727Y-50888904D01*
X117740972Y-50696636D01*
X117750685Y-50598017D01*
X117750685Y-50401983D01*
X117740972Y-50303364D01*
X117702727Y-50111096D01*
X117673961Y-50016269D01*
X117598942Y-49835157D01*
X117552228Y-49747761D01*
X117443317Y-49584765D01*
X117380452Y-49508165D01*
X117380451Y-49508164D01*
X117380447Y-49508159D01*
X117380441Y-49508153D01*
X117380439Y-49508150D01*
X117241844Y-49369555D01*
X117181048Y-49319660D01*
X117157233Y-49293620D01*
X117150866Y-49284272D01*
X117129393Y-49217787D01*
X117147273Y-49150244D01*
X117198828Y-49103091D01*
X117199233Y-49102893D01*
X117202863Y-49101118D01*
X117257360Y-49088500D01*
X196303670Y-49088500D01*
X196338606Y-49093523D01*
X196353604Y-49097927D01*
X196412355Y-49135672D01*
X196413542Y-49137041D01*
X196441018Y-49191902D01*
X196442663Y-49199460D01*
X196445500Y-49225831D01*
X196445500Y-74857670D01*
X196440475Y-74892614D01*
X196436070Y-74907612D01*
X196398327Y-74966355D01*
X196396958Y-74967542D01*
X196342097Y-74995018D01*
X196334539Y-74996663D01*
X196308168Y-74999500D01*
X96280330Y-74999500D01*
X96245389Y-74994475D01*
X96230390Y-74990070D01*
X96171644Y-74952327D01*
X96170457Y-74950958D01*
X96142977Y-74896083D01*
X96141332Y-74888521D01*
X96138500Y-74862168D01*
X96138500Y-61878541D01*
X96158185Y-61811502D01*
X96210989Y-61765747D01*
X96271349Y-61754857D01*
X96280330Y-61755500D01*
X102976385Y-61755500D01*
X102991765Y-61756458D01*
X106811788Y-62233961D01*
X106811792Y-62233961D01*
X106811815Y-62233964D01*
X106847036Y-62235913D01*
X106881192Y-62235441D01*
X106916350Y-62232519D01*
X106929445Y-62230513D01*
X106997957Y-62209882D01*
X106997960Y-62209880D01*
X106997962Y-62209880D01*
X107029167Y-62195456D01*
X107060377Y-62181030D01*
X107098878Y-62158992D01*
X107168106Y-62087258D01*
X107205885Y-62028483D01*
X107236102Y-61962331D01*
X107236104Y-61962321D01*
X107237655Y-61958170D01*
X107239633Y-61958908D01*
X107272632Y-61907358D01*
X107336135Y-61878218D01*
X107405312Y-61888037D01*
X107422783Y-61897748D01*
X107422883Y-61897815D01*
X107422969Y-61897917D01*
X107422990Y-61897886D01*
X107467258Y-61927465D01*
X107467260Y-61927466D01*
X107467264Y-61927467D01*
X107467280Y-61927470D01*
X107467288Y-61927472D01*
X107512021Y-61936369D01*
X107532681Y-61940479D01*
X107535415Y-61941203D01*
X107540323Y-61942000D01*
X108164891Y-61942000D01*
X108231930Y-61961685D01*
X108275766Y-62010477D01*
X108303498Y-62065857D01*
X108303504Y-62065866D01*
X108338912Y-62118831D01*
X108338914Y-62118834D01*
X108338916Y-62118836D01*
X108340103Y-62120205D01*
X108395038Y-62167785D01*
X108453784Y-62205528D01*
X108508495Y-62230511D01*
X108519892Y-62235715D01*
X108519893Y-62235715D01*
X108519894Y-62235716D01*
X108534893Y-62240121D01*
X108534900Y-62240122D01*
X108534902Y-62240123D01*
X108570504Y-62247870D01*
X108570519Y-62247873D01*
X108605460Y-62252898D01*
X108641830Y-62255500D01*
X109420833Y-62255500D01*
X109420834Y-62255500D01*
X109447088Y-62254148D01*
X109472431Y-62251530D01*
X109498449Y-62247478D01*
X109501126Y-62246917D01*
X109501650Y-62246808D01*
X109501651Y-62246809D01*
X109504956Y-62246120D01*
X109564296Y-62225891D01*
X109618569Y-62199572D01*
X109671138Y-62165553D01*
X109687197Y-62152103D01*
X109713401Y-62126764D01*
X109736957Y-62100484D01*
X109759289Y-62071674D01*
X109833365Y-61960559D01*
X109886927Y-61915700D01*
X109956243Y-61906920D01*
X109971354Y-61910332D01*
X109989610Y-61915673D01*
X110007260Y-61927466D01*
X110007264Y-61927467D01*
X110078057Y-61941548D01*
X110078701Y-61941737D01*
X110080323Y-61942000D01*
X110080324Y-61942000D01*
X110080326Y-61942000D01*
X110507670Y-61942000D01*
X110542606Y-61947023D01*
X110557604Y-61951427D01*
X110616355Y-61989172D01*
X110617542Y-61990541D01*
X110645018Y-62045402D01*
X110646663Y-62052960D01*
X110649500Y-62079331D01*
X110649500Y-65916170D01*
X110644475Y-65951114D01*
X110640070Y-65966112D01*
X110602327Y-66024855D01*
X110600958Y-66026042D01*
X110546097Y-66053518D01*
X110538539Y-66055163D01*
X110512168Y-66058000D01*
X110080319Y-66058000D01*
X110007285Y-66072527D01*
X110007262Y-66072532D01*
X110007258Y-66072533D01*
X109924398Y-66127898D01*
X109924396Y-66127901D01*
X109883006Y-66189847D01*
X109859426Y-66216100D01*
X109848777Y-66224999D01*
X109784716Y-66252888D01*
X109715746Y-66241716D01*
X109711013Y-66239451D01*
X109661430Y-66196487D01*
X109615601Y-66127899D01*
X109587855Y-66109360D01*
X109532740Y-66072533D01*
X109532737Y-66072532D01*
X109532735Y-66072532D01*
X109532725Y-66072530D01*
X109532709Y-66072526D01*
X109459680Y-66058000D01*
X109459677Y-66058000D01*
X109459674Y-66058000D01*
X108810326Y-66058000D01*
X108810323Y-66058000D01*
X108810319Y-66058000D01*
X108737285Y-66072527D01*
X108737262Y-66072532D01*
X108737258Y-66072533D01*
X108654398Y-66127898D01*
X108654396Y-66127901D01*
X108613006Y-66189847D01*
X108589426Y-66216100D01*
X108578777Y-66224999D01*
X108514716Y-66252888D01*
X108445746Y-66241716D01*
X108441013Y-66239451D01*
X108391430Y-66196487D01*
X108345601Y-66127899D01*
X108317855Y-66109360D01*
X108262740Y-66072533D01*
X108262737Y-66072532D01*
X108262735Y-66072532D01*
X108262725Y-66072530D01*
X108262709Y-66072526D01*
X108189680Y-66058000D01*
X108189677Y-66058000D01*
X108189674Y-66058000D01*
X107540326Y-66058000D01*
X107540323Y-66058000D01*
X107540319Y-66058000D01*
X107467285Y-66072527D01*
X107467262Y-66072532D01*
X107467258Y-66072533D01*
X107384398Y-66127898D01*
X107384396Y-66127901D01*
X107343006Y-66189847D01*
X107319426Y-66216100D01*
X107308777Y-66224999D01*
X107244716Y-66252888D01*
X107175746Y-66241716D01*
X107171013Y-66239451D01*
X107121430Y-66196487D01*
X107075601Y-66127899D01*
X107047855Y-66109360D01*
X106992740Y-66072533D01*
X106992737Y-66072532D01*
X106992735Y-66072532D01*
X106992725Y-66072530D01*
X106992709Y-66072526D01*
X106919680Y-66058000D01*
X106919677Y-66058000D01*
X106919674Y-66058000D01*
X106270326Y-66058000D01*
X106270323Y-66058000D01*
X106270319Y-66058000D01*
X106197285Y-66072527D01*
X106197262Y-66072532D01*
X106197258Y-66072533D01*
X106114399Y-66127899D01*
X106059033Y-66210758D01*
X106059032Y-66210766D01*
X106059028Y-66210781D01*
X106044500Y-66283818D01*
X106044500Y-66328440D01*
X106039476Y-66363377D01*
X106032064Y-66388618D01*
X106000769Y-66441362D01*
X105156558Y-67285573D01*
X105128307Y-67306722D01*
X105105219Y-67319330D01*
X105045789Y-67334500D01*
X104828077Y-67334500D01*
X104683100Y-67363337D01*
X104683095Y-67363339D01*
X104683089Y-67363340D01*
X104683088Y-67363341D01*
X104683085Y-67363342D01*
X104683083Y-67363342D01*
X104683073Y-67363346D01*
X104666060Y-67370393D01*
X104642815Y-67377445D01*
X104621126Y-67381761D01*
X104596926Y-67384146D01*
X104584234Y-67384146D01*
X104580842Y-67386123D01*
X104564367Y-67389029D01*
X104549887Y-67390585D01*
X104549884Y-67390586D01*
X104421775Y-67438370D01*
X104421772Y-67438372D01*
X104312313Y-67520313D01*
X104230374Y-67629769D01*
X104230367Y-67629781D01*
X104229558Y-67631952D01*
X104217694Y-67655652D01*
X104203611Y-67677566D01*
X104186976Y-67698208D01*
X104108609Y-67776575D01*
X104080357Y-67797725D01*
X104057272Y-67810331D01*
X103997843Y-67825500D01*
X103705183Y-67825500D01*
X103670245Y-67820476D01*
X103638436Y-67811135D01*
X103604486Y-67795263D01*
X103576516Y-67776575D01*
X103570895Y-67772819D01*
X103566826Y-67769480D01*
X103560739Y-67766033D01*
X103560735Y-67766032D01*
X103560709Y-67766026D01*
X103487680Y-67751500D01*
X103487677Y-67751500D01*
X103487674Y-67751500D01*
X102238326Y-67751500D01*
X102238323Y-67751500D01*
X102238319Y-67751500D01*
X102165285Y-67766027D01*
X102165262Y-67766032D01*
X102165258Y-67766033D01*
X102082399Y-67821399D01*
X102027033Y-67904258D01*
X102027032Y-67904266D01*
X102027028Y-67904281D01*
X102012500Y-67977318D01*
X102012500Y-68488626D01*
X102007476Y-68523564D01*
X102004289Y-68534417D01*
X101966514Y-68593194D01*
X101902957Y-68622217D01*
X101833807Y-68612276D01*
X101826829Y-68609089D01*
X101790657Y-68583975D01*
X101389426Y-68182744D01*
X101368274Y-68154488D01*
X101355667Y-68131399D01*
X101340500Y-68071974D01*
X101340500Y-64845869D01*
X101345522Y-64810936D01*
X101352934Y-64785691D01*
X101384231Y-64732946D01*
X101428852Y-64688326D01*
X101429289Y-64688010D01*
X101442764Y-64674415D01*
X101442962Y-64674215D01*
X101443076Y-64674102D01*
X101443076Y-64674101D01*
X101443160Y-64674017D01*
X101443314Y-64673862D01*
X101444747Y-64670684D01*
X101471329Y-64616310D01*
X101499582Y-64558518D01*
X101510500Y-64483582D01*
X101510500Y-64040418D01*
X101499582Y-63965482D01*
X101480000Y-63925426D01*
X101443078Y-63849900D01*
X101443076Y-63849897D01*
X101443075Y-63849896D01*
X101443074Y-63849894D01*
X101352104Y-63758924D01*
X101352096Y-63758919D01*
X101247167Y-63707622D01*
X101247160Y-63707620D01*
X101236521Y-63702419D01*
X101236519Y-63702418D01*
X101236518Y-63702418D01*
X101219787Y-63699980D01*
X101219786Y-63699980D01*
X101161583Y-63691500D01*
X101161582Y-63691500D01*
X100818418Y-63691500D01*
X100818417Y-63691500D01*
X100760211Y-63699980D01*
X100760206Y-63699981D01*
X100743482Y-63702418D01*
X100743480Y-63702418D01*
X100743478Y-63702419D01*
X100732840Y-63707619D01*
X100732831Y-63707622D01*
X100627901Y-63758920D01*
X100627893Y-63758925D01*
X100600286Y-63786533D01*
X100572031Y-63807685D01*
X100558312Y-63815176D01*
X100490051Y-63830028D01*
X100488245Y-63829899D01*
X100430044Y-63810531D01*
X100423529Y-63806344D01*
X100402892Y-63789713D01*
X100372106Y-63758926D01*
X100372104Y-63758924D01*
X100372096Y-63758919D01*
X100267167Y-63707622D01*
X100267160Y-63707620D01*
X100256521Y-63702419D01*
X100256519Y-63702418D01*
X100256518Y-63702418D01*
X100239787Y-63699980D01*
X100239786Y-63699980D01*
X100181583Y-63691500D01*
X100181582Y-63691500D01*
X99838418Y-63691500D01*
X99838417Y-63691500D01*
X99780211Y-63699980D01*
X99780206Y-63699981D01*
X99763482Y-63702418D01*
X99763480Y-63702418D01*
X99763478Y-63702419D01*
X99752840Y-63707619D01*
X99752831Y-63707622D01*
X99647902Y-63758919D01*
X99647894Y-63758924D01*
X99556924Y-63849894D01*
X99556919Y-63849902D01*
X99505622Y-63954831D01*
X99505619Y-63954840D01*
X99500419Y-63965478D01*
X99500418Y-63965480D01*
X99500418Y-63965482D01*
X99497981Y-63982206D01*
X99497980Y-63982211D01*
X99489500Y-64040417D01*
X99489500Y-64040418D01*
X99489500Y-64483582D01*
X99500418Y-64558518D01*
X99500418Y-64558519D01*
X99500419Y-64558521D01*
X99505620Y-64569161D01*
X99505622Y-64569166D01*
X99556919Y-64674096D01*
X99556924Y-64674104D01*
X99647894Y-64765074D01*
X99647896Y-64765075D01*
X99647897Y-64765076D01*
X99647900Y-64765078D01*
X99758642Y-64819215D01*
X99758651Y-64819223D01*
X99758653Y-64819221D01*
X99760958Y-64820348D01*
X99763482Y-64821582D01*
X99838418Y-64832500D01*
X100015626Y-64832500D01*
X100050558Y-64837521D01*
X100075802Y-64844934D01*
X100128548Y-64876230D01*
X100189573Y-64937255D01*
X100210723Y-64965507D01*
X100223331Y-64988596D01*
X100238500Y-65048025D01*
X100238500Y-68635145D01*
X100246276Y-68664167D01*
X100246281Y-68664182D01*
X100247290Y-68667948D01*
X100247291Y-68667952D01*
X100262384Y-68724285D01*
X100262385Y-68724286D01*
X100269094Y-68735907D01*
X100269095Y-68735909D01*
X100308526Y-68804207D01*
X100308527Y-68804208D01*
X100308532Y-68804214D01*
X100308538Y-68804221D01*
X101963573Y-70459255D01*
X101984723Y-70487507D01*
X101997331Y-70510596D01*
X102012500Y-70570025D01*
X102012500Y-70682307D01*
X102007237Y-70700227D01*
X102028222Y-70805717D01*
X102027902Y-70805780D01*
X102030563Y-70818858D01*
X102032638Y-70838156D01*
X102033356Y-70844835D01*
X102033742Y-70848418D01*
X102026652Y-70897768D01*
X102028804Y-70898421D01*
X102027032Y-70904259D01*
X102012500Y-70977318D01*
X102012500Y-70977323D01*
X102012500Y-71726678D01*
X102012500Y-71726680D01*
X102012499Y-71726680D01*
X102027028Y-71799717D01*
X102027032Y-71799735D01*
X102027033Y-71799739D01*
X102027509Y-71800579D01*
X102027792Y-71800875D01*
X102082399Y-71882601D01*
X102136676Y-71918867D01*
X102147964Y-71926409D01*
X102147965Y-71926410D01*
X102165258Y-71937965D01*
X102165260Y-71937966D01*
X102165264Y-71937967D01*
X102165280Y-71937970D01*
X102165288Y-71937972D01*
X102210021Y-71946869D01*
X102230681Y-71950979D01*
X102233415Y-71951703D01*
X102238323Y-71952500D01*
X102238324Y-71952500D01*
X102238326Y-71952500D01*
X103487528Y-71952500D01*
X103487676Y-71952500D01*
X103487677Y-71952499D01*
X103560740Y-71937966D01*
X103625804Y-71894491D01*
X103630932Y-71892341D01*
X103655744Y-71878792D01*
X103655745Y-71878793D01*
X103676121Y-71867667D01*
X103735546Y-71852500D01*
X103780890Y-71852500D01*
X103780892Y-71852500D01*
X103908186Y-71818392D01*
X104022314Y-71752500D01*
X104146881Y-71627931D01*
X104175130Y-71606785D01*
X104188851Y-71599293D01*
X104257074Y-71584442D01*
X104257919Y-71584502D01*
X104317680Y-71604870D01*
X104319814Y-71606285D01*
X104321336Y-71607296D01*
X104352539Y-71636981D01*
X104402847Y-71705147D01*
X104402852Y-71705152D01*
X104440109Y-71732648D01*
X104449796Y-71743367D01*
X104450740Y-71743809D01*
X104459198Y-71753772D01*
X104473170Y-71769233D01*
X104475197Y-71772656D01*
X104476707Y-71775624D01*
X104477833Y-71777107D01*
X104481464Y-71783238D01*
X104485115Y-71797592D01*
X104496718Y-71823961D01*
X104497448Y-71827924D01*
X104499500Y-71850387D01*
X104499500Y-71919648D01*
X104494475Y-71954590D01*
X104488067Y-71976409D01*
X104459872Y-72025936D01*
X104457396Y-72028597D01*
X104440926Y-72043396D01*
X104410316Y-72066309D01*
X104410310Y-72066314D01*
X104410304Y-72066322D01*
X104328376Y-72175765D01*
X104328371Y-72175773D01*
X104327080Y-72178354D01*
X104325655Y-72183056D01*
X104280586Y-72303889D01*
X104280586Y-72303891D01*
X104274500Y-72360489D01*
X104274500Y-72360498D01*
X104274500Y-72901481D01*
X104274501Y-72901490D01*
X104280587Y-72958114D01*
X104296665Y-73001218D01*
X104299590Y-73009059D01*
X104328372Y-73086227D01*
X104369342Y-73140956D01*
X104410313Y-73195687D01*
X104519774Y-73277628D01*
X104647886Y-73325412D01*
X104704515Y-73331500D01*
X105295484Y-73331499D01*
X105352114Y-73325412D01*
X105480226Y-73277628D01*
X105589687Y-73195687D01*
X105671628Y-73086226D01*
X105719412Y-72958114D01*
X105721687Y-72936944D01*
X105724903Y-72907039D01*
X105725034Y-72906186D01*
X105725441Y-72902080D01*
X105725499Y-72901507D01*
X105725499Y-72901490D01*
X105725500Y-72901485D01*
X105725499Y-72360516D01*
X105719412Y-72303886D01*
X105718751Y-72302115D01*
X105679394Y-72196596D01*
X105671628Y-72175774D01*
X105671626Y-72175771D01*
X105671626Y-72175770D01*
X105589692Y-72066318D01*
X105589686Y-72066312D01*
X105551936Y-72038052D01*
X105542131Y-72025856D01*
X105541597Y-72024563D01*
X105539506Y-72022472D01*
X105525878Y-72004267D01*
X105503112Y-71951956D01*
X105502467Y-71948378D01*
X105500500Y-71926379D01*
X105500500Y-71856907D01*
X105505523Y-71821973D01*
X105511867Y-71800367D01*
X105540374Y-71750501D01*
X105543126Y-71747565D01*
X105559965Y-71732593D01*
X105597146Y-71705153D01*
X105597146Y-71705152D01*
X105597150Y-71705150D01*
X105677793Y-71595882D01*
X105714932Y-71489745D01*
X105722646Y-71467701D01*
X105722646Y-71467699D01*
X105725500Y-71437269D01*
X105725500Y-70928730D01*
X105722646Y-70898300D01*
X105722646Y-70898298D01*
X105684565Y-70789471D01*
X105677793Y-70770118D01*
X105597150Y-70660850D01*
X105487882Y-70580207D01*
X105487880Y-70580206D01*
X105428833Y-70559544D01*
X105359704Y-70535354D01*
X105359702Y-70535353D01*
X105359700Y-70535353D01*
X105329270Y-70532500D01*
X105329266Y-70532500D01*
X105329264Y-70532500D01*
X105025506Y-70532500D01*
X104990571Y-70527477D01*
X104979717Y-70524290D01*
X104920939Y-70486516D01*
X104891914Y-70422960D01*
X104901854Y-70353811D01*
X104905044Y-70346824D01*
X104930153Y-70310660D01*
X105008390Y-70232423D01*
X105036640Y-70211275D01*
X105059732Y-70198667D01*
X105119157Y-70183500D01*
X105329271Y-70183500D01*
X105330576Y-70183377D01*
X105359699Y-70180646D01*
X105359701Y-70180646D01*
X105423790Y-70158219D01*
X105487882Y-70135793D01*
X105597150Y-70055150D01*
X105677793Y-69945882D01*
X105710644Y-69852000D01*
X105722646Y-69817701D01*
X105722646Y-69817699D01*
X105725500Y-69787269D01*
X105725500Y-69278730D01*
X105723187Y-69254078D01*
X105723020Y-69250502D01*
X105722646Y-69248300D01*
X105722646Y-69248298D01*
X105677793Y-69120119D01*
X105677792Y-69120117D01*
X105677173Y-69119278D01*
X105663150Y-69100278D01*
X105606141Y-69023032D01*
X105602252Y-69017449D01*
X105592410Y-69002457D01*
X105591532Y-68999573D01*
X105587239Y-68993837D01*
X105580584Y-68981650D01*
X105565733Y-68913380D01*
X105590147Y-68847918D01*
X105593289Y-68843721D01*
X105645101Y-68803473D01*
X105773995Y-68750084D01*
X105793744Y-68736887D01*
X105807741Y-68731327D01*
X105808038Y-68731023D01*
X105830563Y-68722262D01*
X105842012Y-68717715D01*
X105842975Y-68717552D01*
X105845566Y-68717156D01*
X105845846Y-68717068D01*
X105849914Y-68716382D01*
X105881000Y-68720082D01*
X105912254Y-68721881D01*
X105915413Y-68724178D01*
X105919294Y-68724640D01*
X105943450Y-68744564D01*
X105968764Y-68762971D01*
X105970666Y-68767012D01*
X105973194Y-68769098D01*
X105976487Y-68779383D01*
X105991465Y-68811209D01*
X105993425Y-68819845D01*
X105996500Y-68847290D01*
X105996500Y-68898650D01*
X106002508Y-68954521D01*
X106048341Y-69077407D01*
X106049662Y-69080947D01*
X106049664Y-69080950D01*
X106130528Y-69188972D01*
X106209783Y-69248301D01*
X106238549Y-69269835D01*
X106238552Y-69269837D01*
X106325283Y-69302186D01*
X106330683Y-69304820D01*
X106334202Y-69308029D01*
X106350629Y-69316999D01*
X106359684Y-69323777D01*
X106377365Y-69347395D01*
X106382307Y-69351902D01*
X106383172Y-69355151D01*
X106401557Y-69379709D01*
X106406544Y-69449401D01*
X106373061Y-69510725D01*
X106369381Y-69514405D01*
X106325033Y-69542906D01*
X106238553Y-69575161D01*
X106238550Y-69575163D01*
X106130528Y-69656028D01*
X106049663Y-69764050D01*
X106049661Y-69764053D01*
X106002508Y-69890477D01*
X105996500Y-69946348D01*
X105996500Y-70473650D01*
X106002508Y-70529521D01*
X106002508Y-70529523D01*
X106002509Y-70529524D01*
X106049662Y-70655947D01*
X106049664Y-70655950D01*
X106130528Y-70763972D01*
X106238546Y-70844833D01*
X106238549Y-70844835D01*
X106238552Y-70844837D01*
X106238555Y-70844838D01*
X106364957Y-70891984D01*
X106364965Y-70891986D01*
X106364975Y-70891990D01*
X106364978Y-70891991D01*
X106394318Y-70895145D01*
X106394318Y-70895146D01*
X106394322Y-70895145D01*
X106420855Y-70897999D01*
X106420870Y-70898000D01*
X107023118Y-70898000D01*
X107023130Y-70898000D01*
X107023144Y-70897999D01*
X107045012Y-70895647D01*
X107045021Y-70895648D01*
X107045021Y-70895647D01*
X107066985Y-70893284D01*
X107079022Y-70891991D01*
X107205450Y-70844836D01*
X107259269Y-70804548D01*
X107313466Y-70763977D01*
X107313467Y-70763974D01*
X107313469Y-70763973D01*
X107313472Y-70763972D01*
X107313472Y-70763970D01*
X107316115Y-70761993D01*
X107316125Y-70761985D01*
X107316510Y-70761696D01*
X107319043Y-70759316D01*
X107324591Y-70754683D01*
X107324959Y-70755124D01*
X107330571Y-70749508D01*
X107348783Y-70735875D01*
X107401085Y-70713114D01*
X107404668Y-70712468D01*
X107426670Y-70710500D01*
X107769510Y-70710500D01*
X107804445Y-70715522D01*
X107826266Y-70721930D01*
X107875815Y-70750143D01*
X107878475Y-70752619D01*
X107893255Y-70769071D01*
X107908528Y-70789473D01*
X107987271Y-70848418D01*
X108016549Y-70870335D01*
X108016552Y-70870337D01*
X108091527Y-70898301D01*
X108142978Y-70917491D01*
X108172318Y-70920645D01*
X108198855Y-70923499D01*
X108198870Y-70923500D01*
X108801118Y-70923500D01*
X108801130Y-70923500D01*
X108801144Y-70923499D01*
X108823012Y-70921147D01*
X108823021Y-70921148D01*
X108823021Y-70921147D01*
X108844985Y-70918784D01*
X108857022Y-70917491D01*
X108983450Y-70870336D01*
X109012729Y-70848418D01*
X109091471Y-70789473D01*
X109091473Y-70789471D01*
X109102707Y-70774464D01*
X109127665Y-70749506D01*
X109145870Y-70735878D01*
X109198179Y-70713112D01*
X109200243Y-70712740D01*
X109201759Y-70712467D01*
X109223758Y-70710500D01*
X109293510Y-70710500D01*
X109328445Y-70715522D01*
X109350266Y-70721930D01*
X109399815Y-70750143D01*
X109402475Y-70752619D01*
X109417255Y-70769071D01*
X109432528Y-70789473D01*
X109511271Y-70848418D01*
X109540549Y-70870335D01*
X109540552Y-70870337D01*
X109615527Y-70898301D01*
X109666978Y-70917491D01*
X109696318Y-70920645D01*
X109722855Y-70923499D01*
X109722870Y-70923500D01*
X110325118Y-70923500D01*
X110325130Y-70923500D01*
X110325144Y-70923499D01*
X110347012Y-70921147D01*
X110347021Y-70921148D01*
X110347021Y-70921147D01*
X110368985Y-70918784D01*
X110381022Y-70917491D01*
X110507450Y-70870336D01*
X110536729Y-70848418D01*
X110615471Y-70789473D01*
X110615473Y-70789471D01*
X110626707Y-70774464D01*
X110651665Y-70749506D01*
X110669870Y-70735878D01*
X110722179Y-70713112D01*
X110724243Y-70712740D01*
X110725759Y-70712467D01*
X110747758Y-70710500D01*
X110817510Y-70710500D01*
X110852445Y-70715522D01*
X110874266Y-70721930D01*
X110923815Y-70750143D01*
X110926475Y-70752619D01*
X110941255Y-70769071D01*
X110956528Y-70789473D01*
X111035271Y-70848418D01*
X111064549Y-70870335D01*
X111064552Y-70870337D01*
X111139527Y-70898301D01*
X111190978Y-70917491D01*
X111220318Y-70920645D01*
X111246855Y-70923499D01*
X111246870Y-70923500D01*
X111849118Y-70923500D01*
X111849130Y-70923500D01*
X111849144Y-70923499D01*
X111871012Y-70921147D01*
X111871021Y-70921148D01*
X111871021Y-70921147D01*
X111892985Y-70918784D01*
X111905022Y-70917491D01*
X112031450Y-70870336D01*
X112139472Y-70789472D01*
X112220336Y-70681450D01*
X112267491Y-70555022D01*
X112272527Y-70508182D01*
X112273499Y-70499144D01*
X112273500Y-70499129D01*
X112273500Y-70286531D01*
X112273503Y-70286114D01*
X112273742Y-70285320D01*
X112278522Y-70252072D01*
X112285934Y-70226827D01*
X112317228Y-70174085D01*
X112450214Y-70041099D01*
X112478457Y-70019955D01*
X112488391Y-70014531D01*
X112556661Y-69999678D01*
X112622126Y-70024092D01*
X112663999Y-70080024D01*
X112664001Y-70080028D01*
X112666682Y-70087216D01*
X112674500Y-70130550D01*
X112674500Y-71750626D01*
X112669476Y-71785563D01*
X112662064Y-71810804D01*
X112630769Y-71863548D01*
X112573744Y-71920573D01*
X112545493Y-71941722D01*
X112522405Y-71954330D01*
X112462975Y-71969500D01*
X112278417Y-71969500D01*
X112220211Y-71977980D01*
X112220206Y-71977981D01*
X112203482Y-71980418D01*
X112203480Y-71980418D01*
X112203478Y-71980419D01*
X112192840Y-71985619D01*
X112192831Y-71985622D01*
X112087898Y-72036921D01*
X112079951Y-72042595D01*
X112060741Y-72056975D01*
X112048561Y-72063626D01*
X111980289Y-72078479D01*
X111914824Y-72054063D01*
X111914820Y-72054060D01*
X111903713Y-72045745D01*
X111878759Y-72020790D01*
X111857548Y-71992455D01*
X111841992Y-71980810D01*
X111834709Y-71975358D01*
X111804174Y-71952499D01*
X111742337Y-71906207D01*
X111742335Y-71906206D01*
X111742333Y-71906204D01*
X111705164Y-71892341D01*
X111607482Y-71855908D01*
X111607483Y-71855908D01*
X111547883Y-71849501D01*
X111547881Y-71849500D01*
X111547873Y-71849500D01*
X111547864Y-71849500D01*
X111546841Y-71849500D01*
X110602123Y-71849500D01*
X110600192Y-71849659D01*
X110598545Y-71849885D01*
X110547856Y-71855334D01*
X110542516Y-71855908D01*
X110470949Y-71882601D01*
X110407666Y-71906204D01*
X110407665Y-71906205D01*
X110292456Y-71992450D01*
X110292450Y-71992456D01*
X110206205Y-72107665D01*
X110206203Y-72107668D01*
X110155907Y-72242516D01*
X110149501Y-72302116D01*
X110149500Y-72302146D01*
X110149500Y-73697876D01*
X110149659Y-73699806D01*
X110149885Y-73701454D01*
X110155907Y-73757482D01*
X110155916Y-73757505D01*
X110206202Y-73892328D01*
X110206203Y-73892330D01*
X110206204Y-73892332D01*
X110206205Y-73892333D01*
X110292450Y-74007542D01*
X110292452Y-74007544D01*
X110292455Y-74007547D01*
X110407664Y-74093793D01*
X110407671Y-74093797D01*
X110542517Y-74144091D01*
X110542516Y-74144091D01*
X110549444Y-74144835D01*
X110602127Y-74150500D01*
X111547872Y-74150499D01*
X111607483Y-74144091D01*
X111742331Y-74093796D01*
X111857546Y-74007546D01*
X111878762Y-73979203D01*
X111903709Y-73954256D01*
X111914829Y-73945932D01*
X111980290Y-73921520D01*
X112048557Y-73936371D01*
X112060738Y-73943022D01*
X112082843Y-73959569D01*
X112083155Y-73959189D01*
X112087894Y-73963074D01*
X112087896Y-73963075D01*
X112087897Y-73963076D01*
X112087900Y-73963078D01*
X112178858Y-74007544D01*
X112203482Y-74019582D01*
X112278418Y-74030500D01*
X112278423Y-74030500D01*
X112721577Y-74030500D01*
X112721582Y-74030500D01*
X112796518Y-74019582D01*
X112854308Y-73991329D01*
X112854311Y-73991329D01*
X112912093Y-73963081D01*
X112912093Y-73963080D01*
X112912099Y-73963078D01*
X112912102Y-73963076D01*
X113003076Y-73872102D01*
X113003078Y-73872099D01*
X113024475Y-73828329D01*
X113059100Y-73757505D01*
X113059109Y-73757486D01*
X113059582Y-73756518D01*
X113070500Y-73681582D01*
X113070500Y-73338423D01*
X113070500Y-73338418D01*
X113059582Y-73263482D01*
X113026439Y-73195687D01*
X113003078Y-73147900D01*
X113003076Y-73147897D01*
X112948843Y-73093664D01*
X112943290Y-73086121D01*
X112941802Y-73082034D01*
X112934313Y-73072029D01*
X112926822Y-73058309D01*
X112911971Y-72990051D01*
X112912100Y-72988242D01*
X112931470Y-72930041D01*
X112935654Y-72923530D01*
X112952283Y-72902896D01*
X112973046Y-72882132D01*
X113003076Y-72852102D01*
X113003078Y-72852099D01*
X113031329Y-72794310D01*
X113059582Y-72736518D01*
X113070500Y-72661582D01*
X113070500Y-72484373D01*
X113075522Y-72449440D01*
X113082934Y-72424195D01*
X113114227Y-72371454D01*
X113183566Y-72302116D01*
X113305470Y-72180212D01*
X113351614Y-72100288D01*
X113375500Y-72011144D01*
X113375500Y-70369188D01*
X118198782Y-70369188D01*
X118198782Y-70630811D01*
X118200430Y-70655951D01*
X118203104Y-70696767D01*
X118203104Y-70696777D01*
X118229788Y-70899452D01*
X118233642Y-70928730D01*
X118237254Y-70956161D01*
X118241463Y-70977323D01*
X118241464Y-70977324D01*
X118241464Y-70977326D01*
X118250151Y-71021005D01*
X118250153Y-71021012D01*
X118317865Y-71273714D01*
X118317867Y-71273721D01*
X118339118Y-71336323D01*
X118339122Y-71336334D01*
X118421428Y-71535039D01*
X118439242Y-71578044D01*
X118468477Y-71637327D01*
X118562247Y-71799739D01*
X118599277Y-71863877D01*
X118599285Y-71863890D01*
X118636020Y-71918867D01*
X118663431Y-71954590D01*
X118672697Y-71966666D01*
X118795275Y-72126415D01*
X118838522Y-72175729D01*
X118838874Y-72176130D01*
X118838894Y-72176151D01*
X119023860Y-72361117D01*
X119054919Y-72388355D01*
X119067633Y-72399505D01*
X119073587Y-72404726D01*
X119087214Y-72415182D01*
X119281133Y-72563980D01*
X119336110Y-72600715D01*
X119336120Y-72600721D01*
X119336122Y-72600722D01*
X119336156Y-72600741D01*
X119336568Y-72600989D01*
X119337193Y-72601340D01*
X119562672Y-72731521D01*
X119621965Y-72760761D01*
X119621970Y-72760763D01*
X119621976Y-72760766D01*
X119621983Y-72760769D01*
X119622018Y-72760786D01*
X119622473Y-72760971D01*
X119863674Y-72860881D01*
X119926287Y-72882135D01*
X120178985Y-72949846D01*
X120243839Y-72962746D01*
X120482873Y-72994214D01*
X120482874Y-72994215D01*
X120488533Y-72994960D01*
X120503221Y-72996894D01*
X120569189Y-73001218D01*
X120569194Y-73001218D01*
X120569199Y-73001218D01*
X120830811Y-73001218D01*
X120830815Y-73001218D01*
X120843002Y-73000418D01*
X120896777Y-72996894D01*
X120896779Y-72996894D01*
X120914757Y-72994526D01*
X121156161Y-72962746D01*
X121221015Y-72949846D01*
X121473713Y-72882135D01*
X121536326Y-72860881D01*
X121778024Y-72760766D01*
X121837327Y-72731521D01*
X122063890Y-72600715D01*
X122118867Y-72563980D01*
X122326419Y-72404721D01*
X122376134Y-72361122D01*
X122561122Y-72176134D01*
X122604721Y-72126419D01*
X122763980Y-71918867D01*
X122800715Y-71863890D01*
X122931521Y-71637327D01*
X122960766Y-71578024D01*
X123060881Y-71336326D01*
X123082135Y-71273713D01*
X123149846Y-71021015D01*
X123162746Y-70956161D01*
X123196893Y-70696786D01*
X123196894Y-70696779D01*
X123196894Y-70696777D01*
X123201218Y-70630811D01*
X123201218Y-70369188D01*
X123196894Y-70303222D01*
X123196894Y-70303220D01*
X123183586Y-70202137D01*
X123162746Y-70043839D01*
X123149846Y-69978985D01*
X123082135Y-69726287D01*
X123060881Y-69663674D01*
X123024218Y-69575161D01*
X122960770Y-69421984D01*
X122952497Y-69405209D01*
X122944294Y-69388574D01*
X122931521Y-69362672D01*
X122800722Y-69136122D01*
X122800721Y-69136120D01*
X122800715Y-69136110D01*
X122763980Y-69081133D01*
X122666829Y-68954522D01*
X122604726Y-68873587D01*
X122561123Y-68823867D01*
X122376132Y-68638876D01*
X122326412Y-68595273D01*
X122118860Y-68436015D01*
X122091945Y-68418031D01*
X122063890Y-68399285D01*
X122063885Y-68399282D01*
X122063877Y-68399277D01*
X122062802Y-68398656D01*
X122062794Y-68398651D01*
X121837327Y-68268477D01*
X121778044Y-68239242D01*
X121735039Y-68221428D01*
X121536334Y-68139122D01*
X121536323Y-68139118D01*
X121473721Y-68117867D01*
X121473714Y-68117865D01*
X121221012Y-68050153D01*
X121221013Y-68050153D01*
X121221005Y-68050151D01*
X121195849Y-68045148D01*
X121195841Y-68045146D01*
X121194712Y-68044922D01*
X121156161Y-68037254D01*
X121142352Y-68035436D01*
X121068204Y-68025674D01*
X120896781Y-68003105D01*
X120881554Y-68002107D01*
X120830811Y-67998782D01*
X120830806Y-67998782D01*
X120830801Y-67998782D01*
X120569197Y-67998782D01*
X120569194Y-67998782D01*
X120569189Y-67998782D01*
X120516415Y-68002240D01*
X120503220Y-68003105D01*
X120503219Y-68003104D01*
X120247456Y-68036777D01*
X120247428Y-68036781D01*
X120243846Y-68037253D01*
X120243844Y-68037253D01*
X120243839Y-68037254D01*
X120241472Y-68037724D01*
X120241458Y-68037727D01*
X120218257Y-68042341D01*
X120218258Y-68042342D01*
X120178990Y-68050152D01*
X120058432Y-68082456D01*
X119926285Y-68117865D01*
X119926278Y-68117867D01*
X119863676Y-68139118D01*
X119863665Y-68139122D01*
X119790264Y-68169525D01*
X119621954Y-68239242D01*
X119562671Y-68268477D01*
X119336134Y-68399269D01*
X119336104Y-68399288D01*
X119281151Y-68436006D01*
X119073583Y-68595276D01*
X119023862Y-68638880D01*
X118838880Y-68823862D01*
X118795276Y-68873583D01*
X118795273Y-68873587D01*
X118636163Y-69080947D01*
X118636006Y-69081151D01*
X118599288Y-69136104D01*
X118599269Y-69136134D01*
X118468477Y-69362671D01*
X118439242Y-69421954D01*
X118375780Y-69575166D01*
X118339122Y-69663665D01*
X118339118Y-69663676D01*
X118317867Y-69726278D01*
X118317865Y-69726285D01*
X118317760Y-69726676D01*
X118250152Y-69978990D01*
X118246966Y-69995011D01*
X118237649Y-70041855D01*
X118237252Y-70043848D01*
X118203104Y-70303220D01*
X118203105Y-70303221D01*
X118203105Y-70303222D01*
X118198782Y-70369188D01*
X113375500Y-70369188D01*
X113375500Y-67883892D01*
X113351614Y-67794748D01*
X113305469Y-67714823D01*
X111399426Y-65808780D01*
X111378274Y-65780524D01*
X111365667Y-65757435D01*
X111350500Y-65698010D01*
X111350500Y-62968539D01*
X111355523Y-62933605D01*
X111359099Y-62921426D01*
X111396873Y-62862648D01*
X111460428Y-62833622D01*
X111525524Y-62841797D01*
X111534425Y-62845484D01*
X111561279Y-62860777D01*
X111575774Y-62871628D01*
X111703886Y-62919412D01*
X111760515Y-62925500D01*
X111890096Y-62925499D01*
X111957136Y-62945183D01*
X111958878Y-62946324D01*
X113813000Y-64182406D01*
X113846633Y-64201325D01*
X113880479Y-64217128D01*
X113916587Y-64230770D01*
X113948453Y-64240127D01*
X113984077Y-64247876D01*
X114019013Y-64252899D01*
X114055374Y-64255500D01*
X114546973Y-64255500D01*
X114594420Y-64264937D01*
X114702573Y-64309735D01*
X114706992Y-64311825D01*
X114707728Y-64311967D01*
X114708469Y-64312112D01*
X114901453Y-64350500D01*
X115098543Y-64350500D01*
X115098544Y-64350500D01*
X115109663Y-64348287D01*
X115228582Y-64324632D01*
X115291835Y-64312051D01*
X115409639Y-64263255D01*
X115413816Y-64261863D01*
X115422643Y-64261543D01*
X115453027Y-64255500D01*
X115862650Y-64255500D01*
X115862668Y-64255500D01*
X115889997Y-64254034D01*
X115916368Y-64251197D01*
X115943376Y-64246818D01*
X115950934Y-64245173D01*
X115991749Y-64230767D01*
X116011010Y-64223969D01*
X116024675Y-64217125D01*
X116065873Y-64196492D01*
X116118836Y-64161083D01*
X116120205Y-64159896D01*
X116167782Y-64104966D01*
X116205525Y-64046223D01*
X116235715Y-63980113D01*
X116240120Y-63965115D01*
X116247874Y-63929481D01*
X116252899Y-63894537D01*
X116255500Y-63858170D01*
X116255500Y-56579164D01*
X116254148Y-56552912D01*
X116251530Y-56527567D01*
X116247488Y-56501596D01*
X116246103Y-56494963D01*
X116225891Y-56435702D01*
X116199572Y-56381429D01*
X116165554Y-56328862D01*
X116152105Y-56312804D01*
X116126765Y-56286598D01*
X116126763Y-56286596D01*
X116126760Y-56286593D01*
X116100483Y-56263040D01*
X116071686Y-56240718D01*
X116071675Y-56240710D01*
X113187003Y-54317595D01*
X113186986Y-54317585D01*
X113153370Y-54298676D01*
X113153351Y-54298666D01*
X113147037Y-54295718D01*
X113094622Y-54249519D01*
X113075500Y-54183363D01*
X113075500Y-53369188D01*
X186798782Y-53369188D01*
X186798782Y-53630811D01*
X186801614Y-53674031D01*
X186803104Y-53696767D01*
X186803104Y-53696777D01*
X186826526Y-53874674D01*
X186837253Y-53956158D01*
X186844922Y-53994712D01*
X186848330Y-54011849D01*
X186850153Y-54021012D01*
X186917865Y-54273714D01*
X186917867Y-54273721D01*
X186939118Y-54336323D01*
X186939122Y-54336334D01*
X186942928Y-54345522D01*
X187039242Y-54578044D01*
X187068477Y-54637327D01*
X187199269Y-54863864D01*
X187199277Y-54863877D01*
X187199284Y-54863888D01*
X187236015Y-54918860D01*
X187395273Y-55126412D01*
X187438876Y-55176132D01*
X187623867Y-55361123D01*
X187673570Y-55404711D01*
X187673577Y-55404718D01*
X187673581Y-55404721D01*
X187673587Y-55404726D01*
X187755793Y-55467803D01*
X187881133Y-55563980D01*
X187936110Y-55600715D01*
X187936120Y-55600721D01*
X187936122Y-55600722D01*
X188162672Y-55731521D01*
X188221965Y-55760761D01*
X188221970Y-55760763D01*
X188221976Y-55760766D01*
X188221983Y-55760769D01*
X188222018Y-55760786D01*
X188222473Y-55760971D01*
X188463674Y-55860881D01*
X188526287Y-55882135D01*
X188778985Y-55949846D01*
X188843839Y-55962746D01*
X189082873Y-55994214D01*
X189082874Y-55994215D01*
X189088533Y-55994960D01*
X189103221Y-55996894D01*
X189169189Y-56001218D01*
X189169194Y-56001218D01*
X189169199Y-56001218D01*
X189430811Y-56001218D01*
X189430815Y-56001218D01*
X189443002Y-56000418D01*
X189496777Y-55996894D01*
X189496779Y-55996894D01*
X189514757Y-55994526D01*
X189756161Y-55962746D01*
X189821015Y-55949846D01*
X190073713Y-55882135D01*
X190136326Y-55860881D01*
X190378024Y-55760766D01*
X190437327Y-55731521D01*
X190663890Y-55600715D01*
X190718867Y-55563980D01*
X190926419Y-55404721D01*
X190976134Y-55361122D01*
X191161122Y-55176134D01*
X191204721Y-55126419D01*
X191363980Y-54918867D01*
X191400715Y-54863890D01*
X191531521Y-54637327D01*
X191560766Y-54578024D01*
X191660881Y-54336326D01*
X191682135Y-54273713D01*
X191749846Y-54021015D01*
X191762746Y-53956161D01*
X191796893Y-53696786D01*
X191796894Y-53696779D01*
X191796894Y-53696777D01*
X191801218Y-53630811D01*
X191801218Y-53369188D01*
X191796894Y-53303222D01*
X191796894Y-53303220D01*
X191790554Y-53255066D01*
X191762746Y-53043839D01*
X191749846Y-52978985D01*
X191682135Y-52726287D01*
X191660881Y-52663674D01*
X191560766Y-52421976D01*
X191560761Y-52421965D01*
X191531521Y-52362672D01*
X191401340Y-52137193D01*
X191400989Y-52136568D01*
X191400741Y-52136156D01*
X191400722Y-52136122D01*
X191400721Y-52136120D01*
X191400715Y-52136110D01*
X191372447Y-52093804D01*
X191363979Y-52081131D01*
X191243377Y-51923959D01*
X191240965Y-51920816D01*
X191204726Y-51873587D01*
X191161123Y-51823867D01*
X190976132Y-51638876D01*
X190926412Y-51595273D01*
X190926409Y-51595271D01*
X190926406Y-51595268D01*
X190718877Y-51436027D01*
X190718866Y-51436019D01*
X190718860Y-51436015D01*
X190687766Y-51415239D01*
X190663890Y-51399285D01*
X190663885Y-51399282D01*
X190663877Y-51399277D01*
X190662798Y-51398654D01*
X190662792Y-51398650D01*
X190437327Y-51268477D01*
X190378044Y-51239242D01*
X190335039Y-51221428D01*
X190136334Y-51139122D01*
X190136323Y-51139118D01*
X190073721Y-51117867D01*
X190073714Y-51117865D01*
X189821012Y-51050153D01*
X189821013Y-51050153D01*
X189821005Y-51050151D01*
X189795849Y-51045148D01*
X189795841Y-51045146D01*
X189794712Y-51044922D01*
X189756161Y-51037254D01*
X189742352Y-51035436D01*
X189705521Y-51030587D01*
X189496781Y-51003105D01*
X189481554Y-51002107D01*
X189430811Y-50998782D01*
X189430806Y-50998782D01*
X189430801Y-50998782D01*
X189169197Y-50998782D01*
X189169194Y-50998782D01*
X189169189Y-50998782D01*
X189116415Y-51002240D01*
X189103220Y-51003105D01*
X189103219Y-51003104D01*
X188847456Y-51036777D01*
X188847428Y-51036781D01*
X188843846Y-51037253D01*
X188843844Y-51037253D01*
X188843839Y-51037254D01*
X188841472Y-51037724D01*
X188841458Y-51037727D01*
X188818257Y-51042341D01*
X188818258Y-51042342D01*
X188778990Y-51050152D01*
X188696685Y-51072206D01*
X188526285Y-51117865D01*
X188526278Y-51117867D01*
X188463676Y-51139118D01*
X188463665Y-51139122D01*
X188390264Y-51169525D01*
X188221954Y-51239242D01*
X188162671Y-51268477D01*
X187936134Y-51399269D01*
X187936104Y-51399288D01*
X187881151Y-51436006D01*
X187881141Y-51436013D01*
X187881139Y-51436015D01*
X187754258Y-51533373D01*
X187673583Y-51595276D01*
X187623862Y-51638880D01*
X187438880Y-51823862D01*
X187395276Y-51873583D01*
X187364239Y-51914032D01*
X187245650Y-52068583D01*
X187236006Y-52081151D01*
X187199288Y-52136104D01*
X187199269Y-52136134D01*
X187068477Y-52362671D01*
X187039242Y-52421954D01*
X186969525Y-52590264D01*
X186939122Y-52663665D01*
X186939118Y-52663676D01*
X186917867Y-52726278D01*
X186917865Y-52726285D01*
X186915123Y-52736518D01*
X186850151Y-52978993D01*
X186837254Y-53043839D01*
X186803104Y-53303220D01*
X186803105Y-53303221D01*
X186803105Y-53303222D01*
X186798782Y-53369188D01*
X113075500Y-53369188D01*
X113075500Y-51676076D01*
X113046538Y-51530483D01*
X113045454Y-51528180D01*
X113035439Y-51504001D01*
X112990086Y-51394508D01*
X112983134Y-51384103D01*
X112965303Y-51357417D01*
X112961188Y-51349171D01*
X112961176Y-51349144D01*
X112954863Y-51336492D01*
X112948780Y-51322094D01*
X112928153Y-51263149D01*
X112927812Y-51262145D01*
X112927793Y-51262119D01*
X112927793Y-51262118D01*
X112847150Y-51152850D01*
X112737882Y-51072207D01*
X112737880Y-51072206D01*
X112609704Y-51027354D01*
X112609702Y-51027353D01*
X112609700Y-51027353D01*
X112579270Y-51024500D01*
X112579266Y-51024500D01*
X112579264Y-51024500D01*
X112542905Y-51024500D01*
X112530743Y-51023902D01*
X112518669Y-51022712D01*
X112506639Y-51020927D01*
X112398922Y-50999500D01*
X112398920Y-50999500D01*
X112398918Y-50999500D01*
X112251082Y-50999500D01*
X112251080Y-50999500D01*
X112251078Y-50999500D01*
X112143360Y-51020927D01*
X112131331Y-51022712D01*
X112119258Y-51023902D01*
X112107095Y-51024500D01*
X112070730Y-51024500D01*
X112052074Y-51026249D01*
X112046069Y-51026812D01*
X112042499Y-51026978D01*
X112040297Y-51027353D01*
X111912118Y-51072206D01*
X111802850Y-51152850D01*
X111802847Y-51152853D01*
X111722183Y-51262147D01*
X111721810Y-51263248D01*
X111704522Y-51312653D01*
X111688243Y-51343968D01*
X111667031Y-51373541D01*
X111663846Y-51381267D01*
X111660483Y-51393133D01*
X111621384Y-51487530D01*
X111603371Y-51517888D01*
X111596275Y-51526693D01*
X111538881Y-51566540D01*
X111469056Y-51569031D01*
X111408969Y-51533378D01*
X111403738Y-51527758D01*
X111379938Y-51490721D01*
X111378734Y-51487815D01*
X111340086Y-51394508D01*
X111333134Y-51384103D01*
X111319658Y-51363934D01*
X111311806Y-51350407D01*
X111304863Y-51336492D01*
X111298780Y-51322094D01*
X111278153Y-51263149D01*
X111277812Y-51262145D01*
X111277793Y-51262119D01*
X111277793Y-51262118D01*
X111197150Y-51152850D01*
X111087882Y-51072207D01*
X111087880Y-51072206D01*
X110959704Y-51027354D01*
X110959702Y-51027353D01*
X110959700Y-51027353D01*
X110929270Y-51024500D01*
X110929266Y-51024500D01*
X110929264Y-51024500D01*
X110892905Y-51024500D01*
X110880743Y-51023902D01*
X110868669Y-51022712D01*
X110856639Y-51020927D01*
X110748922Y-50999500D01*
X110748920Y-50999500D01*
X110748918Y-50999500D01*
X108701082Y-50999500D01*
X108701078Y-50999500D01*
X108701076Y-50999500D01*
X108593357Y-51020927D01*
X108581326Y-51022712D01*
X108569251Y-51023902D01*
X108557090Y-51024500D01*
X108504520Y-51024500D01*
X108504509Y-51024501D01*
X108504506Y-51024501D01*
X108504485Y-51024503D01*
X108447882Y-51030587D01*
X108319775Y-51078370D01*
X108319772Y-51078372D01*
X108210313Y-51160313D01*
X108128374Y-51269768D01*
X108128373Y-51269771D01*
X108081850Y-51394505D01*
X108080587Y-51397890D01*
X108080586Y-51397894D01*
X108079029Y-51412376D01*
X108078998Y-51412664D01*
X108074036Y-51457805D01*
X108074010Y-51457805D01*
X108073922Y-51458244D01*
X108073886Y-51459168D01*
X108073885Y-51459186D01*
X108073796Y-51461534D01*
X108073456Y-51463084D01*
X108073402Y-51463584D01*
X108073287Y-51463858D01*
X108064449Y-51504267D01*
X108053343Y-51531081D01*
X108053341Y-51531088D01*
X108024500Y-51676079D01*
X108024500Y-51676082D01*
X108024500Y-51823918D01*
X108025644Y-51829670D01*
X108025644Y-51829672D01*
X108053341Y-51968911D01*
X108053344Y-51968922D01*
X108064311Y-51995401D01*
X108066627Y-52005392D01*
X108066573Y-52006314D01*
X108067443Y-52009180D01*
X108071760Y-52030868D01*
X108074146Y-52055075D01*
X108074146Y-52067765D01*
X108076180Y-52071276D01*
X108079009Y-52087436D01*
X108080586Y-52102114D01*
X108093475Y-52136667D01*
X108128370Y-52230223D01*
X108128372Y-52230226D01*
X108210313Y-52339687D01*
X108319774Y-52421628D01*
X108447886Y-52469412D01*
X108504515Y-52475500D01*
X108557099Y-52475499D01*
X108569235Y-52476094D01*
X108581325Y-52477285D01*
X108593341Y-52479067D01*
X108655066Y-52491346D01*
X108678073Y-52495923D01*
X108701080Y-52500500D01*
X110748919Y-52500500D01*
X110748920Y-52500500D01*
X110777865Y-52494741D01*
X110856648Y-52479070D01*
X110868679Y-52477286D01*
X110880753Y-52476097D01*
X110892905Y-52475500D01*
X110929271Y-52475500D01*
X110953920Y-52473188D01*
X110957498Y-52473020D01*
X110959699Y-52472646D01*
X110959701Y-52472646D01*
X111023790Y-52450219D01*
X111087882Y-52427793D01*
X111197150Y-52347150D01*
X111277793Y-52237882D01*
X111298921Y-52177497D01*
X111304622Y-52163869D01*
X111310765Y-52151344D01*
X111318990Y-52137063D01*
X111339312Y-52106650D01*
X111361585Y-52081506D01*
X111368912Y-52075208D01*
X111432583Y-52046441D01*
X111501701Y-52056663D01*
X111545706Y-52090728D01*
X111545715Y-52090739D01*
X111571671Y-52146685D01*
X111572430Y-52150784D01*
X111574500Y-52173344D01*
X111574500Y-54120500D01*
X111554815Y-54187539D01*
X111502011Y-54233294D01*
X111450500Y-54244500D01*
X108879497Y-54244500D01*
X108825187Y-54250338D01*
X108773681Y-54261543D01*
X108773672Y-54261546D01*
X108747307Y-54268779D01*
X108747298Y-54268782D01*
X108689659Y-54301604D01*
X108621662Y-54317671D01*
X108570826Y-54303724D01*
X108515027Y-54274536D01*
X108515022Y-54274533D01*
X108447990Y-54254851D01*
X108447978Y-54254848D01*
X108376001Y-54244500D01*
X108376000Y-54244500D01*
X105194500Y-54244500D01*
X105194496Y-54244500D01*
X105153252Y-54248934D01*
X105084492Y-54236527D01*
X105038117Y-54196329D01*
X105032744Y-54188584D01*
X105003076Y-54127898D01*
X104962460Y-54087282D01*
X104956125Y-54078151D01*
X104950984Y-54062687D01*
X104944236Y-54051363D01*
X104942616Y-54052039D01*
X104940598Y-54047196D01*
X104940337Y-54044819D01*
X104939159Y-54042842D01*
X104938230Y-54039721D01*
X104939729Y-54039274D01*
X104938020Y-54023693D01*
X104934083Y-54011849D01*
X104935929Y-54004624D01*
X104932982Y-53977746D01*
X104933301Y-53975956D01*
X104951069Y-53930662D01*
X104953637Y-53926666D01*
X104953640Y-53926664D01*
X104955662Y-53923517D01*
X104972282Y-53902895D01*
X105003076Y-53872102D01*
X105003078Y-53872099D01*
X105031329Y-53814310D01*
X105059582Y-53756518D01*
X105070500Y-53681582D01*
X105070500Y-53338418D01*
X105059582Y-53263482D01*
X105057222Y-53258656D01*
X105003078Y-53147900D01*
X105003076Y-53147897D01*
X104946419Y-53091240D01*
X104939414Y-53080544D01*
X104938548Y-53077686D01*
X104934313Y-53072029D01*
X104926822Y-53058309D01*
X104911971Y-52990051D01*
X104912100Y-52988242D01*
X104931470Y-52930041D01*
X104935654Y-52923530D01*
X104952283Y-52902896D01*
X104959154Y-52896023D01*
X105003076Y-52852102D01*
X105003078Y-52852099D01*
X105031329Y-52794310D01*
X105059582Y-52736518D01*
X105070500Y-52661582D01*
X105070500Y-52318418D01*
X105059582Y-52243482D01*
X105056843Y-52237879D01*
X105003078Y-52127900D01*
X105003076Y-52127897D01*
X105003075Y-52127896D01*
X105003074Y-52127894D01*
X104912104Y-52036924D01*
X104912096Y-52036919D01*
X104807167Y-51985622D01*
X104807160Y-51985620D01*
X104796521Y-51980419D01*
X104796519Y-51980418D01*
X104796518Y-51980418D01*
X104779787Y-51977980D01*
X104779786Y-51977980D01*
X104721583Y-51969500D01*
X104721582Y-51969500D01*
X104278418Y-51969500D01*
X104278417Y-51969500D01*
X104220211Y-51977980D01*
X104220206Y-51977981D01*
X104203482Y-51980418D01*
X104203480Y-51980418D01*
X104203478Y-51980419D01*
X104192840Y-51985619D01*
X104192831Y-51985622D01*
X104087901Y-52036920D01*
X104087897Y-52036922D01*
X104034243Y-52090576D01*
X104005992Y-52111725D01*
X103982907Y-52124331D01*
X103923478Y-52139500D01*
X103828787Y-52139500D01*
X103793846Y-52134475D01*
X103778847Y-52130070D01*
X103720081Y-52092304D01*
X103710984Y-52081807D01*
X103694093Y-52055516D01*
X103693917Y-52055619D01*
X103693073Y-52054166D01*
X103692950Y-52054228D01*
X103691968Y-52052265D01*
X103691967Y-52052262D01*
X103691966Y-52052260D01*
X103691961Y-52052253D01*
X103691957Y-52052245D01*
X103636601Y-51969399D01*
X103563891Y-51920816D01*
X103559826Y-51917480D01*
X103553739Y-51914033D01*
X103553735Y-51914032D01*
X103553709Y-51914026D01*
X103480680Y-51899500D01*
X103480677Y-51899500D01*
X103480674Y-51899500D01*
X103228882Y-51899500D01*
X103161843Y-51879815D01*
X103147701Y-51869232D01*
X103104957Y-51832211D01*
X103104953Y-51832208D01*
X103046215Y-51794472D01*
X103046212Y-51794470D01*
X103046207Y-51794467D01*
X103046203Y-51794465D01*
X103046196Y-51794461D01*
X102980090Y-51764277D01*
X102965093Y-51759873D01*
X102929465Y-51752123D01*
X102894532Y-51747101D01*
X102858170Y-51744500D01*
X100137332Y-51744500D01*
X100137331Y-51744500D01*
X100110028Y-51745963D01*
X100099446Y-51747101D01*
X100083670Y-51748797D01*
X100056680Y-51753170D01*
X100049121Y-51754814D01*
X100049116Y-51754815D01*
X100049106Y-51754818D01*
X99989029Y-51776015D01*
X99989012Y-51776022D01*
X99934152Y-51803493D01*
X99934138Y-51803501D01*
X99881168Y-51838912D01*
X99881160Y-51838918D01*
X99879792Y-51840105D01*
X99832211Y-51895041D01*
X99832208Y-51895045D01*
X99794472Y-51953783D01*
X99794461Y-51953802D01*
X99764277Y-52019908D01*
X99759873Y-52034903D01*
X99759873Y-52034907D01*
X99752123Y-52070533D01*
X99747101Y-52105466D01*
X99744500Y-52141829D01*
X99744500Y-58208478D01*
X99749408Y-58258321D01*
X99749656Y-58259991D01*
X99751000Y-58278197D01*
X99751000Y-58361808D01*
X99749659Y-58379997D01*
X99749410Y-58381669D01*
X99744500Y-58431523D01*
X99744500Y-58664983D01*
X99724815Y-58732022D01*
X99672011Y-58777777D01*
X99635880Y-58788025D01*
X99500688Y-58804923D01*
X99483755Y-58807620D01*
X99483741Y-58807622D01*
X99483739Y-58807623D01*
X99467453Y-58810780D01*
X99467436Y-58810783D01*
X99467425Y-58810786D01*
X99450760Y-58814599D01*
X99434803Y-58818819D01*
X99418370Y-58823761D01*
X99402612Y-58829082D01*
X99386615Y-58835089D01*
X99386602Y-58835094D01*
X99386595Y-58835097D01*
X99376245Y-58839383D01*
X99352991Y-58846437D01*
X99271653Y-58862617D01*
X99247461Y-58865000D01*
X99047565Y-58865000D01*
X99043620Y-58865061D01*
X99039668Y-58865122D01*
X99037774Y-58865180D01*
X99031989Y-58865359D01*
X99023985Y-58865733D01*
X99019709Y-58865999D01*
X99016280Y-58866213D01*
X99010682Y-58866648D01*
X99008329Y-58866832D01*
X99000680Y-58867548D01*
X98992831Y-58868407D01*
X96277880Y-59207775D01*
X96208917Y-59196558D01*
X96156966Y-59149837D01*
X96138500Y-59084733D01*
X96138500Y-49230329D01*
X96143523Y-49195393D01*
X96147927Y-49180395D01*
X96185672Y-49121644D01*
X96187041Y-49120457D01*
X96241920Y-49092977D01*
X96249479Y-49091333D01*
X96275832Y-49088500D01*
X115236235Y-49088500D01*
X115271162Y-49093521D01*
G37*
%TD.AperFunction*%
%TA.AperFunction,Conductor*%
G36*
X103951061Y-55865521D02*
G01*
X103976305Y-55872934D01*
X104029049Y-55904228D01*
X104087897Y-55963076D01*
X104087900Y-55963078D01*
X104157073Y-55996894D01*
X104203482Y-56019582D01*
X104278418Y-56030500D01*
X104278423Y-56030500D01*
X104620500Y-56030500D01*
X104687539Y-56050185D01*
X104733294Y-56102989D01*
X104744500Y-56154500D01*
X104744500Y-56731805D01*
X104753194Y-56797883D01*
X104754233Y-56801763D01*
X104754623Y-56803257D01*
X104767361Y-56853328D01*
X104766189Y-56853643D01*
X104790981Y-56946166D01*
X104791172Y-56946916D01*
X104791129Y-56948087D01*
X104795000Y-56977490D01*
X104795000Y-57022510D01*
X104790775Y-57054603D01*
X104756927Y-57180923D01*
X104754220Y-57198285D01*
X104753219Y-57202018D01*
X104744500Y-57268202D01*
X104744500Y-57731805D01*
X104753194Y-57797883D01*
X104754233Y-57801763D01*
X104754623Y-57803257D01*
X104767361Y-57853328D01*
X104766189Y-57853643D01*
X104790981Y-57946166D01*
X104791172Y-57946916D01*
X104791129Y-57948087D01*
X104795000Y-57977490D01*
X104795000Y-58022510D01*
X104790775Y-58054603D01*
X104756927Y-58180923D01*
X104754220Y-58198285D01*
X104753219Y-58202018D01*
X104753218Y-58202026D01*
X104744748Y-58266323D01*
X104744500Y-58268202D01*
X104744500Y-59389939D01*
X104724815Y-59456978D01*
X104672011Y-59502733D01*
X104602853Y-59512677D01*
X104584869Y-59508709D01*
X102501183Y-58883604D01*
X102483177Y-58878910D01*
X102465569Y-58874997D01*
X102447252Y-58871623D01*
X102429531Y-58869022D01*
X102411003Y-58866989D01*
X102393021Y-58865677D01*
X102375849Y-58865052D01*
X102374420Y-58865000D01*
X102374419Y-58865000D01*
X102164536Y-58865000D01*
X102140345Y-58862617D01*
X102114233Y-58857423D01*
X102059005Y-58846437D01*
X102035745Y-58839381D01*
X101959129Y-58807646D01*
X101937690Y-58796187D01*
X101868734Y-58750112D01*
X101849944Y-58734691D01*
X101791305Y-58676052D01*
X101775884Y-58657261D01*
X101729806Y-58588300D01*
X101718347Y-58566862D01*
X101686616Y-58490255D01*
X101679560Y-58466994D01*
X101663383Y-58385666D01*
X101661000Y-58361475D01*
X101661000Y-58278529D01*
X101663381Y-58254348D01*
X101679565Y-58172984D01*
X101686611Y-58149753D01*
X101718352Y-58073121D01*
X101729804Y-58051696D01*
X101775888Y-57982728D01*
X101791306Y-57963943D01*
X101849944Y-57905306D01*
X101868733Y-57889886D01*
X101937690Y-57843810D01*
X101959131Y-57832350D01*
X101967474Y-57828894D01*
X102006531Y-57812717D01*
X102043035Y-57794035D01*
X102076790Y-57773183D01*
X102109836Y-57748901D01*
X102120127Y-57739983D01*
X102167739Y-57685035D01*
X102205507Y-57626270D01*
X102235715Y-57560132D01*
X102240120Y-57545134D01*
X102247874Y-57509500D01*
X102252899Y-57474556D01*
X102255500Y-57438189D01*
X102255500Y-56379500D01*
X102275185Y-56312461D01*
X102327989Y-56266706D01*
X102379500Y-56255500D01*
X102742279Y-56255500D01*
X102744253Y-56255435D01*
X102759009Y-56254951D01*
X102764316Y-56254602D01*
X102766142Y-56254749D01*
X102776774Y-56254079D01*
X102798832Y-56251583D01*
X102800656Y-56251431D01*
X102801235Y-56251549D01*
X102810984Y-56251000D01*
X102865637Y-56251000D01*
X102865646Y-56251000D01*
X102895277Y-56249276D01*
X102923840Y-56245941D01*
X102923864Y-56245936D01*
X102923870Y-56245936D01*
X102953047Y-56240797D01*
X102953050Y-56240796D01*
X102953063Y-56240794D01*
X102956751Y-56239921D01*
X103014336Y-56218717D01*
X103066972Y-56191768D01*
X103117842Y-56157444D01*
X103120103Y-56155485D01*
X103130669Y-56143293D01*
X103189449Y-56105521D01*
X103224378Y-56100500D01*
X103484796Y-56100500D01*
X103492648Y-56098117D01*
X103553740Y-56085966D01*
X103636601Y-56030601D01*
X103691966Y-55947740D01*
X103691967Y-55947737D01*
X103691969Y-55947730D01*
X103692348Y-55946959D01*
X103707159Y-55923689D01*
X103717394Y-55910988D01*
X103774781Y-55871146D01*
X103787717Y-55866841D01*
X103826862Y-55860500D01*
X103916129Y-55860500D01*
X103951061Y-55865521D01*
G37*
%TD.AperFunction*%
%TD*%
M02*
