%TF.GenerationSoftware,KiCad,Pcbnew,9.0.6*%
%TF.CreationDate,2026-02-27T22:21:18+08:00*%
%TF.ProjectId,minipower,6d696e69-706f-4776-9572-2e6b69636164,rev?*%
%TF.SameCoordinates,Original*%
%TF.FileFunction,Copper,L2,Bot*%
%TF.FilePolarity,Positive*%
%FSLAX46Y46*%
G04 Gerber Fmt 4.6, Leading zero omitted, Abs format (unit mm)*
G04 Created by KiCad (PCBNEW 9.0.6) date 2026-02-27 22:21:18*
%MOMM*%
%LPD*%
G01*
G04 APERTURE LIST*
%TA.AperFunction,ComponentPad*%
%ADD10O,1.900000X1.100000*%
%TD*%
%TA.AperFunction,ComponentPad*%
%ADD11O,1.500000X4.200000*%
%TD*%
%TA.AperFunction,ViaPad*%
%ADD12C,0.600000*%
%TD*%
G04 APERTURE END LIST*
D10*
%TO.P,U2,7,EH*%
%TO.N,GND*%
X102613000Y-65532000D03*
X98813000Y-65532000D03*
X102613000Y-74172000D03*
X98813000Y-74172000D03*
%TD*%
D11*
%TO.P,U6,1,1*%
%TO.N,/BAT*%
X115000000Y-62000000D03*
%TO.P,U6,2,2*%
%TO.N,GND*%
X195000000Y-62000000D03*
%TD*%
D10*
%TO.P,U3,7,EH*%
%TO.N,GND*%
X102606000Y-49526000D03*
X98806000Y-49526000D03*
X102606000Y-58166000D03*
X98806000Y-58166000D03*
%TD*%
D12*
%TO.N,GND*%
X110000000Y-63500000D03*
X110000000Y-64500000D03*
X107000000Y-64500000D03*
X107000000Y-63500000D03*
X107500000Y-63000000D03*
X108000000Y-63500000D03*
X107500000Y-64000000D03*
X108000000Y-64500000D03*
X107500000Y-65000000D03*
X108500000Y-65000000D03*
X109000000Y-64500000D03*
X109500000Y-65000000D03*
X109500000Y-64000000D03*
X109500000Y-63000000D03*
X109000000Y-63500000D03*
X108500000Y-63000000D03*
X108500000Y-64000000D03*
X108500000Y-64000000D03*
X108500000Y-64000000D03*
X102856000Y-56546000D03*
X97000000Y-62975000D03*
X102863000Y-72552000D03*
X102000000Y-63475000D03*
X104902000Y-66535000D03*
X102856000Y-51146000D03*
X104500000Y-63475000D03*
%TD*%
%TA.AperFunction,Conductor*%
%TO.N,GND*%
G36*
X115173389Y-49241685D02*
G01*
X115219144Y-49294489D01*
X115229088Y-49363647D01*
X115200063Y-49427203D01*
X115194031Y-49433681D01*
X115119552Y-49508159D01*
X115056687Y-49584760D01*
X115056677Y-49584773D01*
X114947776Y-49747754D01*
X114947765Y-49747772D01*
X114901062Y-49835149D01*
X114901055Y-49835163D01*
X114826040Y-50016263D01*
X114797272Y-50111099D01*
X114797272Y-50111101D01*
X114759027Y-50303367D01*
X114749315Y-50401985D01*
X114749315Y-50598014D01*
X114759027Y-50696632D01*
X114797272Y-50888898D01*
X114797272Y-50888900D01*
X114826040Y-50983736D01*
X114901055Y-51164836D01*
X114901062Y-51164850D01*
X114947765Y-51252227D01*
X114947769Y-51252234D01*
X114947772Y-51252239D01*
X115056683Y-51415235D01*
X115111627Y-51482183D01*
X115119552Y-51491840D01*
X115258159Y-51630447D01*
X115258164Y-51630451D01*
X115258165Y-51630452D01*
X115334765Y-51693317D01*
X115497761Y-51802228D01*
X115585157Y-51848942D01*
X115675713Y-51886451D01*
X115766263Y-51923959D01*
X115766267Y-51923960D01*
X115766269Y-51923961D01*
X115861096Y-51952727D01*
X116053364Y-51990972D01*
X116151983Y-52000685D01*
X116151985Y-52000685D01*
X116348015Y-52000685D01*
X116348017Y-52000685D01*
X116446636Y-51990972D01*
X116638904Y-51952727D01*
X116733731Y-51923961D01*
X116914843Y-51848942D01*
X117002239Y-51802228D01*
X117165235Y-51693317D01*
X117241835Y-51630452D01*
X117380452Y-51491835D01*
X117443317Y-51415235D01*
X117552228Y-51252239D01*
X117598942Y-51164843D01*
X117673961Y-50983731D01*
X117702727Y-50888904D01*
X117740972Y-50696636D01*
X117750685Y-50598017D01*
X117750685Y-50401983D01*
X117740972Y-50303364D01*
X117702727Y-50111096D01*
X117673961Y-50016269D01*
X117598942Y-49835157D01*
X117552228Y-49747761D01*
X117443317Y-49584765D01*
X117380452Y-49508165D01*
X117380451Y-49508164D01*
X117380447Y-49508159D01*
X117305969Y-49433681D01*
X117272484Y-49372358D01*
X117277468Y-49302666D01*
X117319340Y-49246733D01*
X117384804Y-49222316D01*
X117393650Y-49222000D01*
X196321500Y-49222000D01*
X196388539Y-49241685D01*
X196434294Y-49294489D01*
X196445500Y-49346000D01*
X196445500Y-74259000D01*
X196425815Y-74326039D01*
X196373011Y-74371794D01*
X196321500Y-74383000D01*
X96262500Y-74383000D01*
X96195461Y-74363315D01*
X96149706Y-74310511D01*
X96138500Y-74259000D01*
X96138500Y-70369188D01*
X118198782Y-70369188D01*
X118198782Y-70630811D01*
X118203105Y-70696777D01*
X118203105Y-70696779D01*
X118235647Y-70943957D01*
X118237254Y-70956161D01*
X118244922Y-70994712D01*
X118250153Y-71021012D01*
X118317865Y-71273714D01*
X118317867Y-71273721D01*
X118339118Y-71336323D01*
X118339122Y-71336334D01*
X118439238Y-71578034D01*
X118468478Y-71637327D01*
X118599277Y-71863877D01*
X118599284Y-71863888D01*
X118636015Y-71918860D01*
X118795273Y-72126412D01*
X118838876Y-72176132D01*
X119023867Y-72361123D01*
X119073587Y-72404726D01*
X119155793Y-72467803D01*
X119281133Y-72563980D01*
X119336110Y-72600715D01*
X119336120Y-72600721D01*
X119336122Y-72600722D01*
X119562672Y-72731521D01*
X119621965Y-72760761D01*
X119621970Y-72760763D01*
X119621976Y-72760766D01*
X119863674Y-72860881D01*
X119926287Y-72882135D01*
X120178985Y-72949846D01*
X120243839Y-72962746D01*
X120482875Y-72994215D01*
X120503221Y-72996894D01*
X120569189Y-73001218D01*
X120569194Y-73001218D01*
X120830811Y-73001218D01*
X120896777Y-72996894D01*
X120896779Y-72996894D01*
X120914757Y-72994526D01*
X121156161Y-72962746D01*
X121221015Y-72949846D01*
X121473713Y-72882135D01*
X121536326Y-72860881D01*
X121778024Y-72760766D01*
X121837327Y-72731521D01*
X122063890Y-72600715D01*
X122118867Y-72563980D01*
X122326419Y-72404721D01*
X122376134Y-72361122D01*
X122561122Y-72176134D01*
X122604721Y-72126419D01*
X122763980Y-71918867D01*
X122800715Y-71863890D01*
X122931521Y-71637327D01*
X122960766Y-71578024D01*
X123060881Y-71336326D01*
X123082135Y-71273713D01*
X123149846Y-71021015D01*
X123162746Y-70956161D01*
X123196893Y-70696786D01*
X123196894Y-70696779D01*
X123196894Y-70696777D01*
X123201218Y-70630811D01*
X123201218Y-70369188D01*
X123196894Y-70303222D01*
X123196894Y-70303220D01*
X123190554Y-70255066D01*
X123162746Y-70043839D01*
X123149846Y-69978985D01*
X123082135Y-69726287D01*
X123060881Y-69663674D01*
X122960766Y-69421976D01*
X122931521Y-69362673D01*
X122931521Y-69362672D01*
X122800722Y-69136122D01*
X122800721Y-69136120D01*
X122800715Y-69136110D01*
X122763980Y-69081133D01*
X122604721Y-68873581D01*
X122561122Y-68823866D01*
X122376134Y-68638878D01*
X122326419Y-68595279D01*
X122326417Y-68595278D01*
X122326412Y-68595273D01*
X122118860Y-68436015D01*
X122091945Y-68418031D01*
X122063890Y-68399285D01*
X122063885Y-68399282D01*
X122063877Y-68399277D01*
X121837327Y-68268478D01*
X121778034Y-68239238D01*
X121536334Y-68139122D01*
X121536323Y-68139118D01*
X121473721Y-68117867D01*
X121473714Y-68117865D01*
X121221012Y-68050153D01*
X121194712Y-68044922D01*
X121156161Y-68037254D01*
X121142352Y-68035436D01*
X120896778Y-68003105D01*
X120830811Y-67998782D01*
X120830806Y-67998782D01*
X120569194Y-67998782D01*
X120569189Y-67998782D01*
X120503222Y-68003105D01*
X120503220Y-68003105D01*
X120243846Y-68037253D01*
X120243844Y-68037253D01*
X120243839Y-68037254D01*
X120218258Y-68042342D01*
X120178987Y-68050153D01*
X119926285Y-68117865D01*
X119926278Y-68117867D01*
X119863676Y-68139118D01*
X119863665Y-68139122D01*
X119621965Y-68239238D01*
X119562672Y-68268478D01*
X119336122Y-68399277D01*
X119336111Y-68399284D01*
X119281139Y-68436015D01*
X119073587Y-68595273D01*
X119023867Y-68638876D01*
X118838876Y-68823867D01*
X118795273Y-68873587D01*
X118636015Y-69081139D01*
X118599284Y-69136111D01*
X118599277Y-69136122D01*
X118468478Y-69362672D01*
X118439238Y-69421965D01*
X118339122Y-69663665D01*
X118339118Y-69663676D01*
X118317867Y-69726278D01*
X118317865Y-69726285D01*
X118250153Y-69978987D01*
X118237253Y-70043846D01*
X118203105Y-70303220D01*
X118203105Y-70303222D01*
X118198782Y-70369188D01*
X96138500Y-70369188D01*
X96138500Y-63448543D01*
X113999499Y-63448543D01*
X114037947Y-63641829D01*
X114037950Y-63641839D01*
X114113364Y-63823907D01*
X114113371Y-63823920D01*
X114222860Y-63987781D01*
X114222863Y-63987785D01*
X114362214Y-64127136D01*
X114362218Y-64127139D01*
X114526079Y-64236628D01*
X114526092Y-64236635D01*
X114708160Y-64312049D01*
X114708165Y-64312051D01*
X114708169Y-64312051D01*
X114708170Y-64312052D01*
X114901456Y-64350500D01*
X114901459Y-64350500D01*
X115098543Y-64350500D01*
X115228582Y-64324632D01*
X115291835Y-64312051D01*
X115473914Y-64236632D01*
X115637782Y-64127139D01*
X115777139Y-63987782D01*
X115886632Y-63823914D01*
X115962051Y-63641835D01*
X116000500Y-63448541D01*
X116000500Y-60551459D01*
X116000500Y-60551456D01*
X115962052Y-60358170D01*
X115962051Y-60358169D01*
X115962051Y-60358165D01*
X115962049Y-60358160D01*
X115886635Y-60176092D01*
X115886628Y-60176079D01*
X115777139Y-60012218D01*
X115777136Y-60012214D01*
X115637785Y-59872863D01*
X115637781Y-59872860D01*
X115473920Y-59763371D01*
X115473907Y-59763364D01*
X115291839Y-59687950D01*
X115291829Y-59687947D01*
X115098543Y-59649500D01*
X115098541Y-59649500D01*
X114901459Y-59649500D01*
X114901457Y-59649500D01*
X114708170Y-59687947D01*
X114708160Y-59687950D01*
X114526092Y-59763364D01*
X114526079Y-59763371D01*
X114362218Y-59872860D01*
X114362214Y-59872863D01*
X114222863Y-60012214D01*
X114222860Y-60012218D01*
X114113371Y-60176079D01*
X114113364Y-60176092D01*
X114037950Y-60358160D01*
X114037947Y-60358170D01*
X113999500Y-60551456D01*
X113999500Y-60551459D01*
X113999500Y-63448541D01*
X113999500Y-63448543D01*
X113999499Y-63448543D01*
X96138500Y-63448543D01*
X96138500Y-53369188D01*
X186798782Y-53369188D01*
X186798782Y-53630811D01*
X186803105Y-53696777D01*
X186803105Y-53696779D01*
X186835647Y-53943957D01*
X186837254Y-53956161D01*
X186844922Y-53994712D01*
X186850153Y-54021012D01*
X186917865Y-54273714D01*
X186917867Y-54273721D01*
X186939118Y-54336323D01*
X186939122Y-54336334D01*
X187039238Y-54578034D01*
X187068478Y-54637327D01*
X187199277Y-54863877D01*
X187199284Y-54863888D01*
X187236015Y-54918860D01*
X187395273Y-55126412D01*
X187438876Y-55176132D01*
X187623867Y-55361123D01*
X187673587Y-55404726D01*
X187755793Y-55467803D01*
X187881133Y-55563980D01*
X187936110Y-55600715D01*
X187936120Y-55600721D01*
X187936122Y-55600722D01*
X188162672Y-55731521D01*
X188221965Y-55760761D01*
X188221970Y-55760763D01*
X188221976Y-55760766D01*
X188463674Y-55860881D01*
X188526287Y-55882135D01*
X188778985Y-55949846D01*
X188843839Y-55962746D01*
X189082875Y-55994215D01*
X189103221Y-55996894D01*
X189169189Y-56001218D01*
X189169194Y-56001218D01*
X189430811Y-56001218D01*
X189496777Y-55996894D01*
X189496779Y-55996894D01*
X189514757Y-55994526D01*
X189756161Y-55962746D01*
X189821015Y-55949846D01*
X190073713Y-55882135D01*
X190136326Y-55860881D01*
X190378024Y-55760766D01*
X190437327Y-55731521D01*
X190663890Y-55600715D01*
X190718867Y-55563980D01*
X190926419Y-55404721D01*
X190976134Y-55361122D01*
X191161122Y-55176134D01*
X191204721Y-55126419D01*
X191363980Y-54918867D01*
X191400715Y-54863890D01*
X191531521Y-54637327D01*
X191560766Y-54578024D01*
X191660881Y-54336326D01*
X191682135Y-54273713D01*
X191749846Y-54021015D01*
X191762746Y-53956161D01*
X191796893Y-53696786D01*
X191796894Y-53696779D01*
X191796894Y-53696777D01*
X191801218Y-53630811D01*
X191801218Y-53369188D01*
X191796894Y-53303222D01*
X191796894Y-53303220D01*
X191790554Y-53255066D01*
X191762746Y-53043839D01*
X191749846Y-52978985D01*
X191682135Y-52726287D01*
X191660881Y-52663674D01*
X191560766Y-52421976D01*
X191531521Y-52362673D01*
X191531521Y-52362672D01*
X191400722Y-52136122D01*
X191400721Y-52136120D01*
X191400715Y-52136110D01*
X191363980Y-52081133D01*
X191204721Y-51873581D01*
X191161122Y-51823866D01*
X190976134Y-51638878D01*
X190966520Y-51630447D01*
X190926412Y-51595273D01*
X190718860Y-51436015D01*
X190687766Y-51415239D01*
X190663890Y-51399285D01*
X190663885Y-51399282D01*
X190663877Y-51399277D01*
X190437327Y-51268478D01*
X190378034Y-51239238D01*
X190136334Y-51139122D01*
X190136323Y-51139118D01*
X190073721Y-51117867D01*
X190073714Y-51117865D01*
X189821012Y-51050153D01*
X189794712Y-51044922D01*
X189756161Y-51037254D01*
X189742352Y-51035436D01*
X189496778Y-51003105D01*
X189430811Y-50998782D01*
X189430806Y-50998782D01*
X189169194Y-50998782D01*
X189169189Y-50998782D01*
X189103222Y-51003105D01*
X189103220Y-51003105D01*
X188843846Y-51037253D01*
X188843844Y-51037253D01*
X188843839Y-51037254D01*
X188818258Y-51042342D01*
X188778987Y-51050153D01*
X188526285Y-51117865D01*
X188526278Y-51117867D01*
X188463676Y-51139118D01*
X188463665Y-51139122D01*
X188221965Y-51239238D01*
X188162672Y-51268478D01*
X187936122Y-51399277D01*
X187936111Y-51399284D01*
X187881139Y-51436015D01*
X187673587Y-51595273D01*
X187623867Y-51638876D01*
X187438876Y-51823867D01*
X187395273Y-51873587D01*
X187236015Y-52081139D01*
X187199284Y-52136111D01*
X187199277Y-52136122D01*
X187068478Y-52362672D01*
X187039238Y-52421965D01*
X186939122Y-52663665D01*
X186939118Y-52663676D01*
X186917867Y-52726278D01*
X186917865Y-52726285D01*
X186850153Y-52978987D01*
X186837253Y-53043846D01*
X186803105Y-53303220D01*
X186803105Y-53303222D01*
X186798782Y-53369188D01*
X96138500Y-53369188D01*
X96138500Y-49346000D01*
X96158185Y-49278961D01*
X96210989Y-49233206D01*
X96262500Y-49222000D01*
X115106350Y-49222000D01*
X115173389Y-49241685D01*
G37*
%TD.AperFunction*%
%TD*%
M02*
