M48
; DRILL file {KiCad 9.0.6} date 2026-02-27T22:21:18+0800
; FORMAT={-:-/ absolute / inch / decimal}
; #@! TF.CreationDate,2026-02-27T22:21:18+08:00
; #@! TF.GenerationSoftware,Kicad,Pcbnew,9.0.6
; #@! TF.FileFunction,Plated,1,2,PTH
FMAT,2
INCH
; #@! TA.AperFunction,Plated,PTH,ViaDrill
T1C0.0118
; #@! TA.AperFunction,Plated,PTH,ComponentDrill
T2C0.0276
; #@! TA.AperFunction,Plated,PTH,ComponentDrill
T3C0.0394
%
G90
G05
T1
X3.8189Y-2.4793
X4.0157Y-2.499
X4.0494Y-2.0136
X4.0494Y-2.2262
X4.0497Y-2.8564
X4.1142Y-2.499
X4.13Y-2.6195
X4.2126Y-2.5
X4.2126Y-2.5394
X4.2323Y-2.4803
X4.2323Y-2.5197
X4.2323Y-2.5591
X4.252Y-2.5
X4.252Y-2.5394
X4.2717Y-2.4803
X4.2717Y-2.5197
X4.2717Y-2.5197
X4.2717Y-2.5197
X4.2717Y-2.5591
X4.2913Y-2.5
X4.2913Y-2.5394
X4.311Y-2.4803
X4.311Y-2.5197
X4.311Y-2.5591
X4.3307Y-2.5
X4.3307Y-2.5394
T2
G00X3.9057Y-1.9498
M15
G01X3.8743Y-1.9498
M16
G05
G00X3.9057Y-2.29
M15
G01X3.8743Y-2.29
M16
G05
G00X3.906Y-2.58
M15
G01X3.8745Y-2.58
M16
G05
G00X3.906Y-2.9202
M15
G01X3.8745Y-2.9202
M16
G05
G00X4.0554Y-1.9498
M15
G01X4.0239Y-1.9498
M16
G05
G00X4.0554Y-2.29
M15
G01X4.0239Y-2.29
M16
G05
G00X4.0556Y-2.58
M15
G01X4.0241Y-2.58
M16
G05
G00X4.0556Y-2.9202
M15
G01X4.0241Y-2.9202
M16
G05
T3
G00X4.5276Y-2.3878
M15
G01X4.5276Y-2.4941
M16
G05
G00X7.6772Y-2.3878
M15
G01X7.6772Y-2.4941
M16
G05
M30
