%TF.GenerationSoftware,KiCad,Pcbnew,9.0.6*%
%TF.CreationDate,2026-02-27T22:21:18+08:00*%
%TF.ProjectId,minipower,6d696e69-706f-4776-9572-2e6b69636164,rev?*%
%TF.SameCoordinates,Original*%
%TF.FileFunction,Legend,Top*%
%TF.FilePolarity,Positive*%
%FSLAX46Y46*%
G04 Gerber Fmt 4.6, Leading zero omitted, Abs format (unit mm)*
G04 Created by KiCad (PCBNEW 9.0.6) date 2026-02-27 22:21:18*
%MOMM*%
%LPD*%
G01*
G04 APERTURE LIST*
G04 Aperture macros list*
%AMRoundRect*
0 Rectangle with rounded corners*
0 $1 Rounding radius*
0 $2 $3 $4 $5 $6 $7 $8 $9 X,Y pos of 4 corners*
0 Add a 4 corners polygon primitive as box body*
4,1,4,$2,$3,$4,$5,$6,$7,$8,$9,$2,$3,0*
0 Add four circle primitives for the rounded corners*
1,1,$1+$1,$2,$3*
1,1,$1+$1,$4,$5*
1,1,$1+$1,$6,$7*
1,1,$1+$1,$8,$9*
0 Add four rect primitives between the rounded corners*
20,1,$1+$1,$2,$3,$4,$5,0*
20,1,$1+$1,$4,$5,$6,$7,0*
20,1,$1+$1,$6,$7,$8,$9,0*
20,1,$1+$1,$8,$9,$2,$3,0*%
G04 Aperture macros list end*
%ADD10C,0.150000*%
%ADD11C,0.254000*%
%ADD12C,0.254001*%
%ADD13C,0.059995*%
%ADD14C,0.120000*%
%ADD15C,0.127000*%
%ADD16C,0.250000*%
%ADD17R,0.600000X1.200000*%
%ADD18R,3.300000X2.400000*%
%ADD19R,2.000000X3.400000*%
%ADD20RoundRect,0.225000X-0.250000X0.225000X-0.250000X-0.225000X0.250000X-0.225000X0.250000X0.225000X0*%
%ADD21RoundRect,0.250000X-0.650000X0.325000X-0.650000X-0.325000X0.650000X-0.325000X0.650000X0.325000X0*%
%ADD22RoundRect,0.225000X0.250000X-0.225000X0.250000X0.225000X-0.250000X0.225000X-0.250000X-0.225000X0*%
%ADD23RoundRect,0.287778X-0.489222X-0.714222X0.489222X-0.714222X0.489222X0.714222X-0.489222X0.714222X0*%
%ADD24O,1.900000X1.100000*%
%ADD25R,1.200000X0.700000*%
%ADD26R,1.200000X0.800000*%
%ADD27RoundRect,0.135000X-0.135000X-0.185000X0.135000X-0.185000X0.135000X0.185000X-0.135000X0.185000X0*%
%ADD28RoundRect,0.225000X0.225000X0.250000X-0.225000X0.250000X-0.225000X-0.250000X0.225000X-0.250000X0*%
%ADD29RoundRect,0.200000X-0.275000X0.200000X-0.275000X-0.200000X0.275000X-0.200000X0.275000X0.200000X0*%
%ADD30RoundRect,0.135000X-0.185000X0.135000X-0.185000X-0.135000X0.185000X-0.135000X0.185000X0.135000X0*%
%ADD31RoundRect,0.218750X-0.256250X0.218750X-0.256250X-0.218750X0.256250X-0.218750X0.256250X0.218750X0*%
%ADD32RoundRect,0.218750X0.256250X-0.218750X0.256250X0.218750X-0.256250X0.218750X-0.256250X-0.218750X0*%
%ADD33RoundRect,0.135000X0.135000X0.185000X-0.135000X0.185000X-0.135000X-0.185000X0.135000X-0.185000X0*%
%ADD34O,1.500000X4.200000*%
%ADD35RoundRect,0.135000X0.185000X-0.135000X0.185000X0.135000X-0.185000X0.135000X-0.185000X-0.135000X0*%
%ADD36RoundRect,0.200000X0.200000X0.275000X-0.200000X0.275000X-0.200000X-0.275000X0.200000X-0.275000X0*%
G04 APERTURE END LIST*
D10*
X108833333Y-59522319D02*
X108357143Y-59522319D01*
X108357143Y-59522319D02*
X108357143Y-58522319D01*
X109119048Y-58617557D02*
X109166667Y-58569938D01*
X109166667Y-58569938D02*
X109261905Y-58522319D01*
X109261905Y-58522319D02*
X109500000Y-58522319D01*
X109500000Y-58522319D02*
X109595238Y-58569938D01*
X109595238Y-58569938D02*
X109642857Y-58617557D01*
X109642857Y-58617557D02*
X109690476Y-58712795D01*
X109690476Y-58712795D02*
X109690476Y-58808033D01*
X109690476Y-58808033D02*
X109642857Y-58950890D01*
X109642857Y-58950890D02*
X109071429Y-59522319D01*
X109071429Y-59522319D02*
X109690476Y-59522319D01*
D11*
%TO.C,U1*%
X105950000Y-61950000D02*
X111050000Y-61950000D01*
X105950000Y-63200000D02*
X105950000Y-61950000D01*
X105950000Y-64800000D02*
X105950000Y-66050000D01*
X111050000Y-61950000D02*
X111050000Y-66050000D01*
X111050000Y-66050000D02*
X105950000Y-66050000D01*
X106000000Y-63200000D02*
G75*
G02*
X106000000Y-64800000I-375000J-800000D01*
G01*
X105640000Y-65500000D02*
G75*
G02*
X105300000Y-65500000I-170000J0D01*
G01*
X105300000Y-65500000D02*
G75*
G02*
X105640000Y-65500000I170000J0D01*
G01*
D12*
%TO.C,L2*%
X105300000Y-53167500D02*
X105300000Y-54636360D01*
X105300000Y-53167500D02*
X112700000Y-53167500D01*
X105300000Y-58498640D02*
X105300000Y-59967500D01*
X106205994Y-53265493D02*
X106205994Y-54027495D01*
X106205994Y-54027495D02*
X105443993Y-54027495D01*
X112700000Y-53167500D02*
X112700000Y-54636360D01*
X112700000Y-58498640D02*
X112700000Y-59967500D01*
X112700508Y-59967500D02*
X105300508Y-59967500D01*
D13*
X105479985Y-59817513D02*
G75*
G02*
X105419989Y-59817513I-29998J0D01*
G01*
X105419989Y-59817513D02*
G75*
G02*
X105479985Y-59817513I29998J0D01*
G01*
D12*
X110143256Y-56567500D02*
G75*
G02*
X107857252Y-56567500I-1143002J0D01*
G01*
X107857252Y-56567500D02*
G75*
G02*
X110143256Y-56567500I1143002J0D01*
G01*
D14*
X107000000Y-58167500D02*
X105449987Y-58167500D01*
X105449987Y-54967500D01*
X107000000Y-54967500D01*
X107000000Y-58167500D01*
G36*
X107000000Y-58167500D02*
G01*
X105449987Y-58167500D01*
X105449987Y-54967500D01*
X107000000Y-54967500D01*
X107000000Y-58167500D01*
G37*
X112550013Y-58167500D02*
X111000000Y-58167500D01*
X111000000Y-54967500D01*
X112550013Y-54967500D01*
X112550013Y-58167500D01*
G36*
X112550013Y-58167500D02*
G01*
X111000000Y-58167500D01*
X111000000Y-54967500D01*
X112550013Y-54967500D01*
X112550013Y-58167500D01*
G37*
%TO.C,C6*%
X104490000Y-73265420D02*
X104490000Y-73546580D01*
X105510000Y-73265420D02*
X105510000Y-73546580D01*
%TO.C,C5*%
X98590000Y-60788748D02*
X98590000Y-62211252D01*
X100410000Y-60788748D02*
X100410000Y-62211252D01*
%TO.C,C2*%
X111546000Y-62859420D02*
X111546000Y-63140580D01*
X112566000Y-62859420D02*
X112566000Y-63140580D01*
%TO.C,C1*%
X104392000Y-67450580D02*
X104392000Y-67169420D01*
X105412000Y-67450580D02*
X105412000Y-67169420D01*
D15*
%TO.C,S1*%
X107000000Y-71550000D02*
X111000000Y-71550000D01*
X107000000Y-71780000D02*
X107000000Y-71550000D01*
X107000000Y-74450000D02*
X107000000Y-74220000D01*
X111000000Y-71550000D02*
X111000000Y-71780000D01*
X111000000Y-74450000D02*
X107000000Y-74450000D01*
X111000000Y-74450000D02*
X111000000Y-74220000D01*
D16*
%TO.C,U2*%
X96212500Y-65351000D02*
X96212500Y-74353000D01*
X96212500Y-74353000D02*
X97612000Y-74353000D01*
D11*
X97380000Y-67034500D02*
X99881500Y-67532000D01*
X97380000Y-67509500D02*
X97380000Y-67034500D01*
X97380000Y-68837500D02*
X99480500Y-68439000D01*
X97380000Y-69333000D02*
X97380000Y-68837500D01*
X97385000Y-70311000D02*
X99887000Y-70809000D01*
X97385000Y-70786000D02*
X97385000Y-70311000D01*
X97385000Y-72114500D02*
X99485500Y-71715500D01*
X97385000Y-72610000D02*
X97385000Y-72114500D01*
D16*
X97612000Y-65351000D02*
X97634500Y-65351000D01*
X97634500Y-65351000D02*
X96212500Y-65351000D01*
D11*
X98680500Y-67334000D02*
X98680500Y-67733000D01*
X98680500Y-68633500D02*
X98680500Y-69033500D01*
X98685500Y-70611000D02*
X98685500Y-71009500D01*
X98685500Y-71910000D02*
X98685500Y-72310000D01*
X99480500Y-67910500D02*
X97380000Y-67509500D01*
X99480500Y-68439000D02*
X99480500Y-67910500D01*
X99485500Y-71187500D02*
X97385000Y-70786000D01*
X99485500Y-71715500D02*
X99485500Y-71187500D01*
X99881500Y-67532000D02*
X99881500Y-68832500D01*
X99881500Y-68832500D02*
X97380000Y-69333000D01*
X99887000Y-70809000D02*
X99887000Y-72109500D01*
X99887000Y-72109500D02*
X97385000Y-72610000D01*
D16*
X100013000Y-74352000D02*
X101463000Y-74352000D01*
X101213000Y-68842000D02*
X101213000Y-70862000D01*
X101213000Y-68852000D02*
X101613000Y-68852000D01*
X101213000Y-70852000D02*
X101613000Y-70852000D01*
X101413000Y-65352000D02*
X99970500Y-65352000D01*
X101413000Y-65352000D02*
X101455000Y-65352000D01*
X101613000Y-68852000D02*
X101613000Y-69452000D01*
X101613000Y-69452000D02*
X101813000Y-69452000D01*
X101613000Y-70252000D02*
X101813000Y-70252000D01*
X101613000Y-70852000D02*
X101613000Y-70252000D01*
X103013000Y-66311000D02*
X103013000Y-66523000D01*
X103013000Y-73181000D02*
X103013000Y-73393000D01*
D14*
%TO.C,R6*%
X101346359Y-63882000D02*
X101653641Y-63882000D01*
X101346359Y-64642000D02*
X101653641Y-64642000D01*
%TO.C,C7*%
X108140580Y-51490000D02*
X107859420Y-51490000D01*
X108140580Y-52510000D02*
X107859420Y-52510000D01*
%TO.C,R3*%
X104477500Y-70120742D02*
X104477500Y-70595258D01*
X105522500Y-70120742D02*
X105522500Y-70595258D01*
%TO.C,R1*%
X112120000Y-72846359D02*
X112120000Y-73153641D01*
X112880000Y-72846359D02*
X112880000Y-73153641D01*
%TO.C,D2*%
X107765000Y-67963000D02*
X107765000Y-70248000D01*
X109235000Y-67963000D02*
X107765000Y-67963000D01*
X109235000Y-70248000D02*
X109235000Y-67963000D01*
%TO.C,D1*%
X105987000Y-68622500D02*
X105987000Y-70907500D01*
X105987000Y-70907500D02*
X107457000Y-70907500D01*
X107457000Y-70907500D02*
X107457000Y-68622500D01*
%TO.C,R5*%
X99653641Y-63882000D02*
X99346359Y-63882000D01*
X99653641Y-64642000D02*
X99346359Y-64642000D01*
%TO.C,R7*%
X104120000Y-54846359D02*
X104120000Y-55153641D01*
X104880000Y-54846359D02*
X104880000Y-55153641D01*
D11*
%TO.C,U6*%
X113500000Y-49500000D02*
X113500000Y-74500000D01*
X113500000Y-49500000D02*
X196500000Y-49500000D01*
X113500000Y-74500000D02*
X196500000Y-74500000D01*
X196500000Y-49500000D02*
X196500000Y-74500000D01*
D14*
%TO.C,D4*%
X110813000Y-67963000D02*
X110813000Y-70248000D01*
X112283000Y-67963000D02*
X110813000Y-67963000D01*
X112283000Y-70248000D02*
X112283000Y-67963000D01*
%TO.C,C4*%
X101090000Y-60788748D02*
X101090000Y-62211252D01*
X102910000Y-60788748D02*
X102910000Y-62211252D01*
%TO.C,D3*%
X109289000Y-68648000D02*
X109289000Y-70933000D01*
X109289000Y-70933000D02*
X110759000Y-70933000D01*
X110759000Y-70933000D02*
X110759000Y-68648000D01*
%TO.C,R8*%
X104120000Y-53153641D02*
X104120000Y-52846359D01*
X104880000Y-53153641D02*
X104880000Y-52846359D01*
%TO.C,R4*%
X111737258Y-51477500D02*
X111262742Y-51477500D01*
X111737258Y-52522500D02*
X111262742Y-52522500D01*
D16*
%TO.C,U3*%
X96205500Y-49345000D02*
X96205500Y-58347000D01*
X96205500Y-58347000D02*
X97605000Y-58347000D01*
D11*
X97373000Y-51028500D02*
X99874500Y-51526000D01*
X97373000Y-51503500D02*
X97373000Y-51028500D01*
X97373000Y-52831500D02*
X99473500Y-52433000D01*
X97373000Y-53327000D02*
X97373000Y-52831500D01*
X97378000Y-54305000D02*
X99880000Y-54803000D01*
X97378000Y-54780000D02*
X97378000Y-54305000D01*
X97378000Y-56108500D02*
X99478500Y-55709500D01*
X97378000Y-56604000D02*
X97378000Y-56108500D01*
D16*
X97605000Y-49345000D02*
X97627500Y-49345000D01*
X97627500Y-49345000D02*
X96205500Y-49345000D01*
D11*
X98673500Y-51328000D02*
X98673500Y-51727000D01*
X98673500Y-52627500D02*
X98673500Y-53027500D01*
X98678500Y-54605000D02*
X98678500Y-55003500D01*
X98678500Y-55904000D02*
X98678500Y-56304000D01*
X99473500Y-51904500D02*
X97373000Y-51503500D01*
X99473500Y-52433000D02*
X99473500Y-51904500D01*
X99478500Y-55181500D02*
X97378000Y-54780000D01*
X99478500Y-55709500D02*
X99478500Y-55181500D01*
X99874500Y-51526000D02*
X99874500Y-52826500D01*
X99874500Y-52826500D02*
X97373000Y-53327000D01*
X99880000Y-54803000D02*
X99880000Y-56103500D01*
X99880000Y-56103500D02*
X97378000Y-56604000D01*
D16*
X100006000Y-58346000D02*
X101456000Y-58346000D01*
X101206000Y-52836000D02*
X101206000Y-54856000D01*
X101206000Y-52846000D02*
X101606000Y-52846000D01*
X101206000Y-54846000D02*
X101606000Y-54846000D01*
X101406000Y-49346000D02*
X99963500Y-49346000D01*
X101406000Y-49346000D02*
X101448000Y-49346000D01*
X101606000Y-52846000D02*
X101606000Y-53446000D01*
X101606000Y-53446000D02*
X101806000Y-53446000D01*
X101606000Y-54246000D02*
X101806000Y-54246000D01*
X101606000Y-54846000D02*
X101606000Y-54246000D01*
X103006000Y-50305000D02*
X103006000Y-50517000D01*
X103006000Y-57175000D02*
X103006000Y-57387000D01*
D14*
%TO.C,C3*%
X103590000Y-61288748D02*
X103590000Y-62711252D01*
X105410000Y-61288748D02*
X105410000Y-62711252D01*
%TD*%
%LPC*%
D17*
%TO.C,U1*%
X106595000Y-66908500D03*
X107865000Y-66908500D03*
X109135000Y-66908500D03*
X110405000Y-66908500D03*
X110405000Y-61091500D03*
X109135000Y-61091500D03*
X107865000Y-61091500D03*
X106595000Y-61091500D03*
D18*
X108500000Y-64000000D03*
%TD*%
D19*
%TO.C,L2*%
X106199898Y-56567500D03*
X111800102Y-56567500D03*
%TD*%
D20*
%TO.C,C6*%
X105000000Y-72631000D03*
X105000000Y-74181000D03*
%TD*%
D21*
%TO.C,C5*%
X99500000Y-60025000D03*
X99500000Y-62975000D03*
%TD*%
D20*
%TO.C,C2*%
X112056000Y-62225000D03*
X112056000Y-63775000D03*
%TD*%
D22*
%TO.C,C1*%
X104902000Y-68085000D03*
X104902000Y-66535000D03*
%TD*%
D23*
%TO.C,S1*%
X106925000Y-73000000D03*
X111075000Y-73000000D03*
%TD*%
D24*
%TO.C,U2*%
X102613000Y-65532000D03*
X98813000Y-65532000D03*
X102613000Y-74172000D03*
X98813000Y-74172000D03*
D25*
X102863000Y-69352000D03*
X102863000Y-71352000D03*
D26*
X102863000Y-72552000D03*
D25*
X102863000Y-70352000D03*
X102863000Y-68352000D03*
D26*
X102863000Y-67152000D03*
%TD*%
D27*
%TO.C,R6*%
X100990000Y-64262000D03*
X102010000Y-64262000D03*
%TD*%
D28*
%TO.C,C7*%
X108775000Y-52000000D03*
X107225000Y-52000000D03*
%TD*%
D29*
%TO.C,R3*%
X105000000Y-69533000D03*
X105000000Y-71183000D03*
%TD*%
D30*
%TO.C,R1*%
X112500000Y-72490000D03*
X112500000Y-73510000D03*
%TD*%
D31*
%TO.C,D2*%
X108500000Y-68660500D03*
X108500000Y-70235500D03*
%TD*%
D32*
%TO.C,D1*%
X106722000Y-70210000D03*
X106722000Y-68635000D03*
%TD*%
D33*
%TO.C,R5*%
X100010000Y-64262000D03*
X98990000Y-64262000D03*
%TD*%
D30*
%TO.C,R7*%
X104500000Y-54490000D03*
X104500000Y-55510000D03*
%TD*%
D34*
%TO.C,U6*%
X115000000Y-62000000D03*
X195000000Y-62000000D03*
%TD*%
D31*
%TO.C,D4*%
X111548000Y-68660500D03*
X111548000Y-70235500D03*
%TD*%
D21*
%TO.C,C4*%
X102000000Y-60025000D03*
X102000000Y-62975000D03*
%TD*%
D32*
%TO.C,D3*%
X110024000Y-70235500D03*
X110024000Y-68660500D03*
%TD*%
D35*
%TO.C,R8*%
X104500000Y-53510000D03*
X104500000Y-52490000D03*
%TD*%
D36*
%TO.C,R4*%
X112325000Y-52000000D03*
X110675000Y-52000000D03*
%TD*%
D24*
%TO.C,U3*%
X102606000Y-49526000D03*
X98806000Y-49526000D03*
X102606000Y-58166000D03*
X98806000Y-58166000D03*
D25*
X102856000Y-53346000D03*
X102856000Y-55346000D03*
D26*
X102856000Y-56546000D03*
D25*
X102856000Y-54346000D03*
X102856000Y-52346000D03*
D26*
X102856000Y-51146000D03*
%TD*%
D21*
%TO.C,C3*%
X104500000Y-60525000D03*
X104500000Y-63475000D03*
%TD*%
%LPD*%
M02*
