%TF.GenerationSoftware,KiCad,Pcbnew,9.0.6*%
%TF.CreationDate,2026-02-27T22:21:18+08:00*%
%TF.ProjectId,minipower,6d696e69-706f-4776-9572-2e6b69636164,rev?*%
%TF.SameCoordinates,Original*%
%TF.FileFunction,Profile,NP*%
%FSLAX46Y46*%
G04 Gerber Fmt 4.6, Leading zero omitted, Abs format (unit mm)*
G04 Created by KiCad (PCBNEW 9.0.6) date 2026-02-27 22:21:18*
%MOMM*%
%LPD*%
G01*
G04 APERTURE LIST*
%TA.AperFunction,Profile*%
%ADD10C,0.050000*%
%TD*%
%TA.AperFunction,Profile*%
%ADD11C,0.000000*%
%TD*%
G04 APERTURE END LIST*
D10*
X95638000Y-48721500D02*
X196946000Y-48721500D01*
X196946000Y-74883500D01*
X95638000Y-74883500D01*
X95638000Y-48721500D01*
D11*
%TA.AperFunction,Profile*%
%TO.C,U6*%
G36*
X116540285Y-49543060D02*
G01*
X116721397Y-49618079D01*
X116884393Y-49726990D01*
X117023010Y-49865607D01*
X117131921Y-50028603D01*
X117206940Y-50209715D01*
X117245185Y-50401983D01*
X117245185Y-50598017D01*
X117206940Y-50790285D01*
X117131921Y-50971397D01*
X117023010Y-51134393D01*
X116884393Y-51273010D01*
X116721397Y-51381921D01*
X116540285Y-51456940D01*
X116348017Y-51495185D01*
X116151983Y-51495185D01*
X115959715Y-51456940D01*
X115778603Y-51381921D01*
X115615607Y-51273010D01*
X115476990Y-51134393D01*
X115368079Y-50971397D01*
X115293060Y-50790285D01*
X115254815Y-50598017D01*
X115254815Y-50401983D01*
X115293060Y-50209715D01*
X115368079Y-50028603D01*
X115476990Y-49865607D01*
X115615607Y-49726990D01*
X115778603Y-49618079D01*
X115959715Y-49543060D01*
X116151983Y-49504815D01*
X116348017Y-49504815D01*
X116540285Y-49543060D01*
G37*
%TD.AperFunction*%
%TA.AperFunction,Profile*%
G36*
X121090181Y-68538429D02*
G01*
X121342879Y-68606140D01*
X121584577Y-68706255D01*
X121811140Y-68837061D01*
X122018692Y-68996320D01*
X122203680Y-69181308D01*
X122362939Y-69388860D01*
X122493745Y-69615423D01*
X122593860Y-69857121D01*
X122661571Y-70109819D01*
X122695718Y-70369194D01*
X122695718Y-70630806D01*
X122661571Y-70890181D01*
X122593860Y-71142879D01*
X122493745Y-71384577D01*
X122362939Y-71611140D01*
X122203680Y-71818692D01*
X122018692Y-72003680D01*
X121811140Y-72162939D01*
X121584577Y-72293745D01*
X121342879Y-72393860D01*
X121090181Y-72461571D01*
X120830806Y-72495718D01*
X120569194Y-72495718D01*
X120309819Y-72461571D01*
X120057121Y-72393860D01*
X119815423Y-72293745D01*
X119588860Y-72162939D01*
X119381308Y-72003680D01*
X119196320Y-71818692D01*
X119037061Y-71611140D01*
X118906255Y-71384577D01*
X118806140Y-71142879D01*
X118738429Y-70890181D01*
X118704282Y-70630806D01*
X118704282Y-70369194D01*
X118738429Y-70109819D01*
X118806140Y-69857121D01*
X118906255Y-69615423D01*
X119037061Y-69388860D01*
X119196320Y-69181308D01*
X119381308Y-68996320D01*
X119588860Y-68837061D01*
X119815423Y-68706255D01*
X120057121Y-68606140D01*
X120309819Y-68538429D01*
X120569194Y-68504282D01*
X120830806Y-68504282D01*
X121090181Y-68538429D01*
G37*
%TD.AperFunction*%
%TA.AperFunction,Profile*%
G36*
X189690181Y-51538429D02*
G01*
X189942879Y-51606140D01*
X190184577Y-51706255D01*
X190411140Y-51837061D01*
X190618692Y-51996320D01*
X190803680Y-52181308D01*
X190962939Y-52388860D01*
X191093745Y-52615423D01*
X191193860Y-52857121D01*
X191261571Y-53109819D01*
X191295718Y-53369194D01*
X191295718Y-53630806D01*
X191261571Y-53890181D01*
X191193860Y-54142879D01*
X191093745Y-54384577D01*
X190962939Y-54611140D01*
X190803680Y-54818692D01*
X190618692Y-55003680D01*
X190411140Y-55162939D01*
X190184577Y-55293745D01*
X189942879Y-55393860D01*
X189690181Y-55461571D01*
X189430806Y-55495718D01*
X189169194Y-55495718D01*
X188909819Y-55461571D01*
X188657121Y-55393860D01*
X188415423Y-55293745D01*
X188188860Y-55162939D01*
X187981308Y-55003680D01*
X187796320Y-54818692D01*
X187637061Y-54611140D01*
X187506255Y-54384577D01*
X187406140Y-54142879D01*
X187338429Y-53890181D01*
X187304282Y-53630806D01*
X187304282Y-53369194D01*
X187338429Y-53109819D01*
X187406140Y-52857121D01*
X187506255Y-52615423D01*
X187637061Y-52388860D01*
X187796320Y-52181308D01*
X187981308Y-51996320D01*
X188188860Y-51837061D01*
X188415423Y-51706255D01*
X188657121Y-51606140D01*
X188909819Y-51538429D01*
X189169194Y-51504282D01*
X189430806Y-51504282D01*
X189690181Y-51538429D01*
G37*
%TD.AperFunction*%
%TD*%
M02*
