%TF.GenerationSoftware,KiCad,Pcbnew,9.0.6*%
%TF.CreationDate,2026-03-09T12:42:34+08:00*%
%TF.ProjectId,minipower,6d696e69-706f-4776-9572-2e6b69636164,rev?*%
%TF.SameCoordinates,Original*%
%TF.FileFunction,Legend,Bot*%
%TF.FilePolarity,Positive*%
%FSLAX46Y46*%
G04 Gerber Fmt 4.6, Leading zero omitted, Abs format (unit mm)*
G04 Created by KiCad (PCBNEW 9.0.6) date 2026-03-09 12:42:34*
%MOMM*%
%LPD*%
G01*
G04 APERTURE LIST*
%ADD10C,0.200000*%
%ADD11C,0.149999*%
%ADD12C,0.150000*%
%ADD13C,0.100000*%
%ADD14C,0.000000*%
%ADD15C,0.482952*%
%ADD16C,0.499999*%
%ADD17C,0.385031*%
%ADD18C,0.376262*%
%ADD19C,0.435115*%
%ADD20O,1.900000X1.100000*%
%ADD21O,1.500000X4.200000*%
G04 APERTURE END LIST*
D10*
X187591185Y-64389000D02*
X185293000Y-65532000D01*
X185293000Y-63373000D02*
X187591185Y-64389000D01*
D11*
X159452304Y-54626141D02*
X159461978Y-54626876D01*
X159471512Y-54628088D01*
X159480893Y-54629763D01*
X159490109Y-54631890D01*
X159499149Y-54634457D01*
X159508000Y-54637452D01*
X159516651Y-54640863D01*
X159525089Y-54644678D01*
X159533303Y-54648885D01*
X159541281Y-54653472D01*
X159549010Y-54658427D01*
X159556479Y-54663738D01*
X159563675Y-54669393D01*
X159570587Y-54675381D01*
X159577203Y-54681689D01*
X159583511Y-54688304D01*
X159589498Y-54695217D01*
X159595154Y-54702413D01*
X159600465Y-54709882D01*
X159605420Y-54717611D01*
X159610007Y-54725588D01*
X159614214Y-54733802D01*
X159618029Y-54742241D01*
X159621440Y-54750892D01*
X159624435Y-54759743D01*
X159627002Y-54768783D01*
X159629129Y-54777999D01*
X159630804Y-54787380D01*
X159632015Y-54796914D01*
X159632751Y-54806588D01*
X159632999Y-54816391D01*
X159632751Y-54826194D01*
X159632015Y-54835869D01*
X159630804Y-54845402D01*
X159629129Y-54854783D01*
X159627002Y-54864000D01*
X159624435Y-54873040D01*
X159621440Y-54881891D01*
X159618029Y-54890542D01*
X159614214Y-54898980D01*
X159610007Y-54907194D01*
X159605420Y-54915172D01*
X159600465Y-54922901D01*
X159595154Y-54930369D01*
X159589498Y-54937566D01*
X159583511Y-54944478D01*
X159577203Y-54951094D01*
X159570587Y-54957402D01*
X159563675Y-54963389D01*
X159556479Y-54969044D01*
X159549010Y-54974355D01*
X159541281Y-54979311D01*
X159533303Y-54983897D01*
X159525089Y-54988104D01*
X159516651Y-54991919D01*
X159508000Y-54995330D01*
X159499149Y-54998325D01*
X159490109Y-55000892D01*
X159480893Y-55003019D01*
X159471512Y-55004695D01*
X159461978Y-55005906D01*
X159452304Y-55006642D01*
X159442501Y-55006890D01*
X159432698Y-55006642D01*
X159423023Y-55005906D01*
X159413490Y-55004695D01*
X159404109Y-55003019D01*
X159394892Y-55000892D01*
X159385852Y-54998325D01*
X159377001Y-54995330D01*
X159368350Y-54991919D01*
X159359912Y-54988104D01*
X159351698Y-54983897D01*
X159343720Y-54979311D01*
X159335991Y-54974355D01*
X159328522Y-54969044D01*
X159321326Y-54963389D01*
X159314414Y-54957402D01*
X159307798Y-54951094D01*
X159301490Y-54944478D01*
X159295503Y-54937566D01*
X159289847Y-54930369D01*
X159284536Y-54922901D01*
X159279581Y-54915172D01*
X159274994Y-54907194D01*
X159270787Y-54898980D01*
X159266973Y-54890542D01*
X159263562Y-54881891D01*
X159260567Y-54873040D01*
X159258000Y-54864000D01*
X159255872Y-54854783D01*
X159254197Y-54845402D01*
X159252986Y-54835869D01*
X159252250Y-54826194D01*
X159252002Y-54816391D01*
X159252250Y-54806588D01*
X159252986Y-54796914D01*
X159254197Y-54787380D01*
X159255872Y-54777999D01*
X159258000Y-54768783D01*
X159260567Y-54759743D01*
X159263562Y-54750892D01*
X159266973Y-54742241D01*
X159270787Y-54733802D01*
X159274994Y-54725588D01*
X159279581Y-54717611D01*
X159284536Y-54709882D01*
X159289847Y-54702413D01*
X159295503Y-54695217D01*
X159301490Y-54688304D01*
X159307798Y-54681689D01*
X159314414Y-54675381D01*
X159321326Y-54669393D01*
X159328522Y-54663738D01*
X159335991Y-54658427D01*
X159343720Y-54653472D01*
X159351698Y-54648885D01*
X159359912Y-54644678D01*
X159368350Y-54640863D01*
X159377001Y-54637452D01*
X159385852Y-54634457D01*
X159394892Y-54631890D01*
X159404109Y-54629763D01*
X159413490Y-54628088D01*
X159423023Y-54626876D01*
X159432698Y-54626141D01*
X159442501Y-54625893D01*
X159452304Y-54626141D01*
D10*
X157988000Y-70358000D02*
X185356500Y-70358000D01*
X185356500Y-73914000D01*
X157988000Y-73914000D01*
X157988000Y-70358000D01*
D11*
X149873046Y-69784867D02*
X143523048Y-69784867D01*
X143523048Y-67244870D01*
X149873046Y-67244870D01*
X149873046Y-69784867D01*
X119541061Y-51321439D02*
X119541061Y-50686441D01*
X119722511Y-50686441D02*
X119359664Y-50686441D01*
X119934211Y-51200490D02*
X119934211Y-50686441D01*
X119964408Y-51260991D02*
X119934211Y-51200490D01*
X119994659Y-51291242D02*
X119978813Y-51275397D01*
X119964408Y-51260991D01*
X120055160Y-51321439D02*
X119994659Y-51291238D01*
X120176109Y-51321439D02*
X120055160Y-51321439D01*
X120236556Y-51291242D02*
X120176109Y-51321443D01*
X120266807Y-51260991D02*
X120252402Y-51275397D01*
X120236556Y-51291242D01*
X120297057Y-51200490D02*
X120266807Y-51260991D01*
X120297057Y-50686441D02*
X120297057Y-51200490D01*
X120901809Y-50716691D02*
X120841361Y-50686441D01*
X120962310Y-50777188D02*
X120933180Y-50748058D01*
X120901809Y-50716687D01*
X120992507Y-50898141D02*
X120977621Y-50838518D01*
X120962310Y-50777192D01*
X120992507Y-51109788D02*
X120992507Y-50898137D01*
X120962310Y-51230741D02*
X120977621Y-51169415D01*
X120992507Y-51109792D01*
X120901809Y-51291242D02*
X120962310Y-51230741D01*
X120841361Y-51321439D02*
X120901809Y-51291238D01*
X120720405Y-51321439D02*
X120841354Y-51321439D01*
X120659911Y-51291242D02*
X120720412Y-51321443D01*
X120599456Y-51230741D02*
X120659904Y-51291242D01*
X120569205Y-51109788D02*
X120585374Y-51174433D01*
X120599456Y-51230737D01*
X120569205Y-50898141D02*
X120569205Y-51109792D01*
X120599456Y-50777188D02*
X120585571Y-50832706D01*
X120569205Y-50898137D01*
X120659911Y-50716691D02*
X120599464Y-50777192D01*
X120720405Y-50686441D02*
X120659904Y-50716691D01*
X120841361Y-50686441D02*
X120720412Y-50686441D01*
X121385658Y-51321439D02*
X121173957Y-50686441D01*
X121597312Y-50686441D02*
X121385665Y-51321439D01*
X123405051Y-57542108D02*
X123405051Y-56907109D01*
X123586501Y-56907106D02*
X123223655Y-56907106D01*
X123919151Y-56907106D02*
X123707450Y-57542104D01*
X124130805Y-57542108D02*
X123919158Y-56907109D01*
X124070304Y-57360707D02*
X123767951Y-57360707D01*
X124463401Y-57209508D02*
X124675101Y-57209508D01*
X124402953Y-57179258D02*
X124434957Y-57195274D01*
X124463401Y-57209508D01*
X124372703Y-57149007D02*
X124388485Y-57164790D01*
X124402953Y-57179258D01*
X124342452Y-57088556D02*
X124372703Y-57149007D01*
X124342452Y-57028058D02*
X124342452Y-57088559D01*
X124372703Y-56967607D02*
X124342452Y-57028058D01*
X124402953Y-56937356D02*
X124387171Y-56953139D01*
X124372703Y-56967607D01*
X124463401Y-56907106D02*
X124434957Y-56921340D01*
X124402953Y-56937356D01*
X124675101Y-56907106D02*
X124463401Y-56907106D01*
X124675101Y-57542108D02*
X124675101Y-56907109D01*
X124433204Y-57542108D02*
X124675101Y-57542108D01*
X124372703Y-57511907D02*
X124433204Y-57542108D01*
X124342452Y-57481656D02*
X124356857Y-57496062D01*
X124372703Y-57511907D01*
X124312255Y-57421155D02*
X124342452Y-57481656D01*
X124312255Y-57330457D02*
X124312255Y-57421155D01*
X124342452Y-57269956D02*
X124312255Y-57330457D01*
X124372703Y-57239759D02*
X124342452Y-57269960D01*
X124463401Y-57209508D02*
X124414166Y-57225929D01*
X124372703Y-57239759D01*
X183497699Y-53097108D02*
X183497699Y-52462110D01*
X183860549Y-52462106D02*
X183497699Y-53097104D01*
X183860549Y-53097108D02*
X183860549Y-52462110D01*
X184162952Y-53097108D02*
X184162952Y-52462110D01*
X184586299Y-53097108D02*
X184374599Y-52462110D01*
X184797950Y-52462106D02*
X184586299Y-53097104D01*
X146597701Y-57542108D02*
X146446502Y-56907109D01*
X146718650Y-57088556D02*
X146597701Y-57542104D01*
X146839606Y-57542108D02*
X146718658Y-57088559D01*
X146990806Y-56907106D02*
X146839606Y-57542104D01*
X147293205Y-56907106D02*
X147245856Y-56922889D01*
X147202453Y-56937356D01*
X147444350Y-56907106D02*
X147293197Y-56907106D01*
X147504852Y-56937356D02*
X147444350Y-56907106D01*
X147535102Y-56967607D02*
X147520634Y-56953139D01*
X147504852Y-56937356D01*
X147565307Y-57028058D02*
X147535110Y-56967607D01*
X147565307Y-57088556D02*
X147565307Y-57028054D01*
X147535102Y-57149007D02*
X147565299Y-57088556D01*
X147504852Y-57179258D02*
X147519320Y-57164790D01*
X147535102Y-57149007D01*
X147444350Y-57209508D02*
X147504852Y-57179258D01*
X147323402Y-57239759D02*
X147444350Y-57209508D01*
X147262954Y-57269956D02*
X147323402Y-57239755D01*
X147232703Y-57300206D02*
X147262954Y-57269956D01*
X147202453Y-57360707D02*
X147218235Y-57329142D01*
X147232703Y-57300206D01*
X147202453Y-57421155D02*
X147202453Y-57360704D01*
X147232703Y-57481656D02*
X147202453Y-57421155D01*
X147262954Y-57511907D02*
X147247108Y-57496062D01*
X147232703Y-57481656D01*
X147323402Y-57542108D02*
X147262954Y-57511907D01*
X147474601Y-57542108D02*
X147323402Y-57542108D01*
X147565307Y-57511907D02*
X147474609Y-57542108D01*
X121446273Y-55704168D02*
X121597472Y-55704168D01*
X121355575Y-55673967D02*
X121446273Y-55704168D01*
X121295074Y-55613465D02*
X121326534Y-55644926D01*
X121355575Y-55673967D01*
X121264823Y-55552968D02*
X121279153Y-55581627D01*
X121295074Y-55613469D01*
X121234626Y-55432016D02*
X121264823Y-55552964D01*
X121234626Y-55341317D02*
X121234626Y-55432016D01*
X121264823Y-55220369D02*
X121234626Y-55341317D01*
X121295074Y-55159917D02*
X121279516Y-55191007D01*
X121264823Y-55220369D01*
X121355575Y-55099416D02*
X121326765Y-55128226D01*
X121295074Y-55159917D01*
X121446273Y-55069165D02*
X121355575Y-55099420D01*
X121597472Y-55069165D02*
X121446273Y-55069165D01*
X121597472Y-55704168D02*
X121597472Y-55069165D01*
X121899871Y-55704168D02*
X121899871Y-55069165D01*
X122262725Y-55069165D02*
X121899879Y-55704168D01*
X122262725Y-55704168D02*
X122262725Y-55069165D01*
X122534873Y-55432016D02*
X122655822Y-55432016D01*
X122534873Y-55643716D02*
X122534873Y-55432016D01*
X122565070Y-55673967D02*
X122548299Y-55657166D01*
X122534873Y-55643716D01*
X122655822Y-55704168D02*
X122565070Y-55673967D01*
X122716277Y-55704168D02*
X122655830Y-55704168D01*
X122806976Y-55673967D02*
X122716277Y-55704168D01*
X122867477Y-55613465D02*
X122838436Y-55642506D01*
X122806976Y-55673967D01*
X122897727Y-55552968D02*
X122883259Y-55581904D01*
X122867477Y-55613469D01*
X122927924Y-55432016D02*
X122897727Y-55552964D01*
X122927924Y-55341317D02*
X122927924Y-55432016D01*
X122897727Y-55220369D02*
X122927924Y-55341317D01*
X122867477Y-55159917D02*
X122882990Y-55190918D01*
X122897727Y-55220369D01*
X122806976Y-55099416D02*
X122838667Y-55131107D01*
X122867477Y-55159917D01*
X122716277Y-55069165D02*
X122806976Y-55099420D01*
X122625571Y-55069165D02*
X122716270Y-55069165D01*
X122565070Y-55099416D02*
X122594345Y-55084777D01*
X122625571Y-55069162D01*
X124026344Y-55993425D02*
X124026344Y-55358426D01*
X123391341Y-55358426D02*
X123733266Y-55700348D01*
X124026344Y-55993425D01*
X124026344Y-54723428D02*
X123391341Y-55358426D01*
X124026344Y-55358426D02*
X124026344Y-54723428D01*
X124661346Y-55358426D02*
X124026344Y-55358426D01*
X134369384Y-68829831D02*
X134520583Y-68829831D01*
X134278686Y-68799630D02*
X134369384Y-68829831D01*
X134218185Y-68739133D02*
X134249876Y-68770824D01*
X134278686Y-68799634D01*
X134187934Y-68678632D02*
X134218185Y-68739133D01*
X134157737Y-68557683D02*
X134187934Y-68678632D01*
X134157737Y-68466981D02*
X134157737Y-68557679D01*
X134187934Y-68346032D02*
X134172623Y-68407358D01*
X134157737Y-68466981D01*
X134218185Y-68285581D02*
X134187934Y-68346032D01*
X134278686Y-68225084D02*
X134250956Y-68252813D01*
X134218185Y-68285585D01*
X134369384Y-68194833D02*
X134320149Y-68211254D01*
X134278686Y-68225084D01*
X134520583Y-68194833D02*
X134369384Y-68194833D01*
X134520583Y-68829831D02*
X134520583Y-68194833D01*
X134822982Y-68829831D02*
X134822982Y-68194833D01*
X135185836Y-68194833D02*
X134822990Y-68829831D01*
X135185836Y-68829831D02*
X135185836Y-68194833D01*
X135457984Y-68557683D02*
X135578933Y-68557683D01*
X135457984Y-68769384D02*
X135457984Y-68557683D01*
X135488181Y-68799630D02*
X135457984Y-68769380D01*
X135578933Y-68829831D02*
X135488181Y-68799630D01*
X135639381Y-68829831D02*
X135578933Y-68829831D01*
X135730087Y-68799630D02*
X135639388Y-68829831D01*
X135790580Y-68739133D02*
X135730079Y-68799634D01*
X135820831Y-68678632D02*
X135804625Y-68711043D01*
X135790580Y-68739133D01*
X135851035Y-68557683D02*
X135820838Y-68678632D01*
X135851035Y-68466981D02*
X135851035Y-68557679D01*
X135820831Y-68346032D02*
X135836142Y-68407358D01*
X135851028Y-68466981D01*
X135790580Y-68285581D02*
X135804985Y-68314367D01*
X135820831Y-68346032D01*
X135730087Y-68225084D02*
X135760337Y-68255334D01*
X135790588Y-68285585D01*
X135639381Y-68194833D02*
X135688616Y-68211254D01*
X135730079Y-68225084D01*
X135548682Y-68194833D02*
X135639381Y-68194833D01*
X135488181Y-68225084D02*
X135548682Y-68194833D01*
X133766357Y-68748243D02*
X133131355Y-68748243D01*
X133131355Y-69383241D02*
X133766357Y-68748243D01*
X132496352Y-68748239D02*
X132940853Y-69192738D01*
X133131355Y-69383241D01*
X133131355Y-68748239D02*
X132496352Y-68748239D01*
X133131355Y-68113240D02*
X133131355Y-68748239D01*
X129242110Y-53772538D02*
X128939712Y-53772538D01*
X129242110Y-54407541D02*
X129242110Y-53772542D01*
X129030410Y-54074941D02*
X129242110Y-54074941D01*
X129574706Y-54377340D02*
X129560238Y-54362872D01*
X129544456Y-54347089D01*
X129635162Y-54407541D02*
X129574714Y-54377340D01*
X129725860Y-54407541D02*
X129635162Y-54407541D01*
X129786361Y-54377340D02*
X129725860Y-54407541D01*
X129816612Y-54316838D02*
X129800226Y-54349610D01*
X129786361Y-54377340D01*
X129816612Y-53984239D02*
X129816612Y-54316838D01*
X129544456Y-53984239D02*
X129544456Y-54407541D01*
X130481811Y-54407541D02*
X130088714Y-54407541D01*
X130118957Y-54044690D02*
X130481803Y-54407541D01*
X130088706Y-53953988D02*
X130118957Y-54044687D01*
X130088706Y-53893491D02*
X130088706Y-53953992D01*
X130118957Y-53833039D02*
X130104264Y-53862401D01*
X130088706Y-53893491D01*
X130149207Y-53802789D02*
X130118957Y-53833039D01*
X130209655Y-53772538D02*
X130185478Y-53784638D01*
X130149207Y-53802789D01*
X130360862Y-53772538D02*
X130209663Y-53772538D01*
X130421355Y-53802789D02*
X130360854Y-53772538D01*
X130451560Y-53833039D02*
X130421363Y-53802789D01*
X131086562Y-54407541D02*
X130693465Y-54407541D01*
X130723708Y-54044690D02*
X131086555Y-54407541D01*
X130693458Y-53953988D02*
X130723708Y-54044687D01*
X130693458Y-53893491D02*
X130693458Y-53953992D01*
X130723708Y-53833039D02*
X130708971Y-53862490D01*
X130693458Y-53893491D01*
X130753959Y-53802789D02*
X130723708Y-53833039D01*
X130814407Y-53772538D02*
X130786195Y-53786656D01*
X130753959Y-53802789D01*
X130965606Y-53772538D02*
X130814407Y-53772538D01*
X131026107Y-53802789D02*
X130965606Y-53772538D01*
X131056312Y-53833039D02*
X131026115Y-53802789D01*
X130421310Y-52925889D02*
X130028259Y-52925889D01*
X130270156Y-52472341D02*
X130421310Y-52925889D01*
X130118957Y-52714238D02*
X130118957Y-53137540D01*
X130693458Y-52532788D02*
X130676687Y-52549589D01*
X130663261Y-52563039D01*
X130784209Y-52502542D02*
X130693458Y-52532792D01*
X130844657Y-52502542D02*
X130784209Y-52502542D01*
X130935355Y-52532788D02*
X130844657Y-52502538D01*
X130995856Y-52593290D02*
X130964396Y-52561829D01*
X130935355Y-52532788D01*
X131026107Y-52653741D02*
X131011702Y-52624955D01*
X130995856Y-52593290D01*
X131056312Y-52774690D02*
X131026115Y-52653741D01*
X131056312Y-52865388D02*
X131056312Y-52774690D01*
X131026107Y-52986341D02*
X131041418Y-52925015D01*
X131056304Y-52865392D01*
X130995856Y-53046842D02*
X131012062Y-53014431D01*
X131026107Y-52986341D01*
X130935355Y-53107339D02*
X130964165Y-53078529D01*
X130995856Y-53046838D01*
X130844657Y-53137540D02*
X130935355Y-53107339D01*
X130784209Y-53137540D02*
X130844657Y-53137540D01*
X130693458Y-53107339D02*
X130784209Y-53137540D01*
X130663261Y-53077089D02*
X130693458Y-53107339D01*
X133137862Y-53990838D02*
X133137862Y-55387841D01*
X133137862Y-52974839D02*
X133137862Y-51577840D01*
X126787856Y-53990838D02*
X126787856Y-55387841D01*
X126787856Y-52974839D02*
X126787856Y-51577840D01*
X148795242Y-66776521D02*
X148795242Y-66466970D01*
X149080993Y-66490823D02*
X148795242Y-66776525D01*
X149152396Y-66466973D02*
X149080993Y-66490823D01*
X149200042Y-66466973D02*
X149152389Y-66466973D01*
X149247642Y-66490823D02*
X149200042Y-66466973D01*
X149271445Y-66514623D02*
X149247642Y-66490823D01*
X149295242Y-66562223D02*
X149271438Y-66514623D01*
X149295242Y-66681272D02*
X149295242Y-66562223D01*
X149271445Y-66728921D02*
X149295249Y-66681272D01*
X149247642Y-66752721D02*
X149271445Y-66728921D01*
X148603042Y-67244870D02*
X148603042Y-65974870D01*
X145366195Y-66705072D02*
X145342391Y-66752721D01*
X145413841Y-66657472D02*
X145387366Y-66683917D01*
X145366187Y-66705072D01*
X145485244Y-66609872D02*
X145448352Y-66634465D01*
X145413841Y-66657472D01*
X144985244Y-66609872D02*
X145485244Y-66609872D01*
X144985244Y-66466973D02*
X144985244Y-66752725D01*
X144793044Y-67244870D02*
X144793044Y-65974870D01*
X147468214Y-68356336D02*
X147476276Y-68356949D01*
X147484221Y-68357959D01*
X147492038Y-68359355D01*
X147499719Y-68361128D01*
X147507252Y-68363267D01*
X147514629Y-68365762D01*
X147521838Y-68368605D01*
X147528870Y-68371784D01*
X147535715Y-68375289D01*
X147542363Y-68379112D01*
X147548804Y-68383241D01*
X147555028Y-68387667D01*
X147561026Y-68392379D01*
X147566786Y-68397369D01*
X147572299Y-68402625D01*
X147577556Y-68408138D01*
X147582545Y-68413899D01*
X147587258Y-68419896D01*
X147591684Y-68426119D01*
X147595814Y-68432560D01*
X147599636Y-68439208D01*
X147603142Y-68446053D01*
X147606321Y-68453085D01*
X147609164Y-68460294D01*
X147611659Y-68467671D01*
X147613799Y-68475204D01*
X147615571Y-68482884D01*
X147616967Y-68490702D01*
X147617977Y-68498647D01*
X147618590Y-68506709D01*
X147618797Y-68514878D01*
X147618590Y-68523048D01*
X147617977Y-68531110D01*
X147616967Y-68539055D01*
X147615571Y-68546873D01*
X147613799Y-68554553D01*
X147611659Y-68562086D01*
X147609164Y-68569463D01*
X147606321Y-68576672D01*
X147603142Y-68583704D01*
X147599636Y-68590549D01*
X147595814Y-68597197D01*
X147591684Y-68603637D01*
X147587258Y-68609861D01*
X147582545Y-68615858D01*
X147577556Y-68621618D01*
X147572299Y-68627132D01*
X147566786Y-68632388D01*
X147561026Y-68637377D01*
X147555028Y-68642090D01*
X147548804Y-68646516D01*
X147542363Y-68650645D01*
X147535715Y-68654467D01*
X147528870Y-68657973D01*
X147521838Y-68661152D01*
X147514629Y-68663995D01*
X147507252Y-68666490D01*
X147499719Y-68668629D01*
X147492038Y-68670402D01*
X147484221Y-68671798D01*
X147476276Y-68672808D01*
X147468214Y-68673421D01*
X147460044Y-68673627D01*
X147451875Y-68673421D01*
X147443813Y-68672808D01*
X147435868Y-68671798D01*
X147428050Y-68670402D01*
X147420369Y-68668629D01*
X147412836Y-68666490D01*
X147405460Y-68663995D01*
X147398250Y-68661152D01*
X147391218Y-68657973D01*
X147384373Y-68654467D01*
X147377725Y-68650645D01*
X147371284Y-68646516D01*
X147365060Y-68642090D01*
X147359063Y-68637377D01*
X147353302Y-68632388D01*
X147347789Y-68627132D01*
X147342533Y-68621618D01*
X147337543Y-68615858D01*
X147332830Y-68609861D01*
X147328404Y-68603637D01*
X147324275Y-68597197D01*
X147320452Y-68590549D01*
X147316946Y-68583704D01*
X147313767Y-68576672D01*
X147310925Y-68569463D01*
X147308429Y-68562086D01*
X147306290Y-68554553D01*
X147304517Y-68546873D01*
X147303121Y-68539055D01*
X147302111Y-68531110D01*
X147301498Y-68523048D01*
X147301292Y-68514878D01*
X147301498Y-68506709D01*
X147302111Y-68498647D01*
X147303121Y-68490702D01*
X147304517Y-68482884D01*
X147306290Y-68475204D01*
X147308429Y-68467671D01*
X147310925Y-68460294D01*
X147313767Y-68453085D01*
X147316946Y-68446053D01*
X147320452Y-68439208D01*
X147324275Y-68432560D01*
X147328404Y-68426119D01*
X147332830Y-68419896D01*
X147337543Y-68413899D01*
X147342533Y-68408138D01*
X147347789Y-68402625D01*
X147353302Y-68397369D01*
X147359063Y-68392379D01*
X147365060Y-68387667D01*
X147371284Y-68383241D01*
X147377725Y-68379112D01*
X147384373Y-68375289D01*
X147391218Y-68371784D01*
X147398250Y-68368605D01*
X147405460Y-68365762D01*
X147412836Y-68363267D01*
X147420369Y-68361128D01*
X147428050Y-68359355D01*
X147435868Y-68357959D01*
X147443813Y-68356949D01*
X147451875Y-68356336D01*
X147460044Y-68356130D01*
X147468214Y-68356336D01*
X147714042Y-68514871D02*
X148603042Y-68514871D01*
X145817213Y-68356336D02*
X145825275Y-68356949D01*
X145833220Y-68357959D01*
X145841037Y-68359355D01*
X145848718Y-68361128D01*
X145856251Y-68363267D01*
X145863628Y-68365762D01*
X145870837Y-68368605D01*
X145877869Y-68371784D01*
X145884714Y-68375289D01*
X145891362Y-68379112D01*
X145897803Y-68383241D01*
X145904027Y-68387667D01*
X145910025Y-68392379D01*
X145915785Y-68397369D01*
X145921298Y-68402625D01*
X145926555Y-68408138D01*
X145931544Y-68413899D01*
X145936257Y-68419896D01*
X145940683Y-68426119D01*
X145944813Y-68432560D01*
X145948635Y-68439208D01*
X145952141Y-68446053D01*
X145955320Y-68453085D01*
X145958163Y-68460294D01*
X145960658Y-68467671D01*
X145962798Y-68475204D01*
X145964570Y-68482884D01*
X145965966Y-68490702D01*
X145966976Y-68498647D01*
X145967589Y-68506709D01*
X145967796Y-68514878D01*
X145967589Y-68523048D01*
X145966976Y-68531110D01*
X145965966Y-68539055D01*
X145964570Y-68546873D01*
X145962798Y-68554553D01*
X145960658Y-68562086D01*
X145958163Y-68569463D01*
X145955320Y-68576672D01*
X145952141Y-68583704D01*
X145948635Y-68590549D01*
X145944813Y-68597197D01*
X145940683Y-68603637D01*
X145936257Y-68609861D01*
X145931544Y-68615858D01*
X145926555Y-68621618D01*
X145921298Y-68627132D01*
X145915785Y-68632388D01*
X145910025Y-68637377D01*
X145904027Y-68642090D01*
X145897803Y-68646516D01*
X145891362Y-68650645D01*
X145884714Y-68654467D01*
X145877869Y-68657973D01*
X145870837Y-68661152D01*
X145863628Y-68663995D01*
X145856251Y-68666490D01*
X145848718Y-68668629D01*
X145841037Y-68670402D01*
X145833220Y-68671798D01*
X145825275Y-68672808D01*
X145817213Y-68673421D01*
X145809043Y-68673627D01*
X145800874Y-68673421D01*
X145792812Y-68672808D01*
X145784867Y-68671798D01*
X145777049Y-68670402D01*
X145769368Y-68668629D01*
X145761835Y-68666490D01*
X145754459Y-68663995D01*
X145747249Y-68661152D01*
X145740217Y-68657973D01*
X145733372Y-68654467D01*
X145726724Y-68650645D01*
X145720283Y-68646516D01*
X145714059Y-68642090D01*
X145708062Y-68637377D01*
X145702301Y-68632388D01*
X145696788Y-68627132D01*
X145691532Y-68621618D01*
X145686542Y-68615858D01*
X145681829Y-68609861D01*
X145677403Y-68603637D01*
X145673274Y-68597197D01*
X145669451Y-68590549D01*
X145665945Y-68583704D01*
X145662766Y-68576672D01*
X145659924Y-68569463D01*
X145657428Y-68562086D01*
X145655289Y-68554553D01*
X145653516Y-68546873D01*
X145652120Y-68539055D01*
X145651110Y-68531110D01*
X145650497Y-68523048D01*
X145650291Y-68514878D01*
X145650497Y-68506709D01*
X145651110Y-68498647D01*
X145652120Y-68490702D01*
X145653516Y-68482884D01*
X145655289Y-68475204D01*
X145657428Y-68467671D01*
X145659924Y-68460294D01*
X145662766Y-68453085D01*
X145665945Y-68446053D01*
X145669451Y-68439208D01*
X145673274Y-68432560D01*
X145677403Y-68426119D01*
X145681829Y-68419896D01*
X145686542Y-68413899D01*
X145691532Y-68408138D01*
X145696788Y-68402625D01*
X145702301Y-68397369D01*
X145708062Y-68392379D01*
X145714059Y-68387667D01*
X145720283Y-68383241D01*
X145726724Y-68379112D01*
X145733372Y-68375289D01*
X145740217Y-68371784D01*
X145747249Y-68368605D01*
X145754459Y-68365762D01*
X145761835Y-68363267D01*
X145769368Y-68361128D01*
X145777049Y-68359355D01*
X145784867Y-68357959D01*
X145792812Y-68356949D01*
X145800874Y-68356336D01*
X145809043Y-68356130D01*
X145817213Y-68356336D01*
X149873046Y-69784867D02*
X143523048Y-69784867D01*
X143523048Y-67244870D01*
X149873046Y-67244870D01*
X149873046Y-69784867D01*
X145682044Y-68514871D02*
X144793044Y-68514871D01*
X145682044Y-68260873D02*
X146352015Y-68106264D01*
X147333045Y-67879873D01*
X148603042Y-67244870D02*
X148603042Y-68514871D01*
X144793044Y-67244870D02*
X144793044Y-68514871D01*
X147468214Y-68356336D02*
X147476276Y-68356949D01*
X147484221Y-68357959D01*
X147492038Y-68359355D01*
X147499719Y-68361128D01*
X147507252Y-68363267D01*
X147514629Y-68365762D01*
X147521838Y-68368605D01*
X147528870Y-68371784D01*
X147535715Y-68375289D01*
X147542363Y-68379112D01*
X147548804Y-68383241D01*
X147555028Y-68387667D01*
X147561026Y-68392379D01*
X147566786Y-68397369D01*
X147572299Y-68402625D01*
X147577556Y-68408138D01*
X147582545Y-68413899D01*
X147587258Y-68419896D01*
X147591684Y-68426119D01*
X147595814Y-68432560D01*
X147599636Y-68439208D01*
X147603142Y-68446053D01*
X147606321Y-68453085D01*
X147609164Y-68460294D01*
X147611659Y-68467671D01*
X147613799Y-68475204D01*
X147615571Y-68482884D01*
X147616967Y-68490702D01*
X147617977Y-68498647D01*
X147618590Y-68506709D01*
X147618797Y-68514878D01*
X147618590Y-68523048D01*
X147617977Y-68531110D01*
X147616967Y-68539055D01*
X147615571Y-68546873D01*
X147613799Y-68554553D01*
X147611659Y-68562086D01*
X147609164Y-68569463D01*
X147606321Y-68576672D01*
X147603142Y-68583704D01*
X147599636Y-68590549D01*
X147595814Y-68597197D01*
X147591684Y-68603637D01*
X147587258Y-68609861D01*
X147582545Y-68615858D01*
X147577556Y-68621618D01*
X147572299Y-68627132D01*
X147566786Y-68632388D01*
X147561026Y-68637377D01*
X147555028Y-68642090D01*
X147548804Y-68646516D01*
X147542363Y-68650645D01*
X147535715Y-68654467D01*
X147528870Y-68657973D01*
X147521838Y-68661152D01*
X147514629Y-68663995D01*
X147507252Y-68666490D01*
X147499719Y-68668629D01*
X147492038Y-68670402D01*
X147484221Y-68671798D01*
X147476276Y-68672808D01*
X147468214Y-68673421D01*
X147460044Y-68673627D01*
X147451875Y-68673421D01*
X147443813Y-68672808D01*
X147435868Y-68671798D01*
X147428050Y-68670402D01*
X147420369Y-68668629D01*
X147412836Y-68666490D01*
X147405460Y-68663995D01*
X147398250Y-68661152D01*
X147391218Y-68657973D01*
X147384373Y-68654467D01*
X147377725Y-68650645D01*
X147371284Y-68646516D01*
X147365060Y-68642090D01*
X147359063Y-68637377D01*
X147353302Y-68632388D01*
X147347789Y-68627132D01*
X147342533Y-68621618D01*
X147337543Y-68615858D01*
X147332830Y-68609861D01*
X147328404Y-68603637D01*
X147324275Y-68597197D01*
X147320452Y-68590549D01*
X147316946Y-68583704D01*
X147313767Y-68576672D01*
X147310925Y-68569463D01*
X147308429Y-68562086D01*
X147306290Y-68554553D01*
X147304517Y-68546873D01*
X147303121Y-68539055D01*
X147302111Y-68531110D01*
X147301498Y-68523048D01*
X147301292Y-68514878D01*
X147301498Y-68506709D01*
X147302111Y-68498647D01*
X147303121Y-68490702D01*
X147304517Y-68482884D01*
X147306290Y-68475204D01*
X147308429Y-68467671D01*
X147310925Y-68460294D01*
X147313767Y-68453085D01*
X147316946Y-68446053D01*
X147320452Y-68439208D01*
X147324275Y-68432560D01*
X147328404Y-68426119D01*
X147332830Y-68419896D01*
X147337543Y-68413899D01*
X147342533Y-68408138D01*
X147347789Y-68402625D01*
X147353302Y-68397369D01*
X147359063Y-68392379D01*
X147365060Y-68387667D01*
X147371284Y-68383241D01*
X147377725Y-68379112D01*
X147384373Y-68375289D01*
X147391218Y-68371784D01*
X147398250Y-68368605D01*
X147405460Y-68365762D01*
X147412836Y-68363267D01*
X147420369Y-68361128D01*
X147428050Y-68359355D01*
X147435868Y-68357959D01*
X147443813Y-68356949D01*
X147451875Y-68356336D01*
X147460044Y-68356130D01*
X147468214Y-68356336D01*
X145817213Y-68356336D02*
X145825275Y-68356949D01*
X145833220Y-68357959D01*
X145841037Y-68359355D01*
X145848718Y-68361128D01*
X145856251Y-68363267D01*
X145863628Y-68365762D01*
X145870837Y-68368605D01*
X145877869Y-68371784D01*
X145884714Y-68375289D01*
X145891362Y-68379112D01*
X145897803Y-68383241D01*
X145904027Y-68387667D01*
X145910025Y-68392379D01*
X145915785Y-68397369D01*
X145921298Y-68402625D01*
X145926555Y-68408138D01*
X145931544Y-68413899D01*
X145936257Y-68419896D01*
X145940683Y-68426119D01*
X145944813Y-68432560D01*
X145948635Y-68439208D01*
X145952141Y-68446053D01*
X145955320Y-68453085D01*
X145958163Y-68460294D01*
X145960658Y-68467671D01*
X145962798Y-68475204D01*
X145964570Y-68482884D01*
X145965966Y-68490702D01*
X145966976Y-68498647D01*
X145967589Y-68506709D01*
X145967796Y-68514878D01*
X145967589Y-68523048D01*
X145966976Y-68531110D01*
X145965966Y-68539055D01*
X145964570Y-68546873D01*
X145962798Y-68554553D01*
X145960658Y-68562086D01*
X145958163Y-68569463D01*
X145955320Y-68576672D01*
X145952141Y-68583704D01*
X145948635Y-68590549D01*
X145944813Y-68597197D01*
X145940683Y-68603637D01*
X145936257Y-68609861D01*
X145931544Y-68615858D01*
X145926555Y-68621618D01*
X145921298Y-68627132D01*
X145915785Y-68632388D01*
X145910025Y-68637377D01*
X145904027Y-68642090D01*
X145897803Y-68646516D01*
X145891362Y-68650645D01*
X145884714Y-68654467D01*
X145877869Y-68657973D01*
X145870837Y-68661152D01*
X145863628Y-68663995D01*
X145856251Y-68666490D01*
X145848718Y-68668629D01*
X145841037Y-68670402D01*
X145833220Y-68671798D01*
X145825275Y-68672808D01*
X145817213Y-68673421D01*
X145809043Y-68673627D01*
X145800874Y-68673421D01*
X145792812Y-68672808D01*
X145784867Y-68671798D01*
X145777049Y-68670402D01*
X145769368Y-68668629D01*
X145761835Y-68666490D01*
X145754459Y-68663995D01*
X145747249Y-68661152D01*
X145740217Y-68657973D01*
X145733372Y-68654467D01*
X145726724Y-68650645D01*
X145720283Y-68646516D01*
X145714059Y-68642090D01*
X145708062Y-68637377D01*
X145702301Y-68632388D01*
X145696788Y-68627132D01*
X145691532Y-68621618D01*
X145686542Y-68615858D01*
X145681829Y-68609861D01*
X145677403Y-68603637D01*
X145673274Y-68597197D01*
X145669451Y-68590549D01*
X145665945Y-68583704D01*
X145662766Y-68576672D01*
X145659924Y-68569463D01*
X145657428Y-68562086D01*
X145655289Y-68554553D01*
X145653516Y-68546873D01*
X145652120Y-68539055D01*
X145651110Y-68531110D01*
X145650497Y-68523048D01*
X145650291Y-68514878D01*
X145650497Y-68506709D01*
X145651110Y-68498647D01*
X145652120Y-68490702D01*
X145653516Y-68482884D01*
X145655289Y-68475204D01*
X145657428Y-68467671D01*
X145659924Y-68460294D01*
X145662766Y-68453085D01*
X145665945Y-68446053D01*
X145669451Y-68439208D01*
X145673274Y-68432560D01*
X145677403Y-68426119D01*
X145681829Y-68419896D01*
X145686542Y-68413899D01*
X145691532Y-68408138D01*
X145696788Y-68402625D01*
X145702301Y-68397369D01*
X145708062Y-68392379D01*
X145714059Y-68387667D01*
X145720283Y-68383241D01*
X145726724Y-68379112D01*
X145733372Y-68375289D01*
X145740217Y-68371784D01*
X145747249Y-68368605D01*
X145754459Y-68365762D01*
X145761835Y-68363267D01*
X145769368Y-68361128D01*
X145777049Y-68359355D01*
X145784867Y-68357959D01*
X145792812Y-68356949D01*
X145800874Y-68356336D01*
X145809043Y-68356130D01*
X145817213Y-68356336D01*
X133639350Y-62243509D02*
X132623351Y-62243509D01*
X132623351Y-59703508D01*
X133639350Y-59703508D01*
X133639350Y-62243509D01*
X149998344Y-64080636D02*
X150149543Y-64080636D01*
X149907645Y-64050435D02*
X149998344Y-64080636D01*
X149847144Y-63989938D02*
X149875954Y-64018748D01*
X149907645Y-64050439D01*
X149816894Y-63929437D02*
X149847144Y-63989938D01*
X149786697Y-63808488D02*
X149816894Y-63929437D01*
X149786697Y-63717786D02*
X149786697Y-63808484D01*
X149816894Y-63596837D02*
X149786697Y-63717786D01*
X149847144Y-63536386D02*
X149816894Y-63596837D01*
X149907645Y-63475888D02*
X149876185Y-63507349D01*
X149847144Y-63536390D01*
X149998344Y-63445638D02*
X149907645Y-63475888D01*
X150149543Y-63445638D02*
X149998344Y-63445638D01*
X150149543Y-64080636D02*
X150149543Y-63445638D01*
X150451942Y-64080636D02*
X150451942Y-63445638D01*
X150814796Y-63445638D02*
X150451949Y-64080636D01*
X150814796Y-64080636D02*
X150814796Y-63445638D01*
X151086944Y-63808488D02*
X151207893Y-63808488D01*
X151086944Y-64020189D02*
X151086944Y-63808488D01*
X151117141Y-64050435D02*
X151086944Y-64020185D01*
X151207893Y-64080636D02*
X151117141Y-64050435D01*
X151268340Y-64080636D02*
X151207893Y-64080636D01*
X151359046Y-64050435D02*
X151268348Y-64080636D01*
X151419547Y-63989938D02*
X151387856Y-64021629D01*
X151359046Y-64050439D01*
X151449790Y-63929437D02*
X151419540Y-63989938D01*
X151479995Y-63808488D02*
X151449798Y-63929437D01*
X151479995Y-63717786D02*
X151479995Y-63808484D01*
X151449790Y-63596837D02*
X151479987Y-63717786D01*
X151419547Y-63536386D02*
X151449798Y-63596837D01*
X151359046Y-63475888D02*
X151388087Y-63504929D01*
X151419547Y-63536390D01*
X151268340Y-63445638D02*
X151359039Y-63475888D01*
X151177642Y-63445638D02*
X151268340Y-63445638D01*
X151117141Y-63475888D02*
X151177642Y-63445638D01*
X140938857Y-57658658D02*
X140946105Y-57665960D01*
X140938255Y-57656858D02*
X140938758Y-57658857D01*
X140938255Y-57655656D02*
X140938255Y-57656655D01*
X140938857Y-57654458D02*
X140938354Y-57655458D01*
X140939452Y-57653856D02*
X140938949Y-57654355D01*
X140940650Y-57653257D02*
X140939651Y-57653756D01*
X140943702Y-57653257D02*
X140940704Y-57653257D01*
X140944907Y-57653856D02*
X140943908Y-57653356D01*
X140945502Y-57654458D02*
X140945188Y-57654146D01*
X140944999Y-57653959D01*
X141132354Y-57798509D02*
X140751357Y-57798509D01*
X145643302Y-57656259D02*
X145644302Y-57656758D01*
X145642104Y-57655057D02*
X145643104Y-57656057D01*
X145640907Y-57653257D02*
X145641384Y-57654213D01*
X145641906Y-57655256D01*
X145640907Y-57665956D02*
X145640907Y-57653257D01*
X145637252Y-57665956D02*
X145644500Y-57665956D01*
X145450355Y-57798509D02*
X145831351Y-57798509D01*
X141208541Y-57595308D02*
X141196577Y-57691030D01*
X141183143Y-57798509D01*
X141310142Y-57417508D02*
X141208541Y-57595308D01*
X141487945Y-57290509D02*
X141310142Y-57417508D01*
X141691146Y-57252408D02*
X141487945Y-57290509D01*
X141881644Y-57290509D02*
X141788719Y-57271923D01*
X141691146Y-57252408D01*
X142059448Y-57417508D02*
X141881644Y-57290509D01*
X142173751Y-57595308D02*
X142059448Y-57417508D01*
X142186454Y-57798509D02*
X142173751Y-57595308D01*
X142300742Y-57595308D02*
X142288778Y-57691030D01*
X142275344Y-57798509D01*
X142415046Y-57417508D02*
X142300742Y-57595308D01*
X142580146Y-57290509D02*
X142415046Y-57417508D01*
X142783347Y-57252408D02*
X142684185Y-57271001D01*
X142580146Y-57290509D01*
X142986549Y-57290509D02*
X142783347Y-57252408D01*
X143151649Y-57417508D02*
X143104925Y-57381567D01*
X142986549Y-57290509D01*
X143265952Y-57595308D02*
X143151649Y-57417508D01*
X143291351Y-57798509D02*
X143278750Y-57697696D01*
X143265952Y-57595308D01*
X143367538Y-57595308D02*
X143354740Y-57697696D01*
X143342139Y-57798509D01*
X143469138Y-57417508D02*
X143367538Y-57595308D01*
X143646941Y-57290509D02*
X143469138Y-57417508D01*
X143850143Y-57252408D02*
X143646941Y-57290509D01*
X144040641Y-57290509D02*
X143850143Y-57252408D01*
X144218444Y-57417508D02*
X144040641Y-57290509D01*
X144332748Y-57595308D02*
X144218444Y-57417508D01*
X144345451Y-57798509D02*
X144332748Y-57595308D01*
X144447051Y-57595308D02*
X144435087Y-57691030D01*
X144421653Y-57798509D01*
X144548652Y-57417508D02*
X144447051Y-57595308D01*
X144726455Y-57290509D02*
X144548652Y-57417508D01*
X144916953Y-57252408D02*
X144726455Y-57290509D01*
X145120155Y-57290509D02*
X144916953Y-57252408D01*
X145297958Y-57417508D02*
X145120155Y-57290509D01*
X145399558Y-57595308D02*
X145297958Y-57417508D01*
X145424957Y-57798509D02*
X145412356Y-57697696D01*
X145399558Y-57595308D01*
X138846351Y-68883256D02*
X138997550Y-68883256D01*
X138755653Y-68853055D02*
X138846351Y-68883256D01*
X138695152Y-68792558D02*
X138726843Y-68824249D01*
X138755653Y-68853059D01*
X138664901Y-68732057D02*
X138678946Y-68760147D01*
X138695152Y-68792558D01*
X138634704Y-68611108D02*
X138664901Y-68732057D01*
X138634704Y-68520406D02*
X138634704Y-68611104D01*
X138664901Y-68399457D02*
X138634704Y-68520406D01*
X138695152Y-68339006D02*
X138679306Y-68370671D01*
X138664901Y-68399457D01*
X138755653Y-68278508D02*
X138725402Y-68308759D01*
X138695152Y-68339009D01*
X138846351Y-68248258D02*
X138755653Y-68278508D01*
X138997550Y-68248258D02*
X138846351Y-68248258D01*
X138997550Y-68883256D02*
X138997550Y-68248258D01*
X139299957Y-68883256D02*
X139299957Y-68248258D01*
X139662803Y-68248258D02*
X139299957Y-68883256D01*
X139662803Y-68883256D02*
X139662803Y-68248258D01*
X139934951Y-68611108D02*
X140055900Y-68611108D01*
X139934951Y-68822808D02*
X139934951Y-68611108D01*
X139965156Y-68853055D02*
X139934959Y-68822805D01*
X140055900Y-68883256D02*
X139965148Y-68853055D01*
X140116355Y-68883256D02*
X140055907Y-68883256D01*
X140207053Y-68853055D02*
X140116355Y-68883256D01*
X140267554Y-68792558D02*
X140235863Y-68824249D01*
X140207053Y-68853059D01*
X140297805Y-68732057D02*
X140283760Y-68760147D01*
X140267554Y-68792558D01*
X140328002Y-68611108D02*
X140297805Y-68732057D01*
X140328002Y-68520406D02*
X140328002Y-68611104D01*
X140297805Y-68399457D02*
X140328002Y-68520406D01*
X140267554Y-68339006D02*
X140283400Y-68370671D01*
X140297805Y-68399457D01*
X140207053Y-68278508D02*
X140237304Y-68308759D01*
X140267554Y-68339009D01*
X140116355Y-68248258D02*
X140207053Y-68278508D01*
X140025657Y-68248258D02*
X140116355Y-68248258D01*
X139965156Y-68278508D02*
X140025657Y-68248258D01*
X140116355Y-66688504D02*
X139481353Y-66688504D01*
X139481353Y-67323503D02*
X139820021Y-66984837D01*
X140116355Y-66688504D01*
X138846351Y-66688504D02*
X139142685Y-66984837D01*
X139481353Y-67323503D01*
X139481353Y-66688504D02*
X138846351Y-66688504D01*
X139481353Y-66053506D02*
X139481353Y-66688504D01*
X129235603Y-65708207D02*
X128933204Y-65708207D01*
X129235603Y-66343206D02*
X129235603Y-65708207D01*
X129023902Y-66010606D02*
X129235603Y-66010606D01*
X129568206Y-66313008D02*
X129553686Y-66298488D01*
X129537955Y-66282758D01*
X129628654Y-66343206D02*
X129568206Y-66313005D01*
X129719352Y-66343206D02*
X129628654Y-66343206D01*
X129779853Y-66313008D02*
X129719352Y-66343209D01*
X129810104Y-66252507D02*
X129795774Y-66281166D01*
X129779853Y-66313008D01*
X129810104Y-65919908D02*
X129810104Y-66252507D01*
X129537955Y-65919908D02*
X129537955Y-66343209D01*
X130354354Y-65738458D02*
X130322118Y-65722325D01*
X130293906Y-65708207D01*
X130384605Y-65768708D02*
X130354354Y-65738458D01*
X130414855Y-65829156D02*
X130384605Y-65768705D01*
X130445052Y-65950109D02*
X130429741Y-65888783D01*
X130414855Y-65829160D01*
X130445052Y-66101308D02*
X130445052Y-65950109D01*
X130414855Y-66222257D02*
X130445052Y-66101308D01*
X130384605Y-66282758D02*
X130414855Y-66222257D01*
X130354354Y-66313008D02*
X130384605Y-66282758D01*
X130293906Y-66343206D02*
X130354354Y-66313008D01*
X130233405Y-66343206D02*
X130293906Y-66343206D01*
X130172950Y-66313008D02*
X130233398Y-66343209D01*
X130142707Y-66282758D02*
X130172958Y-66313008D01*
X130112457Y-66222257D02*
X130142707Y-66282758D01*
X130082206Y-66101308D02*
X130096288Y-66157612D01*
X130112457Y-66222257D01*
X130082206Y-65950109D02*
X130082206Y-66101308D01*
X130112457Y-65829156D02*
X130096288Y-65893801D01*
X130082206Y-65950105D01*
X130142707Y-65768708D02*
X130127970Y-65798159D01*
X130112457Y-65829160D01*
X130172950Y-65738458D02*
X130158430Y-65752978D01*
X130142699Y-65768708D01*
X130233405Y-65708207D02*
X130172958Y-65738458D01*
X130293906Y-65708207D02*
X130233405Y-65708207D01*
X130989356Y-65859407D02*
X131049804Y-65889657D01*
X130928855Y-65798955D02*
X130951534Y-65821615D01*
X130989356Y-65859407D01*
X130868400Y-65708207D02*
X130928848Y-65798959D01*
X130868400Y-66343206D02*
X130868400Y-65708207D01*
X130686950Y-66343206D02*
X131049796Y-66343206D01*
X130021751Y-64438207D02*
X130293853Y-65073205D01*
X130445052Y-64438207D02*
X130021751Y-64438207D01*
X130686950Y-64468457D02*
X130670179Y-64485258D01*
X130656753Y-64498708D01*
X130777702Y-64438207D02*
X130730353Y-64453990D01*
X130686950Y-64468457D01*
X130838157Y-64438207D02*
X130777709Y-64438207D01*
X130928855Y-64468457D02*
X130838157Y-64438207D01*
X130989356Y-64528959D02*
X130957896Y-64497498D01*
X130928855Y-64468457D01*
X131019607Y-64589406D02*
X130989356Y-64528955D01*
X131049804Y-64710359D02*
X131019607Y-64589410D01*
X131049804Y-64801057D02*
X131049804Y-64710359D01*
X131019607Y-64922006D02*
X131049804Y-64801057D01*
X130989356Y-64982507D02*
X131019607Y-64922006D01*
X130928855Y-65043008D02*
X130957665Y-65014198D01*
X130989356Y-64982507D01*
X130838157Y-65073205D02*
X130928855Y-65043008D01*
X130777702Y-65073205D02*
X130838149Y-65073205D01*
X130686950Y-65043008D02*
X130777702Y-65073209D01*
X130656753Y-65012757D02*
X130673524Y-65029558D01*
X130686950Y-65043008D01*
X133131355Y-65926507D02*
X133131355Y-67323507D01*
X133131355Y-64910508D02*
X133131355Y-63513505D01*
X134147353Y-65799508D02*
X132115356Y-65799508D01*
X134147353Y-65037507D02*
X132115356Y-65037507D01*
X130807952Y-61595857D02*
X131049857Y-61595857D01*
X130747451Y-61565606D02*
X130807952Y-61595857D01*
X130717200Y-61535356D02*
X130732931Y-61551086D01*
X130747451Y-61565606D01*
X130687003Y-61474908D02*
X130699719Y-61500364D01*
X130717200Y-61535360D01*
X130687003Y-61384156D02*
X130687003Y-61474908D01*
X130717200Y-61323709D02*
X130700425Y-61357292D01*
X130687003Y-61384160D01*
X130747451Y-61293458D02*
X130732326Y-61308583D01*
X130717200Y-61323709D01*
X130807952Y-61263208D02*
X130747451Y-61293458D01*
X131049857Y-61263208D02*
X130807960Y-61263208D01*
X131049857Y-61898206D02*
X131049857Y-61263208D01*
X130687003Y-61898206D02*
X130898650Y-61595857D01*
X131715057Y-61898206D02*
X131321960Y-61898206D01*
X131352203Y-61535356D02*
X131715049Y-61898206D01*
X131321952Y-61444658D02*
X131337386Y-61490933D01*
X131352203Y-61535356D01*
X131321952Y-61384156D02*
X131321952Y-61444658D01*
X131352203Y-61323709D02*
X131321952Y-61384160D01*
X131382453Y-61293458D02*
X131366671Y-61309241D01*
X131352203Y-61323709D01*
X131442901Y-61263208D02*
X131382453Y-61293458D01*
X131594100Y-61263208D02*
X131442901Y-61263208D01*
X131654601Y-61293458D02*
X131594100Y-61263208D01*
X131684806Y-61323709D02*
X131668035Y-61306908D01*
X131654609Y-61293458D01*
X131049804Y-60416558D02*
X130656753Y-60416558D01*
X130898650Y-59963006D02*
X131049804Y-60416555D01*
X130747451Y-60204908D02*
X130747451Y-60628209D01*
X131412704Y-60325856D02*
X131654601Y-60325856D01*
X131352203Y-60295606D02*
X131412704Y-60325856D01*
X131321952Y-60265355D02*
X131336357Y-60279761D01*
X131352203Y-60295606D01*
X131291755Y-60204908D02*
X131321952Y-60265359D01*
X131291755Y-60114156D02*
X131291755Y-60204908D01*
X131321952Y-60053708D02*
X131291755Y-60114160D01*
X131352203Y-60023458D02*
X131321952Y-60053708D01*
X131412704Y-59993207D02*
X131352203Y-60023458D01*
X131654601Y-59993207D02*
X131412704Y-59993207D01*
X131654601Y-60628205D02*
X131654601Y-59993207D01*
X131291755Y-60628205D02*
X131503402Y-60325856D01*
X133131355Y-62243509D02*
X133131355Y-62878507D01*
X133131355Y-59703508D02*
X133131355Y-59068509D01*
X143255996Y-64389005D02*
X142239997Y-64389005D01*
X142239997Y-61849004D01*
X143255996Y-61849004D01*
X143255996Y-64389005D01*
X143645667Y-63317662D02*
X144008514Y-63680513D01*
X143645667Y-63952661D02*
X143917770Y-63589811D01*
X144008521Y-63952661D02*
X144008521Y-63317662D01*
X144552772Y-63347913D02*
X144517510Y-63330266D01*
X144492324Y-63317662D01*
X144583022Y-63378164D02*
X144568554Y-63363696D01*
X144552772Y-63347913D01*
X144613265Y-63438611D02*
X144583015Y-63378160D01*
X144643470Y-63559564D02*
X144613273Y-63438615D01*
X144643470Y-63710763D02*
X144643470Y-63559564D01*
X144613265Y-63831712D02*
X144643462Y-63710763D01*
X144583022Y-63892213D02*
X144613273Y-63831712D01*
X144552772Y-63922464D02*
X144567240Y-63907996D01*
X144583022Y-63892213D01*
X144492316Y-63952661D02*
X144552764Y-63922460D01*
X144431815Y-63952661D02*
X144492316Y-63952661D01*
X144371368Y-63922464D02*
X144431815Y-63952665D01*
X144341117Y-63892213D02*
X144356963Y-63908058D01*
X144371368Y-63922464D01*
X144310867Y-63831712D02*
X144341117Y-63892213D01*
X144280616Y-63710763D02*
X144310867Y-63831712D01*
X144280616Y-63559564D02*
X144280616Y-63710763D01*
X144310867Y-63438611D02*
X144280616Y-63559560D01*
X144341117Y-63378164D02*
X144310867Y-63438615D01*
X144371368Y-63347913D02*
X144355522Y-63363758D01*
X144341117Y-63378164D01*
X144431815Y-63317662D02*
X144371368Y-63347913D01*
X144492316Y-63317662D02*
X144431815Y-63317662D01*
X145187766Y-63468862D02*
X145219770Y-63484878D01*
X145248214Y-63499112D01*
X145127265Y-63408410D02*
X145187766Y-63468862D01*
X145066817Y-63317662D02*
X145127265Y-63408414D01*
X145066817Y-63952661D02*
X145066817Y-63317662D01*
X144885368Y-63952661D02*
X145248214Y-63952661D01*
X144250419Y-62198861D02*
X144274596Y-62210961D01*
X144310867Y-62229112D01*
X144189918Y-62138414D02*
X144250419Y-62198865D01*
X144129470Y-62047662D02*
X144189918Y-62138414D01*
X144129470Y-62682660D02*
X144129470Y-62047662D01*
X143948020Y-62682660D02*
X144310867Y-62682660D01*
X144673766Y-62380311D02*
X144915664Y-62380311D01*
X144613265Y-62350061D02*
X144673766Y-62380311D01*
X144583022Y-62319810D02*
X144598868Y-62335655D01*
X144613273Y-62350061D01*
X144552818Y-62259362D02*
X144568520Y-62290796D01*
X144583015Y-62319814D01*
X144552818Y-62168611D02*
X144552818Y-62259362D01*
X144583022Y-62108163D02*
X144568527Y-62137181D01*
X144552825Y-62168615D01*
X144613265Y-62077913D02*
X144583015Y-62108163D01*
X144673766Y-62047662D02*
X144613265Y-62077913D01*
X144915672Y-62047662D02*
X144673774Y-62047662D01*
X144915672Y-62682660D02*
X144915672Y-62047662D01*
X144552818Y-62682660D02*
X144764465Y-62380311D01*
X142748000Y-61849000D02*
X142748000Y-61214002D01*
X142748000Y-64389001D02*
X142748000Y-65023999D01*
X156626350Y-67414163D02*
X155356353Y-67414163D01*
X155991348Y-66144162D01*
X156626350Y-67414163D01*
X154363403Y-67703862D02*
X154514602Y-67703862D01*
X154272704Y-67673661D02*
X154363403Y-67703862D01*
X154212203Y-67613160D02*
X154242454Y-67643411D01*
X154272704Y-67673661D01*
X154181953Y-67552663D02*
X154212203Y-67613164D01*
X154151756Y-67431710D02*
X154167067Y-67493036D01*
X154181953Y-67552659D01*
X154151756Y-67341012D02*
X154151756Y-67431710D01*
X154181953Y-67220063D02*
X154166642Y-67281389D01*
X154151756Y-67341012D01*
X154212203Y-67159612D02*
X154181953Y-67220063D01*
X154272704Y-67099111D02*
X154241013Y-67130802D01*
X154212203Y-67159612D01*
X154363403Y-67068860D02*
X154272704Y-67099111D01*
X154514602Y-67068860D02*
X154363403Y-67068860D01*
X154514602Y-67703862D02*
X154514602Y-67068864D01*
X153909805Y-66222211D02*
X153516753Y-66222211D01*
X153758651Y-65768663D02*
X153909805Y-66222211D01*
X153607452Y-66010560D02*
X153607452Y-66433862D01*
X154363403Y-66433862D02*
X154514602Y-66433862D01*
X154272704Y-66403661D02*
X154363403Y-66433862D01*
X154212203Y-66343164D02*
X154239933Y-66370893D01*
X154272704Y-66403665D01*
X154181953Y-66282663D02*
X154197735Y-66314228D01*
X154212203Y-66343164D01*
X154151756Y-66161714D02*
X154166642Y-66221337D01*
X154181953Y-66282663D01*
X154151756Y-66071012D02*
X154151756Y-66161710D01*
X154181953Y-65950063D02*
X154167067Y-66009686D01*
X154151756Y-66071012D01*
X154212203Y-65889611D02*
X154197466Y-65919062D01*
X154181953Y-65950063D01*
X154272704Y-65829110D02*
X154239933Y-65861882D01*
X154212203Y-65889611D01*
X154363403Y-65798864D02*
X154272704Y-65829114D01*
X154514602Y-65798864D02*
X154363403Y-65798864D01*
X154514602Y-66433862D02*
X154514602Y-65798864D01*
X155991355Y-67414163D02*
X155991355Y-68684163D01*
X155991355Y-66144162D02*
X155991355Y-64874162D01*
X155991355Y-67414163D02*
X155991355Y-66144162D01*
X159801360Y-67414163D02*
X159166358Y-66144162D01*
X160436355Y-66144162D01*
X159801360Y-67414163D01*
X155356353Y-66144162D02*
X156626350Y-66144162D01*
X135592109Y-53772538D02*
X135289710Y-53772538D01*
X135592109Y-54407541D02*
X135592109Y-53772542D01*
X135380408Y-54074941D02*
X135592109Y-54074941D01*
X135924712Y-54377340D02*
X135910244Y-54362872D01*
X135894462Y-54347089D01*
X135985160Y-54407541D02*
X135924712Y-54377340D01*
X136075858Y-54407541D02*
X135985160Y-54407541D01*
X136136359Y-54377340D02*
X136075858Y-54407541D01*
X136166610Y-54316838D02*
X136136359Y-54377340D01*
X136166610Y-53984239D02*
X136166610Y-54316838D01*
X135894462Y-53984239D02*
X135894462Y-54407541D01*
X136831809Y-54407541D02*
X136438712Y-54407541D01*
X136468955Y-54044690D02*
X136831802Y-54407541D01*
X136438712Y-53953988D02*
X136468963Y-54044687D01*
X136438712Y-53893491D02*
X136438712Y-53953992D01*
X136468955Y-53833039D02*
X136454218Y-53862490D01*
X136438705Y-53893491D01*
X136499206Y-53802789D02*
X136468955Y-53833039D01*
X136559661Y-53772538D02*
X136535484Y-53784638D01*
X136499213Y-53802789D01*
X136710860Y-53772538D02*
X136559661Y-53772538D01*
X136771362Y-53802789D02*
X136710860Y-53772538D01*
X136801559Y-53833039D02*
X136771362Y-53802789D01*
X137436561Y-54407541D02*
X137043464Y-54407541D01*
X137073707Y-54044690D02*
X137436553Y-54407541D01*
X137043456Y-53953988D02*
X137073707Y-54044687D01*
X137043456Y-53893491D02*
X137043456Y-53953992D01*
X137073707Y-53833039D02*
X137059014Y-53862401D01*
X137043456Y-53893491D01*
X137103957Y-53802789D02*
X137073707Y-53833039D01*
X137164405Y-53772538D02*
X137140228Y-53784638D01*
X137103957Y-53802789D01*
X137315612Y-53772538D02*
X137164413Y-53772538D01*
X137376106Y-53802789D02*
X137315604Y-53772538D01*
X137406310Y-53833039D02*
X137376113Y-53802789D01*
X136771308Y-53107339D02*
X136801559Y-53077089D01*
X136710860Y-53137540D02*
X136771308Y-53107339D01*
X136529411Y-53137540D02*
X136710860Y-53137540D01*
X136468955Y-53107339D02*
X136529403Y-53137540D01*
X136438712Y-53077089D02*
X136468963Y-53107339D01*
X136408462Y-53016591D02*
X136422930Y-53045527D01*
X136438712Y-53077092D01*
X136408462Y-52865388D02*
X136408462Y-53016587D01*
X136438712Y-52804940D02*
X136423975Y-52834391D01*
X136408462Y-52865392D01*
X136468955Y-52774690D02*
X136438705Y-52804940D01*
X136529411Y-52744439D02*
X136501199Y-52758557D01*
X136468963Y-52774690D01*
X136620162Y-52744439D02*
X136529411Y-52744439D01*
X136408462Y-52502542D02*
X136620162Y-52744443D01*
X136801559Y-52502542D02*
X136408462Y-52502542D01*
X137043456Y-52532788D02*
X137026685Y-52549589D01*
X137013259Y-52563039D01*
X137134208Y-52502542D02*
X137043456Y-52532792D01*
X137194656Y-52502542D02*
X137134208Y-52502542D01*
X137285362Y-52532788D02*
X137194663Y-52502538D01*
X137345855Y-52593290D02*
X137316814Y-52564249D01*
X137285354Y-52532788D01*
X137376106Y-52653741D02*
X137360260Y-52622076D01*
X137345855Y-52593290D01*
X137406310Y-52774690D02*
X137376113Y-52653741D01*
X137406310Y-52865388D02*
X137406310Y-52774690D01*
X137376106Y-52986341D02*
X137392484Y-52920742D01*
X137406303Y-52865392D01*
X137345855Y-53046842D02*
X137359900Y-53018752D01*
X137376106Y-52986341D01*
X137285362Y-53107339D02*
X137317053Y-53075648D01*
X137345863Y-53046838D01*
X137194656Y-53137540D02*
X137285354Y-53107339D01*
X137134208Y-53137540D02*
X137194656Y-53137540D01*
X137043456Y-53107339D02*
X137134208Y-53137540D01*
X137013259Y-53077089D02*
X137043456Y-53107339D01*
X139487861Y-53990838D02*
X139487861Y-55387841D01*
X139487861Y-52974839D02*
X139487861Y-51577840D01*
X158173400Y-67703813D02*
X158324599Y-67703813D01*
X158082702Y-67673612D02*
X158173400Y-67703813D01*
X158022201Y-67613111D02*
X158053892Y-67644802D01*
X158082702Y-67673612D01*
X157991950Y-67552613D02*
X158022201Y-67613115D01*
X157961753Y-67431661D02*
X157976639Y-67491284D01*
X157991950Y-67552610D01*
X157961753Y-67340963D02*
X157961753Y-67431661D01*
X157991950Y-67220014D02*
X157977064Y-67279637D01*
X157961753Y-67340963D01*
X158022201Y-67159562D02*
X158007508Y-67188924D01*
X157991950Y-67220014D01*
X158082702Y-67099061D02*
X158052451Y-67129312D01*
X158022201Y-67159562D01*
X158173400Y-67068811D02*
X158082702Y-67099061D01*
X158324607Y-67068811D02*
X158173408Y-67068811D01*
X158324607Y-67703813D02*
X158324607Y-67068814D01*
X157719802Y-66403611D02*
X157750053Y-66373361D01*
X157659354Y-66433812D02*
X157719802Y-66403611D01*
X157477905Y-66433812D02*
X157659354Y-66433812D01*
X157417457Y-66403611D02*
X157477905Y-66433812D01*
X157387206Y-66373361D02*
X157417457Y-66403611D01*
X157356956Y-66312864D02*
X157372738Y-66344429D01*
X157387206Y-66373365D01*
X157356956Y-66161660D02*
X157356956Y-66312860D01*
X157387206Y-66101213D02*
X157356956Y-66161664D01*
X157417457Y-66070962D02*
X157401611Y-66086807D01*
X157387206Y-66101213D01*
X157477905Y-66040712D02*
X157445901Y-66056728D01*
X157417457Y-66070962D01*
X157568656Y-66040712D02*
X157477905Y-66040712D01*
X157356956Y-65798810D02*
X157568656Y-66040712D01*
X157750053Y-65798810D02*
X157356956Y-65798810D01*
X158173400Y-66433812D02*
X158324599Y-66433812D01*
X158082702Y-66403611D02*
X158173400Y-66433812D01*
X158022201Y-66343110D02*
X158054972Y-66375882D01*
X158082702Y-66403611D01*
X157991950Y-66282613D02*
X158022201Y-66343114D01*
X157961753Y-66161660D02*
X157977064Y-66222986D01*
X157991950Y-66282609D01*
X157961753Y-66070962D02*
X157961753Y-66161660D01*
X157991950Y-65950013D02*
X157976639Y-66011339D01*
X157961753Y-66070962D01*
X158022201Y-65889562D02*
X157991950Y-65950013D01*
X158082702Y-65829061D02*
X158053892Y-65857871D01*
X158022201Y-65889562D01*
X158173400Y-65798810D02*
X158124165Y-65815231D01*
X158082702Y-65829061D01*
X158324607Y-65798810D02*
X158173408Y-65798810D01*
X158324607Y-66433812D02*
X158324607Y-65798814D01*
X159801353Y-66144162D02*
X159801353Y-64874162D01*
X159801353Y-67414163D02*
X159801353Y-68684163D01*
X159801353Y-66144162D02*
X159801353Y-67414163D01*
X160436355Y-67414163D02*
X159166358Y-67414163D01*
X175590598Y-63168206D02*
X175288200Y-63168206D01*
X175590598Y-63803209D02*
X175590598Y-63168210D01*
X175378902Y-63470609D02*
X175590602Y-63470609D01*
X175923198Y-63773008D02*
X175892947Y-63742757D01*
X175983649Y-63803209D02*
X175923198Y-63773008D01*
X176074352Y-63803209D02*
X175983653Y-63803209D01*
X176134849Y-63773008D02*
X176074348Y-63803209D01*
X176165099Y-63712506D02*
X176134849Y-63773008D01*
X176165099Y-63379907D02*
X176165099Y-63712506D01*
X175892951Y-63379907D02*
X175892951Y-63803209D01*
X176709350Y-63198457D02*
X176648898Y-63168206D01*
X176739600Y-63228708D02*
X176709350Y-63198457D01*
X176769851Y-63289155D02*
X176739600Y-63228704D01*
X176800048Y-63410108D02*
X176769847Y-63289159D01*
X176800048Y-63561307D02*
X176800048Y-63410108D01*
X176769851Y-63682256D02*
X176800052Y-63561307D01*
X176739600Y-63742757D02*
X176753213Y-63715531D01*
X176769851Y-63682256D01*
X176709350Y-63773008D02*
X176739600Y-63742757D01*
X176648898Y-63803209D02*
X176709350Y-63773008D01*
X176588401Y-63803209D02*
X176648902Y-63803209D01*
X176527950Y-63773008D02*
X176588401Y-63803209D01*
X176497699Y-63742757D02*
X176527950Y-63773008D01*
X176467448Y-63682256D02*
X176481061Y-63709482D01*
X176497699Y-63742757D01*
X176437202Y-63561307D02*
X176467452Y-63682256D01*
X176437202Y-63410108D02*
X176437202Y-63561307D01*
X176467448Y-63289155D02*
X176437198Y-63410104D01*
X176497699Y-63228708D02*
X176467448Y-63289159D01*
X176527950Y-63198457D02*
X176497699Y-63228708D01*
X176588401Y-63168206D02*
X176527950Y-63198457D01*
X176648898Y-63168206D02*
X176588397Y-63168206D01*
X177344348Y-63319406D02*
X177404800Y-63349656D01*
X177283851Y-63258958D02*
X177316429Y-63291510D01*
X177344352Y-63319410D01*
X177223399Y-63168206D02*
X177283851Y-63258958D01*
X177223399Y-63803209D02*
X177223399Y-63168210D01*
X177041949Y-63803209D02*
X177404800Y-63803209D01*
X176739600Y-62200608D02*
X176769801Y-62261060D01*
X176709350Y-62170358D02*
X176739600Y-62200608D01*
X176648849Y-62140107D02*
X176676075Y-62153720D01*
X176709350Y-62170358D01*
X176527900Y-62140107D02*
X176648849Y-62140107D01*
X176467448Y-62170358D02*
X176527900Y-62140107D01*
X176437202Y-62200608D02*
X176467452Y-62170358D01*
X176406951Y-62261056D02*
X176437202Y-62200605D01*
X176406951Y-62412255D02*
X176406951Y-62261056D01*
X176437202Y-62472757D02*
X176423337Y-62445027D01*
X176406951Y-62412255D01*
X176467448Y-62503007D02*
X176437198Y-62472757D01*
X176527900Y-62533208D02*
X176467448Y-62503007D01*
X176648849Y-62533208D02*
X176527900Y-62533208D01*
X176709350Y-62503007D02*
X176648849Y-62533208D01*
X176739600Y-62472757D02*
X176709350Y-62503007D01*
X176769801Y-62412255D02*
X176739600Y-62472757D01*
X176769801Y-62170358D02*
X176769801Y-62412259D01*
X176739600Y-62049405D02*
X176769801Y-62170354D01*
X176679099Y-61958707D02*
X176710087Y-62005161D01*
X176739600Y-62049405D01*
X176648849Y-61928456D02*
X176679099Y-61958707D01*
X176588401Y-61898206D02*
X176648853Y-61928456D01*
X176467448Y-61898206D02*
X176588401Y-61898206D01*
X177041949Y-61928456D02*
X177028526Y-61941902D01*
X177011749Y-61958707D01*
X177132701Y-61898206D02*
X177089298Y-61912673D01*
X177041949Y-61928456D01*
X177193149Y-61898206D02*
X177132697Y-61898206D01*
X177283851Y-61928456D02*
X177193153Y-61898206D01*
X177344348Y-61988958D02*
X177283847Y-61928456D01*
X177374599Y-62049405D02*
X177344348Y-61988954D01*
X177404800Y-62170358D02*
X177374599Y-62049409D01*
X177404800Y-62261056D02*
X177404800Y-62170358D01*
X177374599Y-62382009D02*
X177404800Y-62261060D01*
X177344348Y-62442506D02*
X177360986Y-62409231D01*
X177374599Y-62382005D01*
X177283851Y-62503007D02*
X177344352Y-62442506D01*
X177193149Y-62533208D02*
X177283851Y-62503007D01*
X177132701Y-62533208D02*
X177193149Y-62533208D01*
X177041949Y-62503007D02*
X177132701Y-62533208D01*
X177011749Y-62472757D02*
X177041949Y-62503007D01*
X179486350Y-63386506D02*
X179486350Y-64783506D01*
X179486350Y-62370507D02*
X179486350Y-60973508D01*
X180502349Y-63259507D02*
X178470348Y-63259507D01*
X180502349Y-62497506D02*
X178470348Y-62497506D01*
X172501350Y-63168256D02*
X172652549Y-63168256D01*
X172410651Y-63138059D02*
X172501350Y-63168260D01*
X172350150Y-63077558D02*
X172410651Y-63138059D01*
X172319900Y-63017057D02*
X172334420Y-63046097D01*
X172350150Y-63077558D01*
X172289699Y-62896108D02*
X172319900Y-63017057D01*
X172289699Y-62805406D02*
X172289699Y-62896104D01*
X172319900Y-62684457D02*
X172289699Y-62805406D01*
X172350150Y-62624006D02*
X172319900Y-62684457D01*
X172410651Y-62563508D02*
X172350150Y-62624009D01*
X172501350Y-62533258D02*
X172410651Y-62563508D01*
X172652549Y-62533258D02*
X172501350Y-62533258D01*
X172652549Y-63168256D02*
X172652549Y-62533258D01*
X172954951Y-63168256D02*
X172954951Y-62533258D01*
X173317802Y-62533258D02*
X172954951Y-63168256D01*
X173317802Y-63168256D02*
X173317802Y-62533258D01*
X173589950Y-62896108D02*
X173710899Y-62896108D01*
X173589950Y-63107808D02*
X173589950Y-62896108D01*
X173620151Y-63138059D02*
X173589950Y-63107808D01*
X173710899Y-63168256D02*
X173620147Y-63138055D01*
X173771350Y-63168256D02*
X173710899Y-63168256D01*
X173862048Y-63138059D02*
X173771350Y-63168260D01*
X173922549Y-63077558D02*
X173862048Y-63138059D01*
X173952800Y-63017057D02*
X173937017Y-63048622D01*
X173922549Y-63077558D01*
X173983001Y-62896108D02*
X173952800Y-63017057D01*
X173983001Y-62805406D02*
X173983001Y-62896104D01*
X173952800Y-62684457D02*
X173983001Y-62805406D01*
X173922549Y-62624006D02*
X173952800Y-62684457D01*
X173862048Y-62563508D02*
X173922549Y-62624009D01*
X173771350Y-62533258D02*
X173862048Y-62563508D01*
X173680648Y-62533258D02*
X173771350Y-62533258D01*
X173620151Y-62563508D02*
X173680652Y-62533258D01*
X173771346Y-60973504D02*
X173136348Y-60973504D01*
X173136348Y-61608503D02*
X173771346Y-60973504D01*
X172501350Y-60973504D02*
X173136348Y-61608503D01*
X173136348Y-60973504D02*
X172501350Y-60973504D01*
X173136348Y-60338506D02*
X173136348Y-60973504D01*
X154615501Y-59594106D02*
X154585250Y-59563905D01*
X154676002Y-59624356D02*
X154615501Y-59594106D01*
X154796951Y-59563909D02*
X154676002Y-59624360D01*
X154857406Y-59594106D02*
X154796958Y-59563905D01*
X154887656Y-59624356D02*
X154857406Y-59594106D01*
X154509704Y-58112458D02*
X154533881Y-58124558D01*
X154570152Y-58142709D01*
X154449203Y-58052007D02*
X154509704Y-58112458D01*
X154388755Y-57961255D02*
X154449203Y-58052007D01*
X154388755Y-58596257D02*
X154388755Y-57961259D01*
X154207305Y-58596257D02*
X154570152Y-58596257D01*
X154842353Y-58475309D02*
X154842353Y-57961259D01*
X154872550Y-58535806D02*
X154842353Y-58475305D01*
X154902801Y-58566056D02*
X154872550Y-58535806D01*
X154963302Y-58596257D02*
X154902801Y-58566056D01*
X155084251Y-58596257D02*
X154963302Y-58596257D01*
X155144706Y-58566056D02*
X155084258Y-58596257D01*
X155174957Y-58535806D02*
X155159226Y-58551536D01*
X155144706Y-58566056D01*
X155205207Y-58475309D02*
X155189425Y-58506874D01*
X155174957Y-58535810D01*
X155205207Y-57961255D02*
X155205207Y-58475305D01*
X149157554Y-60099557D02*
X149187751Y-60069307D01*
X149097053Y-60129758D02*
X149157554Y-60099557D01*
X148945853Y-60129758D02*
X149097053Y-60129758D01*
X148885406Y-60099557D02*
X148945853Y-60129758D01*
X148855155Y-60069307D02*
X148885406Y-60099557D01*
X148824905Y-60008805D02*
X148855155Y-60069307D01*
X148824905Y-59857606D02*
X148824905Y-60008805D01*
X148855155Y-59797158D02*
X148840418Y-59826609D01*
X148824905Y-59857610D01*
X148885406Y-59766908D02*
X148855155Y-59797158D01*
X148945853Y-59736657D02*
X148885406Y-59766908D01*
X149097053Y-59736657D02*
X148945853Y-59736657D01*
X149157554Y-59766908D02*
X149097053Y-59736657D01*
X149187751Y-59797158D02*
X149157554Y-59766908D01*
X149157554Y-59494756D02*
X149172558Y-59645005D01*
X149187751Y-59797155D01*
X148855155Y-59494756D02*
X149157554Y-59494756D01*
X150217651Y-60325906D02*
X150121267Y-60174457D01*
X150005950Y-59993257D01*
X150429305Y-59993257D02*
X150217658Y-60325906D01*
X150217651Y-60325906D02*
X150217651Y-60628255D01*
X150913100Y-59993257D02*
X150610702Y-59993257D01*
X150913100Y-60628259D02*
X150913100Y-59993261D01*
X150610702Y-60628259D02*
X150913100Y-60628259D01*
X150913100Y-60295655D02*
X150701400Y-60295655D01*
X151185256Y-59993257D02*
X151548103Y-60356107D01*
X151185256Y-60628259D02*
X151350163Y-60408355D01*
X151457359Y-60265409D01*
X151548103Y-60628259D02*
X151548103Y-59993261D01*
X149641357Y-60338506D02*
X148371360Y-60338506D01*
X149157554Y-58527158D02*
X149187751Y-58587609D01*
X149127303Y-58496907D02*
X149141708Y-58511313D01*
X149157554Y-58527158D01*
X149066802Y-58466657D02*
X149127303Y-58496907D01*
X148945853Y-58466657D02*
X149066802Y-58466657D01*
X148885406Y-58496907D02*
X148945853Y-58466657D01*
X148855155Y-58527158D02*
X148871001Y-58511313D01*
X148885406Y-58496907D01*
X148824905Y-58587606D02*
X148839642Y-58558155D01*
X148855155Y-58527154D01*
X148824905Y-58738809D02*
X148824905Y-58587609D01*
X148855155Y-58799306D02*
X148824905Y-58738805D01*
X148885406Y-58829557D02*
X148871001Y-58815151D01*
X148855155Y-58799306D01*
X148945853Y-58859758D02*
X148885406Y-58829557D01*
X149066802Y-58859758D02*
X148945853Y-58859758D01*
X149127303Y-58829557D02*
X149066802Y-58859758D01*
X149157554Y-58799306D02*
X149141708Y-58815151D01*
X149127303Y-58829557D01*
X149187751Y-58738809D02*
X149157554Y-58799310D01*
X149187751Y-58496907D02*
X149187751Y-58738809D01*
X149157554Y-58375959D02*
X149187751Y-58496907D01*
X149097053Y-58285257D02*
X149128278Y-58332067D01*
X149157554Y-58375955D01*
X149066802Y-58255006D02*
X149082648Y-58270851D01*
X149097053Y-58285257D01*
X149006355Y-58224755D02*
X149066802Y-58255006D01*
X148885406Y-58224755D02*
X149006355Y-58224755D01*
X150187354Y-59358258D02*
X150187354Y-58723260D01*
X150368804Y-58723256D02*
X150005958Y-58723256D01*
X150701453Y-58723256D02*
X150489753Y-59358255D01*
X150913100Y-59358258D02*
X150701453Y-58723260D01*
X150852607Y-59176858D02*
X150550254Y-59176858D01*
X151245704Y-59025659D02*
X151457404Y-59025659D01*
X151185256Y-58995408D02*
X151245704Y-59025659D01*
X151155006Y-58965158D02*
X151185256Y-58995408D01*
X151124755Y-58904706D02*
X151140313Y-58935796D01*
X151155006Y-58965158D01*
X151124755Y-58844209D02*
X151124755Y-58904710D01*
X151155006Y-58783757D02*
X151140313Y-58813119D01*
X151124755Y-58844209D01*
X151185256Y-58753507D02*
X151155006Y-58783757D01*
X151245704Y-58723256D02*
X151220518Y-58735860D01*
X151185256Y-58753507D01*
X151457404Y-58723256D02*
X151245704Y-58723256D01*
X151457404Y-59358258D02*
X151457404Y-58723260D01*
X151215507Y-59358258D02*
X151457404Y-59358258D01*
X151155006Y-59328057D02*
X151215507Y-59358258D01*
X151124755Y-59297807D02*
X151155006Y-59328057D01*
X151094550Y-59237306D02*
X151108705Y-59265665D01*
X151124747Y-59297807D01*
X151094550Y-59146608D02*
X151094550Y-59237306D01*
X151124755Y-59086106D02*
X151094558Y-59146608D01*
X151155006Y-59055906D02*
X151140890Y-59069998D01*
X151124755Y-59086106D01*
X151245704Y-59025659D02*
X151155006Y-59055909D01*
X149641357Y-59068505D02*
X148371360Y-59068505D01*
X148794700Y-56954759D02*
X149066802Y-57589757D01*
X149218002Y-56954759D02*
X148794700Y-56954759D01*
X150187354Y-58088258D02*
X150036155Y-57453260D01*
X150308303Y-57634706D02*
X150187354Y-58088254D01*
X150429252Y-58088258D02*
X150308303Y-57634710D01*
X150580451Y-57453256D02*
X150429252Y-58088254D01*
X150882850Y-57453256D02*
X150792098Y-57483506D01*
X151034003Y-57453256D02*
X150882850Y-57453256D01*
X151094505Y-57483506D02*
X151034003Y-57453256D01*
X151124755Y-57513757D02*
X151108973Y-57497974D01*
X151094505Y-57483506D01*
X151154952Y-57574208D02*
X151124755Y-57513757D01*
X151154952Y-57634706D02*
X151154952Y-57574205D01*
X151124755Y-57695157D02*
X151154952Y-57634706D01*
X151094505Y-57725408D02*
X151124755Y-57695157D01*
X151034003Y-57755658D02*
X151094505Y-57725408D01*
X150913055Y-57785909D02*
X151034003Y-57755658D01*
X150852607Y-57816106D02*
X150913055Y-57785905D01*
X150822356Y-57846357D02*
X150836761Y-57831951D01*
X150852607Y-57816106D01*
X150792106Y-57906858D02*
X150806574Y-57877922D01*
X150822356Y-57846357D01*
X150792106Y-57967305D02*
X150792106Y-57906854D01*
X150822356Y-58027806D02*
X150806574Y-57996241D01*
X150792106Y-57967305D01*
X150852607Y-58058057D02*
X150836761Y-58042212D01*
X150822356Y-58027806D01*
X150913055Y-58088258D02*
X150852607Y-58058057D01*
X151064254Y-58088258D02*
X150913055Y-58088258D01*
X151154952Y-58058057D02*
X151064254Y-58088258D01*
X149641357Y-57798509D02*
X148371360Y-57798509D01*
X148885406Y-55987157D02*
X148945853Y-55956907D01*
X148855155Y-56017408D02*
X148869560Y-56003002D01*
X148885406Y-55987157D01*
X148824905Y-56077855D02*
X148855155Y-56017404D01*
X148824905Y-56198808D02*
X148824905Y-56077859D01*
X148855155Y-56259305D02*
X148824905Y-56198804D01*
X148885406Y-56289556D02*
X148871001Y-56275150D01*
X148855155Y-56259305D01*
X148945853Y-56319757D02*
X148885406Y-56289556D01*
X149066802Y-56319757D02*
X148945853Y-56319757D01*
X149127303Y-56289556D02*
X149066802Y-56319757D01*
X149157554Y-56259305D02*
X149141708Y-56275150D01*
X149127303Y-56289556D01*
X149187751Y-56198808D02*
X149157554Y-56259309D01*
X149187751Y-56077855D02*
X149187751Y-56198804D01*
X149157554Y-56017408D02*
X149187751Y-56077859D01*
X149127303Y-55987157D02*
X149143149Y-56003002D01*
X149157554Y-56017408D01*
X149066802Y-55956907D02*
X149127303Y-55987157D01*
X148945853Y-55956907D02*
X149066802Y-55956907D01*
X148885406Y-55926656D02*
X148945853Y-55956907D01*
X148855155Y-55896459D02*
X148885406Y-55926660D01*
X148824905Y-55835958D02*
X148855155Y-55896459D01*
X148824905Y-55805707D02*
X148824905Y-55835958D01*
X148855155Y-55745256D02*
X148824905Y-55805707D01*
X148885406Y-55715005D02*
X148869560Y-55730850D01*
X148855155Y-55745256D01*
X148945853Y-55684758D02*
X148885406Y-55715009D01*
X149066802Y-55684758D02*
X148945853Y-55684758D01*
X149127303Y-55715005D02*
X149066802Y-55684755D01*
X149157554Y-55745256D02*
X149143149Y-55730850D01*
X149127303Y-55715005D01*
X149187751Y-55805707D02*
X149157554Y-55745256D01*
X149187751Y-55835958D02*
X149187751Y-55805707D01*
X149157554Y-55896459D02*
X149187751Y-55835958D01*
X149127303Y-55926656D02*
X149157554Y-55896455D01*
X149066802Y-55956907D02*
X149127303Y-55926656D01*
X150187354Y-56818258D02*
X150187354Y-56183259D01*
X150368804Y-56183255D02*
X150005958Y-56183255D01*
X150580505Y-56697309D02*
X150580505Y-56183259D01*
X150610702Y-56757806D02*
X150580505Y-56697305D01*
X150640952Y-56788057D02*
X150626484Y-56773589D01*
X150610702Y-56757806D01*
X150701453Y-56818258D02*
X150640952Y-56788057D01*
X150822402Y-56818258D02*
X150701453Y-56818258D01*
X150882850Y-56788057D02*
X150822402Y-56818258D01*
X150913100Y-56757806D02*
X150897318Y-56773589D01*
X150882850Y-56788057D01*
X150943351Y-56697309D02*
X150929306Y-56725399D01*
X150913100Y-56757810D01*
X150943351Y-56183255D02*
X150943351Y-56697305D01*
X151548103Y-56213506D02*
X151511832Y-56195355D01*
X151487655Y-56183255D01*
X151608604Y-56274007D02*
X151579794Y-56245197D01*
X151548103Y-56213506D01*
X151638801Y-56394956D02*
X151608604Y-56274007D01*
X151638801Y-56606607D02*
X151638801Y-56394956D01*
X151608604Y-56727555D02*
X151638801Y-56606607D01*
X151548103Y-56788057D02*
X151579563Y-56756596D01*
X151608604Y-56727555D01*
X151487655Y-56818258D02*
X151548103Y-56788057D01*
X151366706Y-56818258D02*
X151487655Y-56818258D01*
X151306205Y-56788057D02*
X151366706Y-56818258D01*
X151245757Y-56727555D02*
X151272620Y-56754442D01*
X151306205Y-56788057D01*
X151215507Y-56606607D02*
X151245757Y-56727555D01*
X151215507Y-56394956D02*
X151215507Y-56606607D01*
X151245757Y-56274007D02*
X151215507Y-56394956D01*
X151306205Y-56213506D02*
X151245757Y-56274007D01*
X151366706Y-56183255D02*
X151306205Y-56213506D01*
X151487655Y-56183255D02*
X151366706Y-56183255D01*
X152031951Y-56818258D02*
X151923940Y-56494277D01*
X151820251Y-56183259D01*
X152243606Y-56183255D02*
X152031959Y-56818254D01*
X149641357Y-56528508D02*
X148371360Y-56528508D01*
X155232452Y-53837259D02*
X155292953Y-53807008D01*
X155202255Y-53867505D02*
X155232452Y-53837255D01*
X155172004Y-53927957D02*
X155186442Y-53899105D01*
X155202255Y-53867505D01*
X155172004Y-54048906D02*
X155172004Y-53927957D01*
X155202255Y-54109407D02*
X155186524Y-54077946D01*
X155172004Y-54048906D01*
X155232452Y-54139657D02*
X155202255Y-54109407D01*
X155292953Y-54169858D02*
X155232452Y-54139657D01*
X155444152Y-54169858D02*
X155292953Y-54169858D01*
X155504607Y-54139657D02*
X155444160Y-54169858D01*
X155534850Y-54109407D02*
X155504600Y-54139657D01*
X155565101Y-54048906D02*
X155549180Y-54080748D01*
X155534850Y-54109407D01*
X155565101Y-53927957D02*
X155565101Y-54048906D01*
X155534850Y-53867505D02*
X155565101Y-53927957D01*
X155504607Y-53837259D02*
X155534850Y-53867505D01*
X155444152Y-53807008D02*
X155479414Y-53824655D01*
X155504600Y-53837259D01*
X155202255Y-53807008D02*
X155444152Y-53807008D01*
X155081306Y-53837259D02*
X155202255Y-53807008D01*
X154990554Y-53897756D02*
X155081306Y-53837255D01*
X154960304Y-53927957D02*
X154990554Y-53897756D01*
X154930106Y-53988458D02*
X154960304Y-53927957D01*
X154930106Y-54109407D02*
X154930106Y-53988458D01*
X154733955Y-55804506D02*
X154733955Y-56046407D01*
X154764205Y-55744008D02*
X154749737Y-55772944D01*
X154733955Y-55804509D01*
X154794456Y-55713758D02*
X154764205Y-55744008D01*
X154854903Y-55683557D02*
X154794456Y-55713758D01*
X154945655Y-55683557D02*
X154854903Y-55683557D01*
X155006103Y-55713758D02*
X154945655Y-55683557D01*
X155036353Y-55744008D02*
X155006103Y-55713758D01*
X155066604Y-55804506D02*
X155036353Y-55744004D01*
X155066604Y-56046407D02*
X155066604Y-55804506D01*
X154431602Y-56046407D02*
X155066604Y-56046407D01*
X155066604Y-56620908D02*
X155066604Y-56318505D01*
X154431602Y-56620908D02*
X155066604Y-56620908D01*
X154431602Y-56318505D02*
X154431602Y-56620904D01*
X154764205Y-56620908D02*
X154764205Y-56409208D01*
X160617751Y-59918107D02*
X160224700Y-59918107D01*
X160466605Y-59464559D02*
X160617759Y-59918107D01*
X160315406Y-59706456D02*
X160315406Y-60129758D01*
X157652755Y-60598058D02*
X157667880Y-60582933D01*
X157683006Y-60567807D01*
X157592307Y-60628259D02*
X157652755Y-60598058D01*
X157410857Y-60628259D02*
X157592307Y-60628259D01*
X157350402Y-60598058D02*
X157410850Y-60628259D01*
X157320152Y-60567807D02*
X157334620Y-60582275D01*
X157350402Y-60598058D01*
X157289901Y-60507306D02*
X157303211Y-60533927D01*
X157320152Y-60567807D01*
X157289901Y-60356107D02*
X157289901Y-60507306D01*
X157320152Y-60295655D02*
X157304658Y-60326618D01*
X157289901Y-60356107D01*
X157350402Y-60265409D02*
X157320152Y-60295659D01*
X157410857Y-60235158D02*
X157350410Y-60265409D01*
X157501601Y-60235158D02*
X157410850Y-60235158D01*
X157289901Y-59993257D02*
X157501601Y-60235158D01*
X157683006Y-59993257D02*
X157289909Y-59993257D01*
X158106353Y-60628259D02*
X158257552Y-60628259D01*
X158015655Y-60598058D02*
X158106353Y-60628259D01*
X157955154Y-60537557D02*
X157986845Y-60569248D01*
X158015655Y-60598058D01*
X157924903Y-60477056D02*
X157955154Y-60537557D01*
X157894706Y-60356107D02*
X157909592Y-60415730D01*
X157924903Y-60477056D01*
X157894706Y-60265409D02*
X157894706Y-60356107D01*
X157924903Y-60144456D02*
X157894706Y-60265405D01*
X157955154Y-60084008D02*
X157940461Y-60113370D01*
X157924903Y-60144460D01*
X158015655Y-60023507D02*
X157985404Y-60053758D01*
X157955154Y-60084008D01*
X158106353Y-59993257D02*
X158015655Y-60023507D01*
X158257552Y-59993257D02*
X158106353Y-59993257D01*
X158257552Y-60628259D02*
X158257552Y-59993261D01*
X158832053Y-59993257D02*
X158529655Y-59993257D01*
X158832053Y-60628259D02*
X158832053Y-59993261D01*
X158529655Y-60628259D02*
X158832053Y-60628259D01*
X158832053Y-60295655D02*
X158620353Y-60295655D01*
X159346107Y-60628259D02*
X159346107Y-59993261D01*
X159043700Y-60628259D02*
X159346099Y-60628259D01*
X159801353Y-60338506D02*
X161071349Y-60338506D01*
X160617751Y-58829557D02*
X160632156Y-58815151D01*
X160648002Y-58799306D01*
X160557304Y-58859758D02*
X160617751Y-58829557D01*
X160375854Y-58859758D02*
X160557304Y-58859758D01*
X160315406Y-58829557D02*
X160375854Y-58859758D01*
X160285156Y-58799306D02*
X160300938Y-58815089D01*
X160315406Y-58829557D01*
X160254905Y-58738809D02*
X160268950Y-58766899D01*
X160285156Y-58799310D01*
X160254905Y-58587606D02*
X160254905Y-58738805D01*
X160285156Y-58527158D02*
X160269310Y-58558823D01*
X160254905Y-58587609D01*
X160315406Y-58496907D02*
X160300938Y-58511375D01*
X160285156Y-58527158D01*
X160375854Y-58466657D02*
X160315406Y-58496907D01*
X160466605Y-58466657D02*
X160375854Y-58466657D01*
X160254905Y-58224755D02*
X160364635Y-58350140D01*
X160466605Y-58466657D01*
X160648002Y-58224755D02*
X160254905Y-58224755D01*
X157683006Y-59358258D02*
X157289909Y-59358258D01*
X157320152Y-58995408D02*
X157456218Y-59131476D01*
X157682998Y-59358258D01*
X157289901Y-58904706D02*
X157303983Y-58946928D01*
X157320152Y-58995404D01*
X157289901Y-58844209D02*
X157289901Y-58904710D01*
X157320152Y-58783757D02*
X157304658Y-58814720D01*
X157289901Y-58844209D01*
X157350402Y-58753507D02*
X157320152Y-58783757D01*
X157410857Y-58723256D02*
X157350410Y-58753507D01*
X157562057Y-58723256D02*
X157410857Y-58723256D01*
X157622550Y-58753507D02*
X157562049Y-58723256D01*
X157652755Y-58783757D02*
X157622558Y-58753507D01*
X158106353Y-59358258D02*
X158257552Y-59358258D01*
X158015655Y-59328057D02*
X158106353Y-59358258D01*
X157955154Y-59267556D02*
X157987925Y-59300328D01*
X158015655Y-59328057D01*
X157924903Y-59207055D02*
X157939233Y-59235714D01*
X157955154Y-59267556D01*
X157894706Y-59086106D02*
X157910017Y-59147432D01*
X157924903Y-59207055D01*
X157894706Y-58995408D02*
X157894706Y-59086106D01*
X157924903Y-58874456D02*
X157894706Y-58995404D01*
X157955154Y-58814008D02*
X157924903Y-58874459D01*
X158015655Y-58753507D02*
X157986845Y-58782317D01*
X157955154Y-58814008D01*
X158106353Y-58723256D02*
X158064890Y-58737086D01*
X158015655Y-58753507D01*
X158257552Y-58723256D02*
X158106353Y-58723256D01*
X158257552Y-59358258D02*
X158257552Y-58723260D01*
X158832053Y-58723256D02*
X158529655Y-58723256D01*
X158832053Y-59358258D02*
X158832053Y-58723260D01*
X158529655Y-59358258D02*
X158832053Y-59358258D01*
X158832053Y-59025659D02*
X158620353Y-59025659D01*
X159346107Y-59358258D02*
X159346107Y-58723260D01*
X159043700Y-59358258D02*
X159346099Y-59358258D01*
X159801353Y-59068505D02*
X161071349Y-59068505D01*
X160648002Y-57589757D02*
X160254905Y-57589757D01*
X160285156Y-57226907D02*
X160648002Y-57589757D01*
X160254905Y-57136209D02*
X160269509Y-57179994D01*
X160285156Y-57226907D01*
X160254905Y-57075708D02*
X160254905Y-57136209D01*
X160285156Y-57015256D02*
X160268923Y-57047694D01*
X160254905Y-57075708D01*
X160315406Y-56985006D02*
X160285156Y-57015256D01*
X160375854Y-56954759D02*
X160315406Y-56985009D01*
X160527053Y-56954759D02*
X160375854Y-56954759D01*
X160587554Y-56985006D02*
X160527053Y-56954755D01*
X160617751Y-57015256D02*
X160587554Y-56985006D01*
X157592307Y-57604455D02*
X157628578Y-57622606D01*
X157652755Y-57634706D01*
X157531806Y-57544007D02*
X157592307Y-57604459D01*
X157471351Y-57453256D02*
X157531799Y-57544007D01*
X157471351Y-58088258D02*
X157471351Y-57453260D01*
X157289901Y-58088258D02*
X157652747Y-58088258D01*
X158106353Y-58088258D02*
X158257552Y-58088258D01*
X158015655Y-58058057D02*
X158106353Y-58088258D01*
X157955154Y-57997556D02*
X157986845Y-58029247D01*
X158015655Y-58058057D01*
X157924903Y-57937059D02*
X157940824Y-57968901D01*
X157955154Y-57997560D01*
X157894706Y-57816106D02*
X157924903Y-57937055D01*
X157894706Y-57725408D02*
X157894706Y-57816106D01*
X157924903Y-57604455D02*
X157894706Y-57725404D01*
X157955154Y-57544007D02*
X157940461Y-57573369D01*
X157924903Y-57604459D01*
X158015655Y-57483506D02*
X157985404Y-57513757D01*
X157955154Y-57544007D01*
X158106353Y-57453256D02*
X158015655Y-57483506D01*
X158257552Y-57453256D02*
X158106353Y-57453256D01*
X158257552Y-58088258D02*
X158257552Y-57453260D01*
X158832053Y-57453256D02*
X158529655Y-57453256D01*
X158832053Y-58088258D02*
X158832053Y-57453260D01*
X158529655Y-58088258D02*
X158832053Y-58088258D01*
X158832053Y-57755658D02*
X158620353Y-57755658D01*
X159346107Y-58088258D02*
X159346107Y-57453260D01*
X159043700Y-58088258D02*
X159346099Y-58088258D01*
X159801353Y-57798509D02*
X161071349Y-57798509D01*
X160557304Y-55835958D02*
X160617751Y-55866208D01*
X160496803Y-55775506D02*
X160557304Y-55835958D01*
X160436355Y-55684758D02*
X160496803Y-55775510D01*
X160436355Y-56319757D02*
X160436355Y-55684758D01*
X160254905Y-56319757D02*
X160617751Y-56319757D01*
X158136550Y-56818258D02*
X158136550Y-56183259D01*
X158499404Y-56183255D02*
X158136558Y-56818254D01*
X158499404Y-56818258D02*
X158499404Y-56183259D01*
X158801803Y-56818258D02*
X158801803Y-56183259D01*
X159225150Y-56818258D02*
X159117139Y-56494277D01*
X159013450Y-56183259D01*
X159436805Y-56183255D02*
X159225158Y-56818254D01*
X159801353Y-56528508D02*
X161071349Y-56528508D01*
X159801353Y-61608506D02*
X149641357Y-61608506D01*
X149641357Y-55258508D01*
X159801353Y-55258508D01*
X159801353Y-61608506D01*
X179994350Y-58433507D02*
X178978351Y-58433507D01*
X178978351Y-55893506D01*
X179994350Y-55893506D01*
X179994350Y-58433507D01*
X178851348Y-69518258D02*
X179002551Y-69518258D01*
X178760650Y-69488054D02*
X178803525Y-69502332D01*
X178851348Y-69518258D01*
X178700149Y-69427560D02*
X178728959Y-69456370D01*
X178760650Y-69488061D01*
X178669898Y-69367059D02*
X178700149Y-69427560D01*
X178639701Y-69246110D02*
X178669902Y-69367059D01*
X178639701Y-69155404D02*
X178639701Y-69246103D01*
X178669898Y-69034455D02*
X178639697Y-69155404D01*
X178700149Y-68974008D02*
X178669898Y-69034459D01*
X178760650Y-68913507D02*
X178700149Y-68974008D01*
X178851348Y-68883256D02*
X178760650Y-68913507D01*
X179002551Y-68883256D02*
X178851348Y-68883256D01*
X179002551Y-69518258D02*
X179002551Y-68883260D01*
X179304950Y-69518258D02*
X179304950Y-68883260D01*
X179667800Y-68883256D02*
X179304950Y-69518258D01*
X179667800Y-69518258D02*
X179667800Y-68883260D01*
X179939948Y-69246110D02*
X180060901Y-69246110D01*
X179939948Y-69457811D02*
X179939948Y-69246110D01*
X179970149Y-69488054D02*
X179939948Y-69457803D01*
X180060901Y-69518258D02*
X179970149Y-69488061D01*
X180121349Y-69518258D02*
X180060897Y-69518258D01*
X180212051Y-69488054D02*
X180162580Y-69504525D01*
X180121352Y-69518251D01*
X180272548Y-69427560D02*
X180243738Y-69456370D01*
X180212047Y-69488061D01*
X180302798Y-69367059D02*
X180272548Y-69427560D01*
X180332999Y-69246110D02*
X180302798Y-69367059D01*
X180332999Y-69155404D02*
X180332999Y-69246103D01*
X180302798Y-69034455D02*
X180332999Y-69155404D01*
X180272548Y-68974008D02*
X180302798Y-69034459D01*
X180212051Y-68913507D02*
X180272552Y-68974008D01*
X180121349Y-68883256D02*
X180169721Y-68899389D01*
X180212051Y-68913507D01*
X180030650Y-68883256D02*
X180121349Y-68883256D01*
X179970149Y-68913507D02*
X179999085Y-68899039D01*
X180030650Y-68883256D01*
X180121349Y-67323507D02*
X179486350Y-67323507D01*
X179486350Y-67958505D02*
X180121349Y-67323507D01*
X178851352Y-67323507D02*
X179486350Y-67958505D01*
X179486350Y-67323507D02*
X178851352Y-67323507D01*
X179486350Y-66688508D02*
X179486350Y-67323507D01*
X177162952Y-57785855D02*
X177404849Y-57785855D01*
X177102451Y-57755609D02*
X177131491Y-57770129D01*
X177162952Y-57785859D01*
X177072200Y-57725358D02*
X177102451Y-57755609D01*
X177041999Y-57664907D02*
X177072200Y-57725358D01*
X177041999Y-57574159D02*
X177041999Y-57664911D01*
X177072200Y-57513707D02*
X177041999Y-57574159D01*
X177102451Y-57483457D02*
X177072200Y-57513707D01*
X177162952Y-57453206D02*
X177131658Y-57468853D01*
X177102451Y-57483457D01*
X177404849Y-57453206D02*
X177162948Y-57453206D01*
X177404849Y-58088208D02*
X177404849Y-57453210D01*
X177041999Y-58088208D02*
X177142644Y-57944434D01*
X177253650Y-57785859D01*
X178070049Y-58088208D02*
X177676948Y-58088208D01*
X177707198Y-57725358D02*
X178070049Y-58088208D01*
X177676952Y-57634656D02*
X177707202Y-57725354D01*
X177676952Y-57574159D02*
X177676952Y-57634660D01*
X177707198Y-57513707D02*
X177676948Y-57574159D01*
X177737449Y-57483457D02*
X177707198Y-57513707D01*
X177797900Y-57453206D02*
X177737449Y-57483457D01*
X177949100Y-57453206D02*
X177797900Y-57453206D01*
X178009601Y-57483457D02*
X177949100Y-57453206D01*
X178039798Y-57513707D02*
X178009597Y-57483457D01*
X177404800Y-56788007D02*
X177435050Y-56757756D01*
X177344348Y-56818208D02*
X177404800Y-56788007D01*
X177162898Y-56818208D02*
X177344348Y-56818208D01*
X177102451Y-56788007D02*
X177162902Y-56818208D01*
X177072200Y-56757756D02*
X177102451Y-56788007D01*
X177041949Y-56697255D02*
X177056417Y-56726191D01*
X177072200Y-56757756D01*
X177041949Y-56546056D02*
X177041949Y-56697255D01*
X177072200Y-56485608D02*
X177041949Y-56546060D01*
X177102451Y-56455358D02*
X177072200Y-56485608D01*
X177162898Y-56425107D02*
X177102447Y-56455358D01*
X177253650Y-56425107D02*
X177162898Y-56425107D01*
X177041949Y-56183206D02*
X177253650Y-56425107D01*
X177435050Y-56183206D02*
X177041949Y-56183206D01*
X177767699Y-56515859D02*
X178009601Y-56515859D01*
X177707198Y-56485608D02*
X177736134Y-56500076D01*
X177767699Y-56515859D01*
X177676952Y-56455358D02*
X177707202Y-56485608D01*
X177646751Y-56394906D02*
X177676952Y-56455358D01*
X177646751Y-56304158D02*
X177646751Y-56394910D01*
X177676952Y-56243707D02*
X177646751Y-56304158D01*
X177707198Y-56213456D02*
X177676948Y-56243707D01*
X177767699Y-56183206D02*
X177738659Y-56197726D01*
X177707198Y-56213456D01*
X178009601Y-56183206D02*
X177767699Y-56183206D01*
X178009601Y-56818208D02*
X178009601Y-56183210D01*
X177646751Y-56818208D02*
X177858402Y-56515859D01*
X179486350Y-58433507D02*
X179486350Y-59068505D01*
X179486350Y-55893506D02*
X179486350Y-55258508D01*
X167421348Y-67414163D02*
X166786350Y-66144162D01*
X168056350Y-66144162D01*
X167421348Y-67414163D01*
X165793399Y-67703813D02*
X165944598Y-67703813D01*
X165702701Y-67673612D02*
X165793399Y-67703813D01*
X165642200Y-67613111D02*
X165702701Y-67673612D01*
X165611949Y-67552613D02*
X165628335Y-67585385D01*
X165642200Y-67613115D01*
X165581748Y-67431661D02*
X165611949Y-67552610D01*
X165581748Y-67340963D02*
X165581748Y-67431661D01*
X165611949Y-67220014D02*
X165581748Y-67340963D01*
X165642200Y-67159562D02*
X165611949Y-67220014D01*
X165702701Y-67099061D02*
X165642200Y-67159562D01*
X165793399Y-67068811D02*
X165702701Y-67099061D01*
X165944598Y-67068811D02*
X165793399Y-67068811D01*
X165944598Y-67703813D02*
X165944598Y-67068814D01*
X165279350Y-65950013D02*
X165339801Y-65980264D01*
X165218848Y-65889562D02*
X165279350Y-65950013D01*
X165158401Y-65798810D02*
X165218852Y-65889562D01*
X165158401Y-66433812D02*
X165158401Y-65798814D01*
X164976951Y-66433812D02*
X165339801Y-66433812D01*
X165793399Y-66433812D02*
X165944598Y-66433812D01*
X165702701Y-66403611D02*
X165793399Y-66433812D01*
X165642200Y-66343110D02*
X165702701Y-66403611D01*
X165611949Y-66282613D02*
X165628587Y-66315888D01*
X165642200Y-66343114D01*
X165581748Y-66161660D02*
X165611949Y-66282609D01*
X165581748Y-66070962D02*
X165581748Y-66161660D01*
X165611949Y-65950013D02*
X165581748Y-66070962D01*
X165642200Y-65889562D02*
X165611949Y-65950013D01*
X165702701Y-65829061D02*
X165642200Y-65889562D01*
X165793399Y-65798810D02*
X165702701Y-65829061D01*
X165944598Y-65798810D02*
X165793399Y-65798810D01*
X165944598Y-66433812D02*
X165944598Y-65798814D01*
X167421352Y-66144162D02*
X167421352Y-64874162D01*
X167421352Y-67414163D02*
X167421352Y-68684163D01*
X167421352Y-66144162D02*
X167421352Y-67414163D01*
X164246349Y-67414163D02*
X162976348Y-67414163D01*
X163611350Y-66144162D01*
X164246349Y-67414163D01*
X168056350Y-67414163D02*
X166786350Y-67414163D01*
X161983402Y-67703862D02*
X162134601Y-67703862D01*
X161892699Y-67673661D02*
X161983398Y-67703862D01*
X161832206Y-67613160D02*
X161884060Y-67665018D01*
X161892703Y-67673661D01*
X161801955Y-67552663D02*
X161832206Y-67613164D01*
X161771751Y-67431710D02*
X161787062Y-67493036D01*
X161801948Y-67552659D01*
X161771751Y-67341012D02*
X161771751Y-67431710D01*
X161801955Y-67220063D02*
X161786644Y-67281389D01*
X161771758Y-67341012D01*
X161832206Y-67159612D02*
X161801955Y-67220063D01*
X161892699Y-67099111D02*
X161867789Y-67124023D01*
X161832206Y-67159612D01*
X161983402Y-67068860D02*
X161892703Y-67099111D01*
X162134601Y-67068860D02*
X161983402Y-67068860D01*
X162134601Y-67703862D02*
X162134601Y-67068864D01*
X161560050Y-66433862D02*
X161166953Y-66433862D01*
X161197204Y-66071012D02*
X161560050Y-66433862D01*
X161166953Y-65980313D02*
X161197204Y-66071012D01*
X161166953Y-65919812D02*
X161166953Y-65980313D01*
X161197204Y-65859361D02*
X161166953Y-65919812D01*
X161227454Y-65829110D02*
X161212986Y-65843578D01*
X161197204Y-65859361D01*
X161287902Y-65798864D02*
X161259458Y-65813098D01*
X161227454Y-65829114D01*
X161439101Y-65798864D02*
X161287902Y-65798864D01*
X161499603Y-65829110D02*
X161439101Y-65798860D01*
X161529807Y-65859361D02*
X161516381Y-65845911D01*
X161499610Y-65829110D01*
X161983402Y-66433862D02*
X162134601Y-66433862D01*
X161892699Y-66403661D02*
X161983398Y-66433862D01*
X161832206Y-66343164D02*
X161875417Y-66386379D01*
X161892703Y-66403665D01*
X161801955Y-66282663D02*
X161817876Y-66314505D01*
X161832206Y-66343164D01*
X161771751Y-66161714D02*
X161786637Y-66221337D01*
X161801948Y-66282663D01*
X161771751Y-66071012D02*
X161771751Y-66161710D01*
X161801955Y-65950063D02*
X161787069Y-66009686D01*
X161771758Y-66071012D01*
X161832206Y-65889611D02*
X161817513Y-65918973D01*
X161801955Y-65950063D01*
X161892699Y-65829110D02*
X161865476Y-65856336D01*
X161832206Y-65889611D01*
X161983402Y-65798864D02*
X161892703Y-65829114D01*
X162134601Y-65798864D02*
X161983402Y-65798864D01*
X162134601Y-66433862D02*
X162134601Y-65798864D01*
X163611350Y-67414163D02*
X163611350Y-68684163D01*
X163611350Y-66144162D02*
X163611350Y-64874162D01*
X163611350Y-67414163D02*
X163611350Y-66144162D01*
X162976348Y-66144162D02*
X164246349Y-66144162D01*
X152116737Y-52373445D02*
X152267936Y-52373445D01*
X152026038Y-52343244D02*
X152116737Y-52373445D01*
X151965537Y-52282747D02*
X151993267Y-52310476D01*
X152026038Y-52343248D01*
X151935287Y-52222245D02*
X151965537Y-52282747D01*
X151905090Y-52101297D02*
X151935287Y-52222245D01*
X151905090Y-52010595D02*
X151905090Y-52101293D01*
X151935287Y-51889646D02*
X151920401Y-51949269D01*
X151905090Y-52010595D01*
X151965537Y-51829194D02*
X151935287Y-51889646D01*
X152026038Y-51768693D02*
X151994347Y-51800384D01*
X151965537Y-51829194D01*
X152116737Y-51738446D02*
X152074875Y-51752409D01*
X152026038Y-51768697D01*
X152267936Y-51738446D02*
X152116737Y-51738446D01*
X152267936Y-52373445D02*
X152267936Y-51738446D01*
X152570342Y-52373445D02*
X152570342Y-51738446D01*
X152933189Y-51738446D02*
X152570342Y-52373445D01*
X152933189Y-52373445D02*
X152933189Y-51738446D01*
X153205337Y-52101297D02*
X153326286Y-52101297D01*
X153205337Y-52312993D02*
X153205337Y-52101293D01*
X153235542Y-52343244D02*
X153205344Y-52312993D01*
X153326286Y-52373445D02*
X153235534Y-52343244D01*
X153386741Y-52373445D02*
X153326293Y-52373445D01*
X153477439Y-52343244D02*
X153386741Y-52373445D01*
X153537940Y-52282747D02*
X153507690Y-52312997D01*
X153477439Y-52343248D01*
X153568191Y-52222245D02*
X153537940Y-52282747D01*
X153598388Y-52101297D02*
X153568191Y-52222245D01*
X153598388Y-52010595D02*
X153598388Y-52101293D01*
X153568191Y-51889646D02*
X153583077Y-51949269D01*
X153598388Y-52010595D01*
X153537940Y-51829194D02*
X153568191Y-51889646D01*
X153477439Y-51768693D02*
X153506249Y-51797503D01*
X153537940Y-51829194D01*
X153386741Y-51738446D02*
X153428204Y-51752276D01*
X153477439Y-51768697D01*
X153296035Y-51738446D02*
X153386733Y-51738446D01*
X153235542Y-51768693D02*
X153296043Y-51738443D01*
X154069373Y-52120961D02*
X154704375Y-52120961D01*
X154704375Y-51485963D02*
X154069373Y-52120961D01*
X155339378Y-52120961D02*
X154704375Y-51485963D01*
X154704375Y-52120961D02*
X155339378Y-52120961D01*
X154704375Y-52755960D02*
X154704375Y-52120961D01*
X135585601Y-63168206D02*
X135283202Y-63168206D01*
X135585601Y-63803209D02*
X135585601Y-63168210D01*
X135373901Y-63470609D02*
X135585601Y-63470609D01*
X135918205Y-63773008D02*
X135903079Y-63757882D01*
X135887954Y-63742757D01*
X135978652Y-63803209D02*
X135918205Y-63773008D01*
X136069350Y-63803209D02*
X135978652Y-63803209D01*
X136129852Y-63773008D02*
X136069350Y-63803209D01*
X136160102Y-63712506D02*
X136129852Y-63773008D01*
X136160102Y-63379907D02*
X136160102Y-63712506D01*
X135887954Y-63379907D02*
X135887954Y-63803209D01*
X136704353Y-63198457D02*
X136668082Y-63180306D01*
X136643905Y-63168206D01*
X136734603Y-63228708D02*
X136720135Y-63214240D01*
X136704353Y-63198457D01*
X136764854Y-63289155D02*
X136734603Y-63228704D01*
X136795051Y-63410108D02*
X136764854Y-63289159D01*
X136795051Y-63561307D02*
X136795051Y-63410108D01*
X136764854Y-63682256D02*
X136795051Y-63561307D01*
X136734603Y-63742757D02*
X136764854Y-63682256D01*
X136704353Y-63773008D02*
X136718821Y-63758540D01*
X136734603Y-63742757D01*
X136643905Y-63803209D02*
X136704353Y-63773008D01*
X136583404Y-63803209D02*
X136643905Y-63803209D01*
X136522956Y-63773008D02*
X136583404Y-63803209D01*
X136492706Y-63742757D02*
X136508488Y-63758540D01*
X136522956Y-63773008D01*
X136462455Y-63682256D02*
X136476500Y-63710346D01*
X136492706Y-63742757D01*
X136432204Y-63561307D02*
X136448373Y-63625952D01*
X136462455Y-63682256D01*
X136432204Y-63410108D02*
X136432204Y-63561307D01*
X136462455Y-63289155D02*
X136448373Y-63345459D01*
X136432204Y-63410104D01*
X136492706Y-63228708D02*
X136476860Y-63260373D01*
X136462455Y-63289159D01*
X136522956Y-63198457D02*
X136507174Y-63214240D01*
X136492706Y-63228708D01*
X136583404Y-63168206D02*
X136558218Y-63180810D01*
X136522956Y-63198457D01*
X136643905Y-63168206D02*
X136583404Y-63168206D01*
X137339355Y-63319406D02*
X137399802Y-63349656D01*
X137278854Y-63258958D02*
X137339355Y-63319410D01*
X137218406Y-63168206D02*
X137278854Y-63258958D01*
X137218406Y-63803209D02*
X137218406Y-63168210D01*
X137036956Y-63803209D02*
X137399802Y-63803209D01*
X136795051Y-62533208D02*
X136401954Y-62533208D01*
X136432204Y-62170358D02*
X136795051Y-62533208D01*
X136401954Y-62079656D02*
X136432204Y-62170354D01*
X136401954Y-62019159D02*
X136401954Y-62079660D01*
X136432204Y-61958707D02*
X136416691Y-61989708D01*
X136401954Y-62019159D01*
X136462455Y-61928456D02*
X136448590Y-61942321D01*
X136432204Y-61958707D01*
X136522903Y-61898206D02*
X136490899Y-61914222D01*
X136462455Y-61928456D01*
X136674102Y-61898206D02*
X136522903Y-61898206D01*
X136734603Y-61928456D02*
X136674102Y-61898206D01*
X136764800Y-61958707D02*
X136751374Y-61945257D01*
X136734603Y-61928456D01*
X137036956Y-61928456D02*
X137020185Y-61945257D01*
X137006759Y-61958707D01*
X137127700Y-61898206D02*
X137084297Y-61912673D01*
X137036948Y-61928456D01*
X137188155Y-61898206D02*
X137127708Y-61898206D01*
X137278854Y-61928456D02*
X137188155Y-61898206D01*
X137339355Y-61988958D02*
X137310314Y-61959917D01*
X137278854Y-61928456D01*
X137369605Y-62049405D02*
X137339355Y-61988954D01*
X137399802Y-62170358D02*
X137369605Y-62049409D01*
X137399802Y-62261056D02*
X137399802Y-62170358D01*
X137369605Y-62382009D02*
X137384916Y-62320683D01*
X137399802Y-62261060D01*
X137339355Y-62442506D02*
X137369605Y-62382005D01*
X137278854Y-62503007D02*
X137310545Y-62471316D01*
X137339355Y-62442506D01*
X137188155Y-62533208D02*
X137278854Y-62503007D01*
X137127700Y-62533208D02*
X137188148Y-62533208D01*
X137036956Y-62503007D02*
X137127708Y-62533208D01*
X137006751Y-62472757D02*
X137036948Y-62503007D01*
X139481353Y-63386506D02*
X139481353Y-64783506D01*
X139481353Y-62370507D02*
X139481353Y-60973508D01*
X140497352Y-63259507D02*
X138465354Y-63259507D01*
X140497352Y-62497506D02*
X138465354Y-62497506D01*
X169240600Y-56818208D02*
X168938201Y-56818208D01*
X169240600Y-57453206D02*
X169240600Y-56818208D01*
X169028899Y-57120607D02*
X169240600Y-57120607D01*
X169573199Y-57423005D02*
X169542949Y-57392755D01*
X169633651Y-57453206D02*
X169573199Y-57423005D01*
X169724349Y-57453206D02*
X169633651Y-57453206D01*
X169784850Y-57423005D02*
X169724349Y-57453206D01*
X169815101Y-57362508D02*
X169798463Y-57395783D01*
X169784850Y-57423009D01*
X169815101Y-57029908D02*
X169815101Y-57362508D01*
X169542949Y-57029908D02*
X169542949Y-57453210D01*
X170359351Y-56848458D02*
X170298900Y-56818208D01*
X170389598Y-56878705D02*
X170359348Y-56848455D01*
X170419849Y-56939157D02*
X170389598Y-56878705D01*
X170450050Y-57060106D02*
X170419849Y-56939157D01*
X170450050Y-57211309D02*
X170450050Y-57060109D01*
X170419849Y-57332257D02*
X170450050Y-57211309D01*
X170389598Y-57392759D02*
X170405984Y-57359987D01*
X170419849Y-57332257D01*
X170359351Y-57423005D02*
X170389602Y-57392755D01*
X170298900Y-57453206D02*
X170359351Y-57423005D01*
X170238399Y-57453206D02*
X170298900Y-57453206D01*
X170177951Y-57423005D02*
X170238403Y-57453206D01*
X170147701Y-57392759D02*
X170177951Y-57423009D01*
X170117450Y-57332257D02*
X170133836Y-57365029D01*
X170147701Y-57392759D01*
X170087199Y-57211309D02*
X170100545Y-57264669D01*
X170117450Y-57332257D01*
X170087199Y-57060106D02*
X170087199Y-57211305D01*
X170117450Y-56939157D02*
X170101029Y-57004813D01*
X170087199Y-57060106D01*
X170147701Y-56878705D02*
X170117450Y-56939157D01*
X170177951Y-56848458D02*
X170147701Y-56878709D01*
X170238399Y-56818208D02*
X170177947Y-56848458D01*
X170298900Y-56818208D02*
X170238399Y-56818208D01*
X170994350Y-56969407D02*
X171054801Y-56999658D01*
X170933849Y-56908956D02*
X170962320Y-56937404D01*
X170994350Y-56969407D01*
X170873401Y-56818208D02*
X170900881Y-56859462D01*
X170933852Y-56908960D01*
X170873401Y-57453206D02*
X170873401Y-56818208D01*
X170691951Y-57453206D02*
X171054801Y-57453206D01*
X170359351Y-55699407D02*
X170419803Y-55729657D01*
X170298850Y-55638955D02*
X170329099Y-55669180D01*
X170359351Y-55699407D01*
X170238399Y-55548207D02*
X170271370Y-55597705D01*
X170298850Y-55638959D01*
X170238399Y-56183206D02*
X170238399Y-55548207D01*
X170056949Y-56183206D02*
X170419799Y-56183206D01*
X170691951Y-55578458D02*
X170661750Y-55608709D01*
X170782699Y-55548207D02*
X170743242Y-55561360D01*
X170691947Y-55578458D01*
X170843150Y-55548207D02*
X170782699Y-55548207D01*
X170933849Y-55578458D02*
X170879427Y-55560307D01*
X170843150Y-55548207D01*
X170994350Y-55638955D02*
X170933849Y-55578454D01*
X171024600Y-55699407D02*
X170994350Y-55638955D01*
X171054801Y-55820356D02*
X171024600Y-55699407D01*
X171054801Y-55911058D02*
X171054801Y-55820359D01*
X171024600Y-56032006D02*
X171054801Y-55911058D01*
X170994350Y-56092508D02*
X171024600Y-56032006D01*
X170933849Y-56153009D02*
X170994350Y-56092508D01*
X170843150Y-56183206D02*
X170933849Y-56153009D01*
X170782699Y-56183206D02*
X170843150Y-56183206D01*
X170691951Y-56153009D02*
X170782703Y-56183210D01*
X170661750Y-56122758D02*
X170691951Y-56153009D01*
X173136348Y-57036508D02*
X173136348Y-58433507D01*
X173136348Y-56020505D02*
X173136348Y-54623506D01*
X134153861Y-53863839D02*
X132121864Y-53863839D01*
X134153861Y-53101838D02*
X132121864Y-53101838D01*
X122892112Y-53772538D02*
X122589713Y-53772538D01*
X122892112Y-54407541D02*
X122892112Y-53772542D01*
X122680412Y-54074941D02*
X122892112Y-54074941D01*
X123224708Y-54377340D02*
X123210303Y-54362934D01*
X123194457Y-54347089D01*
X123285156Y-54407541D02*
X123224708Y-54377340D01*
X123375861Y-54407541D02*
X123285163Y-54407541D01*
X123436355Y-54377340D02*
X123375854Y-54407541D01*
X123466605Y-54316838D02*
X123436355Y-54377340D01*
X123466605Y-53984239D02*
X123466605Y-54316838D01*
X123194457Y-53984239D02*
X123194457Y-54407541D01*
X124131812Y-54407541D02*
X123738715Y-54407541D01*
X123768958Y-54044690D02*
X124131805Y-54407541D01*
X123738708Y-53953988D02*
X123768958Y-54044687D01*
X123738708Y-53893491D02*
X123738708Y-53953992D01*
X123768958Y-53833039D02*
X123754221Y-53862490D01*
X123738708Y-53893491D01*
X123799209Y-53802789D02*
X123768958Y-53833039D01*
X123859657Y-53772538D02*
X123831445Y-53786656D01*
X123799209Y-53802789D01*
X124010856Y-53772538D02*
X123859657Y-53772538D01*
X124071357Y-53802789D02*
X124010856Y-53772538D01*
X124101562Y-53833039D02*
X124071365Y-53802789D01*
X124736556Y-54407541D02*
X124343459Y-54407541D01*
X124373710Y-54044690D02*
X124736556Y-54407541D01*
X124343459Y-53953988D02*
X124373710Y-54044687D01*
X124343459Y-53893491D02*
X124343459Y-53953992D01*
X124373710Y-53833039D02*
X124359017Y-53862401D01*
X124343459Y-53893491D01*
X124403960Y-53802789D02*
X124373710Y-53833039D01*
X124464408Y-53772538D02*
X124440231Y-53784638D01*
X124403960Y-53802789D01*
X124615607Y-53772538D02*
X124464408Y-53772538D01*
X124676109Y-53802789D02*
X124615607Y-53772538D01*
X124706306Y-53833039D02*
X124676109Y-53802789D01*
X124041106Y-53107339D02*
X124071304Y-53077089D01*
X123980605Y-53137540D02*
X124041106Y-53107339D01*
X123829406Y-53137540D02*
X123980605Y-53137540D01*
X123768958Y-53107339D02*
X123829406Y-53137540D01*
X123738708Y-53077089D02*
X123768958Y-53107339D01*
X123708457Y-53016591D02*
X123722787Y-53045250D01*
X123738708Y-53077092D01*
X123708457Y-52865388D02*
X123708457Y-53016587D01*
X123738708Y-52804940D02*
X123724015Y-52834302D01*
X123708457Y-52865392D01*
X123768958Y-52774690D02*
X123738708Y-52804940D01*
X123829406Y-52744439D02*
X123805229Y-52756539D01*
X123768958Y-52774690D01*
X123980605Y-52744439D02*
X123829406Y-52744439D01*
X124041106Y-52774690D02*
X123980605Y-52744439D01*
X124071311Y-52804940D02*
X124041114Y-52774690D01*
X124041106Y-52502542D02*
X124071304Y-52804940D01*
X123738708Y-52502542D02*
X124041106Y-52502542D01*
X124343459Y-52532788D02*
X124326688Y-52549589D01*
X124313262Y-52563039D01*
X124434211Y-52502542D02*
X124343459Y-52532792D01*
X124494659Y-52502542D02*
X124434211Y-52502542D01*
X124585357Y-52532788D02*
X124494659Y-52502538D01*
X124645858Y-52593290D02*
X124585357Y-52532788D01*
X124676109Y-52653741D02*
X124645858Y-52593290D01*
X124706306Y-52774690D02*
X124676109Y-52653741D01*
X124706306Y-52865388D02*
X124706306Y-52774690D01*
X124676109Y-52986341D02*
X124691420Y-52925015D01*
X124706306Y-52865392D01*
X124645858Y-53046842D02*
X124676109Y-52986341D01*
X124585357Y-53107339D02*
X124645858Y-53046838D01*
X124494659Y-53137540D02*
X124585357Y-53107339D01*
X124434211Y-53137540D02*
X124494659Y-53137540D01*
X124343459Y-53107339D02*
X124434211Y-53137540D01*
X124313262Y-53077089D02*
X124343459Y-53107339D01*
X127803855Y-53863839D02*
X125771857Y-53863839D01*
X127803855Y-53101838D02*
X125771857Y-53101838D01*
X142046294Y-67685773D02*
X142082565Y-67703924D01*
X142106742Y-67716024D01*
X141985793Y-67625322D02*
X142046294Y-67685773D01*
X141925346Y-67534574D02*
X141985793Y-67625325D01*
X141925346Y-68169572D02*
X141925346Y-67534574D01*
X141743896Y-68169572D02*
X142106742Y-68169572D01*
X142439391Y-67534574D02*
X142348640Y-67564824D01*
X142590545Y-67534574D02*
X142439391Y-67534574D01*
X142651046Y-67564820D02*
X142590545Y-67534570D01*
X142681297Y-67595071D02*
X142665451Y-67579226D01*
X142651046Y-67564820D01*
X142711494Y-67655523D02*
X142695792Y-67624089D01*
X142681297Y-67595071D01*
X142711494Y-67716024D02*
X142711494Y-67655523D01*
X142681297Y-67776471D02*
X142711494Y-67716020D01*
X142651046Y-67806722D02*
X142666892Y-67790877D01*
X142681297Y-67776471D01*
X142590545Y-67836972D02*
X142651046Y-67806722D01*
X142469596Y-67867223D02*
X142590545Y-67836972D01*
X142409141Y-67897420D02*
X142469588Y-67867219D01*
X142378890Y-67927671D02*
X142393295Y-67913265D01*
X142409141Y-67897420D01*
X142348647Y-67988172D02*
X142362977Y-67959513D01*
X142378898Y-67927671D01*
X142348647Y-68048623D02*
X142348647Y-67988172D01*
X142378890Y-68109121D02*
X142348640Y-68048619D01*
X142409141Y-68139371D02*
X142378890Y-68109121D01*
X142469596Y-68169572D02*
X142409148Y-68139371D01*
X142620795Y-68169572D02*
X142469596Y-68169572D01*
X142711494Y-68139371D02*
X142620795Y-68169572D01*
X150220107Y-64385747D02*
X150220107Y-65020745D01*
X150855109Y-65020745D02*
X150220107Y-64385747D01*
X150220107Y-65655744D02*
X150590525Y-65285328D01*
X150855109Y-65020745D01*
X150220107Y-65020745D02*
X150220107Y-65655744D01*
X149585105Y-65020745D02*
X150220107Y-65020745D01*
X143246001Y-56183255D02*
X142852905Y-56183255D01*
X142883155Y-55820405D02*
X143246001Y-56183255D01*
X142852905Y-55729707D02*
X142883155Y-55820405D01*
X142852905Y-55669206D02*
X142852905Y-55729707D01*
X142883155Y-55608758D02*
X142867642Y-55639759D01*
X142852905Y-55669210D01*
X142913406Y-55578508D02*
X142883155Y-55608758D01*
X142973853Y-55548257D02*
X142913406Y-55578508D01*
X143125053Y-55548257D02*
X142973853Y-55548257D01*
X143185554Y-55578508D02*
X143125053Y-55548257D01*
X143215751Y-55608758D02*
X143185554Y-55578508D01*
X143699607Y-56183255D02*
X143699607Y-55548257D01*
X143397201Y-56183255D02*
X143699599Y-56183255D01*
X140503860Y-53863839D02*
X138471862Y-53863839D01*
X140503860Y-53101838D02*
X138471862Y-53101838D01*
X174152351Y-56909509D02*
X172120349Y-56909509D01*
X174152351Y-56147508D02*
X172120349Y-56147508D01*
D12*
X184634744Y-71844956D02*
X184634744Y-71094956D01*
X184277601Y-71844956D02*
X184277601Y-71094956D01*
X184277601Y-71094956D02*
X183991887Y-71094956D01*
X183991887Y-71094956D02*
X183920458Y-71130670D01*
X183920458Y-71130670D02*
X183884744Y-71166384D01*
X183884744Y-71166384D02*
X183849030Y-71237813D01*
X183849030Y-71237813D02*
X183849030Y-71344956D01*
X183849030Y-71344956D02*
X183884744Y-71416384D01*
X183884744Y-71416384D02*
X183920458Y-71452099D01*
X183920458Y-71452099D02*
X183991887Y-71487813D01*
X183991887Y-71487813D02*
X184277601Y-71487813D01*
X183170458Y-71094956D02*
X183527601Y-71094956D01*
X183527601Y-71094956D02*
X183563315Y-71452099D01*
X183563315Y-71452099D02*
X183527601Y-71416384D01*
X183527601Y-71416384D02*
X183456173Y-71380670D01*
X183456173Y-71380670D02*
X183277601Y-71380670D01*
X183277601Y-71380670D02*
X183206173Y-71416384D01*
X183206173Y-71416384D02*
X183170458Y-71452099D01*
X183170458Y-71452099D02*
X183134744Y-71523527D01*
X183134744Y-71523527D02*
X183134744Y-71702099D01*
X183134744Y-71702099D02*
X183170458Y-71773527D01*
X183170458Y-71773527D02*
X183206173Y-71809242D01*
X183206173Y-71809242D02*
X183277601Y-71844956D01*
X183277601Y-71844956D02*
X183456173Y-71844956D01*
X183456173Y-71844956D02*
X183527601Y-71809242D01*
X183527601Y-71809242D02*
X183563315Y-71773527D01*
X182884744Y-71094956D02*
X182420458Y-71094956D01*
X182420458Y-71094956D02*
X182670458Y-71380670D01*
X182670458Y-71380670D02*
X182563315Y-71380670D01*
X182563315Y-71380670D02*
X182491887Y-71416384D01*
X182491887Y-71416384D02*
X182456172Y-71452099D01*
X182456172Y-71452099D02*
X182420458Y-71523527D01*
X182420458Y-71523527D02*
X182420458Y-71702099D01*
X182420458Y-71702099D02*
X182456172Y-71773527D01*
X182456172Y-71773527D02*
X182491887Y-71809242D01*
X182491887Y-71809242D02*
X182563315Y-71844956D01*
X182563315Y-71844956D02*
X182777601Y-71844956D01*
X182777601Y-71844956D02*
X182849029Y-71809242D01*
X182849029Y-71809242D02*
X182884744Y-71773527D01*
X181956172Y-71094956D02*
X181884743Y-71094956D01*
X181884743Y-71094956D02*
X181813315Y-71130670D01*
X181813315Y-71130670D02*
X181777601Y-71166384D01*
X181777601Y-71166384D02*
X181741886Y-71237813D01*
X181741886Y-71237813D02*
X181706172Y-71380670D01*
X181706172Y-71380670D02*
X181706172Y-71559242D01*
X181706172Y-71559242D02*
X181741886Y-71702099D01*
X181741886Y-71702099D02*
X181777601Y-71773527D01*
X181777601Y-71773527D02*
X181813315Y-71809242D01*
X181813315Y-71809242D02*
X181884743Y-71844956D01*
X181884743Y-71844956D02*
X181956172Y-71844956D01*
X181956172Y-71844956D02*
X182027601Y-71809242D01*
X182027601Y-71809242D02*
X182063315Y-71773527D01*
X182063315Y-71773527D02*
X182099029Y-71702099D01*
X182099029Y-71702099D02*
X182134743Y-71559242D01*
X182134743Y-71559242D02*
X182134743Y-71380670D01*
X182134743Y-71380670D02*
X182099029Y-71237813D01*
X182099029Y-71237813D02*
X182063315Y-71166384D01*
X182063315Y-71166384D02*
X182027601Y-71130670D01*
X182027601Y-71130670D02*
X181956172Y-71094956D01*
X181063315Y-71094956D02*
X181206172Y-71094956D01*
X181206172Y-71094956D02*
X181277600Y-71130670D01*
X181277600Y-71130670D02*
X181313315Y-71166384D01*
X181313315Y-71166384D02*
X181384743Y-71273527D01*
X181384743Y-71273527D02*
X181420457Y-71416384D01*
X181420457Y-71416384D02*
X181420457Y-71702099D01*
X181420457Y-71702099D02*
X181384743Y-71773527D01*
X181384743Y-71773527D02*
X181349029Y-71809242D01*
X181349029Y-71809242D02*
X181277600Y-71844956D01*
X181277600Y-71844956D02*
X181134743Y-71844956D01*
X181134743Y-71844956D02*
X181063315Y-71809242D01*
X181063315Y-71809242D02*
X181027600Y-71773527D01*
X181027600Y-71773527D02*
X180991886Y-71702099D01*
X180991886Y-71702099D02*
X180991886Y-71523527D01*
X180991886Y-71523527D02*
X181027600Y-71452099D01*
X181027600Y-71452099D02*
X181063315Y-71416384D01*
X181063315Y-71416384D02*
X181134743Y-71380670D01*
X181134743Y-71380670D02*
X181277600Y-71380670D01*
X181277600Y-71380670D02*
X181349029Y-71416384D01*
X181349029Y-71416384D02*
X181384743Y-71452099D01*
X181384743Y-71452099D02*
X181420457Y-71523527D01*
X180134742Y-71166384D02*
X180099028Y-71130670D01*
X180099028Y-71130670D02*
X180027600Y-71094956D01*
X180027600Y-71094956D02*
X179849028Y-71094956D01*
X179849028Y-71094956D02*
X179777600Y-71130670D01*
X179777600Y-71130670D02*
X179741885Y-71166384D01*
X179741885Y-71166384D02*
X179706171Y-71237813D01*
X179706171Y-71237813D02*
X179706171Y-71309242D01*
X179706171Y-71309242D02*
X179741885Y-71416384D01*
X179741885Y-71416384D02*
X180170457Y-71844956D01*
X180170457Y-71844956D02*
X179706171Y-71844956D01*
X178991885Y-71844956D02*
X179420456Y-71844956D01*
X179206171Y-71844956D02*
X179206171Y-71094956D01*
X179206171Y-71094956D02*
X179277599Y-71202099D01*
X179277599Y-71202099D02*
X179349028Y-71273527D01*
X179349028Y-71273527D02*
X179420456Y-71309242D01*
X178741885Y-71094956D02*
X178241885Y-71094956D01*
X178241885Y-71094956D02*
X178563313Y-71844956D01*
X177813313Y-71094956D02*
X177741884Y-71094956D01*
X177741884Y-71094956D02*
X177670456Y-71130670D01*
X177670456Y-71130670D02*
X177634742Y-71166384D01*
X177634742Y-71166384D02*
X177599027Y-71237813D01*
X177599027Y-71237813D02*
X177563313Y-71380670D01*
X177563313Y-71380670D02*
X177563313Y-71559242D01*
X177563313Y-71559242D02*
X177599027Y-71702099D01*
X177599027Y-71702099D02*
X177634742Y-71773527D01*
X177634742Y-71773527D02*
X177670456Y-71809242D01*
X177670456Y-71809242D02*
X177741884Y-71844956D01*
X177741884Y-71844956D02*
X177813313Y-71844956D01*
X177813313Y-71844956D02*
X177884742Y-71809242D01*
X177884742Y-71809242D02*
X177920456Y-71773527D01*
X177920456Y-71773527D02*
X177956170Y-71702099D01*
X177956170Y-71702099D02*
X177991884Y-71559242D01*
X177991884Y-71559242D02*
X177991884Y-71380670D01*
X177991884Y-71380670D02*
X177956170Y-71237813D01*
X177956170Y-71237813D02*
X177920456Y-71166384D01*
X177920456Y-71166384D02*
X177884742Y-71130670D01*
X177884742Y-71130670D02*
X177813313Y-71094956D01*
X177099027Y-71094956D02*
X177027598Y-71094956D01*
X177027598Y-71094956D02*
X176956170Y-71130670D01*
X176956170Y-71130670D02*
X176920456Y-71166384D01*
X176920456Y-71166384D02*
X176884741Y-71237813D01*
X176884741Y-71237813D02*
X176849027Y-71380670D01*
X176849027Y-71380670D02*
X176849027Y-71559242D01*
X176849027Y-71559242D02*
X176884741Y-71702099D01*
X176884741Y-71702099D02*
X176920456Y-71773527D01*
X176920456Y-71773527D02*
X176956170Y-71809242D01*
X176956170Y-71809242D02*
X177027598Y-71844956D01*
X177027598Y-71844956D02*
X177099027Y-71844956D01*
X177099027Y-71844956D02*
X177170456Y-71809242D01*
X177170456Y-71809242D02*
X177206170Y-71773527D01*
X177206170Y-71773527D02*
X177241884Y-71702099D01*
X177241884Y-71702099D02*
X177277598Y-71559242D01*
X177277598Y-71559242D02*
X177277598Y-71380670D01*
X177277598Y-71380670D02*
X177241884Y-71237813D01*
X177241884Y-71237813D02*
X177206170Y-71166384D01*
X177206170Y-71166384D02*
X177170456Y-71130670D01*
X177170456Y-71130670D02*
X177099027Y-71094956D01*
X175956169Y-71844956D02*
X175956169Y-71344956D01*
X175956169Y-71416384D02*
X175920455Y-71380670D01*
X175920455Y-71380670D02*
X175849026Y-71344956D01*
X175849026Y-71344956D02*
X175741883Y-71344956D01*
X175741883Y-71344956D02*
X175670455Y-71380670D01*
X175670455Y-71380670D02*
X175634741Y-71452099D01*
X175634741Y-71452099D02*
X175634741Y-71844956D01*
X175634741Y-71452099D02*
X175599026Y-71380670D01*
X175599026Y-71380670D02*
X175527598Y-71344956D01*
X175527598Y-71344956D02*
X175420455Y-71344956D01*
X175420455Y-71344956D02*
X175349026Y-71380670D01*
X175349026Y-71380670D02*
X175313312Y-71452099D01*
X175313312Y-71452099D02*
X175313312Y-71844956D01*
X174956169Y-71844956D02*
X174956169Y-71344956D01*
X174956169Y-71094956D02*
X174991883Y-71130670D01*
X174991883Y-71130670D02*
X174956169Y-71166384D01*
X174956169Y-71166384D02*
X174920455Y-71130670D01*
X174920455Y-71130670D02*
X174956169Y-71094956D01*
X174956169Y-71094956D02*
X174956169Y-71166384D01*
X174599026Y-71344956D02*
X174599026Y-71844956D01*
X174599026Y-71416384D02*
X174563312Y-71380670D01*
X174563312Y-71380670D02*
X174491883Y-71344956D01*
X174491883Y-71344956D02*
X174384740Y-71344956D01*
X174384740Y-71344956D02*
X174313312Y-71380670D01*
X174313312Y-71380670D02*
X174277598Y-71452099D01*
X174277598Y-71452099D02*
X174277598Y-71844956D01*
X173920455Y-71844956D02*
X173920455Y-71344956D01*
X173920455Y-71094956D02*
X173956169Y-71130670D01*
X173956169Y-71130670D02*
X173920455Y-71166384D01*
X173920455Y-71166384D02*
X173884741Y-71130670D01*
X173884741Y-71130670D02*
X173920455Y-71094956D01*
X173920455Y-71094956D02*
X173920455Y-71166384D01*
X172991883Y-71344956D02*
X172991883Y-72094956D01*
X172991883Y-71380670D02*
X172920455Y-71344956D01*
X172920455Y-71344956D02*
X172777597Y-71344956D01*
X172777597Y-71344956D02*
X172706169Y-71380670D01*
X172706169Y-71380670D02*
X172670455Y-71416384D01*
X172670455Y-71416384D02*
X172634740Y-71487813D01*
X172634740Y-71487813D02*
X172634740Y-71702099D01*
X172634740Y-71702099D02*
X172670455Y-71773527D01*
X172670455Y-71773527D02*
X172706169Y-71809242D01*
X172706169Y-71809242D02*
X172777597Y-71844956D01*
X172777597Y-71844956D02*
X172920455Y-71844956D01*
X172920455Y-71844956D02*
X172991883Y-71809242D01*
X172206169Y-71844956D02*
X172277598Y-71809242D01*
X172277598Y-71809242D02*
X172313312Y-71773527D01*
X172313312Y-71773527D02*
X172349026Y-71702099D01*
X172349026Y-71702099D02*
X172349026Y-71487813D01*
X172349026Y-71487813D02*
X172313312Y-71416384D01*
X172313312Y-71416384D02*
X172277598Y-71380670D01*
X172277598Y-71380670D02*
X172206169Y-71344956D01*
X172206169Y-71344956D02*
X172099026Y-71344956D01*
X172099026Y-71344956D02*
X172027598Y-71380670D01*
X172027598Y-71380670D02*
X171991884Y-71416384D01*
X171991884Y-71416384D02*
X171956169Y-71487813D01*
X171956169Y-71487813D02*
X171956169Y-71702099D01*
X171956169Y-71702099D02*
X171991884Y-71773527D01*
X171991884Y-71773527D02*
X172027598Y-71809242D01*
X172027598Y-71809242D02*
X172099026Y-71844956D01*
X172099026Y-71844956D02*
X172206169Y-71844956D01*
X171706170Y-71344956D02*
X171563313Y-71844956D01*
X171563313Y-71844956D02*
X171420455Y-71487813D01*
X171420455Y-71487813D02*
X171277598Y-71844956D01*
X171277598Y-71844956D02*
X171134741Y-71344956D01*
X170563313Y-71809242D02*
X170634741Y-71844956D01*
X170634741Y-71844956D02*
X170777599Y-71844956D01*
X170777599Y-71844956D02*
X170849027Y-71809242D01*
X170849027Y-71809242D02*
X170884741Y-71737813D01*
X170884741Y-71737813D02*
X170884741Y-71452099D01*
X170884741Y-71452099D02*
X170849027Y-71380670D01*
X170849027Y-71380670D02*
X170777599Y-71344956D01*
X170777599Y-71344956D02*
X170634741Y-71344956D01*
X170634741Y-71344956D02*
X170563313Y-71380670D01*
X170563313Y-71380670D02*
X170527599Y-71452099D01*
X170527599Y-71452099D02*
X170527599Y-71523527D01*
X170527599Y-71523527D02*
X170884741Y-71594956D01*
X170206170Y-71844956D02*
X170206170Y-71344956D01*
X170206170Y-71487813D02*
X170170456Y-71416384D01*
X170170456Y-71416384D02*
X170134742Y-71380670D01*
X170134742Y-71380670D02*
X170063313Y-71344956D01*
X170063313Y-71344956D02*
X169991884Y-71344956D01*
X169741884Y-71844956D02*
X169741884Y-71094956D01*
X169741884Y-71380670D02*
X169670456Y-71344956D01*
X169670456Y-71344956D02*
X169527598Y-71344956D01*
X169527598Y-71344956D02*
X169456170Y-71380670D01*
X169456170Y-71380670D02*
X169420456Y-71416384D01*
X169420456Y-71416384D02*
X169384741Y-71487813D01*
X169384741Y-71487813D02*
X169384741Y-71702099D01*
X169384741Y-71702099D02*
X169420456Y-71773527D01*
X169420456Y-71773527D02*
X169456170Y-71809242D01*
X169456170Y-71809242D02*
X169527598Y-71844956D01*
X169527598Y-71844956D02*
X169670456Y-71844956D01*
X169670456Y-71844956D02*
X169741884Y-71809242D01*
X168741885Y-71844956D02*
X168741885Y-71452099D01*
X168741885Y-71452099D02*
X168777599Y-71380670D01*
X168777599Y-71380670D02*
X168849027Y-71344956D01*
X168849027Y-71344956D02*
X168991885Y-71344956D01*
X168991885Y-71344956D02*
X169063313Y-71380670D01*
X168741885Y-71809242D02*
X168813313Y-71844956D01*
X168813313Y-71844956D02*
X168991885Y-71844956D01*
X168991885Y-71844956D02*
X169063313Y-71809242D01*
X169063313Y-71809242D02*
X169099027Y-71737813D01*
X169099027Y-71737813D02*
X169099027Y-71666384D01*
X169099027Y-71666384D02*
X169063313Y-71594956D01*
X169063313Y-71594956D02*
X168991885Y-71559242D01*
X168991885Y-71559242D02*
X168813313Y-71559242D01*
X168813313Y-71559242D02*
X168741885Y-71523527D01*
X168384742Y-71344956D02*
X168384742Y-71844956D01*
X168384742Y-71416384D02*
X168349028Y-71380670D01*
X168349028Y-71380670D02*
X168277599Y-71344956D01*
X168277599Y-71344956D02*
X168170456Y-71344956D01*
X168170456Y-71344956D02*
X168099028Y-71380670D01*
X168099028Y-71380670D02*
X168063314Y-71452099D01*
X168063314Y-71452099D02*
X168063314Y-71844956D01*
X167706171Y-71844956D02*
X167706171Y-71094956D01*
X167634743Y-71559242D02*
X167420457Y-71844956D01*
X167420457Y-71344956D02*
X167706171Y-71630670D01*
X166563314Y-71059242D02*
X167206171Y-72023527D01*
X165991886Y-71809242D02*
X166063314Y-71844956D01*
X166063314Y-71844956D02*
X166206171Y-71844956D01*
X166206171Y-71844956D02*
X166277600Y-71809242D01*
X166277600Y-71809242D02*
X166313314Y-71773527D01*
X166313314Y-71773527D02*
X166349028Y-71702099D01*
X166349028Y-71702099D02*
X166349028Y-71487813D01*
X166349028Y-71487813D02*
X166313314Y-71416384D01*
X166313314Y-71416384D02*
X166277600Y-71380670D01*
X166277600Y-71380670D02*
X166206171Y-71344956D01*
X166206171Y-71344956D02*
X166063314Y-71344956D01*
X166063314Y-71344956D02*
X165991886Y-71380670D01*
X165670457Y-71844956D02*
X165670457Y-71094956D01*
X165349029Y-71844956D02*
X165349029Y-71452099D01*
X165349029Y-71452099D02*
X165384743Y-71380670D01*
X165384743Y-71380670D02*
X165456171Y-71344956D01*
X165456171Y-71344956D02*
X165563314Y-71344956D01*
X165563314Y-71344956D02*
X165634743Y-71380670D01*
X165634743Y-71380670D02*
X165670457Y-71416384D01*
X164670458Y-71844956D02*
X164670458Y-71452099D01*
X164670458Y-71452099D02*
X164706172Y-71380670D01*
X164706172Y-71380670D02*
X164777600Y-71344956D01*
X164777600Y-71344956D02*
X164920458Y-71344956D01*
X164920458Y-71344956D02*
X164991886Y-71380670D01*
X164670458Y-71809242D02*
X164741886Y-71844956D01*
X164741886Y-71844956D02*
X164920458Y-71844956D01*
X164920458Y-71844956D02*
X164991886Y-71809242D01*
X164991886Y-71809242D02*
X165027600Y-71737813D01*
X165027600Y-71737813D02*
X165027600Y-71666384D01*
X165027600Y-71666384D02*
X164991886Y-71594956D01*
X164991886Y-71594956D02*
X164920458Y-71559242D01*
X164920458Y-71559242D02*
X164741886Y-71559242D01*
X164741886Y-71559242D02*
X164670458Y-71523527D01*
X164313315Y-71844956D02*
X164313315Y-71344956D01*
X164313315Y-71487813D02*
X164277601Y-71416384D01*
X164277601Y-71416384D02*
X164241887Y-71380670D01*
X164241887Y-71380670D02*
X164170458Y-71344956D01*
X164170458Y-71344956D02*
X164099029Y-71344956D01*
X163527601Y-71344956D02*
X163527601Y-71952099D01*
X163527601Y-71952099D02*
X163563315Y-72023527D01*
X163563315Y-72023527D02*
X163599029Y-72059242D01*
X163599029Y-72059242D02*
X163670458Y-72094956D01*
X163670458Y-72094956D02*
X163777601Y-72094956D01*
X163777601Y-72094956D02*
X163849029Y-72059242D01*
X163527601Y-71809242D02*
X163599029Y-71844956D01*
X163599029Y-71844956D02*
X163741886Y-71844956D01*
X163741886Y-71844956D02*
X163813315Y-71809242D01*
X163813315Y-71809242D02*
X163849029Y-71773527D01*
X163849029Y-71773527D02*
X163884743Y-71702099D01*
X163884743Y-71702099D02*
X163884743Y-71487813D01*
X163884743Y-71487813D02*
X163849029Y-71416384D01*
X163849029Y-71416384D02*
X163813315Y-71380670D01*
X163813315Y-71380670D02*
X163741886Y-71344956D01*
X163741886Y-71344956D02*
X163599029Y-71344956D01*
X163599029Y-71344956D02*
X163527601Y-71380670D01*
X162884744Y-71809242D02*
X162956172Y-71844956D01*
X162956172Y-71844956D02*
X163099030Y-71844956D01*
X163099030Y-71844956D02*
X163170458Y-71809242D01*
X163170458Y-71809242D02*
X163206172Y-71737813D01*
X163206172Y-71737813D02*
X163206172Y-71452099D01*
X163206172Y-71452099D02*
X163170458Y-71380670D01*
X163170458Y-71380670D02*
X163099030Y-71344956D01*
X163099030Y-71344956D02*
X162956172Y-71344956D01*
X162956172Y-71344956D02*
X162884744Y-71380670D01*
X162884744Y-71380670D02*
X162849030Y-71452099D01*
X162849030Y-71452099D02*
X162849030Y-71523527D01*
X162849030Y-71523527D02*
X163206172Y-71594956D01*
X162527601Y-71844956D02*
X162527601Y-71344956D01*
X162527601Y-71487813D02*
X162491887Y-71416384D01*
X162491887Y-71416384D02*
X162456173Y-71380670D01*
X162456173Y-71380670D02*
X162384744Y-71344956D01*
X162384744Y-71344956D02*
X162313315Y-71344956D01*
X161491886Y-71844956D02*
X161491886Y-71344956D01*
X161491886Y-71487813D02*
X161456172Y-71416384D01*
X161456172Y-71416384D02*
X161420458Y-71380670D01*
X161420458Y-71380670D02*
X161349029Y-71344956D01*
X161349029Y-71344956D02*
X161277600Y-71344956D01*
X160741886Y-71809242D02*
X160813314Y-71844956D01*
X160813314Y-71844956D02*
X160956172Y-71844956D01*
X160956172Y-71844956D02*
X161027600Y-71809242D01*
X161027600Y-71809242D02*
X161063314Y-71737813D01*
X161063314Y-71737813D02*
X161063314Y-71452099D01*
X161063314Y-71452099D02*
X161027600Y-71380670D01*
X161027600Y-71380670D02*
X160956172Y-71344956D01*
X160956172Y-71344956D02*
X160813314Y-71344956D01*
X160813314Y-71344956D02*
X160741886Y-71380670D01*
X160741886Y-71380670D02*
X160706172Y-71452099D01*
X160706172Y-71452099D02*
X160706172Y-71523527D01*
X160706172Y-71523527D02*
X161063314Y-71594956D01*
X160456172Y-71344956D02*
X160277600Y-71844956D01*
X160277600Y-71844956D02*
X160099029Y-71344956D01*
X159277599Y-71166384D02*
X159241885Y-71130670D01*
X159241885Y-71130670D02*
X159170457Y-71094956D01*
X159170457Y-71094956D02*
X158991885Y-71094956D01*
X158991885Y-71094956D02*
X158920457Y-71130670D01*
X158920457Y-71130670D02*
X158884742Y-71166384D01*
X158884742Y-71166384D02*
X158849028Y-71237813D01*
X158849028Y-71237813D02*
X158849028Y-71309242D01*
X158849028Y-71309242D02*
X158884742Y-71416384D01*
X158884742Y-71416384D02*
X159313314Y-71844956D01*
X159313314Y-71844956D02*
X158849028Y-71844956D01*
X184634744Y-73052414D02*
X184634744Y-72302414D01*
X184634744Y-72588128D02*
X184563316Y-72552414D01*
X184563316Y-72552414D02*
X184420458Y-72552414D01*
X184420458Y-72552414D02*
X184349030Y-72588128D01*
X184349030Y-72588128D02*
X184313316Y-72623842D01*
X184313316Y-72623842D02*
X184277601Y-72695271D01*
X184277601Y-72695271D02*
X184277601Y-72909557D01*
X184277601Y-72909557D02*
X184313316Y-72980985D01*
X184313316Y-72980985D02*
X184349030Y-73016700D01*
X184349030Y-73016700D02*
X184420458Y-73052414D01*
X184420458Y-73052414D02*
X184563316Y-73052414D01*
X184563316Y-73052414D02*
X184634744Y-73016700D01*
X184027602Y-72552414D02*
X183849030Y-73052414D01*
X183670459Y-72552414D02*
X183849030Y-73052414D01*
X183849030Y-73052414D02*
X183920459Y-73230985D01*
X183920459Y-73230985D02*
X183956173Y-73266700D01*
X183956173Y-73266700D02*
X184027602Y-73302414D01*
X182813315Y-73052414D02*
X182813315Y-72302414D01*
X182384744Y-73052414D02*
X182706172Y-72623842D01*
X182384744Y-72302414D02*
X182813315Y-72730985D01*
X181777601Y-73016700D02*
X181849029Y-73052414D01*
X181849029Y-73052414D02*
X181991887Y-73052414D01*
X181991887Y-73052414D02*
X182063315Y-73016700D01*
X182063315Y-73016700D02*
X182099029Y-72945271D01*
X182099029Y-72945271D02*
X182099029Y-72659557D01*
X182099029Y-72659557D02*
X182063315Y-72588128D01*
X182063315Y-72588128D02*
X181991887Y-72552414D01*
X181991887Y-72552414D02*
X181849029Y-72552414D01*
X181849029Y-72552414D02*
X181777601Y-72588128D01*
X181777601Y-72588128D02*
X181741887Y-72659557D01*
X181741887Y-72659557D02*
X181741887Y-72730985D01*
X181741887Y-72730985D02*
X182099029Y-72802414D01*
X181491887Y-72552414D02*
X181313315Y-73052414D01*
X181313315Y-73052414D02*
X181134744Y-72552414D01*
X180849029Y-73052414D02*
X180849029Y-72552414D01*
X180849029Y-72302414D02*
X180884743Y-72338128D01*
X180884743Y-72338128D02*
X180849029Y-72373842D01*
X180849029Y-72373842D02*
X180813315Y-72338128D01*
X180813315Y-72338128D02*
X180849029Y-72302414D01*
X180849029Y-72302414D02*
X180849029Y-72373842D01*
X180491886Y-72552414D02*
X180491886Y-73052414D01*
X180491886Y-72623842D02*
X180456172Y-72588128D01*
X180456172Y-72588128D02*
X180384743Y-72552414D01*
X180384743Y-72552414D02*
X180277600Y-72552414D01*
X180277600Y-72552414D02*
X180206172Y-72588128D01*
X180206172Y-72588128D02*
X180170458Y-72659557D01*
X180170458Y-72659557D02*
X180170458Y-73052414D01*
X178849029Y-72338128D02*
X178920458Y-72302414D01*
X178920458Y-72302414D02*
X179027600Y-72302414D01*
X179027600Y-72302414D02*
X179134743Y-72338128D01*
X179134743Y-72338128D02*
X179206172Y-72409557D01*
X179206172Y-72409557D02*
X179241886Y-72480985D01*
X179241886Y-72480985D02*
X179277600Y-72623842D01*
X179277600Y-72623842D02*
X179277600Y-72730985D01*
X179277600Y-72730985D02*
X179241886Y-72873842D01*
X179241886Y-72873842D02*
X179206172Y-72945271D01*
X179206172Y-72945271D02*
X179134743Y-73016700D01*
X179134743Y-73016700D02*
X179027600Y-73052414D01*
X179027600Y-73052414D02*
X178956172Y-73052414D01*
X178956172Y-73052414D02*
X178849029Y-73016700D01*
X178849029Y-73016700D02*
X178813315Y-72980985D01*
X178813315Y-72980985D02*
X178813315Y-72730985D01*
X178813315Y-72730985D02*
X178956172Y-72730985D01*
X178384743Y-73052414D02*
X178456172Y-73016700D01*
X178456172Y-73016700D02*
X178491886Y-72980985D01*
X178491886Y-72980985D02*
X178527600Y-72909557D01*
X178527600Y-72909557D02*
X178527600Y-72695271D01*
X178527600Y-72695271D02*
X178491886Y-72623842D01*
X178491886Y-72623842D02*
X178456172Y-72588128D01*
X178456172Y-72588128D02*
X178384743Y-72552414D01*
X178384743Y-72552414D02*
X178277600Y-72552414D01*
X178277600Y-72552414D02*
X178206172Y-72588128D01*
X178206172Y-72588128D02*
X178170458Y-72623842D01*
X178170458Y-72623842D02*
X178134743Y-72695271D01*
X178134743Y-72695271D02*
X178134743Y-72909557D01*
X178134743Y-72909557D02*
X178170458Y-72980985D01*
X178170458Y-72980985D02*
X178206172Y-73016700D01*
X178206172Y-73016700D02*
X178277600Y-73052414D01*
X178277600Y-73052414D02*
X178384743Y-73052414D01*
X177813315Y-73052414D02*
X177813315Y-72302414D01*
X177491887Y-73052414D02*
X177491887Y-72659557D01*
X177491887Y-72659557D02*
X177527601Y-72588128D01*
X177527601Y-72588128D02*
X177599029Y-72552414D01*
X177599029Y-72552414D02*
X177706172Y-72552414D01*
X177706172Y-72552414D02*
X177777601Y-72588128D01*
X177777601Y-72588128D02*
X177813315Y-72623842D01*
D13*
X97627580Y-63719925D02*
X97627580Y-64196115D01*
X97627580Y-64196115D02*
X97151390Y-64243734D01*
X97151390Y-64243734D02*
X97199009Y-64196115D01*
X97199009Y-64196115D02*
X97246628Y-64100877D01*
X97246628Y-64100877D02*
X97246628Y-63862782D01*
X97246628Y-63862782D02*
X97199009Y-63767544D01*
X97199009Y-63767544D02*
X97151390Y-63719925D01*
X97151390Y-63719925D02*
X97056152Y-63672306D01*
X97056152Y-63672306D02*
X96818057Y-63672306D01*
X96818057Y-63672306D02*
X96722819Y-63719925D01*
X96722819Y-63719925D02*
X96675200Y-63767544D01*
X96675200Y-63767544D02*
X96627580Y-63862782D01*
X96627580Y-63862782D02*
X96627580Y-64100877D01*
X96627580Y-64100877D02*
X96675200Y-64196115D01*
X96675200Y-64196115D02*
X96722819Y-64243734D01*
X97627580Y-63386591D02*
X96627580Y-63053258D01*
X96627580Y-63053258D02*
X97627580Y-62719925D01*
X97675200Y-61672306D02*
X96389485Y-62529448D01*
X97532342Y-61386591D02*
X97579961Y-61338972D01*
X97579961Y-61338972D02*
X97627580Y-61243734D01*
X97627580Y-61243734D02*
X97627580Y-61005639D01*
X97627580Y-61005639D02*
X97579961Y-60910401D01*
X97579961Y-60910401D02*
X97532342Y-60862782D01*
X97532342Y-60862782D02*
X97437104Y-60815163D01*
X97437104Y-60815163D02*
X97341866Y-60815163D01*
X97341866Y-60815163D02*
X97199009Y-60862782D01*
X97199009Y-60862782D02*
X96627580Y-61434210D01*
X96627580Y-61434210D02*
X96627580Y-60815163D01*
X96722819Y-60386591D02*
X96675200Y-60338972D01*
X96675200Y-60338972D02*
X96627580Y-60386591D01*
X96627580Y-60386591D02*
X96675200Y-60434210D01*
X96675200Y-60434210D02*
X96722819Y-60386591D01*
X96722819Y-60386591D02*
X96627580Y-60386591D01*
X96627580Y-59386592D02*
X96627580Y-59958020D01*
X96627580Y-59672306D02*
X97627580Y-59672306D01*
X97627580Y-59672306D02*
X97484723Y-59767544D01*
X97484723Y-59767544D02*
X97389485Y-59862782D01*
X97389485Y-59862782D02*
X97341866Y-59958020D01*
X96913295Y-59005639D02*
X96913295Y-58529449D01*
X96627580Y-59100877D02*
X97627580Y-58767544D01*
X97627580Y-58767544D02*
X96627580Y-58434211D01*
X112477068Y-74421371D02*
X112819925Y-74421371D01*
X112648496Y-74421371D02*
X112648496Y-73821371D01*
X112648496Y-73821371D02*
X112705639Y-73907085D01*
X112705639Y-73907085D02*
X112762782Y-73964228D01*
X112762782Y-73964228D02*
X112819925Y-73992800D01*
X112105639Y-73821371D02*
X112048496Y-73821371D01*
X112048496Y-73821371D02*
X111991353Y-73849942D01*
X111991353Y-73849942D02*
X111962782Y-73878514D01*
X111962782Y-73878514D02*
X111934210Y-73935657D01*
X111934210Y-73935657D02*
X111905639Y-74049942D01*
X111905639Y-74049942D02*
X111905639Y-74192800D01*
X111905639Y-74192800D02*
X111934210Y-74307085D01*
X111934210Y-74307085D02*
X111962782Y-74364228D01*
X111962782Y-74364228D02*
X111991353Y-74392800D01*
X111991353Y-74392800D02*
X112048496Y-74421371D01*
X112048496Y-74421371D02*
X112105639Y-74421371D01*
X112105639Y-74421371D02*
X112162782Y-74392800D01*
X112162782Y-74392800D02*
X112191353Y-74364228D01*
X112191353Y-74364228D02*
X112219924Y-74307085D01*
X112219924Y-74307085D02*
X112248496Y-74192800D01*
X112248496Y-74192800D02*
X112248496Y-74049942D01*
X112248496Y-74049942D02*
X112219924Y-73935657D01*
X112219924Y-73935657D02*
X112191353Y-73878514D01*
X112191353Y-73878514D02*
X112162782Y-73849942D01*
X112162782Y-73849942D02*
X112105639Y-73821371D01*
X111534210Y-73821371D02*
X111477067Y-73821371D01*
X111477067Y-73821371D02*
X111419924Y-73849942D01*
X111419924Y-73849942D02*
X111391353Y-73878514D01*
X111391353Y-73878514D02*
X111362781Y-73935657D01*
X111362781Y-73935657D02*
X111334210Y-74049942D01*
X111334210Y-74049942D02*
X111334210Y-74192800D01*
X111334210Y-74192800D02*
X111362781Y-74307085D01*
X111362781Y-74307085D02*
X111391353Y-74364228D01*
X111391353Y-74364228D02*
X111419924Y-74392800D01*
X111419924Y-74392800D02*
X111477067Y-74421371D01*
X111477067Y-74421371D02*
X111534210Y-74421371D01*
X111534210Y-74421371D02*
X111591353Y-74392800D01*
X111591353Y-74392800D02*
X111619924Y-74364228D01*
X111619924Y-74364228D02*
X111648495Y-74307085D01*
X111648495Y-74307085D02*
X111677067Y-74192800D01*
X111677067Y-74192800D02*
X111677067Y-74049942D01*
X111677067Y-74049942D02*
X111648495Y-73935657D01*
X111648495Y-73935657D02*
X111619924Y-73878514D01*
X111619924Y-73878514D02*
X111591353Y-73849942D01*
X111591353Y-73849942D02*
X111534210Y-73821371D01*
X111105638Y-74421371D02*
X110648495Y-73821371D01*
X111019924Y-73821371D02*
X110962781Y-73849942D01*
X110962781Y-73849942D02*
X110934209Y-73907085D01*
X110934209Y-73907085D02*
X110962781Y-73964228D01*
X110962781Y-73964228D02*
X111019924Y-73992800D01*
X111019924Y-73992800D02*
X111077066Y-73964228D01*
X111077066Y-73964228D02*
X111105638Y-73907085D01*
X111105638Y-73907085D02*
X111077066Y-73849942D01*
X111077066Y-73849942D02*
X111019924Y-73821371D01*
X110677066Y-74392800D02*
X110648495Y-74335657D01*
X110648495Y-74335657D02*
X110677066Y-74278514D01*
X110677066Y-74278514D02*
X110734209Y-74249942D01*
X110734209Y-74249942D02*
X110791352Y-74278514D01*
X110791352Y-74278514D02*
X110819924Y-74335657D01*
X110819924Y-74335657D02*
X110791352Y-74392800D01*
X110791352Y-74392800D02*
X110734209Y-74421371D01*
X110734209Y-74421371D02*
X110677066Y-74392800D01*
X109991352Y-73821371D02*
X109591352Y-73821371D01*
X109591352Y-73821371D02*
X109848495Y-74421371D01*
X109077066Y-73821371D02*
X109362780Y-73821371D01*
X109362780Y-73821371D02*
X109391352Y-74107085D01*
X109391352Y-74107085D02*
X109362780Y-74078514D01*
X109362780Y-74078514D02*
X109305638Y-74049942D01*
X109305638Y-74049942D02*
X109162780Y-74049942D01*
X109162780Y-74049942D02*
X109105638Y-74078514D01*
X109105638Y-74078514D02*
X109077066Y-74107085D01*
X109077066Y-74107085D02*
X109048495Y-74164228D01*
X109048495Y-74164228D02*
X109048495Y-74307085D01*
X109048495Y-74307085D02*
X109077066Y-74364228D01*
X109077066Y-74364228D02*
X109105638Y-74392800D01*
X109105638Y-74392800D02*
X109162780Y-74421371D01*
X109162780Y-74421371D02*
X109305638Y-74421371D01*
X109305638Y-74421371D02*
X109362780Y-74392800D01*
X109362780Y-74392800D02*
X109391352Y-74364228D01*
X108819923Y-74421371D02*
X108362780Y-73821371D01*
X108734209Y-73821371D02*
X108677066Y-73849942D01*
X108677066Y-73849942D02*
X108648494Y-73907085D01*
X108648494Y-73907085D02*
X108677066Y-73964228D01*
X108677066Y-73964228D02*
X108734209Y-73992800D01*
X108734209Y-73992800D02*
X108791351Y-73964228D01*
X108791351Y-73964228D02*
X108819923Y-73907085D01*
X108819923Y-73907085D02*
X108791351Y-73849942D01*
X108791351Y-73849942D02*
X108734209Y-73821371D01*
X108391351Y-74392800D02*
X108362780Y-74335657D01*
X108362780Y-74335657D02*
X108391351Y-74278514D01*
X108391351Y-74278514D02*
X108448494Y-74249942D01*
X108448494Y-74249942D02*
X108505637Y-74278514D01*
X108505637Y-74278514D02*
X108534209Y-74335657D01*
X108534209Y-74335657D02*
X108505637Y-74392800D01*
X108505637Y-74392800D02*
X108448494Y-74421371D01*
X108448494Y-74421371D02*
X108391351Y-74392800D01*
X107362780Y-73821371D02*
X107648494Y-73821371D01*
X107648494Y-73821371D02*
X107677066Y-74107085D01*
X107677066Y-74107085D02*
X107648494Y-74078514D01*
X107648494Y-74078514D02*
X107591352Y-74049942D01*
X107591352Y-74049942D02*
X107448494Y-74049942D01*
X107448494Y-74049942D02*
X107391352Y-74078514D01*
X107391352Y-74078514D02*
X107362780Y-74107085D01*
X107362780Y-74107085D02*
X107334209Y-74164228D01*
X107334209Y-74164228D02*
X107334209Y-74307085D01*
X107334209Y-74307085D02*
X107362780Y-74364228D01*
X107362780Y-74364228D02*
X107391352Y-74392800D01*
X107391352Y-74392800D02*
X107448494Y-74421371D01*
X107448494Y-74421371D02*
X107591352Y-74421371D01*
X107591352Y-74421371D02*
X107648494Y-74392800D01*
X107648494Y-74392800D02*
X107677066Y-74364228D01*
X106962780Y-73821371D02*
X106905637Y-73821371D01*
X106905637Y-73821371D02*
X106848494Y-73849942D01*
X106848494Y-73849942D02*
X106819923Y-73878514D01*
X106819923Y-73878514D02*
X106791351Y-73935657D01*
X106791351Y-73935657D02*
X106762780Y-74049942D01*
X106762780Y-74049942D02*
X106762780Y-74192800D01*
X106762780Y-74192800D02*
X106791351Y-74307085D01*
X106791351Y-74307085D02*
X106819923Y-74364228D01*
X106819923Y-74364228D02*
X106848494Y-74392800D01*
X106848494Y-74392800D02*
X106905637Y-74421371D01*
X106905637Y-74421371D02*
X106962780Y-74421371D01*
X106962780Y-74421371D02*
X107019923Y-74392800D01*
X107019923Y-74392800D02*
X107048494Y-74364228D01*
X107048494Y-74364228D02*
X107077065Y-74307085D01*
X107077065Y-74307085D02*
X107105637Y-74192800D01*
X107105637Y-74192800D02*
X107105637Y-74049942D01*
X107105637Y-74049942D02*
X107077065Y-73935657D01*
X107077065Y-73935657D02*
X107048494Y-73878514D01*
X107048494Y-73878514D02*
X107019923Y-73849942D01*
X107019923Y-73849942D02*
X106962780Y-73821371D01*
X106534208Y-74421371D02*
X106077065Y-73821371D01*
X106448494Y-73821371D02*
X106391351Y-73849942D01*
X106391351Y-73849942D02*
X106362779Y-73907085D01*
X106362779Y-73907085D02*
X106391351Y-73964228D01*
X106391351Y-73964228D02*
X106448494Y-73992800D01*
X106448494Y-73992800D02*
X106505636Y-73964228D01*
X106505636Y-73964228D02*
X106534208Y-73907085D01*
X106534208Y-73907085D02*
X106505636Y-73849942D01*
X106505636Y-73849942D02*
X106448494Y-73821371D01*
X106105636Y-74392800D02*
X106077065Y-74335657D01*
X106077065Y-74335657D02*
X106105636Y-74278514D01*
X106105636Y-74278514D02*
X106162779Y-74249942D01*
X106162779Y-74249942D02*
X106219922Y-74278514D01*
X106219922Y-74278514D02*
X106248494Y-74335657D01*
X106248494Y-74335657D02*
X106219922Y-74392800D01*
X106219922Y-74392800D02*
X106162779Y-74421371D01*
X106162779Y-74421371D02*
X106105636Y-74392800D01*
X105391351Y-73878514D02*
X105362779Y-73849942D01*
X105362779Y-73849942D02*
X105305637Y-73821371D01*
X105305637Y-73821371D02*
X105162779Y-73821371D01*
X105162779Y-73821371D02*
X105105637Y-73849942D01*
X105105637Y-73849942D02*
X105077065Y-73878514D01*
X105077065Y-73878514D02*
X105048494Y-73935657D01*
X105048494Y-73935657D02*
X105048494Y-73992800D01*
X105048494Y-73992800D02*
X105077065Y-74078514D01*
X105077065Y-74078514D02*
X105419922Y-74421371D01*
X105419922Y-74421371D02*
X105048494Y-74421371D01*
X104505636Y-73821371D02*
X104791350Y-73821371D01*
X104791350Y-73821371D02*
X104819922Y-74107085D01*
X104819922Y-74107085D02*
X104791350Y-74078514D01*
X104791350Y-74078514D02*
X104734208Y-74049942D01*
X104734208Y-74049942D02*
X104591350Y-74049942D01*
X104591350Y-74049942D02*
X104534208Y-74078514D01*
X104534208Y-74078514D02*
X104505636Y-74107085D01*
X104505636Y-74107085D02*
X104477065Y-74164228D01*
X104477065Y-74164228D02*
X104477065Y-74307085D01*
X104477065Y-74307085D02*
X104505636Y-74364228D01*
X104505636Y-74364228D02*
X104534208Y-74392800D01*
X104534208Y-74392800D02*
X104591350Y-74421371D01*
X104591350Y-74421371D02*
X104734208Y-74421371D01*
X104734208Y-74421371D02*
X104791350Y-74392800D01*
X104791350Y-74392800D02*
X104819922Y-74364228D01*
X104248493Y-74421371D02*
X103791350Y-73821371D01*
X104162779Y-73821371D02*
X104105636Y-73849942D01*
X104105636Y-73849942D02*
X104077064Y-73907085D01*
X104077064Y-73907085D02*
X104105636Y-73964228D01*
X104105636Y-73964228D02*
X104162779Y-73992800D01*
X104162779Y-73992800D02*
X104219921Y-73964228D01*
X104219921Y-73964228D02*
X104248493Y-73907085D01*
X104248493Y-73907085D02*
X104219921Y-73849942D01*
X104219921Y-73849942D02*
X104162779Y-73821371D01*
X103819921Y-74392800D02*
X103791350Y-74335657D01*
X103791350Y-74335657D02*
X103819921Y-74278514D01*
X103819921Y-74278514D02*
X103877064Y-74249942D01*
X103877064Y-74249942D02*
X103934207Y-74278514D01*
X103934207Y-74278514D02*
X103962779Y-74335657D01*
X103962779Y-74335657D02*
X103934207Y-74392800D01*
X103934207Y-74392800D02*
X103877064Y-74421371D01*
X103877064Y-74421371D02*
X103819921Y-74392800D01*
X96627580Y-71696115D02*
X97627580Y-71696115D01*
X96627580Y-71219925D02*
X97627580Y-71219925D01*
X97627580Y-71219925D02*
X96627580Y-70648497D01*
X96627580Y-70648497D02*
X97627580Y-70648497D01*
X96627580Y-70172306D02*
X97627580Y-70172306D01*
X97627580Y-70172306D02*
X97627580Y-69791354D01*
X97627580Y-69791354D02*
X97579961Y-69696116D01*
X97579961Y-69696116D02*
X97532342Y-69648497D01*
X97532342Y-69648497D02*
X97437104Y-69600878D01*
X97437104Y-69600878D02*
X97294247Y-69600878D01*
X97294247Y-69600878D02*
X97199009Y-69648497D01*
X97199009Y-69648497D02*
X97151390Y-69696116D01*
X97151390Y-69696116D02*
X97103771Y-69791354D01*
X97103771Y-69791354D02*
X97103771Y-70172306D01*
X97627580Y-69172306D02*
X96818057Y-69172306D01*
X96818057Y-69172306D02*
X96722819Y-69124687D01*
X96722819Y-69124687D02*
X96675200Y-69077068D01*
X96675200Y-69077068D02*
X96627580Y-68981830D01*
X96627580Y-68981830D02*
X96627580Y-68791354D01*
X96627580Y-68791354D02*
X96675200Y-68696116D01*
X96675200Y-68696116D02*
X96722819Y-68648497D01*
X96722819Y-68648497D02*
X96818057Y-68600878D01*
X96818057Y-68600878D02*
X97627580Y-68600878D01*
X97627580Y-68267544D02*
X97627580Y-67696116D01*
X96627580Y-67981830D02*
X97627580Y-67981830D01*
X97627580Y-56505639D02*
X97627580Y-56315163D01*
X97627580Y-56315163D02*
X97579961Y-56219925D01*
X97579961Y-56219925D02*
X97484723Y-56124687D01*
X97484723Y-56124687D02*
X97294247Y-56077068D01*
X97294247Y-56077068D02*
X96960914Y-56077068D01*
X96960914Y-56077068D02*
X96770438Y-56124687D01*
X96770438Y-56124687D02*
X96675200Y-56219925D01*
X96675200Y-56219925D02*
X96627580Y-56315163D01*
X96627580Y-56315163D02*
X96627580Y-56505639D01*
X96627580Y-56505639D02*
X96675200Y-56600877D01*
X96675200Y-56600877D02*
X96770438Y-56696115D01*
X96770438Y-56696115D02*
X96960914Y-56743734D01*
X96960914Y-56743734D02*
X97294247Y-56743734D01*
X97294247Y-56743734D02*
X97484723Y-56696115D01*
X97484723Y-56696115D02*
X97579961Y-56600877D01*
X97579961Y-56600877D02*
X97627580Y-56505639D01*
X97627580Y-55648496D02*
X96818057Y-55648496D01*
X96818057Y-55648496D02*
X96722819Y-55600877D01*
X96722819Y-55600877D02*
X96675200Y-55553258D01*
X96675200Y-55553258D02*
X96627580Y-55458020D01*
X96627580Y-55458020D02*
X96627580Y-55267544D01*
X96627580Y-55267544D02*
X96675200Y-55172306D01*
X96675200Y-55172306D02*
X96722819Y-55124687D01*
X96722819Y-55124687D02*
X96818057Y-55077068D01*
X96818057Y-55077068D02*
X97627580Y-55077068D01*
X97627580Y-54743734D02*
X97627580Y-54172306D01*
X96627580Y-54458020D02*
X97627580Y-54458020D01*
X96627580Y-53838972D02*
X97627580Y-53838972D01*
X97627580Y-53838972D02*
X97627580Y-53458020D01*
X97627580Y-53458020D02*
X97579961Y-53362782D01*
X97579961Y-53362782D02*
X97532342Y-53315163D01*
X97532342Y-53315163D02*
X97437104Y-53267544D01*
X97437104Y-53267544D02*
X97294247Y-53267544D01*
X97294247Y-53267544D02*
X97199009Y-53315163D01*
X97199009Y-53315163D02*
X97151390Y-53362782D01*
X97151390Y-53362782D02*
X97103771Y-53458020D01*
X97103771Y-53458020D02*
X97103771Y-53838972D01*
X97627580Y-52838972D02*
X96818057Y-52838972D01*
X96818057Y-52838972D02*
X96722819Y-52791353D01*
X96722819Y-52791353D02*
X96675200Y-52743734D01*
X96675200Y-52743734D02*
X96627580Y-52648496D01*
X96627580Y-52648496D02*
X96627580Y-52458020D01*
X96627580Y-52458020D02*
X96675200Y-52362782D01*
X96675200Y-52362782D02*
X96722819Y-52315163D01*
X96722819Y-52315163D02*
X96818057Y-52267544D01*
X96818057Y-52267544D02*
X97627580Y-52267544D01*
X97627580Y-51934210D02*
X97627580Y-51362782D01*
X96627580Y-51648496D02*
X97627580Y-51648496D01*
D10*
X117744056Y-50165000D02*
X185305950Y-50165000D01*
X185305950Y-73925873D01*
X117744056Y-73925873D01*
X117744056Y-50165000D01*
D14*
%TO.C,REF\u002A\u002A*%
G36*
X190607091Y-73019941D02*
G01*
X190581435Y-73045597D01*
X190555778Y-73019941D01*
X190581435Y-72994284D01*
X190607091Y-73019941D01*
G37*
G36*
X190555778Y-72917314D02*
G01*
X190530122Y-72942971D01*
X190504465Y-72917314D01*
X190530122Y-72891658D01*
X190555778Y-72917314D01*
G37*
G36*
X191746047Y-62669534D02*
G01*
X191808631Y-62780466D01*
X191833802Y-62932421D01*
X191816873Y-63095880D01*
X191753156Y-63241325D01*
X191667706Y-63363323D01*
X191573560Y-63247058D01*
X191562697Y-63232676D01*
X191504856Y-63096937D01*
X191489336Y-62938113D01*
X191512061Y-62786794D01*
X191568953Y-62673571D01*
X191655935Y-62629031D01*
X191746047Y-62669534D01*
G37*
G36*
X189452546Y-62600354D02*
G01*
X189466593Y-62621550D01*
X189511676Y-62755880D01*
X189527554Y-62923376D01*
X189513128Y-63080535D01*
X189467298Y-63183855D01*
X189397842Y-63227745D01*
X189314206Y-63198565D01*
X189229852Y-63070449D01*
X189200118Y-62992855D01*
X189196998Y-62798225D01*
X189296378Y-62603375D01*
X189345455Y-62543894D01*
X189391344Y-62531900D01*
X189452546Y-62600354D01*
G37*
G36*
X191103821Y-68037527D02*
G01*
X191355649Y-68184280D01*
X191574404Y-68401938D01*
X191749890Y-68682036D01*
X191871911Y-69016109D01*
X191930269Y-69395695D01*
X191929828Y-69692445D01*
X191865357Y-70097595D01*
X191729800Y-70452534D01*
X191528898Y-70747156D01*
X191268390Y-70971351D01*
X190954015Y-71115013D01*
X190880779Y-71133558D01*
X190585602Y-71146781D01*
X190304214Y-71062646D01*
X190046254Y-70885374D01*
X189821364Y-70619184D01*
X189692385Y-70400954D01*
X189595709Y-70156740D01*
X189544783Y-69885177D01*
X189529802Y-69550319D01*
X189556340Y-69223660D01*
X189657351Y-68850029D01*
X189825588Y-68521775D01*
X190052309Y-68255131D01*
X190328776Y-68066332D01*
X190541735Y-67990587D01*
X190829118Y-67970141D01*
X191103821Y-68037527D01*
G37*
G36*
X191633354Y-64235426D02*
G01*
X191591495Y-64480328D01*
X191459814Y-64694193D01*
X191235300Y-64873767D01*
X190914970Y-65022317D01*
X190855350Y-65041985D01*
X190569399Y-65088810D01*
X190278827Y-65069658D01*
X190001328Y-64993037D01*
X189754595Y-64867459D01*
X189556320Y-64701433D01*
X189424195Y-64503468D01*
X189375914Y-64282075D01*
X189406648Y-64087766D01*
X189426875Y-64053359D01*
X189808152Y-64053359D01*
X189844400Y-64225563D01*
X189943579Y-64382112D01*
X190083589Y-64482242D01*
X190147917Y-64504965D01*
X190430725Y-64554986D01*
X190679031Y-64509273D01*
X190896020Y-64367377D01*
X190958203Y-64292916D01*
X191018600Y-64115868D01*
X190992204Y-63925362D01*
X190879713Y-63747900D01*
X190838445Y-63706947D01*
X190744672Y-63641004D01*
X190627476Y-63611052D01*
X190447489Y-63603981D01*
X190440715Y-63603988D01*
X190249972Y-63614508D01*
X190117375Y-63653195D01*
X190000871Y-63732113D01*
X189983226Y-63747627D01*
X189876887Y-63870292D01*
X189816250Y-63989121D01*
X189808152Y-64053359D01*
X189426875Y-64053359D01*
X189531742Y-63874977D01*
X189751814Y-63696794D01*
X190065439Y-63554718D01*
X190134968Y-63531335D01*
X190340916Y-63473908D01*
X190514175Y-63456214D01*
X190697546Y-63477348D01*
X190933831Y-63536410D01*
X191222274Y-63651662D01*
X191443922Y-63813916D01*
X191584313Y-64011866D01*
X191607127Y-64115868D01*
X191633354Y-64235426D01*
G37*
G36*
X194386559Y-70146695D02*
G01*
X194379924Y-70369632D01*
X194368751Y-70557400D01*
X194349522Y-70781747D01*
X194327707Y-70957645D01*
X194306204Y-71058030D01*
X194299128Y-71075200D01*
X194182770Y-71224775D01*
X194008464Y-71320811D01*
X193812604Y-71342343D01*
X193642929Y-71322534D01*
X193637716Y-72001564D01*
X193624911Y-72409763D01*
X193579109Y-72854657D01*
X193496326Y-73233662D01*
X193372330Y-73564929D01*
X193202891Y-73866607D01*
X193152741Y-73942178D01*
X193080017Y-74044885D01*
X193007199Y-74128303D01*
X192918909Y-74203103D01*
X192799770Y-74279956D01*
X192634403Y-74369535D01*
X192407430Y-74482510D01*
X192103475Y-74629553D01*
X192053923Y-74646780D01*
X191882247Y-74663939D01*
X191673462Y-74648665D01*
X191468733Y-74605626D01*
X191309222Y-74539489D01*
X191117525Y-74373652D01*
X191031880Y-74229140D01*
X191235430Y-74229140D01*
X191248505Y-74277112D01*
X191259048Y-74292302D01*
X191305875Y-74328425D01*
X191312894Y-74325084D01*
X191299819Y-74277112D01*
X191289276Y-74261923D01*
X191242449Y-74225799D01*
X191235430Y-74229140D01*
X191031880Y-74229140D01*
X190968008Y-74121366D01*
X190887723Y-73805821D01*
X190878677Y-73435344D01*
X190942875Y-73018263D01*
X190960386Y-72938601D01*
X190987979Y-72739062D01*
X190967587Y-72614573D01*
X190893755Y-72550564D01*
X190761031Y-72532466D01*
X190643046Y-72550970D01*
X190547261Y-72633399D01*
X190485644Y-72798919D01*
X190480728Y-72825141D01*
X190483120Y-72950952D01*
X190515486Y-73070940D01*
X190565811Y-73152898D01*
X190622078Y-73164617D01*
X190650432Y-73176973D01*
X190638175Y-73273152D01*
X190626154Y-73365180D01*
X190650386Y-73384088D01*
X190672328Y-73411002D01*
X190683714Y-73522079D01*
X190681367Y-73700496D01*
X190675334Y-73848553D01*
X190675804Y-73934738D01*
X190685565Y-73930115D01*
X190705703Y-73840951D01*
X190746467Y-73635698D01*
X190753749Y-73824457D01*
X190754137Y-73845773D01*
X190736513Y-73987206D01*
X190692766Y-74081481D01*
X190659508Y-74126850D01*
X190644161Y-74208727D01*
X190646709Y-74236595D01*
X190601872Y-74305995D01*
X190570281Y-74319978D01*
X190576535Y-74285041D01*
X190589373Y-74259503D01*
X190583193Y-74225799D01*
X190551030Y-74257927D01*
X190505448Y-74351498D01*
X190452506Y-74429055D01*
X190302812Y-74514596D01*
X190083719Y-74558179D01*
X189811738Y-74554962D01*
X189688726Y-74541394D01*
X189321876Y-74479285D01*
X188999754Y-74392226D01*
X188736823Y-74285713D01*
X188547547Y-74165240D01*
X188446390Y-74036302D01*
X188394069Y-73913332D01*
X188323699Y-73763981D01*
X188312276Y-73740789D01*
X188253280Y-73612296D01*
X188173126Y-73429916D01*
X188085745Y-73225193D01*
X188080646Y-73213042D01*
X187992949Y-72988537D01*
X187942222Y-72805789D01*
X187918855Y-72617522D01*
X187913239Y-72376455D01*
X187913327Y-71938222D01*
X187784797Y-71957086D01*
X187707694Y-71955358D01*
X187572903Y-71876979D01*
X187454160Y-71699098D01*
X187350611Y-71420654D01*
X187317088Y-71292629D01*
X187290157Y-71136513D01*
X187277140Y-70956442D01*
X187276354Y-70726318D01*
X187286118Y-70420048D01*
X187287490Y-70387777D01*
X187302669Y-70116955D01*
X187322439Y-69870781D01*
X187344391Y-69675237D01*
X187366121Y-69556304D01*
X187381736Y-69495809D01*
X187419204Y-69325161D01*
X187462877Y-69103590D01*
X187506190Y-68863577D01*
X187529353Y-68735001D01*
X187577992Y-68494238D01*
X187626375Y-68286182D01*
X187666819Y-68145193D01*
X187710746Y-68009305D01*
X187777851Y-67785701D01*
X187863954Y-67488768D01*
X187965358Y-67131536D01*
X188078365Y-66727032D01*
X188199277Y-66288285D01*
X188324397Y-65828322D01*
X188492899Y-65204785D01*
X188316163Y-65033485D01*
X188267314Y-64984136D01*
X188102606Y-64798436D01*
X187920429Y-64571780D01*
X187742662Y-64333157D01*
X187591185Y-64111558D01*
X187487876Y-63935972D01*
X187450407Y-63859065D01*
X187306328Y-63476562D01*
X187238571Y-63088524D01*
X187239702Y-62656622D01*
X187242528Y-62619252D01*
X187278222Y-62302636D01*
X187332784Y-61976161D01*
X187400170Y-61667913D01*
X187474334Y-61405979D01*
X187549233Y-61218447D01*
X187564507Y-61188752D01*
X187599709Y-61096028D01*
X187575217Y-61030572D01*
X187479653Y-60948194D01*
X187461577Y-60933411D01*
X187330849Y-60800211D01*
X187217221Y-60648292D01*
X187189512Y-60596980D01*
X187128164Y-60370956D01*
X187130005Y-60158845D01*
X187292253Y-60158845D01*
X187303839Y-60401047D01*
X187406332Y-60616569D01*
X187605589Y-60818309D01*
X187645904Y-60852302D01*
X187759430Y-60995961D01*
X187773736Y-61141477D01*
X187690934Y-61300798D01*
X187672462Y-61329284D01*
X187610014Y-61479270D01*
X187546214Y-61701778D01*
X187486251Y-61974136D01*
X187435316Y-62273674D01*
X187398599Y-62577718D01*
X187391670Y-62710414D01*
X187420669Y-63100961D01*
X187512888Y-63506761D01*
X187660231Y-63887299D01*
X187694640Y-63953125D01*
X187811522Y-64143257D01*
X187960228Y-64355557D01*
X188123538Y-64568175D01*
X188284228Y-64759257D01*
X188425075Y-64906952D01*
X188528856Y-64989407D01*
X188612872Y-65058680D01*
X188656610Y-65164874D01*
X188654561Y-65186256D01*
X188630849Y-65303250D01*
X188584782Y-65490067D01*
X188521646Y-65725925D01*
X188446727Y-65990042D01*
X188443747Y-66000279D01*
X188351415Y-66322391D01*
X188254320Y-66669204D01*
X188163823Y-66999702D01*
X188091291Y-67272870D01*
X188043791Y-67451986D01*
X187970534Y-67715027D01*
X187901486Y-67949362D01*
X187846882Y-68119537D01*
X187823839Y-68191703D01*
X187767317Y-68403533D01*
X187709595Y-68658024D01*
X187660133Y-68914890D01*
X187637299Y-69044312D01*
X187592457Y-69284369D01*
X187550776Y-69491447D01*
X187518982Y-69631399D01*
X187500164Y-69731344D01*
X187476272Y-69925631D01*
X187455030Y-70167632D01*
X187439496Y-70426753D01*
X187431955Y-70621930D01*
X187430352Y-70852907D01*
X187443025Y-71035556D01*
X187472779Y-71202282D01*
X187522414Y-71385492D01*
X187559962Y-71502621D01*
X187641483Y-71692017D01*
X187723068Y-71783849D01*
X187808960Y-71781490D01*
X187903403Y-71688313D01*
X187908364Y-71681616D01*
X187986204Y-71601784D01*
X188042907Y-71584083D01*
X188058516Y-71632808D01*
X188072696Y-71765392D01*
X188081983Y-71959531D01*
X188084883Y-72193556D01*
X188084750Y-72336350D01*
X188088833Y-72554842D01*
X188103571Y-72719045D01*
X188134823Y-72860948D01*
X188188449Y-73012542D01*
X188270310Y-73205816D01*
X188394423Y-73477461D01*
X188559470Y-73781475D01*
X188728178Y-74006621D01*
X188916310Y-74165201D01*
X189139625Y-74269515D01*
X189413883Y-74331867D01*
X189754846Y-74364556D01*
X189782299Y-74366139D01*
X189994908Y-74376625D01*
X190132882Y-74375270D01*
X190221373Y-74357371D01*
X190285536Y-74318219D01*
X190350526Y-74253110D01*
X190414331Y-74173931D01*
X190455266Y-74080346D01*
X190473365Y-73948722D01*
X190476646Y-73746878D01*
X190473676Y-73630091D01*
X190441319Y-73368467D01*
X190368148Y-73154365D01*
X190312677Y-73021208D01*
X190287592Y-72878490D01*
X190308860Y-72718203D01*
X190319470Y-72675553D01*
X190372311Y-72528056D01*
X190431125Y-72430733D01*
X190531951Y-72378703D01*
X190699393Y-72362294D01*
X190887604Y-72389212D01*
X191059055Y-72457837D01*
X191147092Y-72519292D01*
X191202141Y-72608856D01*
X191213376Y-72752744D01*
X191210745Y-72823658D01*
X191194592Y-72900523D01*
X191162043Y-72884766D01*
X191159397Y-72880983D01*
X191131533Y-72856558D01*
X191143825Y-72923365D01*
X191148687Y-73037631D01*
X191115689Y-73179931D01*
X191089691Y-73262597D01*
X191060102Y-73413490D01*
X191042548Y-73573809D01*
X191038618Y-73715957D01*
X191049899Y-73812335D01*
X191077979Y-73835346D01*
X191107190Y-73837289D01*
X191094566Y-73917920D01*
X191090578Y-73930826D01*
X191081074Y-74000940D01*
X191123445Y-73992898D01*
X191163326Y-73979063D01*
X191158738Y-74031196D01*
X191174835Y-74116893D01*
X191279728Y-74221801D01*
X191303730Y-74240308D01*
X191385713Y-74320633D01*
X191387423Y-74325084D01*
X191406129Y-74373778D01*
X191401371Y-74390103D01*
X191443187Y-74423911D01*
X191499282Y-74432593D01*
X191801321Y-74460518D01*
X192056339Y-74439054D01*
X192304686Y-74360973D01*
X192586713Y-74219044D01*
X192798470Y-74077606D01*
X193002190Y-73877143D01*
X193163581Y-73628336D01*
X193286646Y-73320820D01*
X193375387Y-72944230D01*
X193433807Y-72488200D01*
X193465910Y-71942365D01*
X193467929Y-71885707D01*
X193483616Y-71559918D01*
X193503212Y-71312488D01*
X193525915Y-71151503D01*
X193550923Y-71085048D01*
X193623274Y-71082043D01*
X193730217Y-71128877D01*
X193735736Y-71132459D01*
X193854829Y-71181045D01*
X193975481Y-71152985D01*
X194034764Y-71117492D01*
X194133171Y-70988389D01*
X194185069Y-70783714D01*
X194193573Y-70494059D01*
X194192099Y-70340133D01*
X194199973Y-70203456D01*
X194216112Y-70137856D01*
X194225538Y-70125826D01*
X194248499Y-70009274D01*
X194229621Y-69802485D01*
X194169113Y-69508269D01*
X194166696Y-69498279D01*
X194115022Y-69294681D01*
X194047348Y-69041398D01*
X193969019Y-68757026D01*
X193885378Y-68460159D01*
X193801769Y-68169394D01*
X193723537Y-67903326D01*
X193656024Y-67680549D01*
X193604574Y-67519660D01*
X193574533Y-67439254D01*
X193554740Y-67388423D01*
X193511308Y-67248039D01*
X193456756Y-67051197D01*
X193398405Y-66823496D01*
X193379998Y-66749382D01*
X193234317Y-66206298D01*
X193088184Y-65742479D01*
X192935184Y-65337345D01*
X192878792Y-65198965D01*
X192831661Y-65077977D01*
X192813556Y-65023798D01*
X192821198Y-65009889D01*
X192878258Y-64931878D01*
X192978907Y-64802815D01*
X193108606Y-64641538D01*
X193394875Y-64256243D01*
X193652541Y-63806644D01*
X193820096Y-63362021D01*
X193902641Y-62911254D01*
X193905531Y-62786788D01*
X193891544Y-62561734D01*
X193860912Y-62292010D01*
X193817763Y-62002112D01*
X193766226Y-61716535D01*
X193710429Y-61459775D01*
X193654500Y-61256327D01*
X193602567Y-61130688D01*
X193613796Y-61084407D01*
X193678650Y-60982286D01*
X193783695Y-60852015D01*
X193871698Y-60740161D01*
X193971531Y-60578035D01*
X194023265Y-60445744D01*
X194032139Y-60375912D01*
X194009130Y-60144580D01*
X193919142Y-59920616D01*
X193778080Y-59722919D01*
X193601847Y-59570385D01*
X193406349Y-59481913D01*
X193207487Y-59476400D01*
X193012061Y-59550099D01*
X192815164Y-59674639D01*
X192669535Y-59817538D01*
X192591591Y-59884625D01*
X192466673Y-59903247D01*
X192355661Y-59837193D01*
X192334059Y-59814606D01*
X192189305Y-59719900D01*
X191970562Y-59625454D01*
X191700622Y-59537255D01*
X191402277Y-59461292D01*
X191098322Y-59403553D01*
X190811547Y-59370025D01*
X190564747Y-59366697D01*
X190441457Y-59376780D01*
X190128653Y-59420956D01*
X189831739Y-59486568D01*
X189579629Y-59566486D01*
X189401233Y-59653583D01*
X189376657Y-59667314D01*
X189270318Y-59715972D01*
X189125074Y-59775321D01*
X189014222Y-59816657D01*
X188914359Y-59835292D01*
X188826188Y-59806685D01*
X188701741Y-59725152D01*
X188639586Y-59680142D01*
X188541806Y-59598611D01*
X188503253Y-59549250D01*
X188489716Y-59521774D01*
X188398314Y-59485221D01*
X188239189Y-59471517D01*
X188034119Y-59483705D01*
X188006164Y-59487539D01*
X187755625Y-59568522D01*
X187538274Y-59717071D01*
X187377190Y-59912824D01*
X187295450Y-60135422D01*
X187292253Y-60158845D01*
X187130005Y-60158845D01*
X187130349Y-60119164D01*
X187192366Y-59879601D01*
X187310515Y-59690263D01*
X187522490Y-59504952D01*
X187769784Y-59380571D01*
X188072481Y-59317439D01*
X188240922Y-59304645D01*
X188432713Y-59322563D01*
X188594842Y-59395278D01*
X188767293Y-59535328D01*
X188903051Y-59661812D01*
X189357394Y-59479452D01*
X189446337Y-59444473D01*
X189678228Y-59359001D01*
X189889271Y-59288425D01*
X190042647Y-59245326D01*
X190080463Y-59237285D01*
X190460471Y-59194500D01*
X190881298Y-59203928D01*
X191315003Y-59260627D01*
X191733650Y-59359652D01*
X192109299Y-59496061D01*
X192414013Y-59664911D01*
X192468712Y-59692161D01*
X192541501Y-59675913D01*
X192644922Y-59590011D01*
X192656568Y-59579081D01*
X192861533Y-59433837D01*
X193097572Y-59332046D01*
X193319240Y-59293678D01*
X193393799Y-59305694D01*
X193550899Y-59365753D01*
X193718565Y-59460446D01*
X193839368Y-59550706D01*
X194030600Y-59766200D01*
X194139086Y-60027176D01*
X194173354Y-60350314D01*
X194170473Y-60491142D01*
X194148836Y-60632724D01*
X194092017Y-60751593D01*
X193983828Y-60894200D01*
X193794303Y-61125490D01*
X193896237Y-61530897D01*
X193928481Y-61673446D01*
X193975603Y-61938987D01*
X194013995Y-62224308D01*
X194041475Y-62505309D01*
X194055860Y-62757886D01*
X194054968Y-62957937D01*
X194036617Y-63081362D01*
X194010264Y-63184027D01*
X193993758Y-63339375D01*
X193975317Y-63446227D01*
X193905416Y-63637832D01*
X193795191Y-63871801D01*
X193657222Y-64126424D01*
X193504088Y-64379992D01*
X193348368Y-64610796D01*
X193202641Y-64797126D01*
X193079485Y-64917273D01*
X193051713Y-64942805D01*
X193029752Y-64992984D01*
X193032802Y-65073069D01*
X193064064Y-65199435D01*
X193126740Y-65388456D01*
X193224032Y-65656506D01*
X193249685Y-65727015D01*
X193326814Y-65951638D01*
X193390248Y-66154210D01*
X193428267Y-66297920D01*
X193433030Y-66320141D01*
X193457239Y-66422885D01*
X193492040Y-66555744D01*
X193540703Y-66730046D01*
X193606497Y-66957118D01*
X193692693Y-67248287D01*
X193802562Y-67614880D01*
X193939373Y-68068223D01*
X193946285Y-68091087D01*
X194082477Y-68548257D01*
X194189202Y-68924620D01*
X194269482Y-69235958D01*
X194326336Y-69498053D01*
X194362787Y-69726687D01*
X194381854Y-69937640D01*
X194383466Y-70009274D01*
X194386559Y-70146695D01*
G37*
%TD*%
%LPC*%
D15*
X154712591Y-55091527D02*
X154712591Y-52721772D01*
D14*
X154712591Y-55091527D02*
X154712591Y-52721772D01*
D16*
X133122595Y-59088528D02*
X133122595Y-57818528D01*
X183287592Y-53373528D02*
X179477590Y-53373528D01*
X179477590Y-53373528D02*
X173127592Y-53373528D01*
X144752805Y-65196454D02*
X144745153Y-65960942D01*
X142732786Y-65206704D02*
X143742156Y-65201582D01*
X144752805Y-65196454D01*
X148590177Y-65091664D02*
X148590177Y-66011884D01*
X149523832Y-65091664D02*
X148590177Y-65091664D01*
D17*
X133122595Y-67241780D02*
X133122595Y-67994885D01*
D16*
X179477590Y-53373528D02*
X179477590Y-55278527D01*
X179477590Y-59088528D02*
X179477590Y-60993527D01*
D18*
X152807592Y-68903264D02*
X152807592Y-62790105D01*
D16*
X139472593Y-64803529D02*
X139472593Y-66073529D01*
X133122595Y-62898530D02*
X133122595Y-63533528D01*
X173127588Y-53373528D02*
X166777590Y-53373528D01*
X173127588Y-53373528D02*
X173127588Y-54643529D01*
X166777590Y-53373528D02*
X166777590Y-56548528D01*
X163602590Y-57818532D02*
X167412592Y-57818532D01*
X133122595Y-57818532D02*
X124867597Y-57818532D01*
X133129102Y-55407864D02*
X126779104Y-55407864D01*
X133122595Y-57818532D02*
X139472593Y-57818532D01*
X126699033Y-55411843D02*
X124794035Y-55411843D01*
X179477590Y-64803529D02*
X179477590Y-66708527D01*
X139479101Y-51597863D02*
X133129102Y-51597863D01*
X133129102Y-51597863D02*
X126779104Y-51597863D01*
X126779096Y-51597863D02*
X121699094Y-51597863D01*
X173127588Y-58453530D02*
X173127588Y-60358529D01*
X167412592Y-68890897D02*
X163602590Y-68890897D01*
X155982595Y-68890897D02*
X152807592Y-68890897D01*
X152807592Y-62898530D02*
X161062597Y-62898530D01*
X159792593Y-64803529D02*
X155982595Y-64803529D01*
X162332590Y-64803529D02*
X159792593Y-64803529D01*
X163602590Y-68890897D02*
X159792593Y-68890897D01*
X159792593Y-68890897D02*
X155982595Y-68890897D01*
X148362592Y-59088528D02*
X139472593Y-59088528D01*
X161062597Y-59088528D02*
X162332590Y-59088528D01*
X161062597Y-62898530D02*
X161062597Y-60358529D01*
D19*
X167445028Y-57786092D02*
X167445028Y-64878602D01*
D16*
X162332590Y-59088528D02*
X162332590Y-64803529D01*
X161062597Y-57818532D02*
X163602594Y-57818532D01*
D19*
X163570150Y-57786092D02*
X163570150Y-64878602D01*
D16*
X166777590Y-56548531D02*
X161062589Y-56548531D01*
X142795004Y-60358529D02*
X142795004Y-61304375D01*
X145187589Y-60358529D02*
X142795004Y-60358529D01*
X148362592Y-60358529D02*
X145187589Y-60358529D01*
X139472593Y-59088528D02*
X139472593Y-60993527D01*
X141377592Y-57818532D02*
X140742590Y-57818532D01*
X145822591Y-57818532D02*
X145187589Y-57818532D01*
X148362592Y-57818532D02*
X145822591Y-57818532D01*
X148362592Y-56548531D02*
X148362592Y-51620705D01*
X148361067Y-51597863D02*
X139547018Y-51597863D01*
X139479101Y-55407864D02*
X133129102Y-55407864D01*
X139472593Y-57818532D02*
X139472593Y-59088532D01*
X140742597Y-57818532D02*
X139472601Y-57818532D01*
D20*
%TO.C,U2*%
X102613000Y-65532000D03*
X98813000Y-65532000D03*
X102613000Y-74172000D03*
X98813000Y-74172000D03*
%TD*%
D21*
%TO.C,U6*%
X115000000Y-62000000D03*
X195000000Y-62000000D03*
%TD*%
D20*
%TO.C,U3*%
X102606000Y-49680000D03*
X98806000Y-49680000D03*
X102606000Y-58320000D03*
X98806000Y-58320000D03*
%TD*%
%LPD*%
M02*
