%TF.GenerationSoftware,KiCad,Pcbnew,9.0.6*%
%TF.CreationDate,2026-02-27T22:21:18+08:00*%
%TF.ProjectId,minipower,6d696e69-706f-4776-9572-2e6b69636164,rev?*%
%TF.SameCoordinates,Original*%
%TF.FileFunction,Legend,Bot*%
%TF.FilePolarity,Positive*%
%FSLAX46Y46*%
G04 Gerber Fmt 4.6, Leading zero omitted, Abs format (unit mm)*
G04 Created by KiCad (PCBNEW 9.0.6) date 2026-02-27 22:21:18*
%MOMM*%
%LPD*%
G01*
G04 APERTURE LIST*
%ADD10C,0.100000*%
%ADD11O,1.900000X1.100000*%
%ADD12O,1.500000X4.200000*%
G04 APERTURE END LIST*
D10*
X161196115Y-71762475D02*
X161196115Y-70762475D01*
X160719925Y-71762475D02*
X160719925Y-70762475D01*
X160719925Y-70762475D02*
X160338973Y-70762475D01*
X160338973Y-70762475D02*
X160243735Y-70810094D01*
X160243735Y-70810094D02*
X160196116Y-70857713D01*
X160196116Y-70857713D02*
X160148497Y-70952951D01*
X160148497Y-70952951D02*
X160148497Y-71095808D01*
X160148497Y-71095808D02*
X160196116Y-71191046D01*
X160196116Y-71191046D02*
X160243735Y-71238665D01*
X160243735Y-71238665D02*
X160338973Y-71286284D01*
X160338973Y-71286284D02*
X160719925Y-71286284D01*
X159243735Y-70762475D02*
X159719925Y-70762475D01*
X159719925Y-70762475D02*
X159767544Y-71238665D01*
X159767544Y-71238665D02*
X159719925Y-71191046D01*
X159719925Y-71191046D02*
X159624687Y-71143427D01*
X159624687Y-71143427D02*
X159386592Y-71143427D01*
X159386592Y-71143427D02*
X159291354Y-71191046D01*
X159291354Y-71191046D02*
X159243735Y-71238665D01*
X159243735Y-71238665D02*
X159196116Y-71333903D01*
X159196116Y-71333903D02*
X159196116Y-71571998D01*
X159196116Y-71571998D02*
X159243735Y-71667236D01*
X159243735Y-71667236D02*
X159291354Y-71714856D01*
X159291354Y-71714856D02*
X159386592Y-71762475D01*
X159386592Y-71762475D02*
X159624687Y-71762475D01*
X159624687Y-71762475D02*
X159719925Y-71714856D01*
X159719925Y-71714856D02*
X159767544Y-71667236D01*
X158862782Y-70762475D02*
X158243735Y-70762475D01*
X158243735Y-70762475D02*
X158577068Y-71143427D01*
X158577068Y-71143427D02*
X158434211Y-71143427D01*
X158434211Y-71143427D02*
X158338973Y-71191046D01*
X158338973Y-71191046D02*
X158291354Y-71238665D01*
X158291354Y-71238665D02*
X158243735Y-71333903D01*
X158243735Y-71333903D02*
X158243735Y-71571998D01*
X158243735Y-71571998D02*
X158291354Y-71667236D01*
X158291354Y-71667236D02*
X158338973Y-71714856D01*
X158338973Y-71714856D02*
X158434211Y-71762475D01*
X158434211Y-71762475D02*
X158719925Y-71762475D01*
X158719925Y-71762475D02*
X158815163Y-71714856D01*
X158815163Y-71714856D02*
X158862782Y-71667236D01*
X157624687Y-70762475D02*
X157529449Y-70762475D01*
X157529449Y-70762475D02*
X157434211Y-70810094D01*
X157434211Y-70810094D02*
X157386592Y-70857713D01*
X157386592Y-70857713D02*
X157338973Y-70952951D01*
X157338973Y-70952951D02*
X157291354Y-71143427D01*
X157291354Y-71143427D02*
X157291354Y-71381522D01*
X157291354Y-71381522D02*
X157338973Y-71571998D01*
X157338973Y-71571998D02*
X157386592Y-71667236D01*
X157386592Y-71667236D02*
X157434211Y-71714856D01*
X157434211Y-71714856D02*
X157529449Y-71762475D01*
X157529449Y-71762475D02*
X157624687Y-71762475D01*
X157624687Y-71762475D02*
X157719925Y-71714856D01*
X157719925Y-71714856D02*
X157767544Y-71667236D01*
X157767544Y-71667236D02*
X157815163Y-71571998D01*
X157815163Y-71571998D02*
X157862782Y-71381522D01*
X157862782Y-71381522D02*
X157862782Y-71143427D01*
X157862782Y-71143427D02*
X157815163Y-70952951D01*
X157815163Y-70952951D02*
X157767544Y-70857713D01*
X157767544Y-70857713D02*
X157719925Y-70810094D01*
X157719925Y-70810094D02*
X157624687Y-70762475D01*
X156434211Y-70762475D02*
X156624687Y-70762475D01*
X156624687Y-70762475D02*
X156719925Y-70810094D01*
X156719925Y-70810094D02*
X156767544Y-70857713D01*
X156767544Y-70857713D02*
X156862782Y-71000570D01*
X156862782Y-71000570D02*
X156910401Y-71191046D01*
X156910401Y-71191046D02*
X156910401Y-71571998D01*
X156910401Y-71571998D02*
X156862782Y-71667236D01*
X156862782Y-71667236D02*
X156815163Y-71714856D01*
X156815163Y-71714856D02*
X156719925Y-71762475D01*
X156719925Y-71762475D02*
X156529449Y-71762475D01*
X156529449Y-71762475D02*
X156434211Y-71714856D01*
X156434211Y-71714856D02*
X156386592Y-71667236D01*
X156386592Y-71667236D02*
X156338973Y-71571998D01*
X156338973Y-71571998D02*
X156338973Y-71333903D01*
X156338973Y-71333903D02*
X156386592Y-71238665D01*
X156386592Y-71238665D02*
X156434211Y-71191046D01*
X156434211Y-71191046D02*
X156529449Y-71143427D01*
X156529449Y-71143427D02*
X156719925Y-71143427D01*
X156719925Y-71143427D02*
X156815163Y-71191046D01*
X156815163Y-71191046D02*
X156862782Y-71238665D01*
X156862782Y-71238665D02*
X156910401Y-71333903D01*
X155196115Y-70857713D02*
X155148496Y-70810094D01*
X155148496Y-70810094D02*
X155053258Y-70762475D01*
X155053258Y-70762475D02*
X154815163Y-70762475D01*
X154815163Y-70762475D02*
X154719925Y-70810094D01*
X154719925Y-70810094D02*
X154672306Y-70857713D01*
X154672306Y-70857713D02*
X154624687Y-70952951D01*
X154624687Y-70952951D02*
X154624687Y-71048189D01*
X154624687Y-71048189D02*
X154672306Y-71191046D01*
X154672306Y-71191046D02*
X155243734Y-71762475D01*
X155243734Y-71762475D02*
X154624687Y-71762475D01*
X153672306Y-71762475D02*
X154243734Y-71762475D01*
X153958020Y-71762475D02*
X153958020Y-70762475D01*
X153958020Y-70762475D02*
X154053258Y-70905332D01*
X154053258Y-70905332D02*
X154148496Y-71000570D01*
X154148496Y-71000570D02*
X154243734Y-71048189D01*
X153338972Y-70762475D02*
X152672306Y-70762475D01*
X152672306Y-70762475D02*
X153100877Y-71762475D01*
X152100877Y-70762475D02*
X152005639Y-70762475D01*
X152005639Y-70762475D02*
X151910401Y-70810094D01*
X151910401Y-70810094D02*
X151862782Y-70857713D01*
X151862782Y-70857713D02*
X151815163Y-70952951D01*
X151815163Y-70952951D02*
X151767544Y-71143427D01*
X151767544Y-71143427D02*
X151767544Y-71381522D01*
X151767544Y-71381522D02*
X151815163Y-71571998D01*
X151815163Y-71571998D02*
X151862782Y-71667236D01*
X151862782Y-71667236D02*
X151910401Y-71714856D01*
X151910401Y-71714856D02*
X152005639Y-71762475D01*
X152005639Y-71762475D02*
X152100877Y-71762475D01*
X152100877Y-71762475D02*
X152196115Y-71714856D01*
X152196115Y-71714856D02*
X152243734Y-71667236D01*
X152243734Y-71667236D02*
X152291353Y-71571998D01*
X152291353Y-71571998D02*
X152338972Y-71381522D01*
X152338972Y-71381522D02*
X152338972Y-71143427D01*
X152338972Y-71143427D02*
X152291353Y-70952951D01*
X152291353Y-70952951D02*
X152243734Y-70857713D01*
X152243734Y-70857713D02*
X152196115Y-70810094D01*
X152196115Y-70810094D02*
X152100877Y-70762475D01*
X151148496Y-70762475D02*
X151053258Y-70762475D01*
X151053258Y-70762475D02*
X150958020Y-70810094D01*
X150958020Y-70810094D02*
X150910401Y-70857713D01*
X150910401Y-70857713D02*
X150862782Y-70952951D01*
X150862782Y-70952951D02*
X150815163Y-71143427D01*
X150815163Y-71143427D02*
X150815163Y-71381522D01*
X150815163Y-71381522D02*
X150862782Y-71571998D01*
X150862782Y-71571998D02*
X150910401Y-71667236D01*
X150910401Y-71667236D02*
X150958020Y-71714856D01*
X150958020Y-71714856D02*
X151053258Y-71762475D01*
X151053258Y-71762475D02*
X151148496Y-71762475D01*
X151148496Y-71762475D02*
X151243734Y-71714856D01*
X151243734Y-71714856D02*
X151291353Y-71667236D01*
X151291353Y-71667236D02*
X151338972Y-71571998D01*
X151338972Y-71571998D02*
X151386591Y-71381522D01*
X151386591Y-71381522D02*
X151386591Y-71143427D01*
X151386591Y-71143427D02*
X151338972Y-70952951D01*
X151338972Y-70952951D02*
X151291353Y-70857713D01*
X151291353Y-70857713D02*
X151243734Y-70810094D01*
X151243734Y-70810094D02*
X151148496Y-70762475D01*
X149624686Y-71762475D02*
X149624686Y-71095808D01*
X149624686Y-71191046D02*
X149577067Y-71143427D01*
X149577067Y-71143427D02*
X149481829Y-71095808D01*
X149481829Y-71095808D02*
X149338972Y-71095808D01*
X149338972Y-71095808D02*
X149243734Y-71143427D01*
X149243734Y-71143427D02*
X149196115Y-71238665D01*
X149196115Y-71238665D02*
X149196115Y-71762475D01*
X149196115Y-71238665D02*
X149148496Y-71143427D01*
X149148496Y-71143427D02*
X149053258Y-71095808D01*
X149053258Y-71095808D02*
X148910401Y-71095808D01*
X148910401Y-71095808D02*
X148815162Y-71143427D01*
X148815162Y-71143427D02*
X148767543Y-71238665D01*
X148767543Y-71238665D02*
X148767543Y-71762475D01*
X148291353Y-71762475D02*
X148291353Y-71095808D01*
X148291353Y-70762475D02*
X148338972Y-70810094D01*
X148338972Y-70810094D02*
X148291353Y-70857713D01*
X148291353Y-70857713D02*
X148243734Y-70810094D01*
X148243734Y-70810094D02*
X148291353Y-70762475D01*
X148291353Y-70762475D02*
X148291353Y-70857713D01*
X147815163Y-71095808D02*
X147815163Y-71762475D01*
X147815163Y-71191046D02*
X147767544Y-71143427D01*
X147767544Y-71143427D02*
X147672306Y-71095808D01*
X147672306Y-71095808D02*
X147529449Y-71095808D01*
X147529449Y-71095808D02*
X147434211Y-71143427D01*
X147434211Y-71143427D02*
X147386592Y-71238665D01*
X147386592Y-71238665D02*
X147386592Y-71762475D01*
X146910401Y-71762475D02*
X146910401Y-71095808D01*
X146910401Y-70762475D02*
X146958020Y-70810094D01*
X146958020Y-70810094D02*
X146910401Y-70857713D01*
X146910401Y-70857713D02*
X146862782Y-70810094D01*
X146862782Y-70810094D02*
X146910401Y-70762475D01*
X146910401Y-70762475D02*
X146910401Y-70857713D01*
X145672306Y-71095808D02*
X145672306Y-72095808D01*
X145672306Y-71143427D02*
X145577068Y-71095808D01*
X145577068Y-71095808D02*
X145386592Y-71095808D01*
X145386592Y-71095808D02*
X145291354Y-71143427D01*
X145291354Y-71143427D02*
X145243735Y-71191046D01*
X145243735Y-71191046D02*
X145196116Y-71286284D01*
X145196116Y-71286284D02*
X145196116Y-71571998D01*
X145196116Y-71571998D02*
X145243735Y-71667236D01*
X145243735Y-71667236D02*
X145291354Y-71714856D01*
X145291354Y-71714856D02*
X145386592Y-71762475D01*
X145386592Y-71762475D02*
X145577068Y-71762475D01*
X145577068Y-71762475D02*
X145672306Y-71714856D01*
X144624687Y-71762475D02*
X144719925Y-71714856D01*
X144719925Y-71714856D02*
X144767544Y-71667236D01*
X144767544Y-71667236D02*
X144815163Y-71571998D01*
X144815163Y-71571998D02*
X144815163Y-71286284D01*
X144815163Y-71286284D02*
X144767544Y-71191046D01*
X144767544Y-71191046D02*
X144719925Y-71143427D01*
X144719925Y-71143427D02*
X144624687Y-71095808D01*
X144624687Y-71095808D02*
X144481830Y-71095808D01*
X144481830Y-71095808D02*
X144386592Y-71143427D01*
X144386592Y-71143427D02*
X144338973Y-71191046D01*
X144338973Y-71191046D02*
X144291354Y-71286284D01*
X144291354Y-71286284D02*
X144291354Y-71571998D01*
X144291354Y-71571998D02*
X144338973Y-71667236D01*
X144338973Y-71667236D02*
X144386592Y-71714856D01*
X144386592Y-71714856D02*
X144481830Y-71762475D01*
X144481830Y-71762475D02*
X144624687Y-71762475D01*
X143958020Y-71095808D02*
X143767544Y-71762475D01*
X143767544Y-71762475D02*
X143577068Y-71286284D01*
X143577068Y-71286284D02*
X143386592Y-71762475D01*
X143386592Y-71762475D02*
X143196116Y-71095808D01*
X142434211Y-71714856D02*
X142529449Y-71762475D01*
X142529449Y-71762475D02*
X142719925Y-71762475D01*
X142719925Y-71762475D02*
X142815163Y-71714856D01*
X142815163Y-71714856D02*
X142862782Y-71619617D01*
X142862782Y-71619617D02*
X142862782Y-71238665D01*
X142862782Y-71238665D02*
X142815163Y-71143427D01*
X142815163Y-71143427D02*
X142719925Y-71095808D01*
X142719925Y-71095808D02*
X142529449Y-71095808D01*
X142529449Y-71095808D02*
X142434211Y-71143427D01*
X142434211Y-71143427D02*
X142386592Y-71238665D01*
X142386592Y-71238665D02*
X142386592Y-71333903D01*
X142386592Y-71333903D02*
X142862782Y-71429141D01*
X141958020Y-71762475D02*
X141958020Y-71095808D01*
X141958020Y-71286284D02*
X141910401Y-71191046D01*
X141910401Y-71191046D02*
X141862782Y-71143427D01*
X141862782Y-71143427D02*
X141767544Y-71095808D01*
X141767544Y-71095808D02*
X141672306Y-71095808D01*
X141338972Y-71762475D02*
X141338972Y-70762475D01*
X141338972Y-71143427D02*
X141243734Y-71095808D01*
X141243734Y-71095808D02*
X141053258Y-71095808D01*
X141053258Y-71095808D02*
X140958020Y-71143427D01*
X140958020Y-71143427D02*
X140910401Y-71191046D01*
X140910401Y-71191046D02*
X140862782Y-71286284D01*
X140862782Y-71286284D02*
X140862782Y-71571998D01*
X140862782Y-71571998D02*
X140910401Y-71667236D01*
X140910401Y-71667236D02*
X140958020Y-71714856D01*
X140958020Y-71714856D02*
X141053258Y-71762475D01*
X141053258Y-71762475D02*
X141243734Y-71762475D01*
X141243734Y-71762475D02*
X141338972Y-71714856D01*
X140005639Y-71762475D02*
X140005639Y-71238665D01*
X140005639Y-71238665D02*
X140053258Y-71143427D01*
X140053258Y-71143427D02*
X140148496Y-71095808D01*
X140148496Y-71095808D02*
X140338972Y-71095808D01*
X140338972Y-71095808D02*
X140434210Y-71143427D01*
X140005639Y-71714856D02*
X140100877Y-71762475D01*
X140100877Y-71762475D02*
X140338972Y-71762475D01*
X140338972Y-71762475D02*
X140434210Y-71714856D01*
X140434210Y-71714856D02*
X140481829Y-71619617D01*
X140481829Y-71619617D02*
X140481829Y-71524379D01*
X140481829Y-71524379D02*
X140434210Y-71429141D01*
X140434210Y-71429141D02*
X140338972Y-71381522D01*
X140338972Y-71381522D02*
X140100877Y-71381522D01*
X140100877Y-71381522D02*
X140005639Y-71333903D01*
X139529448Y-71095808D02*
X139529448Y-71762475D01*
X139529448Y-71191046D02*
X139481829Y-71143427D01*
X139481829Y-71143427D02*
X139386591Y-71095808D01*
X139386591Y-71095808D02*
X139243734Y-71095808D01*
X139243734Y-71095808D02*
X139148496Y-71143427D01*
X139148496Y-71143427D02*
X139100877Y-71238665D01*
X139100877Y-71238665D02*
X139100877Y-71762475D01*
X138624686Y-71762475D02*
X138624686Y-70762475D01*
X138529448Y-71381522D02*
X138243734Y-71762475D01*
X138243734Y-71095808D02*
X138624686Y-71476760D01*
X137100877Y-70714856D02*
X137958019Y-72000570D01*
X136338972Y-71714856D02*
X136434210Y-71762475D01*
X136434210Y-71762475D02*
X136624686Y-71762475D01*
X136624686Y-71762475D02*
X136719924Y-71714856D01*
X136719924Y-71714856D02*
X136767543Y-71667236D01*
X136767543Y-71667236D02*
X136815162Y-71571998D01*
X136815162Y-71571998D02*
X136815162Y-71286284D01*
X136815162Y-71286284D02*
X136767543Y-71191046D01*
X136767543Y-71191046D02*
X136719924Y-71143427D01*
X136719924Y-71143427D02*
X136624686Y-71095808D01*
X136624686Y-71095808D02*
X136434210Y-71095808D01*
X136434210Y-71095808D02*
X136338972Y-71143427D01*
X135910400Y-71762475D02*
X135910400Y-70762475D01*
X135481829Y-71762475D02*
X135481829Y-71238665D01*
X135481829Y-71238665D02*
X135529448Y-71143427D01*
X135529448Y-71143427D02*
X135624686Y-71095808D01*
X135624686Y-71095808D02*
X135767543Y-71095808D01*
X135767543Y-71095808D02*
X135862781Y-71143427D01*
X135862781Y-71143427D02*
X135910400Y-71191046D01*
X134577067Y-71762475D02*
X134577067Y-71238665D01*
X134577067Y-71238665D02*
X134624686Y-71143427D01*
X134624686Y-71143427D02*
X134719924Y-71095808D01*
X134719924Y-71095808D02*
X134910400Y-71095808D01*
X134910400Y-71095808D02*
X135005638Y-71143427D01*
X134577067Y-71714856D02*
X134672305Y-71762475D01*
X134672305Y-71762475D02*
X134910400Y-71762475D01*
X134910400Y-71762475D02*
X135005638Y-71714856D01*
X135005638Y-71714856D02*
X135053257Y-71619617D01*
X135053257Y-71619617D02*
X135053257Y-71524379D01*
X135053257Y-71524379D02*
X135005638Y-71429141D01*
X135005638Y-71429141D02*
X134910400Y-71381522D01*
X134910400Y-71381522D02*
X134672305Y-71381522D01*
X134672305Y-71381522D02*
X134577067Y-71333903D01*
X134100876Y-71762475D02*
X134100876Y-71095808D01*
X134100876Y-71286284D02*
X134053257Y-71191046D01*
X134053257Y-71191046D02*
X134005638Y-71143427D01*
X134005638Y-71143427D02*
X133910400Y-71095808D01*
X133910400Y-71095808D02*
X133815162Y-71095808D01*
X133053257Y-71095808D02*
X133053257Y-71905332D01*
X133053257Y-71905332D02*
X133100876Y-72000570D01*
X133100876Y-72000570D02*
X133148495Y-72048189D01*
X133148495Y-72048189D02*
X133243733Y-72095808D01*
X133243733Y-72095808D02*
X133386590Y-72095808D01*
X133386590Y-72095808D02*
X133481828Y-72048189D01*
X133053257Y-71714856D02*
X133148495Y-71762475D01*
X133148495Y-71762475D02*
X133338971Y-71762475D01*
X133338971Y-71762475D02*
X133434209Y-71714856D01*
X133434209Y-71714856D02*
X133481828Y-71667236D01*
X133481828Y-71667236D02*
X133529447Y-71571998D01*
X133529447Y-71571998D02*
X133529447Y-71286284D01*
X133529447Y-71286284D02*
X133481828Y-71191046D01*
X133481828Y-71191046D02*
X133434209Y-71143427D01*
X133434209Y-71143427D02*
X133338971Y-71095808D01*
X133338971Y-71095808D02*
X133148495Y-71095808D01*
X133148495Y-71095808D02*
X133053257Y-71143427D01*
X132196114Y-71714856D02*
X132291352Y-71762475D01*
X132291352Y-71762475D02*
X132481828Y-71762475D01*
X132481828Y-71762475D02*
X132577066Y-71714856D01*
X132577066Y-71714856D02*
X132624685Y-71619617D01*
X132624685Y-71619617D02*
X132624685Y-71238665D01*
X132624685Y-71238665D02*
X132577066Y-71143427D01*
X132577066Y-71143427D02*
X132481828Y-71095808D01*
X132481828Y-71095808D02*
X132291352Y-71095808D01*
X132291352Y-71095808D02*
X132196114Y-71143427D01*
X132196114Y-71143427D02*
X132148495Y-71238665D01*
X132148495Y-71238665D02*
X132148495Y-71333903D01*
X132148495Y-71333903D02*
X132624685Y-71429141D01*
X131719923Y-71762475D02*
X131719923Y-71095808D01*
X131719923Y-71286284D02*
X131672304Y-71191046D01*
X131672304Y-71191046D02*
X131624685Y-71143427D01*
X131624685Y-71143427D02*
X131529447Y-71095808D01*
X131529447Y-71095808D02*
X131434209Y-71095808D01*
X130338970Y-71762475D02*
X130338970Y-71095808D01*
X130338970Y-71286284D02*
X130291351Y-71191046D01*
X130291351Y-71191046D02*
X130243732Y-71143427D01*
X130243732Y-71143427D02*
X130148494Y-71095808D01*
X130148494Y-71095808D02*
X130053256Y-71095808D01*
X129338970Y-71714856D02*
X129434208Y-71762475D01*
X129434208Y-71762475D02*
X129624684Y-71762475D01*
X129624684Y-71762475D02*
X129719922Y-71714856D01*
X129719922Y-71714856D02*
X129767541Y-71619617D01*
X129767541Y-71619617D02*
X129767541Y-71238665D01*
X129767541Y-71238665D02*
X129719922Y-71143427D01*
X129719922Y-71143427D02*
X129624684Y-71095808D01*
X129624684Y-71095808D02*
X129434208Y-71095808D01*
X129434208Y-71095808D02*
X129338970Y-71143427D01*
X129338970Y-71143427D02*
X129291351Y-71238665D01*
X129291351Y-71238665D02*
X129291351Y-71333903D01*
X129291351Y-71333903D02*
X129767541Y-71429141D01*
X128958017Y-71095808D02*
X128719922Y-71762475D01*
X128719922Y-71762475D02*
X128481827Y-71095808D01*
X126815160Y-71762475D02*
X127386588Y-71762475D01*
X127100874Y-71762475D02*
X127100874Y-70762475D01*
X127100874Y-70762475D02*
X127196112Y-70905332D01*
X127196112Y-70905332D02*
X127291350Y-71000570D01*
X127291350Y-71000570D02*
X127386588Y-71048189D01*
X161196115Y-73372419D02*
X161196115Y-72372419D01*
X161196115Y-72753371D02*
X161100877Y-72705752D01*
X161100877Y-72705752D02*
X160910401Y-72705752D01*
X160910401Y-72705752D02*
X160815163Y-72753371D01*
X160815163Y-72753371D02*
X160767544Y-72800990D01*
X160767544Y-72800990D02*
X160719925Y-72896228D01*
X160719925Y-72896228D02*
X160719925Y-73181942D01*
X160719925Y-73181942D02*
X160767544Y-73277180D01*
X160767544Y-73277180D02*
X160815163Y-73324800D01*
X160815163Y-73324800D02*
X160910401Y-73372419D01*
X160910401Y-73372419D02*
X161100877Y-73372419D01*
X161100877Y-73372419D02*
X161196115Y-73324800D01*
X160386591Y-72705752D02*
X160148496Y-73372419D01*
X159910401Y-72705752D02*
X160148496Y-73372419D01*
X160148496Y-73372419D02*
X160243734Y-73610514D01*
X160243734Y-73610514D02*
X160291353Y-73658133D01*
X160291353Y-73658133D02*
X160386591Y-73705752D01*
X158767543Y-73372419D02*
X158767543Y-72372419D01*
X158196115Y-73372419D02*
X158624686Y-72800990D01*
X158196115Y-72372419D02*
X158767543Y-72943847D01*
X157386591Y-73324800D02*
X157481829Y-73372419D01*
X157481829Y-73372419D02*
X157672305Y-73372419D01*
X157672305Y-73372419D02*
X157767543Y-73324800D01*
X157767543Y-73324800D02*
X157815162Y-73229561D01*
X157815162Y-73229561D02*
X157815162Y-72848609D01*
X157815162Y-72848609D02*
X157767543Y-72753371D01*
X157767543Y-72753371D02*
X157672305Y-72705752D01*
X157672305Y-72705752D02*
X157481829Y-72705752D01*
X157481829Y-72705752D02*
X157386591Y-72753371D01*
X157386591Y-72753371D02*
X157338972Y-72848609D01*
X157338972Y-72848609D02*
X157338972Y-72943847D01*
X157338972Y-72943847D02*
X157815162Y-73039085D01*
X157005638Y-72705752D02*
X156767543Y-73372419D01*
X156767543Y-73372419D02*
X156529448Y-72705752D01*
X156148495Y-73372419D02*
X156148495Y-72705752D01*
X156148495Y-72372419D02*
X156196114Y-72420038D01*
X156196114Y-72420038D02*
X156148495Y-72467657D01*
X156148495Y-72467657D02*
X156100876Y-72420038D01*
X156100876Y-72420038D02*
X156148495Y-72372419D01*
X156148495Y-72372419D02*
X156148495Y-72467657D01*
X155672305Y-72705752D02*
X155672305Y-73372419D01*
X155672305Y-72800990D02*
X155624686Y-72753371D01*
X155624686Y-72753371D02*
X155529448Y-72705752D01*
X155529448Y-72705752D02*
X155386591Y-72705752D01*
X155386591Y-72705752D02*
X155291353Y-72753371D01*
X155291353Y-72753371D02*
X155243734Y-72848609D01*
X155243734Y-72848609D02*
X155243734Y-73372419D01*
X153481829Y-72420038D02*
X153577067Y-72372419D01*
X153577067Y-72372419D02*
X153719924Y-72372419D01*
X153719924Y-72372419D02*
X153862781Y-72420038D01*
X153862781Y-72420038D02*
X153958019Y-72515276D01*
X153958019Y-72515276D02*
X154005638Y-72610514D01*
X154005638Y-72610514D02*
X154053257Y-72800990D01*
X154053257Y-72800990D02*
X154053257Y-72943847D01*
X154053257Y-72943847D02*
X154005638Y-73134323D01*
X154005638Y-73134323D02*
X153958019Y-73229561D01*
X153958019Y-73229561D02*
X153862781Y-73324800D01*
X153862781Y-73324800D02*
X153719924Y-73372419D01*
X153719924Y-73372419D02*
X153624686Y-73372419D01*
X153624686Y-73372419D02*
X153481829Y-73324800D01*
X153481829Y-73324800D02*
X153434210Y-73277180D01*
X153434210Y-73277180D02*
X153434210Y-72943847D01*
X153434210Y-72943847D02*
X153624686Y-72943847D01*
X152862781Y-73372419D02*
X152958019Y-73324800D01*
X152958019Y-73324800D02*
X153005638Y-73277180D01*
X153005638Y-73277180D02*
X153053257Y-73181942D01*
X153053257Y-73181942D02*
X153053257Y-72896228D01*
X153053257Y-72896228D02*
X153005638Y-72800990D01*
X153005638Y-72800990D02*
X152958019Y-72753371D01*
X152958019Y-72753371D02*
X152862781Y-72705752D01*
X152862781Y-72705752D02*
X152719924Y-72705752D01*
X152719924Y-72705752D02*
X152624686Y-72753371D01*
X152624686Y-72753371D02*
X152577067Y-72800990D01*
X152577067Y-72800990D02*
X152529448Y-72896228D01*
X152529448Y-72896228D02*
X152529448Y-73181942D01*
X152529448Y-73181942D02*
X152577067Y-73277180D01*
X152577067Y-73277180D02*
X152624686Y-73324800D01*
X152624686Y-73324800D02*
X152719924Y-73372419D01*
X152719924Y-73372419D02*
X152862781Y-73372419D01*
X152100876Y-73372419D02*
X152100876Y-72372419D01*
X151672305Y-73372419D02*
X151672305Y-72848609D01*
X151672305Y-72848609D02*
X151719924Y-72753371D01*
X151719924Y-72753371D02*
X151815162Y-72705752D01*
X151815162Y-72705752D02*
X151958019Y-72705752D01*
X151958019Y-72705752D02*
X152053257Y-72753371D01*
X152053257Y-72753371D02*
X152100876Y-72800990D01*
X108196115Y-63991466D02*
X107434211Y-63991466D01*
X107815163Y-64372419D02*
X107815163Y-63610514D01*
X106481830Y-63372419D02*
X106958020Y-63372419D01*
X106958020Y-63372419D02*
X107005639Y-63848609D01*
X107005639Y-63848609D02*
X106958020Y-63800990D01*
X106958020Y-63800990D02*
X106862782Y-63753371D01*
X106862782Y-63753371D02*
X106624687Y-63753371D01*
X106624687Y-63753371D02*
X106529449Y-63800990D01*
X106529449Y-63800990D02*
X106481830Y-63848609D01*
X106481830Y-63848609D02*
X106434211Y-63943847D01*
X106434211Y-63943847D02*
X106434211Y-64181942D01*
X106434211Y-64181942D02*
X106481830Y-64277180D01*
X106481830Y-64277180D02*
X106529449Y-64324800D01*
X106529449Y-64324800D02*
X106624687Y-64372419D01*
X106624687Y-64372419D02*
X106862782Y-64372419D01*
X106862782Y-64372419D02*
X106958020Y-64324800D01*
X106958020Y-64324800D02*
X107005639Y-64277180D01*
X106148496Y-63372419D02*
X105815163Y-64372419D01*
X105815163Y-64372419D02*
X105481830Y-63372419D01*
X104196115Y-63372419D02*
X104005639Y-63372419D01*
X104005639Y-63372419D02*
X103910401Y-63420038D01*
X103910401Y-63420038D02*
X103815163Y-63515276D01*
X103815163Y-63515276D02*
X103767544Y-63705752D01*
X103767544Y-63705752D02*
X103767544Y-64039085D01*
X103767544Y-64039085D02*
X103815163Y-64229561D01*
X103815163Y-64229561D02*
X103910401Y-64324800D01*
X103910401Y-64324800D02*
X104005639Y-64372419D01*
X104005639Y-64372419D02*
X104196115Y-64372419D01*
X104196115Y-64372419D02*
X104291353Y-64324800D01*
X104291353Y-64324800D02*
X104386591Y-64229561D01*
X104386591Y-64229561D02*
X104434210Y-64039085D01*
X104434210Y-64039085D02*
X104434210Y-63705752D01*
X104434210Y-63705752D02*
X104386591Y-63515276D01*
X104386591Y-63515276D02*
X104291353Y-63420038D01*
X104291353Y-63420038D02*
X104196115Y-63372419D01*
X103338972Y-63372419D02*
X103338972Y-64181942D01*
X103338972Y-64181942D02*
X103291353Y-64277180D01*
X103291353Y-64277180D02*
X103243734Y-64324800D01*
X103243734Y-64324800D02*
X103148496Y-64372419D01*
X103148496Y-64372419D02*
X102958020Y-64372419D01*
X102958020Y-64372419D02*
X102862782Y-64324800D01*
X102862782Y-64324800D02*
X102815163Y-64277180D01*
X102815163Y-64277180D02*
X102767544Y-64181942D01*
X102767544Y-64181942D02*
X102767544Y-63372419D01*
X102434210Y-63372419D02*
X101862782Y-63372419D01*
X102148496Y-64372419D02*
X102148496Y-63372419D01*
X97627580Y-63719925D02*
X97627580Y-64196115D01*
X97627580Y-64196115D02*
X97151390Y-64243734D01*
X97151390Y-64243734D02*
X97199009Y-64196115D01*
X97199009Y-64196115D02*
X97246628Y-64100877D01*
X97246628Y-64100877D02*
X97246628Y-63862782D01*
X97246628Y-63862782D02*
X97199009Y-63767544D01*
X97199009Y-63767544D02*
X97151390Y-63719925D01*
X97151390Y-63719925D02*
X97056152Y-63672306D01*
X97056152Y-63672306D02*
X96818057Y-63672306D01*
X96818057Y-63672306D02*
X96722819Y-63719925D01*
X96722819Y-63719925D02*
X96675200Y-63767544D01*
X96675200Y-63767544D02*
X96627580Y-63862782D01*
X96627580Y-63862782D02*
X96627580Y-64100877D01*
X96627580Y-64100877D02*
X96675200Y-64196115D01*
X96675200Y-64196115D02*
X96722819Y-64243734D01*
X97627580Y-63386591D02*
X96627580Y-63053258D01*
X96627580Y-63053258D02*
X97627580Y-62719925D01*
X97675200Y-61672306D02*
X96389485Y-62529448D01*
X97532342Y-61386591D02*
X97579961Y-61338972D01*
X97579961Y-61338972D02*
X97627580Y-61243734D01*
X97627580Y-61243734D02*
X97627580Y-61005639D01*
X97627580Y-61005639D02*
X97579961Y-60910401D01*
X97579961Y-60910401D02*
X97532342Y-60862782D01*
X97532342Y-60862782D02*
X97437104Y-60815163D01*
X97437104Y-60815163D02*
X97341866Y-60815163D01*
X97341866Y-60815163D02*
X97199009Y-60862782D01*
X97199009Y-60862782D02*
X96627580Y-61434210D01*
X96627580Y-61434210D02*
X96627580Y-60815163D01*
X96722819Y-60386591D02*
X96675200Y-60338972D01*
X96675200Y-60338972D02*
X96627580Y-60386591D01*
X96627580Y-60386591D02*
X96675200Y-60434210D01*
X96675200Y-60434210D02*
X96722819Y-60386591D01*
X96722819Y-60386591D02*
X96627580Y-60386591D01*
X96627580Y-59386592D02*
X96627580Y-59958020D01*
X96627580Y-59672306D02*
X97627580Y-59672306D01*
X97627580Y-59672306D02*
X97484723Y-59767544D01*
X97484723Y-59767544D02*
X97389485Y-59862782D01*
X97389485Y-59862782D02*
X97341866Y-59958020D01*
X96913295Y-59005639D02*
X96913295Y-58529449D01*
X96627580Y-59100877D02*
X97627580Y-58767544D01*
X97627580Y-58767544D02*
X96627580Y-58434211D01*
X112477068Y-74421371D02*
X112819925Y-74421371D01*
X112648496Y-74421371D02*
X112648496Y-73821371D01*
X112648496Y-73821371D02*
X112705639Y-73907085D01*
X112705639Y-73907085D02*
X112762782Y-73964228D01*
X112762782Y-73964228D02*
X112819925Y-73992800D01*
X112105639Y-73821371D02*
X112048496Y-73821371D01*
X112048496Y-73821371D02*
X111991353Y-73849942D01*
X111991353Y-73849942D02*
X111962782Y-73878514D01*
X111962782Y-73878514D02*
X111934210Y-73935657D01*
X111934210Y-73935657D02*
X111905639Y-74049942D01*
X111905639Y-74049942D02*
X111905639Y-74192800D01*
X111905639Y-74192800D02*
X111934210Y-74307085D01*
X111934210Y-74307085D02*
X111962782Y-74364228D01*
X111962782Y-74364228D02*
X111991353Y-74392800D01*
X111991353Y-74392800D02*
X112048496Y-74421371D01*
X112048496Y-74421371D02*
X112105639Y-74421371D01*
X112105639Y-74421371D02*
X112162782Y-74392800D01*
X112162782Y-74392800D02*
X112191353Y-74364228D01*
X112191353Y-74364228D02*
X112219924Y-74307085D01*
X112219924Y-74307085D02*
X112248496Y-74192800D01*
X112248496Y-74192800D02*
X112248496Y-74049942D01*
X112248496Y-74049942D02*
X112219924Y-73935657D01*
X112219924Y-73935657D02*
X112191353Y-73878514D01*
X112191353Y-73878514D02*
X112162782Y-73849942D01*
X112162782Y-73849942D02*
X112105639Y-73821371D01*
X111534210Y-73821371D02*
X111477067Y-73821371D01*
X111477067Y-73821371D02*
X111419924Y-73849942D01*
X111419924Y-73849942D02*
X111391353Y-73878514D01*
X111391353Y-73878514D02*
X111362781Y-73935657D01*
X111362781Y-73935657D02*
X111334210Y-74049942D01*
X111334210Y-74049942D02*
X111334210Y-74192800D01*
X111334210Y-74192800D02*
X111362781Y-74307085D01*
X111362781Y-74307085D02*
X111391353Y-74364228D01*
X111391353Y-74364228D02*
X111419924Y-74392800D01*
X111419924Y-74392800D02*
X111477067Y-74421371D01*
X111477067Y-74421371D02*
X111534210Y-74421371D01*
X111534210Y-74421371D02*
X111591353Y-74392800D01*
X111591353Y-74392800D02*
X111619924Y-74364228D01*
X111619924Y-74364228D02*
X111648495Y-74307085D01*
X111648495Y-74307085D02*
X111677067Y-74192800D01*
X111677067Y-74192800D02*
X111677067Y-74049942D01*
X111677067Y-74049942D02*
X111648495Y-73935657D01*
X111648495Y-73935657D02*
X111619924Y-73878514D01*
X111619924Y-73878514D02*
X111591353Y-73849942D01*
X111591353Y-73849942D02*
X111534210Y-73821371D01*
X111105638Y-74421371D02*
X110648495Y-73821371D01*
X111019924Y-73821371D02*
X110962781Y-73849942D01*
X110962781Y-73849942D02*
X110934209Y-73907085D01*
X110934209Y-73907085D02*
X110962781Y-73964228D01*
X110962781Y-73964228D02*
X111019924Y-73992800D01*
X111019924Y-73992800D02*
X111077066Y-73964228D01*
X111077066Y-73964228D02*
X111105638Y-73907085D01*
X111105638Y-73907085D02*
X111077066Y-73849942D01*
X111077066Y-73849942D02*
X111019924Y-73821371D01*
X110677066Y-74392800D02*
X110648495Y-74335657D01*
X110648495Y-74335657D02*
X110677066Y-74278514D01*
X110677066Y-74278514D02*
X110734209Y-74249942D01*
X110734209Y-74249942D02*
X110791352Y-74278514D01*
X110791352Y-74278514D02*
X110819924Y-74335657D01*
X110819924Y-74335657D02*
X110791352Y-74392800D01*
X110791352Y-74392800D02*
X110734209Y-74421371D01*
X110734209Y-74421371D02*
X110677066Y-74392800D01*
X109991352Y-73821371D02*
X109591352Y-73821371D01*
X109591352Y-73821371D02*
X109848495Y-74421371D01*
X109077066Y-73821371D02*
X109362780Y-73821371D01*
X109362780Y-73821371D02*
X109391352Y-74107085D01*
X109391352Y-74107085D02*
X109362780Y-74078514D01*
X109362780Y-74078514D02*
X109305638Y-74049942D01*
X109305638Y-74049942D02*
X109162780Y-74049942D01*
X109162780Y-74049942D02*
X109105638Y-74078514D01*
X109105638Y-74078514D02*
X109077066Y-74107085D01*
X109077066Y-74107085D02*
X109048495Y-74164228D01*
X109048495Y-74164228D02*
X109048495Y-74307085D01*
X109048495Y-74307085D02*
X109077066Y-74364228D01*
X109077066Y-74364228D02*
X109105638Y-74392800D01*
X109105638Y-74392800D02*
X109162780Y-74421371D01*
X109162780Y-74421371D02*
X109305638Y-74421371D01*
X109305638Y-74421371D02*
X109362780Y-74392800D01*
X109362780Y-74392800D02*
X109391352Y-74364228D01*
X108819923Y-74421371D02*
X108362780Y-73821371D01*
X108734209Y-73821371D02*
X108677066Y-73849942D01*
X108677066Y-73849942D02*
X108648494Y-73907085D01*
X108648494Y-73907085D02*
X108677066Y-73964228D01*
X108677066Y-73964228D02*
X108734209Y-73992800D01*
X108734209Y-73992800D02*
X108791351Y-73964228D01*
X108791351Y-73964228D02*
X108819923Y-73907085D01*
X108819923Y-73907085D02*
X108791351Y-73849942D01*
X108791351Y-73849942D02*
X108734209Y-73821371D01*
X108391351Y-74392800D02*
X108362780Y-74335657D01*
X108362780Y-74335657D02*
X108391351Y-74278514D01*
X108391351Y-74278514D02*
X108448494Y-74249942D01*
X108448494Y-74249942D02*
X108505637Y-74278514D01*
X108505637Y-74278514D02*
X108534209Y-74335657D01*
X108534209Y-74335657D02*
X108505637Y-74392800D01*
X108505637Y-74392800D02*
X108448494Y-74421371D01*
X108448494Y-74421371D02*
X108391351Y-74392800D01*
X107362780Y-73821371D02*
X107648494Y-73821371D01*
X107648494Y-73821371D02*
X107677066Y-74107085D01*
X107677066Y-74107085D02*
X107648494Y-74078514D01*
X107648494Y-74078514D02*
X107591352Y-74049942D01*
X107591352Y-74049942D02*
X107448494Y-74049942D01*
X107448494Y-74049942D02*
X107391352Y-74078514D01*
X107391352Y-74078514D02*
X107362780Y-74107085D01*
X107362780Y-74107085D02*
X107334209Y-74164228D01*
X107334209Y-74164228D02*
X107334209Y-74307085D01*
X107334209Y-74307085D02*
X107362780Y-74364228D01*
X107362780Y-74364228D02*
X107391352Y-74392800D01*
X107391352Y-74392800D02*
X107448494Y-74421371D01*
X107448494Y-74421371D02*
X107591352Y-74421371D01*
X107591352Y-74421371D02*
X107648494Y-74392800D01*
X107648494Y-74392800D02*
X107677066Y-74364228D01*
X106962780Y-73821371D02*
X106905637Y-73821371D01*
X106905637Y-73821371D02*
X106848494Y-73849942D01*
X106848494Y-73849942D02*
X106819923Y-73878514D01*
X106819923Y-73878514D02*
X106791351Y-73935657D01*
X106791351Y-73935657D02*
X106762780Y-74049942D01*
X106762780Y-74049942D02*
X106762780Y-74192800D01*
X106762780Y-74192800D02*
X106791351Y-74307085D01*
X106791351Y-74307085D02*
X106819923Y-74364228D01*
X106819923Y-74364228D02*
X106848494Y-74392800D01*
X106848494Y-74392800D02*
X106905637Y-74421371D01*
X106905637Y-74421371D02*
X106962780Y-74421371D01*
X106962780Y-74421371D02*
X107019923Y-74392800D01*
X107019923Y-74392800D02*
X107048494Y-74364228D01*
X107048494Y-74364228D02*
X107077065Y-74307085D01*
X107077065Y-74307085D02*
X107105637Y-74192800D01*
X107105637Y-74192800D02*
X107105637Y-74049942D01*
X107105637Y-74049942D02*
X107077065Y-73935657D01*
X107077065Y-73935657D02*
X107048494Y-73878514D01*
X107048494Y-73878514D02*
X107019923Y-73849942D01*
X107019923Y-73849942D02*
X106962780Y-73821371D01*
X106534208Y-74421371D02*
X106077065Y-73821371D01*
X106448494Y-73821371D02*
X106391351Y-73849942D01*
X106391351Y-73849942D02*
X106362779Y-73907085D01*
X106362779Y-73907085D02*
X106391351Y-73964228D01*
X106391351Y-73964228D02*
X106448494Y-73992800D01*
X106448494Y-73992800D02*
X106505636Y-73964228D01*
X106505636Y-73964228D02*
X106534208Y-73907085D01*
X106534208Y-73907085D02*
X106505636Y-73849942D01*
X106505636Y-73849942D02*
X106448494Y-73821371D01*
X106105636Y-74392800D02*
X106077065Y-74335657D01*
X106077065Y-74335657D02*
X106105636Y-74278514D01*
X106105636Y-74278514D02*
X106162779Y-74249942D01*
X106162779Y-74249942D02*
X106219922Y-74278514D01*
X106219922Y-74278514D02*
X106248494Y-74335657D01*
X106248494Y-74335657D02*
X106219922Y-74392800D01*
X106219922Y-74392800D02*
X106162779Y-74421371D01*
X106162779Y-74421371D02*
X106105636Y-74392800D01*
X105391351Y-73878514D02*
X105362779Y-73849942D01*
X105362779Y-73849942D02*
X105305637Y-73821371D01*
X105305637Y-73821371D02*
X105162779Y-73821371D01*
X105162779Y-73821371D02*
X105105637Y-73849942D01*
X105105637Y-73849942D02*
X105077065Y-73878514D01*
X105077065Y-73878514D02*
X105048494Y-73935657D01*
X105048494Y-73935657D02*
X105048494Y-73992800D01*
X105048494Y-73992800D02*
X105077065Y-74078514D01*
X105077065Y-74078514D02*
X105419922Y-74421371D01*
X105419922Y-74421371D02*
X105048494Y-74421371D01*
X104505636Y-73821371D02*
X104791350Y-73821371D01*
X104791350Y-73821371D02*
X104819922Y-74107085D01*
X104819922Y-74107085D02*
X104791350Y-74078514D01*
X104791350Y-74078514D02*
X104734208Y-74049942D01*
X104734208Y-74049942D02*
X104591350Y-74049942D01*
X104591350Y-74049942D02*
X104534208Y-74078514D01*
X104534208Y-74078514D02*
X104505636Y-74107085D01*
X104505636Y-74107085D02*
X104477065Y-74164228D01*
X104477065Y-74164228D02*
X104477065Y-74307085D01*
X104477065Y-74307085D02*
X104505636Y-74364228D01*
X104505636Y-74364228D02*
X104534208Y-74392800D01*
X104534208Y-74392800D02*
X104591350Y-74421371D01*
X104591350Y-74421371D02*
X104734208Y-74421371D01*
X104734208Y-74421371D02*
X104791350Y-74392800D01*
X104791350Y-74392800D02*
X104819922Y-74364228D01*
X104248493Y-74421371D02*
X103791350Y-73821371D01*
X104162779Y-73821371D02*
X104105636Y-73849942D01*
X104105636Y-73849942D02*
X104077064Y-73907085D01*
X104077064Y-73907085D02*
X104105636Y-73964228D01*
X104105636Y-73964228D02*
X104162779Y-73992800D01*
X104162779Y-73992800D02*
X104219921Y-73964228D01*
X104219921Y-73964228D02*
X104248493Y-73907085D01*
X104248493Y-73907085D02*
X104219921Y-73849942D01*
X104219921Y-73849942D02*
X104162779Y-73821371D01*
X103819921Y-74392800D02*
X103791350Y-74335657D01*
X103791350Y-74335657D02*
X103819921Y-74278514D01*
X103819921Y-74278514D02*
X103877064Y-74249942D01*
X103877064Y-74249942D02*
X103934207Y-74278514D01*
X103934207Y-74278514D02*
X103962779Y-74335657D01*
X103962779Y-74335657D02*
X103934207Y-74392800D01*
X103934207Y-74392800D02*
X103877064Y-74421371D01*
X103877064Y-74421371D02*
X103819921Y-74392800D01*
X96627580Y-71696115D02*
X97627580Y-71696115D01*
X96627580Y-71219925D02*
X97627580Y-71219925D01*
X97627580Y-71219925D02*
X96627580Y-70648497D01*
X96627580Y-70648497D02*
X97627580Y-70648497D01*
X96627580Y-70172306D02*
X97627580Y-70172306D01*
X97627580Y-70172306D02*
X97627580Y-69791354D01*
X97627580Y-69791354D02*
X97579961Y-69696116D01*
X97579961Y-69696116D02*
X97532342Y-69648497D01*
X97532342Y-69648497D02*
X97437104Y-69600878D01*
X97437104Y-69600878D02*
X97294247Y-69600878D01*
X97294247Y-69600878D02*
X97199009Y-69648497D01*
X97199009Y-69648497D02*
X97151390Y-69696116D01*
X97151390Y-69696116D02*
X97103771Y-69791354D01*
X97103771Y-69791354D02*
X97103771Y-70172306D01*
X97627580Y-69172306D02*
X96818057Y-69172306D01*
X96818057Y-69172306D02*
X96722819Y-69124687D01*
X96722819Y-69124687D02*
X96675200Y-69077068D01*
X96675200Y-69077068D02*
X96627580Y-68981830D01*
X96627580Y-68981830D02*
X96627580Y-68791354D01*
X96627580Y-68791354D02*
X96675200Y-68696116D01*
X96675200Y-68696116D02*
X96722819Y-68648497D01*
X96722819Y-68648497D02*
X96818057Y-68600878D01*
X96818057Y-68600878D02*
X97627580Y-68600878D01*
X97627580Y-68267544D02*
X97627580Y-67696116D01*
X96627580Y-67981830D02*
X97627580Y-67981830D01*
X97627580Y-56505639D02*
X97627580Y-56315163D01*
X97627580Y-56315163D02*
X97579961Y-56219925D01*
X97579961Y-56219925D02*
X97484723Y-56124687D01*
X97484723Y-56124687D02*
X97294247Y-56077068D01*
X97294247Y-56077068D02*
X96960914Y-56077068D01*
X96960914Y-56077068D02*
X96770438Y-56124687D01*
X96770438Y-56124687D02*
X96675200Y-56219925D01*
X96675200Y-56219925D02*
X96627580Y-56315163D01*
X96627580Y-56315163D02*
X96627580Y-56505639D01*
X96627580Y-56505639D02*
X96675200Y-56600877D01*
X96675200Y-56600877D02*
X96770438Y-56696115D01*
X96770438Y-56696115D02*
X96960914Y-56743734D01*
X96960914Y-56743734D02*
X97294247Y-56743734D01*
X97294247Y-56743734D02*
X97484723Y-56696115D01*
X97484723Y-56696115D02*
X97579961Y-56600877D01*
X97579961Y-56600877D02*
X97627580Y-56505639D01*
X97627580Y-55648496D02*
X96818057Y-55648496D01*
X96818057Y-55648496D02*
X96722819Y-55600877D01*
X96722819Y-55600877D02*
X96675200Y-55553258D01*
X96675200Y-55553258D02*
X96627580Y-55458020D01*
X96627580Y-55458020D02*
X96627580Y-55267544D01*
X96627580Y-55267544D02*
X96675200Y-55172306D01*
X96675200Y-55172306D02*
X96722819Y-55124687D01*
X96722819Y-55124687D02*
X96818057Y-55077068D01*
X96818057Y-55077068D02*
X97627580Y-55077068D01*
X97627580Y-54743734D02*
X97627580Y-54172306D01*
X96627580Y-54458020D02*
X97627580Y-54458020D01*
X96627580Y-53838972D02*
X97627580Y-53838972D01*
X97627580Y-53838972D02*
X97627580Y-53458020D01*
X97627580Y-53458020D02*
X97579961Y-53362782D01*
X97579961Y-53362782D02*
X97532342Y-53315163D01*
X97532342Y-53315163D02*
X97437104Y-53267544D01*
X97437104Y-53267544D02*
X97294247Y-53267544D01*
X97294247Y-53267544D02*
X97199009Y-53315163D01*
X97199009Y-53315163D02*
X97151390Y-53362782D01*
X97151390Y-53362782D02*
X97103771Y-53458020D01*
X97103771Y-53458020D02*
X97103771Y-53838972D01*
X97627580Y-52838972D02*
X96818057Y-52838972D01*
X96818057Y-52838972D02*
X96722819Y-52791353D01*
X96722819Y-52791353D02*
X96675200Y-52743734D01*
X96675200Y-52743734D02*
X96627580Y-52648496D01*
X96627580Y-52648496D02*
X96627580Y-52458020D01*
X96627580Y-52458020D02*
X96675200Y-52362782D01*
X96675200Y-52362782D02*
X96722819Y-52315163D01*
X96722819Y-52315163D02*
X96818057Y-52267544D01*
X96818057Y-52267544D02*
X97627580Y-52267544D01*
X97627580Y-51934210D02*
X97627580Y-51362782D01*
X96627580Y-51648496D02*
X97627580Y-51648496D01*
%LPC*%
D11*
%TO.C,U2*%
X102613000Y-65532000D03*
X98813000Y-65532000D03*
X102613000Y-74172000D03*
X98813000Y-74172000D03*
%TD*%
D12*
%TO.C,U6*%
X115000000Y-62000000D03*
X195000000Y-62000000D03*
%TD*%
D11*
%TO.C,U3*%
X102606000Y-49526000D03*
X98806000Y-49526000D03*
X102606000Y-58166000D03*
X98806000Y-58166000D03*
%TD*%
%LPD*%
M02*
