M48
; DRILL file {KiCad 9.0.6} date 2026-03-09T12:42:34+0800
; FORMAT={-:-/ absolute / inch / decimal}
; #@! TF.CreationDate,2026-03-09T12:42:34+08:00
; #@! TF.GenerationSoftware,Kicad,Pcbnew,9.0.6
; #@! TF.FileFunction,Plated,1,2,PTH
FMAT,2
INCH
; #@! TA.AperFunction,Plated,PTH,ViaDrill
T1C0.0118
; #@! TA.AperFunction,Plated,PTH,ComponentDrill
T2C0.0276
; #@! TA.AperFunction,Plated,PTH,ComponentDrill
T3C0.0394
%
G90
G05
T1
X3.8976Y-2.4606
X3.8976Y-2.5
X3.9173Y-2.4793
X3.937Y-2.4606
X3.9961Y-2.0079
X3.9961Y-2.4606
X3.9961Y-2.5
X4.0157Y-2.4793
X4.0354Y-2.4606
X4.0354Y-2.5
X4.0494Y-2.0136
X4.0494Y-2.2262
X4.0497Y-2.6438
X4.0497Y-2.8564
X4.0551Y-2.5197
X4.0945Y-2.2244
X4.0945Y-2.2638
X4.0945Y-2.3031
X4.0945Y-2.4803
X4.0945Y-2.5197
X4.0945Y-2.5591
X4.1142Y-2.0079
X4.1142Y-2.2441
X4.1142Y-2.2835
X4.1142Y-2.5
X4.13Y-2.6195
X4.1339Y-2.4803
X4.1339Y-2.5197
X4.1339Y-2.5591
X4.1535Y-2.0079
X4.1535Y-2.0866
X4.1732Y-2.0472
X4.1732Y-2.5197
X4.1732Y-2.5591
X4.1929Y-2.0079
X4.1929Y-2.0866
X4.2126Y-2.5
X4.2126Y-2.5394
X4.2215Y-2.0374
X4.2323Y-2.4803
X4.2323Y-2.5197
X4.2323Y-2.5591
X4.252Y-2.0079
X4.252Y-2.0866
X4.252Y-2.5
X4.252Y-2.5394
X4.2717Y-2.4803
X4.2717Y-2.5197
X4.2717Y-2.5591
X4.2913Y-2.5
X4.2913Y-2.5394
X4.311Y-2.4803
X4.311Y-2.5197
X4.311Y-2.5591
X4.3307Y-2.5
X4.3307Y-2.5394
X4.4094Y-2.5591
X4.4094Y-2.5984
X4.4117Y-2.5108
X4.4488Y-2.5394
X4.4488Y-2.5787
X4.4488Y-2.6181
X4.4882Y-2.5591
X4.4882Y-2.5984
X4.4882Y-2.6378
X4.4882Y-2.6772
X4.4882Y-2.7165
X4.4882Y-2.7559
X4.4882Y-2.7953
X4.4882Y-2.8346
X4.4882Y-2.874
X4.4882Y-2.9134
T2
G00X3.9057Y-1.9559
M15
G01X3.8743Y-1.9559
M16
G05
G00X3.9057Y-2.2961
M15
G01X3.8743Y-2.2961
M16
G05
G00X3.906Y-2.58
M15
G01X3.8745Y-2.58
M16
G05
G00X3.906Y-2.9202
M15
G01X3.8745Y-2.9202
M16
G05
G00X4.0554Y-1.9559
M15
G01X4.0239Y-1.9559
M16
G05
G00X4.0554Y-2.2961
M15
G01X4.0239Y-2.2961
M16
G05
G00X4.0556Y-2.58
M15
G01X4.0241Y-2.58
M16
G05
G00X4.0556Y-2.9202
M15
G01X4.0241Y-2.9202
M16
G05
T3
G00X4.5276Y-2.3878
M15
G01X4.5276Y-2.4941
M16
G05
G00X7.6772Y-2.3878
M15
G01X7.6772Y-2.4941
M16
G05
M30
