%TF.GenerationSoftware,KiCad,Pcbnew,9.0.6*%
%TF.CreationDate,2026-02-27T22:21:18+08:00*%
%TF.ProjectId,minipower,6d696e69-706f-4776-9572-2e6b69636164,rev?*%
%TF.SameCoordinates,Original*%
%TF.FileFunction,Soldermask,Top*%
%TF.FilePolarity,Negative*%
%FSLAX46Y46*%
G04 Gerber Fmt 4.6, Leading zero omitted, Abs format (unit mm)*
G04 Created by KiCad (PCBNEW 9.0.6) date 2026-02-27 22:21:18*
%MOMM*%
%LPD*%
G01*
G04 APERTURE LIST*
G04 Aperture macros list*
%AMRoundRect*
0 Rectangle with rounded corners*
0 $1 Rounding radius*
0 $2 $3 $4 $5 $6 $7 $8 $9 X,Y pos of 4 corners*
0 Add a 4 corners polygon primitive as box body*
4,1,4,$2,$3,$4,$5,$6,$7,$8,$9,$2,$3,0*
0 Add four circle primitives for the rounded corners*
1,1,$1+$1,$2,$3*
1,1,$1+$1,$4,$5*
1,1,$1+$1,$6,$7*
1,1,$1+$1,$8,$9*
0 Add four rect primitives between the rounded corners*
20,1,$1+$1,$2,$3,$4,$5,0*
20,1,$1+$1,$4,$5,$6,$7,0*
20,1,$1+$1,$6,$7,$8,$9,0*
20,1,$1+$1,$8,$9,$2,$3,0*%
G04 Aperture macros list end*
%ADD10R,0.600000X1.200000*%
%ADD11R,3.300000X2.400000*%
%ADD12R,2.000000X3.400000*%
%ADD13RoundRect,0.225000X-0.250000X0.225000X-0.250000X-0.225000X0.250000X-0.225000X0.250000X0.225000X0*%
%ADD14RoundRect,0.250000X-0.650000X0.325000X-0.650000X-0.325000X0.650000X-0.325000X0.650000X0.325000X0*%
%ADD15RoundRect,0.225000X0.250000X-0.225000X0.250000X0.225000X-0.250000X0.225000X-0.250000X-0.225000X0*%
%ADD16RoundRect,0.287778X-0.489222X-0.714222X0.489222X-0.714222X0.489222X0.714222X-0.489222X0.714222X0*%
%ADD17O,1.900000X1.100000*%
%ADD18R,1.200000X0.700000*%
%ADD19R,1.200000X0.800000*%
%ADD20RoundRect,0.135000X-0.135000X-0.185000X0.135000X-0.185000X0.135000X0.185000X-0.135000X0.185000X0*%
%ADD21RoundRect,0.225000X0.225000X0.250000X-0.225000X0.250000X-0.225000X-0.250000X0.225000X-0.250000X0*%
%ADD22RoundRect,0.200000X-0.275000X0.200000X-0.275000X-0.200000X0.275000X-0.200000X0.275000X0.200000X0*%
%ADD23RoundRect,0.135000X-0.185000X0.135000X-0.185000X-0.135000X0.185000X-0.135000X0.185000X0.135000X0*%
%ADD24RoundRect,0.218750X-0.256250X0.218750X-0.256250X-0.218750X0.256250X-0.218750X0.256250X0.218750X0*%
%ADD25RoundRect,0.218750X0.256250X-0.218750X0.256250X0.218750X-0.256250X0.218750X-0.256250X-0.218750X0*%
%ADD26RoundRect,0.135000X0.135000X0.185000X-0.135000X0.185000X-0.135000X-0.185000X0.135000X-0.185000X0*%
%ADD27O,1.500000X4.200000*%
%ADD28RoundRect,0.135000X0.185000X-0.135000X0.185000X0.135000X-0.185000X0.135000X-0.185000X-0.135000X0*%
%ADD29RoundRect,0.200000X0.200000X0.275000X-0.200000X0.275000X-0.200000X-0.275000X0.200000X-0.275000X0*%
G04 APERTURE END LIST*
D10*
%TO.C,U1*%
X106595000Y-66908500D03*
X107865000Y-66908500D03*
X109135000Y-66908500D03*
X110405000Y-66908500D03*
X110405000Y-61091500D03*
X109135000Y-61091500D03*
X107865000Y-61091500D03*
X106595000Y-61091500D03*
D11*
X108500000Y-64000000D03*
%TD*%
D12*
%TO.C,L2*%
X106199898Y-56567500D03*
X111800102Y-56567500D03*
%TD*%
D13*
%TO.C,C6*%
X105000000Y-72631000D03*
X105000000Y-74181000D03*
%TD*%
D14*
%TO.C,C5*%
X99500000Y-60025000D03*
X99500000Y-62975000D03*
%TD*%
D13*
%TO.C,C2*%
X112056000Y-62225000D03*
X112056000Y-63775000D03*
%TD*%
D15*
%TO.C,C1*%
X104902000Y-68085000D03*
X104902000Y-66535000D03*
%TD*%
D16*
%TO.C,S1*%
X106925000Y-73000000D03*
X111075000Y-73000000D03*
%TD*%
D17*
%TO.C,U2*%
X102613000Y-65532000D03*
X98813000Y-65532000D03*
X102613000Y-74172000D03*
X98813000Y-74172000D03*
D18*
X102863000Y-69352000D03*
X102863000Y-71352000D03*
D19*
X102863000Y-72552000D03*
D18*
X102863000Y-70352000D03*
X102863000Y-68352000D03*
D19*
X102863000Y-67152000D03*
%TD*%
D20*
%TO.C,R6*%
X100990000Y-64262000D03*
X102010000Y-64262000D03*
%TD*%
D21*
%TO.C,C7*%
X108775000Y-52000000D03*
X107225000Y-52000000D03*
%TD*%
D22*
%TO.C,R3*%
X105000000Y-69533000D03*
X105000000Y-71183000D03*
%TD*%
D23*
%TO.C,R1*%
X112500000Y-72490000D03*
X112500000Y-73510000D03*
%TD*%
D24*
%TO.C,D2*%
X108500000Y-68660500D03*
X108500000Y-70235500D03*
%TD*%
D25*
%TO.C,D1*%
X106722000Y-70210000D03*
X106722000Y-68635000D03*
%TD*%
D26*
%TO.C,R5*%
X100010000Y-64262000D03*
X98990000Y-64262000D03*
%TD*%
D23*
%TO.C,R7*%
X104500000Y-54490000D03*
X104500000Y-55510000D03*
%TD*%
D27*
%TO.C,U6*%
X115000000Y-62000000D03*
X195000000Y-62000000D03*
%TD*%
D24*
%TO.C,D4*%
X111548000Y-68660500D03*
X111548000Y-70235500D03*
%TD*%
D14*
%TO.C,C4*%
X102000000Y-60025000D03*
X102000000Y-62975000D03*
%TD*%
D25*
%TO.C,D3*%
X110024000Y-70235500D03*
X110024000Y-68660500D03*
%TD*%
D28*
%TO.C,R8*%
X104500000Y-53510000D03*
X104500000Y-52490000D03*
%TD*%
D29*
%TO.C,R4*%
X112325000Y-52000000D03*
X110675000Y-52000000D03*
%TD*%
D17*
%TO.C,U3*%
X102606000Y-49526000D03*
X98806000Y-49526000D03*
X102606000Y-58166000D03*
X98806000Y-58166000D03*
D18*
X102856000Y-53346000D03*
X102856000Y-55346000D03*
D19*
X102856000Y-56546000D03*
D18*
X102856000Y-54346000D03*
X102856000Y-52346000D03*
D19*
X102856000Y-51146000D03*
%TD*%
D14*
%TO.C,C3*%
X104500000Y-60525000D03*
X104500000Y-63475000D03*
%TD*%
M02*
